<svg id="Layer_1" data-name="Layer 1" xmlns="http://www.w3.org/2000/svg" viewBox="0 0 1920 1080"><defs><style>.cls-1{fill:#7c4735;}.cls-2{fill:#efb27b;}.cls-3{fill:#380a21;}.cls-3,.cls-5{stroke:#000;}.cls-10,.cls-3,.cls-5{stroke-miterlimit:10;}.cls-4{fill:#e5e1dc;}.cls-10,.cls-5{fill:none;}.cls-6{fill:#492920;}.cls-7{fill:#b7aea1;}.cls-8{fill:#720f35;}.cls-9{fill:#44413f;}.cls-10{stroke:#492920;}.cls-11{fill:#4c322b;}.cls-12{fill:#5b5550;}.cls-13{fill:#726c67;}.cls-14{fill:#a3a19f;}.cls-15{fill:#0c2120;}.cls-16{fill:#2d2520;}.cls-17{fill:#323d3d;}.cls-18{fill:#182626;}.cls-19{fill:#75411a;}.cls-20{fill:#8c6628;}</style></defs><title>bjorn</title><path class="cls-1" d="M505.53,265.26c-17.57-23.2-51-76.56-59.33-92.81-4.81-9.44-7.79-32.81-16.41-54.85a88.21,88.21,0,0,1,10.94-13.93C451,92.9,449,74.34,450,70.36s-6.47-14.75-27.85-13.09c-12.59,1-20.38,11.27-24.52,19.55-31.66-16.57-85-3.64-97-.49C295.21,71,287.59,64.39,285.77,63.4c-2.82-1.49-25-15.41-36.13,3.81-9.29,16.08,12.09,37.79,19.72,44.92-8.12,13.42-17.57,30.49-31.82,54.19-30.66,51.05-89.17,121.48-107.73,185-1,71.93,28.84,62.65,110.38,57.18s132.75,13.92,252.41,14.75S523.26,288.47,505.53,265.26Z"/><path class="cls-2" d="M289.41,81.13S274.5,99.7,271.84,99.7,257.92,85.77,264.39,78,279.14,67.88,289.41,81.13Z"/><path class="cls-2" d="M407.25,82.63s12.1,16.24,13.92,17.73S450,82.63,436.09,74.84C422,67.05,407.25,82.63,407.25,82.63Z"/><path class="cls-2" d="M287.42,272.23c-38.78,7.29-69.61,34-79.88,53.36s-19.56,45.58-7.46,54.86,36.13,20.05,64,13.92,60.33-13.92,83.53-10.77S406.92,396,419,393.71s38.94-6.13,23.2-34.81-51.05-84.35-97.45-86.67C298.69,269.91,308,268.25,287.42,272.23Z"/><path class="cls-2" d="M293.06,178.59C283,188.2,281.62,186,263.39,199.47c-23.86,17.73-37,27.34-35.3,38.61,1.66,11.61,17.73,18.24,18.56,18.57,15.91,6.29,26.35-2.16,56.68-3.82a205.68,205.68,0,0,1,51.05,3.82c30.66,5.8,36.46,13.92,52,11.6,14.75-2.32,31.16-11.44,35.3-24.7,5.31-17.07-12.26-33-20.38-40.27-15.09-13.42-21.38-9.45-40.77-23.2-26.69-18.73-30.83-37.46-44.75-36.3-4,.33-8.29,3.48-16.74,10.11C306.15,163.67,301.68,170.3,293.06,178.59Z"/><path d="M277.31,200.13s-1.16.33-3.15,1c-6.29,2.32-20.05,8.12-22.87,15.24-3.64,9.28-11.1,19.39,0,23.21s24.2,2.32,33.48,1.49,41.77-4.64,53.86-1.49,33.48,11.6,42.76,12.43,42.76-2.32,38.95-19.39-4.64-31.66-26-32.49-37.12,8.45-52,6.13-44.58-9.28-54.69-7.79Z"/><path class="cls-3" d="M291.23,207.09s-21.37,3.81-28.83,9.28-11.11,10.78-8.29,14.75c2.82,3.82,12.1,7.79,28.84,3.82,16.74-3.82,53.86-7,78.89,1.49s37.12,7,41.76.83,10.28-21.72-8.28-25.53-36.13,1.49-54.7,1.49C321.9,213.39,302.34,204.77,291.23,207.09Z"/><path class="cls-4" d="M317.26,211.07s-1,9.28-1,10.77,11.1.83,11.1-1.49,1.83-10.77,0-10.77C325.54,209.41,317.26,207.92,317.26,211.07Z"/><path class="cls-4" d="M334.82,210.24s1,10.11,2.82,11.6,13.92-.83,14.92-1.49c1-.83-4.64-12.43-6.47-11.6S334.82,207.92,334.82,210.24Z"/><path d="M331.18,153.73c-1.33.82-16.91,9.44-13.92,17.07a7.6,7.6,0,0,0,3.64,3.81c3.81,1.82,6.8-.66,13.92,0,4.81.5,5.14,1.82,9.28,1.49.67,0,7.13-.33,8.29-3.15.83-2-2-3.65-6.46-9.28-5.8-7.13-6.47-11.27-10.28-11.6C334.66,152.07,333.66,152.4,331.18,153.73Z"/><path class="cls-5" d="M321.9,183.23s0,13.92,11.1,3.15c4.64-10.78,0-13.1,0-13.1s-1,13.1,0,15.42,12.1,6.13,13.92-1.5"/><ellipse cx="307.48" cy="133.67" rx="11.6" ry="10.11"/><ellipse cx="361.67" cy="135.16" rx="12.1" ry="10.11"/><path class="cls-6" d="M300.52,98c6.29-1.49,11.76,0,17.56,1.49,3.65,1,8,2.15,12.1,5.47,2.16,1.66,6.3,4.81,5.64,8.45a6.22,6.22,0,0,1-2.82,3.81,9.17,9.17,0,0,1-7.46.83c-3.31-1.16-3-3.48-6.46-6.13-3.65-2.82-8-3.48-11.11-3.81-3.48-.5-8.28-1.16-12.92.83-2.16.83-3.48,2-4.64,1.49-1.33-.5-1.5-3-1-4.64C290.9,100.52,299.52,98.37,300.52,98Z"/><path class="cls-6" d="M386.86,98.87c-7.95-1.16-14.91,1.32-19.55,3.15a74.91,74.91,0,0,0-8.29,3.81c-4.81,2.32-6.13,3.31-7.46,4.64s-4,4-2.82,6.13c1,1.82,4,2.65,6.47,2.32,4-.5,4-3.64,8.28-6.13,3.82-2.16,8.13-2.16,16.74-2.32,5.8-.17,7.79.5,11.11-.83,2.48-.83,6.63-3,6.46-5.47C397.64,101.35,390.68,99.36,386.86,98.87Z"/><path class="cls-6" d="M134.61,898.88c-1.49,4.14-2.82,8.29-4.89,11.84-10.37-8.88-36.43-11-10.37,8.89,11,3.55,26.36,4.29,24.73-8.29C140.68,906.43,134.61,898.88,134.61,898.88Z"/><path class="cls-1" d="M303,934.42c-23.69,1.48-81.45,19.7-100.7,14.81s-98.49-12.59-67.39-116.7,57.76-168.24,59.24-187.64S204.51,559,206,555.29s37-66.64,117-19.4c17.78,13.33,31.1,36.28,37,52s25.18,54.5,22.21,65.31c-3,11-4.44,16.89-31.1,9.63s-63.68-11-41.46,27.84,37,31.55,40,27.84,31.1-29,44.43-11c13.33,18.22,10.37,37.47,19.25,49.62,2.82,3.7,13.92,13,27.7,25.91,30.51,28.44,73.31,74.05,64.12,115.82C491.82,959.6,360.75,930.72,303,934.42Z"/><path class="cls-2" d="M417.17,816.53c-4.44,6.82-8.14,16.59-13.92,22.07s-58.05,24.58-43.39,59.24,37,36.87,61.61,39.54c26.66,3,114.63-9.18,81.6-76.42s-69.16-65.9-72.72-63.83-9.92,2.82-11.69,11.11Z"/><ellipse cx="496.26" cy="894.28" rx="4.44" ry="8.44"/><ellipse cx="350.38" cy="586.24" rx="5.18" ry="9.03"/><path class="cls-5" d="M352.6,613.49c-7.4,9.63-11.84,21.77,0,19.4a34.1,34.1,0,0,1,7.41-.74c8.14-.29,13.18.59,7.4-8.88-7.4-12.15-5.92-16.89-10.36-13.33Z"/><path class="cls-5" d="M360,628c0,2.37,3,9.62,0,11-3,1.18-7.41,1.18-8.89-1.19"/><path class="cls-7" d="M367.41,669.18c-5.48,6.81-8.88,11-17.77,4.88s3-16.88,5.93-18.21S370.38,665.47,367.41,669.18Z"/><path class="cls-7" d="M334.83,652.15c4.3,3.55,1.48,14.51,0,16.88s-13.33,4.89-17.77,0-8.89-16.88-3-18.22S330.39,648.59,334.83,652.15Z"/><path class="cls-8" d="M379.26,707.83c-4.44-3.7-22.21-18.22-40-16.88s-28.14,6.07-28.14,11,10.36,32.73,31.1,26.65S383.7,711.53,379.26,707.83Z"/><line class="cls-5" x1="339.28" y1="711.53" x2="351.12" y2="692.13"/><path class="cls-2" d="M312.62,630.38c-14.81,12.14-28.88,12.29-27.4,77.45.74,35.69,12,52.43,44.43,51.83,11.85-.14,28.88-7.4,40-13.32s39.24-16.74,31.84-27.55-14.37-14.37-20.44-15.7S349.64,720,342.24,720s-57.76-40.28-38.51-58.05,64.13,12.44,65.31,4.44c1.34-8,14.66.45,13.18-12.88a91.8,91.8,0,0,0-4.59-19.55c-4.29-12.59-12.14-26.51-25-34.95-11.84,3.7-17.77,16.88-25.17,24.14S312.62,630.38,312.62,630.38Z"/><path class="cls-5" d="M374.08,636.74s1.18,11.26-7.55-6.22"/><path d="M382.22,657s-.29,17-38.35,3.56-43.1,6.51-44.28,8.29c-2.52,3.26,28.58,52.13,41.91,49.17,24.28-5.93,24.58-14.07,32.58-15.55s12.59-.89,15.55,1-4.44,18.21-32.58,21.17-37,1.48-50.36-19.25-19.25-50.35-7.4-57.76,50.35,0,56.28,1.48,23.69,1.48,25.17,4.45S380.74,654.52,382.22,657Z"/><path class="cls-1" d="M231.16,574.69c-4.44-3.7-23.69-23-29.62-30.21S188.22,510.56,216.35,507s48.88,32.73,48.88,32.73Z"/><path class="cls-2" d="M251.9,540.78s-13.33-18.22-28.14-15.7c-14.81,2.37-8.89,14.51-8.89,15.7s14.81,16.88,16.29,14.51S253.38,543.29,251.9,540.78Z"/><path class="cls-1" d="M306.69,532.34c-1.48-4.89-17.77-31.55-29.62-36.29s-23.69-4.89-25.17,3.7,3,25.48,11.85,29S306.69,532.34,306.69,532.34Z"/><path class="cls-6" d="M331,571.73c-8.88-5.18-17.77,0-21-1-3.7,2.08-10.81,5.19,4.59,6.67s14.81,4.44,19,3.55S334.68,573.8,331,571.73Z"/><path class="cls-6" d="M338.09,571.14c.74-4,5.63-4.74,6.22-5.93,1.93-.29,5.48-1.18,1.19,3.26s-3,5.33-4.6,6.22C339.28,575.43,337.79,572.77,338.09,571.14Z"/><ellipse cx="331.15" cy="593.79" rx="9.33" ry="6.66" transform="translate(-322.88 408.08) rotate(-45)"/><path d="M356.16,607.86c.89.6,10.22,7.41,13.48,15.85a15.3,15.3,0,0,1,1,4.59c-.15,2.67-2.37.3-4.14,2.08-1.19,1.18-.6,2.66-1.93,3.11-.3,0-2.37.74-4.15-1.93-1.33-2.07-1.33-4.15-3.11-10.81-2.22-8.44-4.29-12.89-3.26-13.77C354.23,606.68,354.68,606.83,356.16,607.86Z"/><path class="cls-5" d="M366.67,627.86a25.5,25.5,0,0,0,3,10.36c3,5.93-5.93,4.45-5.93,1.49"/><path class="cls-9" d="M714.7,670.21s.89-5.77-1.63-4.59-5.77,5.63-9,5.19C700.63,670.21,714.7,670.21,714.7,670.21Z"/><path class="cls-10" d="M336.72,843.45l-27.4-4.89,17.18,18.37-3.85,31.69,19.4-25-3,40.58,17-16.74s10.81.15,13,2.67-3.41-12.88-3.41-12.88"/><polyline class="cls-10" points="360.71 619.67 354.79 647.81 348.87 628.56 345.9 661.14 338.5 637.45 338.5 680.39 329.61 659.66"/><path class="cls-11" d="M784.47,490.78c-1.53-5-18.39-32.58-30.66-37.6s-24.53-5-26.06,3.76S730.82,483.26,740,487,784.47,490.78,784.47,490.78Z"/><path class="cls-6" d="M606.34,870.21c-1.56,4.23-2.94,8.56-5.07,12.23-10.73-9.19-37.67-11.41-10.73,9.2,11.29,3.61,27.33,4.44,25.64-8.64C612.64,878,606.34,870.21,606.34,870.21Z"/><path class="cls-6" d="M831.07,898.73s10.43,31.84,13.28,33.77,76.78-5.5,64.52,6.89-47.53,4.07-60.09,5.92-22.42.36-25.74-8.08-18.84-32.37-12.48-35.3S831.07,898.73,831.07,898.73Z"/><path class="cls-6" d="M753.21,898.57s-20.62,23.2-26.62,27.36,7.63,15.19,9.71,18.67,18,21.32,22.57,29.31,25.63,19.62,13.74,1.43-25.52-29.21-25.08-33.82S748,920,760.19,909.4,757,894.9,753.21,898.57Z"/><path class="cls-1" d="M780.64,907c-24.5,1.54-84.32,20.35-104.25,15.33s-101.95-13-69.76-120.77S666.42,627.36,668,607.31s10.73-89,12.26-92.73,38.33-68.91,121.12-20.05c18.4,13.79,32.19,37.6,38.33,53.88s26.06,56.39,23,67.67-4.6,17.54-32.19,10-65.93-11.27-42.93,28.82,38.33,32.58,41.39,28.82,32.2-30.07,46-11.27,10.73,38.84,19.93,51.37c2.86,3.9,14.48,13.5,28.71,26.76,31.51,29.37,75.84,76.69,66.34,119.85C976.11,933.1,840.43,903.21,780.64,907Z"/><path class="cls-2" d="M898.77,784.91c-4.66,7-8.36,17.15-14.38,22.86s-60.14,25.42-44.86,61.3,38.36,38.15,63.76,41c27.6,3.07,118.59-9.58,84.49-79.11s-71.53-68.25-75.22-66-10.28,2.86-12,11.43Z"/><ellipse cx="980.71" cy="865.43" rx="4.6" ry="8.77"/><ellipse cx="829.7" cy="546.54" rx="5.37" ry="9.4"/><path class="cls-5" d="M832,574.73c-7.67,10-12.26,22.55,0,20a46.7,46.7,0,0,1,7.66-.83c8.42-.33,13.66.59,7.67-9.2-7.66-12.53-6.13-17.54-10.73-13.78Z"/><path class="cls-5" d="M839.67,589.77c0,2.5,3.06,10,0,11.27s-7.67,1.26-9.2-1.25"/><path class="cls-7" d="M847.33,632.37c-5.7,7-9.2,11.28-18.4,5s3.07-17.54,6.14-18.8S850.4,628.61,847.33,632.37Z"/><path class="cls-7" d="M813.6,614.83c4.47,3.65,1.54,15,0,17.54s-13.8,5-18.39,0-9.2-17.54-3.07-18.8S809,611.07,813.6,614.83Z"/><path class="cls-8" d="M859.6,672.47c-4.6-3.76-23-18.8-41.4-17.55s-29.13,6.27-29.13,11.28,10.73,33.83,32.2,27.57S864.2,676.22,859.6,672.47Z"/><line class="cls-5" x1="818.2" y1="676.22" x2="830.47" y2="656.18"/><path class="cls-2" d="M790.61,592.27c-15.33,12.53-29.9,12.68-28.37,80.14.77,36.88,12.45,54.28,46,53.66,12.33-.23,29.89-7.67,41.39-13.8s40.63-17.25,33-28.53-14.82-14.83-21.21-16.19S828.93,685,821.27,685s-59.83-41.74-39.86-60.15,66.37,12.81,67.68,4.53,15.11.48,13.57-13.3A96.75,96.75,0,0,0,858,595.82c-4.51-13-12.54-27.51-26-36.13-12.26,3.76-18.4,17.54-26.06,25.06S790.61,592.27,790.61,592.27Z"/><path class="cls-5" d="M854.23,598.82s1.16,11.7-7.85-6.42"/><path d="M862.64,619.86s-.35,17.7-39.64,3.7-44.69,6.76-45.82,8.64c-2.67,3.41,29.52,54,43.32,50.94,25.13-6.19,25.4-14.56,33.78-16.1s13.07-.9,16.09,1.08S865.73,687,836.6,690s-38.33,1.53-52.13-19.93-19.93-52.13-7.66-59.79,52.12,0,58.26,1.53,24.53,1.53,26.06,4.6S861.08,617.15,862.64,619.86Z"/><path class="cls-1" d="M706.29,534.63c-4.6-3.76-24.53-23.81-30.67-31.32S661.83,468.22,691,464.46s50.6,33.83,50.6,33.83Z"/><path class="cls-2" d="M727.75,499.55s-13.8-18.8-29.13-16.29-9.2,15-9.2,16.29,15.33,17.54,16.87,15S729.28,502.05,727.75,499.55Z"/><path class="cls-6" d="M809.56,531.48c-9.18-5.33-18.41,0-21.83-1-3.86,2.13-11.14,5.42,4.7,6.86s15.4,4.59,19.69,3.68S813.41,533.72,809.56,531.48Z"/><path class="cls-6" d="M817,530.86c.74-4.12,5.75-4.92,6.42-6.15,2.06-.36,5.65-1.27,1.26,3.4s-3,5.55-4.7,6.4S816.65,532.59,817,530.86Z"/><ellipse cx="809.77" cy="554.32" rx="9.67" ry="6.9" transform="translate(-154.79 734.95) rotate(-45)"/><path d="M835.73,569c.88.63,10.54,7.63,13.9,16.4a14.84,14.84,0,0,1,1,4.82c-.12,2.69-2.47.33-4.29,2.21-1.21,1.26-.61,2.76-2,3.17-.25.08-2.42.72-4.32-2.05-1.44-2.09-1.44-4.24-3.24-11.19-2.28-8.77-4.38-13.39-3.41-14.31C833.7,567.75,834.18,567.85,835.73,569Z"/><path class="cls-5" d="M846.56,589.62a26.44,26.44,0,0,0,3.07,10.73c3.07,6.13-6.13,4.6-6.13,1.54"/><path class="cls-12" d="M1077.71,645.37s5.28,5,3.3,5.49-10.6.89-9.93,0,2.66-5.48,2.66-5.48Z"/><path class="cls-9" d="M1189.94,633.53s.87-5.9-1.69-4.73-6,5.89-9.42,5.29S1189.94,633.53,1189.94,633.53Z"/><path class="cls-13" d="M1025.3,649.38l80.38-2.17s4.29-6.49,0-6.5-77,.41-80.39,1.58S1025.3,649.38,1025.3,649.38Z"/><path class="cls-14" d="M1198.93,632.07,1027,635.21l0,8.86,171.89-3.14S1203.2,632.08,1198.93,632.07Z"/><path d="M991,671.15s1.65,27.17-.07,27.75-33.36,4.06-41.05,2.27-34.23,10.55-31.66,10.55c1.46,0,12.84-5.28,35.93-5.23,13.91-1.76,29.13-3.14,40.19-2.85.86-2.36.08-31.3.08-31.3Z"/><path class="cls-15" d="M980.35,672s-6,11.2,2.53,14.18c0,0-10.26.56-9.39-8.29s4.3-9.44,4.3-9.44Z"/><path class="cls-16" d="M942.34,654.49s-10.23-16-27.32-17.78c3.42,0,16.2,17.17,13.62,22.48S942.34,654.49,942.34,654.49Z"/><path class="cls-13" d="M962.05,634.46a10.55,10.55,0,0,1,9.43-8.83c8.55-1.17,35.92-1.1,38.48.09s0,8.86,0,8.86Z"/><path class="cls-17" d="M954.33,646.25s-33.39,14.69-35.1,15.87-.92,27.16-.07,28.93,46.17,1.89,47,.12-.81-15.95,0-19.49S956,645.08,954.33,646.25Z"/><polygon class="cls-18" points="941.03 663.05 929.05 668.34 929.02 682.51 959.8 682.59 959.82 674.91 941.03 663.05"/><polygon class="cls-17" points="941.31 666.6 933.32 670.12 933.3 679.57 953.82 679.62 953.83 674.5 941.31 666.6"/><path class="cls-19" d="M966.2,688.8v2.37l-12,15.32s-63.28-.74-33.42,28.27c0,0-47-4.25-54.73-.13s-12.72-46.1,57.4-45.93C958.5,689.38,966.2,688.8,966.2,688.8Z"/><path class="cls-20" d="M941.38,692.52c-16.39-.08-34.65-.3-50.34,5.13-5.65,2-11,5-14.18,10.16s-3.6,11.08-3.73,16.89a1.51,1.51,0,0,0,1.5,1.5c9.1-1.16,17.68,4.11,26.75,1.85a1.52,1.52,0,0,0,1-1c.62-2.85-.27-5.06-.19-7.93.11-4.46,2.8-7.49,6.51-9.71,5.58-3.33,12.62-4.11,19-3.19,1.89.28,2.7-2.61.79-2.89-9.38-1.36-21.79.5-27.42,9.13a11.71,11.71,0,0,0-2.05,6.53c0,1.58.73,3.15.24,4.73q.69,3.06-2.73,2.07a17.25,17.25,0,0,1-2.87-.21c-6.44-.73-12.45-3.17-19-2.33l1.5,1.5c.12-5.48.51-11.28,3.69-16,4.1-6,11.66-8.47,18.45-10,14-3.11,28.84-3.31,43.11-3.24a1.5,1.5,0,0,0,0-3Z"/><path class="cls-20" d="M889.86,705.53c-4,1.68-8.36,5-8.39,9.84,0,4.56,5.1,4.69,8.72,4.33,5.94-.6,4.69-4.2,6.57-8.44,3.09-7,16.64-7.06,23.13-8.13,1.9-.31,1.09-3.2-.8-2.89-7.45,1.22-18.16,1.35-23.76,7.3a8.6,8.6,0,0,0-1.78,2.68c-.42,1.1,0,2.9-.51,3.81-1.43,2.69-9.15,4.71-8.14,0,.65-3.08,3.82-4.81,6.48-5.93,1.77-.75.24-3.34-1.52-2.59Z"/><path class="cls-12" d="M1031.32,631.67s-66.69-1.34-70.11-.16-8.58,11.79-10.3,13,0,20.67,0,20.67,10.25,8.3,14.52,9.49,59.86-1,61.57-1.63S1034.75,631.68,1031.32,631.67Z"/><path class="cls-9" d="M1019.34,635.19l-32.49-.08s-29.94,2.57,0,6.79l30.79.08Z"/><path class="cls-9" d="M1017.61,644.34l-32.49-.08s-29.94,4.75,0,12.4l30.78.08Z"/><path class="cls-9" d="M1014.16,659.09l-32.5-.07s-29.93,3.14,0,8.26l30.79.08Z"/><path class="cls-6" d="M752.25,742.86s15.53,7.57,44.66-.68,114-51.75,124.06-50.6,39.71-11.75,9.63,11.24-51.24,30-90.26,42.52-95.62,41.55-103.19,32.72S716.52,754,752.25,742.86Z"/><path class="cls-10" d="M666.9,812.82l-28.35-5.12,17.79,19-3.93,32.79,20-26-3,42.07L687,858.23s11.16.19,13.43,2.76-3.56-13.33-3.56-13.33"/><polyline class="cls-10" points="740.78 588.85 734.65 617.98 728.52 598.05 725.45 631.78 717.78 607.25 717.78 651.71 708.59 630.25"/></svg>
