<svg xmlns="http://www.w3.org/2000/svg" viewBox="0 0 1920 1080"><defs><style>.cls-1{fill:#848484;}.cls-2{font-size:132.01px;font-family:Chalkduster, Chalkduster;}.cls-3{letter-spacing:-0.02em;}.cls-4{letter-spacing:-0.04em;}.cls-5{letter-spacing:0em;}.cls-6{letter-spacing:-0.02em;}.cls-7{fill:#1b872e;}.cls-8{fill:#773f1f;}.cls-9{fill:#a01227;}.cls-10{fill:#80c4f3;}.cls-11{fill:#7e8789;}.cls-12{fill:#f89550;}</style></defs><title>colors_1</title><g id="Layer_5" data-name="Layer 5"><path class="cls-1" d="M600.36,851.35c-1.72.86-.75,2.81,4,2.42l3.38-3.31Z"/><path class="cls-1" d="M632.38,857.48c5.6-1.61,12.06-4.43,8.43-7.47-5.54,3.18-6.88,1.86-12.85,5.64-4.77.39-8.31-1.06-7.51-2.28-1.69.85-7.4-.73-10,1.35,6.19,2.57,14,2.67,22.24.55C634.49,856,632.79,856.87,632.38,857.48Z"/><path class="cls-1" d="M1097.76,862.64l-3-.4A15.05,15.05,0,0,0,1097.76,862.64Z"/><path class="cls-1" d="M1365.51,799.31c-1.55,1.56-2,2.42-1.88,2.72C1365,800.48,1366.06,799.19,1365.51,799.31Z"/><path class="cls-1" d="M1404,768.38c-.85.64-1.53,1.21-2.28,1.81A5.5,5.5,0,0,0,1404,768.38Z"/><path class="cls-1" d="M1097.76,862.64l7.7,1C1106,862.6,1101.52,862.88,1097.76,862.64Z"/><path class="cls-1" d="M696.56,849.49a19.32,19.32,0,0,0-4.18.87c1.32-.14,2.6-.26,3.93-.35A2.73,2.73,0,0,1,696.56,849.49Z"/><path class="cls-1" d="M970.65,865.32h-2.34a12.07,12.07,0,0,0-1.95,1.34Z"/><path class="cls-1" d="M873.1,865.83c2.21.12,3-2.69,3.82-3.92a8.13,8.13,0,0,1-4.81,1.93A2.89,2.89,0,0,0,873.1,865.83Z"/><path class="cls-1" d="M718.42,860.88l-2.74.39C716.39,861.15,717.59,861,718.42,860.88Z"/><path class="cls-1" d="M1040.47,865.93a2.17,2.17,0,0,0,.89,1C1041.36,866.58,1041,866.25,1040.47,865.93Z"/><path class="cls-1" d="M526.72,771.18c-.19.09-.2.26-.34.37C527,771.73,527.26,771.7,526.72,771.18Z"/><path class="cls-1" d="M599.86,858.53l-1.24-1a5.61,5.61,0,0,0-1.33.92Z"/><path class="cls-1" d="M1472.28,709.52a3.88,3.88,0,0,0-.33.23C1470.44,711.6,1471.38,710.65,1472.28,709.52Z"/><path class="cls-1" d="M1181.84,199.37c9.37,2.51-15.25,3.23-1.14,6C1179.39,204.29,1193.52,201,1181.84,199.37Z"/><path class="cls-1" d="M699.09,849.86c1.31,0,2.65-.05,4,0A25.05,25.05,0,0,0,699.09,849.86Z"/><path class="cls-1" d="M1180.7,205.39v0l1.46.26Z"/><path class="cls-1" d="M1622.85,566.6a5.86,5.86,0,0,0-2.38.54C1620.72,567.3,1621.31,567.23,1622.85,566.6Z"/><path class="cls-1" d="M1507.09,669.23l3.06-2.34A26.09,26.09,0,0,0,1507.09,669.23Z"/><path class="cls-1" d="M1611.4,497.13c-1.38-1.57-1.63-2.34-4-4a4.77,4.77,0,0,0,.39.84A8.55,8.55,0,0,1,1611.4,497.13Z"/><path class="cls-1" d="M1550.3,440.1c.18.46.5,1,.74,1.47l2,1.7Z"/><path class="cls-1" d="M340.16,598.81a12.36,12.36,0,0,1,1.09,4.48C341.67,601,351.14,608.81,340.16,598.81Z"/><path class="cls-1" d="M696.6,851.07a3.11,3.11,0,0,1,2.49-1.21c-1,0-1.88.09-2.78.15C696.06,850.43,696,850.83,696.6,851.07Z"/><path class="cls-1" d="M1593.78,511l-9.42-9.37C1586.88,504.39,1590.31,507.79,1593.78,511Z"/><path class="cls-1" d="M619.06,222.44l-3,.34A7.46,7.46,0,0,0,619.06,222.44Z"/><path class="cls-1" d="M1555.27,475.06a30.3,30.3,0,0,0-4.14-6.52,5.62,5.62,0,0,0-1.62-.52Z"/><path class="cls-1" d="M341.25,603.33s0,0,0,0S341.24,603.3,341.25,603.33Z"/><path class="cls-1" d="M409.74,658.15c-9.2-8.7-6.82-1.42-10.22-1.7-11.76-9.54-3.26-6.76-5.72-11.65-7.56-5.72-15.16-8.17-20.2-13.08,0-.8-.82-1.9.87-1.36-9.29-4.66-21.73-20.09-32.73-25.32a3.47,3.47,0,0,1-.49-1.71c.12,2.64-1,4.21-2.15,4.92-4.19-3.82-9.29-5.47-9.2-8.7,2.49,2.43,3.37,1.91,5.07,2.47l-5.06-3.29c-1.54-6.18,6.75,4.66,8.51,2.79-9.25-7.09-21.08-14.21-26.9-21,1-3.74,16,13.34,9.36,3.05L330,593.9c-4-11.08,5.84,6,2.7-4.8-12.54-13.06-16-12.54-28.47-25.57-4.25-1.4-.92,3-5.18,1.56-10.53-7.51-12.76-12.51-14.46-16.83a24,24,0,0,0-3.14-6.2,18.56,18.56,0,0,0-3.1-3.14c-.66-.54-1.41-1.1-2.25-1.66l-.65-.43a1.93,1.93,0,0,0-.24,0h-.55a11.94,11.94,0,0,1-4.44.39A8.54,8.54,0,0,1,265,534.5a18.85,18.85,0,0,1,2.82-1.8,9,9,0,0,0,3.84,1.67,2.17,2.17,0,0,0,1.07-1.9c0-.61-.25-1.25-.31-2a2.93,2.93,0,0,1,.07-1.09,1.9,1.9,0,0,1,.09-.29l.36-.52a14.31,14.31,0,0,1,.95-1.14,44.47,44.47,0,0,1,7.48-6.2c-1.35,3.33-9.19,10.32-6.94,8.85,10.75-5.89,4.65-7.33,11.33-13.56l3.7,1.2c13.26-13.12,26.59-28.92,41.25-43.47-.14,1.52-2,4.71,2.24,2.18,17.87-19,40.9-37.63,60.64-53.3l5-8.69c1.65-1.5,3.93-1.86,2.55.2,7.91-5.86-.9-1.7,1.75-5.76,3.93-3.95,6.53-3.78,4.55-.73,10.93-13.61,32.3-37.5,47.75-47.62l-2,3.06c11.17-8.8,7.58-15.31,19.05-22.28l-1.48,2.1c23.34-20.06,46.35-45.22,66.52-58,.38-6.14,23.54-19.4,21-25.06,14.83-9.85,11.87-5.65,31.29-21.09,5-4.31,4.68-9.41,10.23-15.43l2.25,2.11,1.19-2a.9.9,0,0,0,.22-.65,5,5,0,0,1,.06-.51,14.23,14.23,0,0,1,.57-2.33c.21-.2.45-.4.71-.61a10.9,10.9,0,0,1,1.48,1.85c.1.15.18.3.27.46l.11.23a.39.39,0,0,0,.21.23l1.48.92,7.66-.79c-3.06-.18-6.49-1.39-6-2.27,12-1.4,29.17,2.14,29.47,3.72l28.3-2.6c-.63,1.24-5.37,1.66-9.11,2.45,15.1-3.14,2.74,3.25,16.59.37-1.86-.7,1-1.84,1.31-2.46,6.91,1.86,22.62,1.88,34.24,1.09l-2.23,2.13c21,.54,44.26-1,67.83-1-8.46-1-6.51-4.68.4-5l2.76,3.26c4.46-2-7.22-1.23,1.94-3.7,8.8.38,5.92,3.71.86,4.77l10.71-1.13c.62,1-1.89,1.48-2.54,2.72,4.39-2,18.47,3.27,24.81-.24l.6,1c23.56,0,34.24-1.1,53.43-1.26.37-2.81,7.88-2.19,13.6-4.46,14.09.9,29.75,3.11,46.74,2.87,11.94-1.4,3.48-2.38,8.85-4.05.88,2.56,17.85,2.32,9.05,4.16,20.39-.42,26-.51,51.83-2.59-2.8-1.05-5.94-1.51-4.31-2.38,4.68-.42,10.65,1.07,10,2.3l-1.23.27c28.95-3.84,66.81,7.46,89.86,2.12l-1.29.27,23.9-2.78c11,.44-6.59,1.92,1.55,3.51,25.78-4.28,40.74.62,62-2.23,16.44,7.56,58.33-.53,80.52,4.29l-1.28-1.78c5.73-1.74,6.93,1,11.16,1.43-.6-1.38-6.22-1.6-2.66-2.57q6.32-.27,12.71-.41l8.4-.14,7.85,7.53q5.55,5.37,11.06,10.87c7.34,7.32,14.64,14.78,21.91,22.27,14.55,15,29,30.14,43.6,44.67,13,12.78,13.84.33,27.72,19.1l-7-2c29.57,22.19,54.84,51.4,83.43,73.5-2.08-.91-2.8-.22-5.36-2.63,3.91,6.94,20.46,19.27,21.89,17.93,3.94,4-.26,2.18,1.58,5.26,4.61,6.24,16.08,10.82,17.41,15.33.24.75-2.1-.89-3.24-1.71,4.42,2.54,16.71,16,15.13,10.74,9,10.19,19.72,16.74,26.47,25.29,7.25,2.53,15.89,16.87,20.5,15.19-3.79,2.65,14.82,18.82,22.51,23.1-3-.95,4.46,6.1.72,5.2,7.17,6.61,14.27,12.09,14.61,9.23a40.14,40.14,0,0,0,4.93,6.69c.91,1,1.85,2,2.82,2.89l.73.68.37.34.12.09a3.62,3.62,0,0,0,.38.26c.53.31,1.22.61,2,1a26.27,26.27,0,0,1,2.51,1.31,4,4,0,0,1-1.88,1.78,3.85,3.85,0,0,1-3.44-.06l-.08.23,0,.12v0l-.12.13-.22.25-1.82,2-3.62,4-7.18,7.8q-7.14,7.71-14.14,15.12c-9.34,9.88-18.53,19.39-27.68,28.66-2.39-3.94,20.73-20,16.68-22.67-16.79,18.22-24.56,30.77-43.21,46.7-5,3.88,1.3-3.89,2.34-5.92-16.77,18.21-35.16,32.27-49.53,49.06-.24-.35,1.18-2.3,2.58-4.08-3.07,3.06-7.81,6.38-6,7.55l2.7-3.29c7.08-2.54-8.32,16.27-7.81,18,1.36-9.31-16.86,13.73-13.4.34-1.82,2.22-3.77,5.37-2.36,5.93-3.36,2.59-4.88,2.92-2.82-1.14-10.56,11.39-5,9.23-15.35,18.78-.64-.76,1.17-3,1.44-4.82-3.88,6.26-7.78,12.56-17,20.05.11-.93-1.42-.56,1.17-3-14.69,14.13-21.87,27.48-39.49,41.37,1.88-7.65-6.53,4.16-9.94,2.24l-8,9,4.76-2c-7.74,7.14-12.69,15.48-20.14,20.77l4.67-6.47-13.94,14,9.13-6.59c-6.48,8.68,4.06,2.68-6.9,11.49,1.82-2.23-7.73,7.15-13.25,9.29,0,0,0,0,0,0-3,4.43-6.06,9-12.38,13.64-2.3.51-1.63-4.13-3.14-3.81-1.62,5.79-17.44,17.47-19.93,24.34,1.06-2-.19-3.56-1-3.37l-1.42,4.8c-4.12,2.74-4.91,2.94-5.4,1.26a32.2,32.2,0,0,0-2.8,2.68,2.12,2.12,0,0,0-.53,1c-.06.54.36.81.84,1s1,.35.87.8-.87,1.28-2.78,2.68c-.35-.08-1.1-.18-1.93-.3.73-.16.57-.42,1.54-.7,0-.07.16-.39.46-.8l-.59.46c-1.5-.11-2.92-.16-4.33-.18-2.09,0-4.18,0-6.25.05-4.14.09-8.23.29-12.28.47a194.14,194.14,0,0,1-23.87.09c-4.74-3.76,14-.92,8.62-4.09-23.18.68-48,4.5-70.43,3.62l4.18.41c-3.11,5.31-16.7-2.62-28-.12,2.78-.39,3.64-2.94,2.89-2.35-15.36-.85-31.4,1.3-54.68,3l2.89-1.36c-9.06-1.22-23.84-.7-33.63-1.32-2.9,1.36-8.49,1.14-5.09,3.12-30.15-7.76-57.52,4.16-84.27-2.31,3.2,0,7.63-1.19,5.08-1.19l-22.79,1.25c1.81,2.31,3,1.4,7.78,3.2-2.89,1.37-9.32,2.43-15,2.43,10.25-1.53-.09-3.71-4.51-5,.74.71-.78,1.49-.4,2.21-11.9-4.11-2,4.65-18.25,1.88l.86-1.21c-6.08.62-11.68,2.22-18.24,1.88-2.72-2.68,6.47-1.25,6.89-3.45-9.21.15-18.18,5.06-26.52,2.4,3.91-.75,9.54-.76,13.45-1.5-9.08-3.14-10.13-2.34-16.88-2.84l.67.07-15.6-1.42,4,.85c-11.53,7-23.47,1.28-39,5.84,15.09-4.32,2.49-2.5,3.65-5.53-4-.84-10-1.78-8.28-2.63-7.34,2.44-12.25-1.93-22.61,1.65-.47-1-7.86-.1-6.2-2.55-9.54.77,2.26,1.7,1.45,2.92-14.71,3.33-34.57-4-55.73.53-18.25,1.88-21.62,5.17-38.56,6.81-5.71-1.56,4.68-3.55,4.68-3.55a81.16,81.16,0,0,0-24.84-.06c1.76-.85-.05-1.57-2.7-2.66-7,.25-4.66,3.55-13.86,2.11a23.94,23.94,0,0,1,7-3.92c-8.22.9-16.33,2.72-24.84,3.6-2.26-1.7,5.13-2.58,8.13-3.69-9.56.77-24.77,1.54-27.72,4.23l6.13,1c-3.48.13-1.79-2.31.78-2.8,8.19-2.11,11.82.93,12.28,1.91l-6.06.63c6.22,5.72,24.33-.92,36.52-.59l-5.08,4.16L705,855.32c2.66,1.08,4.48,3.41-1.54,4,8.74,2,7.74-1.48,15.25.81.82.36.45.56-.32.72l8.54-1.24c-1.67.88,1.42,2.94-3.82,2.34,15.33,2.4,24.72-3.12,30.49,0l-1.28.26c21.27-1.41,2.06-3.06,18-6.64l10.74,7.53,2.09-3c2.19.11,6.53.34,5.73,1.56,8.17-2.09-1.39-1.33,3.35-3.3,10.56,2.78,29.12-1.3,31.5,3.56,3.79-2.32-10.1-1.79,1.18-3.4,3.21,5.23,13-.9,22.68,1.5-3,2.7-12.1,1.27-2.45,3.68,5.82-4.56,18.79,1,26.93.13.38-3.63,17.7-1.52,31.35-2.73-.86,1.22,25.7,2,38.41,3.31l-.38.61c2.46-3.67,15.57-3,25.11-3.74-.37,2.2-2.09,3.07-7.26,4.05h9c2.12-1.18,4.92-1.8,10.73-2.22l-2.25,2.74c11.94-.15,24-3.23,39.4-1.4.87-2.56-12.21-7.13,4-8.84.6,1.39,1.2,3.76-3.05,4.32,1.39-.18,5-1.15,7.77-.56l-6.49,2.33c7,1,3.66-1.94,9.26-1.73-.12,2,4.14,1.41,3.33,3-1.43.19-4.88-.82-7,0,6.31.35,13.93,1.52,16.45,3-.55-1.12,0-2.66,4.62-2.92,11.94-.14,4.09,2.38,11.05,3.39,2.89-1.37,10.51.05,10.71-2.9,3.5,0,4.14,1.39,5.49,2.19,6.18-1.3,28.86-.37,21.9-3.51l-1.59-.21c.3-.06.65-.06,1-.13h0c20.26-2.93,42.08,1.68,62.17.41l0,1c12-1.13,26.7-.67,35.27-2.79,3.54,0,8.37,1.8,6.85,3,9.17-.74,10.2-1.85,23.45-.22-9.22,1.72,3.18,1.52-9.45,1.26,11.91.85,14.61,2.43,27.41-.27-4.36,2.53,9,3.19,14.63,2.43l-8.35-1.81c6.37-.37,11.94-.14,17.6.07l-3.06,3.33a75.55,75.55,0,0,0,17.23.75c2.75-.17,5.44-.44,8.07-.76l1-.12.24,0,.31,0,.79-.06,3.11-.26,5.94-.52,4.15-4.56c.67-.73,1.33-1.46,2-2.18.33-.36.69-.74.85-.94l.62-.71c1.67-1.9,3.37-3.71,5.15-5.39a40.47,40.47,0,0,1,12.05-8.14c3.12-6.1-10.8,7.84-8.44,1.92,8.5-7.33,20.3-11.82,22.87-14.21,12.49-9.14,7.16-13.33,19.77-23.39-2.31.54-5.89-.45,2.13-9.47,8.5-7.34,13.48-5.77,9-.24-1.9,1.91-3.11,2.52-3.3,2.15-2.35,2.79-5.48,6.41-1.36,4.32l.26-1.87c4.89-2.91,16.09-13.54,14.77-9.65,5.43-6.61,1.32-3.89-3.69-.06,11.7-8.56,16.47-15.31,28.09-24.58-2.17,1.13-4.7,1.6-3,0,16.89-13.76,5.46-8.17,15.87-18.6,7.35-4.39.75,5.2,10.55-6,7.45-5.28,3.55,1,1.58,4.16,8.31-10.89,19.47-16.13,25.4-21.08l-4.55,5.55a78.52,78.52,0,0,1,7.88-8.1l-4.59,1c3.33-2.55,5.92-5,6.54-4.18,2.09-4.08-5.1-.64-.31-8,4.89-2.92,11.51-12.52,15.07-11.54-13.53,11.18,3.57,1-6.92,11.49a47,47,0,0,1,7.74-7.16c.7-.17,0,.89-.7,1.8,14.17-9.38,3.2-7.86,16-19.66-.4,2.8,5.24-.29,7-2.5-5.14,4.75-4.47.12-.7-5.26,9.08-6.59,8.14-9,12.51-12.87l-5.3,4.07c.43-2.84,4.66-6.47,10-12.18,1.43.56-4.5,5.51-2.06,4.06,4.17-8.16,16.44-10.93,23.79-20.67,4.89-2.92,2.67,2.07,6.8-.67,8.27-10.88,12.32-8.18,21.37-19.24-4.61,1-4.73,2,1-6.55l-15.87,17.12,8.55-12.73c-5.15,4.77-9.81,11.21-13.16,13.79,3.87-6.28,3.74-5.35-.07-4.5,9.47-4,12.51-14.53,22.28-20.35l3.78,4.55c14-9.48,19.63-22.48,36.49-36.19l-5.79,4c.52-3.7,9.56-9.38,14-14.87.87,1.89,4.57-.58,7.6-1.73-1.27-.82,11.69-10.74,10.44-15,.39-.21.71-.36,1.14-.62l1.53-1,3.15-2.06c2.16-1.42,4.4-2.92,6.74-4.51a122.15,122.15,0,0,0,10-9.51,158.07,158.07,0,0,0-17.52-12.22c-1.28-.81-2.54-1.62-3.79-2.46l-.94-.64c-.31-.21-.64-.45-.86-.58-.49-.32-1-.65-1.49-1a48.21,48.21,0,0,1-6.56-5.63c5.17,1.89.53-4.35,9.82,2.22-4.09-3.85-7.54-7.56-8.54-6.62-1.56-3.15-13.21-8.7-15.71-13.59-2.32-1-4.3,0-8.8-4.43-.23-.76.69-.7.69-.7-.69.7-8.13-5.77-5.59-.41-8.45-16.32-35.68-32.7-43.09-46.86-9.42-7.89-20.65-17.52-28.89-25,.92.05.7-.7,2.1.89-10-11.83-10.78-2.3-22.15-15.73-4.35-8.43,8,5.07,4.71.39,2.67-6.4-16-13.75-22-24.56l2.34,1.67c-5.06-7.75-17.71-13.18-28.14-23.54,0,0,.92.06.74-.66-9.61-4.44-24.26-16.62-35.22-25.6,5,1.15,5.61,3.4,5.42-.32-4.88-4.05-1.48,4.3-11.22-3.8-2-3.82-7.89-10.94-6.89-13.78l8.82,8c-2-6.77-11.37-10.45-15.54-15.19l1.65-.59c-13.71-12.11-16.57-9.41-30.74-23l.67,2.25c-10.5-4.48-5.08-7.74-14.89-12.94l.33-5.1c-5.83-4.14-20.74-14.15-30.54-22.28,7.26,2.78,19.15,11.83,27.06,16.84-5.11-4.81-17.64-16.08-21.65-17.15,2.33,1.65,5.6,3.38,7.23,5.73q-12.63-5.42-27.93-19.83c2.3-1.28.39-4.54-3.35-8.73-1.86-2.1-4.19-4.43-6.66-6.87-3.23-3.14-6.63-6.45-9.91-9.66-2.78-.07-5.52-.17-8.18-.3-1.53-.07-2.17-.15-3-.24s-1.65-.19-2.43-.31a21.53,21.53,0,0,1-7.49-2.16c-24.76,2.83-49.12-1.21-78-.76,10.23,6-8.42.17-6.65,6.29-6.72.39-9.28.29-9.88-.11l-20.36-3.65c-4.83-1.78,6.39-1.35,5.77-2.72-14.71-.47-6.17-2.59-15.91-4.22,2,2.19-5.11,3.13-13.5,2.3l11.81,2.82c-20.55,3.25-17.77-5.13-38.49-1.91l6.56-1.92c-10.64,1.13-39.23,0-49.65,4.87-1.88-.71-4.37-2.38.31-2.82-25.41-.74-56.56,5.23-76.31,2.2l1.93-1.49c-4.74.43-8.26,2.81-14.19,1.3.3-.62,1.91-1.49-.29-1.58-2.51.52-12.59,2.62-18.87,1.75l5.37-1.68c-24.79-2-38,4.09-58.83,5.12.06-4.4-19.45-5.83-29.18-6.55l.34-.62c-28.86-.54-49,3.65-75.76,5.38-16.59-4.78-56.2-2-82.86-4.68,4.08.8-.66,3.43-5.41,3.87-6.25-.89-17.29,3-16.3-1l2.23.07c-4.71-4-17.58-2.9-27.62-3l-1.65,5.28c-10.16-3-22.74-3.22-35.19-2.81-6.22.2-12.4.58-18.23.86-2.92.14-5.74.25-8.44.32l-2.44,0h-3.15c-2.07,0-4.08,0-6,0q-2.57,2.28-5,4.32l-2.39,2-.57.45-.37.26-.73.5a22.46,22.46,0,0,1-5.49,2.77c-3.73,5.29-9.48,10.64-13.17,15.89l-1.69-2.3c-13.33,11.46-20,17.18-35.38,32.49l1.85-4.5c-9.07,8.22-5.72,16.52-13.87,24.35l-5.36-.77c-15.57,14.62-33.9,26.67-46.71,43.87-.17-.68-.55-2,1.86-4.49-7.42,6.78-30.37,24.45-23.75,26.2-2.76-2.59-16.35,14.77-23.65,23.86l-.59-3.26c-4.69,9.25-4.25,10.17-13.51,20.17-2.61,1.93-3.59.3,0-2.1-8.85,6.26-4.32,7.64-14.85,15.44l2.34-4.62c-8.23,7.39-6.93,7.49-10,13.15-4.32,5.56-15.8,13.79-18.71,13.06,0,2.14-3.06,7.77-8.31,11.69-1.29-.1,0-2.15.71-3.17-14.8,11.22-17.86,21.11-29,27.78a2.65,2.65,0,0,0-2.7.25c10.77-10,19.51-17.92,18.84-17C344.5,435.25,335.53,443,340,434c-5.64,7.91-14.65,22.09-23.92,29.09a5.41,5.41,0,0,1-1.73.39l.68-1a25.21,25.21,0,0,0-5,5.28,81.51,81.51,0,0,0-7.52,6c-2.45-.62-10.72,8.44-15.11,12.4,2.27,1.72-3.69,6.67,3.19,3.42-.82.49.59-1,3.38-3.78a17.53,17.53,0,0,0,1.65-1.93c0,.13-.08.29-.13.46,2.78-2.71,6.44-6.21,10.61-10.17-2.44,4.23-5.19,8.44-11,11.76-1,3.39-2.15,7-2.93,8.95-8.59,2.65-21.43,11.74-24.67,11.46-1.5,1.66-3.09,3.37-4.74,5.11s-2.83,3-6.25,6.39c-5.77,5.73-11.52,11.43-16.68,16.73,6.32,5.41,12.34,10.38,17.59,14.29q2,1.47,3.78,2.73c.14.09.31.22.43.29l.32.19.64.36,1.26.69a31,31,0,0,0,4.76,2.07c4.22,3,3.28,5.13,4.12,7-2.53-1.64-5-4.1-6.74-4.64,8.42,6,22.58,20.36,26.88,19.34,8.32,10-7.63-2.48,5.77,9.2l-2.52-.81c21.52,28.17,48,31.91,71.12,63.89-1.65-2.17-2.48-3.25-2.46-4.07,30,32.59,68.68,59.85,96.93,93.47,8.33,9.24,10.92,8.44,17.67,12.29l-.1,4L491,761.16c15.15,10.65,18.15,27.08,38.41,39.4l-.8-3.53c5.84,6,20.12,17.15,17.51,17.91.88.31,3.44.32,5.1,3.32l-.89,1.33,16.81,12c10.83,11.67-6.09,2.89,10.63,18.93,6.71,5.43,21.07,13.37,19.42,10.39-2.48-2.43-5.81-6.78-4.92-8.11l6.32,4.77c4.22-2.43,11.9-1.78,0-17.35l-11.8-7.12-1.63-4.61,8.39,7.64c-3.25-6-7.52-7.36-11.73-9.53,0-1.62-.78-3.52-2.43-5.67l-12.71-5.78c.08-2.43,6.81,1.41,1-5.39-5.93-2.72,1.56,7-6.86,1-3.27-5.94-.72-5.92-7.48-9.76,0-1.6,1.73-1.07,4.28.59-5.9-3.54-13.44-11.72-17.67-12.28-3.12-6.49-17.08-15-13.59-17.79-2.26-.67-11-5.57-15.67-9.65,11.86,3.85-16.71-16-10.67-18.13-9.35-2.24-23.52-19.08-36.14-27.27a7.12,7.12,0,0,1,3.36,1.92c-5.82-6-6.62-8.68-9.92-13-3.46,2.13-13.56-6.08-20.33-9.09-4.89-9.74,7.68.87,7.81-4-1.79,2.67-15.14-9.8-14.4-5.5-4.12-7-4.15-5.42-4.88-10.55-4.34,2.65-5.88-4.36-12.68-6.58-6.61-9.49,1-5.34-9.09-12.74C400.47,651.87,409.74,658.15,409.74,658.15Zm-79.6-184.56,0,0-4.35,4.28Zm18.12-17c-2.28,2-5.05,4.54-7.95,7.27-1.3-.11-1.29-1.49.57-3.16C340.33,462.12,345,458.54,348.26,456.61Zm-51.69,21.61c2.6-3,3.94-3.46,4.73-3.41-1.32,1.3-2.85,2.85-4.8,4.94,0,.15-.1.4-.1.57A4.08,4.08,0,0,1,296.57,478.22Z"/><path class="cls-1" d="M293.92,485.74a13.68,13.68,0,0,1-1,1.26c.75-.37,1.46-.74,2.14-1.14.15-.54.31-1.09.42-1.59Z"/><path class="cls-1" d="M1094.24,862.18l.52.06a3.79,3.79,0,0,1-1.1-.4A4.26,4.26,0,0,1,1094.24,862.18Z"/><polygon class="cls-1" points="602.57 226.49 602.06 225.99 600.9 227.93 602.57 226.49"/><path class="cls-1" d="M957.46,852.53a3.93,3.93,0,0,0-1.8-.72A4.82,4.82,0,0,0,957.46,852.53Z"/><path class="cls-1" d="M898.37,851.9l-8.35-1C893.63,851.47,896.27,851.74,898.37,851.9Z"/><path class="cls-1" d="M853,850.51a2.85,2.85,0,0,0-.89,1.2l.09,0Z"/><path class="cls-1" d="M1492,657.62a17.29,17.29,0,0,0,1.19-1.29C1495.8,653.12,1493.9,655.19,1492,657.62Z"/><path class="cls-1" d="M1339.35,809.12c1.32-1.93,2.62-3.83,4.15-5.69C1340.55,805.89,1338.34,807.88,1339.35,809.12Z"/><path class="cls-1" d="M1594.81,512.05s0,0,0,0l-1.08-1Z"/><path class="cls-1" d="M1350.83,796.65a35,35,0,0,0-7.33,6.78A54,54,0,0,0,1350.83,796.65Z"/><path class="cls-1" d="M656.05,849.23l-2.18-.11c0,.18-.1.33-.27.45Z"/><path class="cls-1" d="M653.6,849.57l-2.43.33A4.71,4.71,0,0,0,653.6,849.57Z"/><path class="cls-1" d="M646.06,850.61l5.11-.71C649.4,849.89,647.22,849.81,646.06,850.61Z"/><path class="cls-1" d="M716.19,850.53l.69-1A1.31,1.31,0,0,0,716.19,850.53Z"/><path class="cls-1" d="M734.47,850.24c-4.36-.23-10.94-2.18-17-1.54l-.57.81C719.74,848,730.33,852,734.47,850.24Z"/><path class="cls-1" d="M810.74,862.84,795.43,862c2.68,1.09,6.2,2.55-.77,2.81C814,868.07,790.68,862.4,810.74,862.84Z"/><path class="cls-1" d="M858.23,864.41c-8.23.51.1,1.58-.34,2.19C863.11,865.61,864.37,865.36,858.23,864.41Z"/><path class="cls-1" d="M1201.38,864.42l-.83,2.56C1206.89,866.61,1200.61,866,1201.38,864.42Z"/><polygon class="cls-1" points="1266.97 851.2 1260.8 849.61 1257.86 851.96 1266.97 851.2"/><polygon class="cls-1" points="1310.15 857.8 1308.37 859.96 1315.47 852.06 1310.15 857.8"/><path class="cls-1" d="M1562.86,448.43l-.75,3.61C1565.63,454.56,1568.71,452.58,1562.86,448.43Z"/><path class="cls-1" d="M1378.83,281c-.9-3-5.32-8.52-9.53-10.33C1373.24,274.62,1376.48,279.32,1378.83,281Z"/><polygon class="cls-1" points="657.39 198.56 662.39 197.51 652.96 198.39 657.39 198.56"/><text class="cls-2" transform="translate(689.06 568.98)"><tspan class="cls-3">C</tspan><tspan x="104.44" y="0">O</tspan><tspan class="cls-4" x="200.13" y="0">L</tspan><tspan class="cls-5" x="278.9" y="0">O</tspan><tspan class="cls-6" x="374.59" y="0">R</tspan><tspan x="474.51" y="0">S</tspan></text><rect class="cls-7" x="491" y="70" width="297" height="270" rx="12" ry="12"/><rect class="cls-8" x="1121" y="61" width="297" height="270" rx="12" ry="12"/><rect class="cls-9" x="1364" y="412" width="297" height="270" rx="12" ry="12"/><rect class="cls-10" x="1031" y="700" width="297" height="270" rx="12" ry="12"/><rect class="cls-11" x="572" y="691" width="297" height="270" rx="12" ry="12"/><rect class="cls-12" x="201" y="405" width="297" height="270" rx="12" ry="12"/></g></svg>
