<svg id="Layer_1" data-name="Layer 1" xmlns="http://www.w3.org/2000/svg" viewBox="0 0 1920 1080"><defs><style>.cls-1{fill:#1b872e;}.cls-2{fill:#773f1f;}.cls-2,.cls-3,.cls-4,.cls-5,.cls-6{stroke:#000;stroke-miterlimit:10;}.cls-3{fill:#a01227;}.cls-4{fill:#7e8789;}.cls-5{fill:#f89550;}.cls-6{fill:#80c4f3;}</style></defs><title>colors</title><rect class="cls-1" x="107.5" y="265.12" width="533.79" height="336.76" rx="51.84" ry="51.84"/><path d="M589.45,265.62A51.4,51.4,0,0,1,640.79,317V550a51.4,51.4,0,0,1-51.34,51.34H159.34A51.4,51.4,0,0,1,108,550V317a51.4,51.4,0,0,1,51.34-51.34H589.45m0-1H159.34A52.34,52.34,0,0,0,107,317V550a52.34,52.34,0,0,0,52.34,52.34H589.45A52.34,52.34,0,0,0,641.79,550V317a52.34,52.34,0,0,0-52.34-52.34Z"/><rect class="cls-2" x="695.61" y="262.5" width="534.79" height="337.76" rx="52.34" ry="52.34"/><rect class="cls-3" x="1284.21" y="262.5" width="534.79" height="337.76" rx="52.34" ry="52.34"/><rect class="cls-4" x="1284.21" y="634.24" width="534.79" height="337.76" rx="52.34" ry="52.34"/><rect class="cls-5" x="107" y="634.24" width="534.79" height="337.76" rx="52.34" ry="52.34"/><rect class="cls-6" x="698.97" y="634.24" width="534.79" height="337.76" rx="52.34" ry="52.34"/></svg>
