<svg xmlns="http://www.w3.org/2000/svg" viewBox="0 0 1920 1080"><defs><style>.cls-1{fill:#848484;}.cls-2{font-size:127.05px;font-family:Chalkduster, Chalkduster;}.cls-3{letter-spacing:-0.02em;}.cls-4{fill:#77421b;}.cls-5{fill:#30190a;}.cls-6{fill:#c9c4c1;}.cls-37,.cls-38,.cls-39,.cls-45,.cls-47,.cls-48,.cls-49,.cls-50,.cls-51,.cls-6,.cls-8{stroke:#000;}.cls-11,.cls-31,.cls-37,.cls-38,.cls-39,.cls-45,.cls-47,.cls-48,.cls-49,.cls-50,.cls-51,.cls-6,.cls-8{stroke-miterlimit:10;}.cls-7{fill:#4f2a11;}.cls-12,.cls-8{fill:#3f3f3f;}.cls-9{fill:#e26e17;}.cls-10{fill:#ccae1b;}.cls-11,.cls-38{fill:none;}.cls-11{stroke:#30190a;}.cls-13{fill:#ede4bc;}.cls-14{fill:#179926;}.cls-15{fill:#442d19;}.cls-16{fill:#774d2f;}.cls-17{fill:#9e633b;}.cls-18{fill:#143f17;}.cls-19{fill:#000200;}.cls-20{fill:#5b5550;}.cls-21{fill:#44413f;}.cls-22{fill:#726c67;}.cls-23{fill:#a3a19f;}.cls-24{fill:#0c2120;}.cls-25{fill:#2d2520;}.cls-26{fill:#323d3d;}.cls-27{fill:#182626;}.cls-28{fill:#75411a;}.cls-29{fill:#8c6628;}.cls-30{fill:#602315;}.cls-31{fill:#fff;stroke:#381810;}.cls-32{fill:#381810;}.cls-33{fill:#723322;}.cls-34{fill:#4c2306;}.cls-35{fill:#605553;}.cls-36{fill:#996c44;}.cls-37{fill:#a5a5a5;}.cls-39{fill:#d8c623;}.cls-40{fill:#9e9c9a;}.cls-41{fill:#301b0c;}.cls-42{fill:#603a20;}.cls-43{fill:#140b05;}.cls-44{fill:#604326;}.cls-45{fill:#ccb244;}.cls-46{fill:#c7f2ff;}.cls-47{fill:#f2f9f9;}.cls-48{fill:#ff7373;}.cls-49{fill:#424441;}.cls-50{fill:#6a7265;}.cls-51{fill:#dee5da;}.cls-52{fill:#bcc9c9;}.cls-53{fill:#d15e5e;}</style></defs><title>details</title><g id="Layer_3" data-name="Layer 3"><path class="cls-1" d="M639.79,868.65c-1.66.86-.72,2.81,3.86,2.43l3.25-3.31Z"/><path class="cls-1" d="M670.6,874.78c5.39-1.6,11.6-4.42,8.11-7.46-5.33,3.18-6.62,1.85-12.37,5.64-4.58.38-8-1.06-7.22-2.28-1.62.85-7.12-.73-9.58,1.35,6,2.56,13.51,2.66,21.4.55C672.63,873.31,671,874.17,670.6,874.78Z"/><path class="cls-1" d="M1118.33,879.94l-2.89-.39A13.38,13.38,0,0,0,1118.33,879.94Z"/><path class="cls-1" d="M1376.08,819c-1.49,1.5-1.91,2.34-1.78,2.63C1375.58,820.16,1376.62,818.91,1376.08,819Z"/><path class="cls-1" d="M1413.19,789.36c-.82.62-1.47,1.17-2.2,1.74A5,5,0,0,0,1413.19,789.36Z"/><path class="cls-1" d="M1118.33,879.94l7.41,1C1126.26,879.9,1121.94,880.18,1118.33,879.94Z"/><path class="cls-1" d="M732.34,866.8a18,18,0,0,0-4,.87c1.27-.14,2.51-.26,3.78-.35A3,3,0,0,1,732.34,866.8Z"/><path class="cls-1" d="M996,882.63h-2.25a11.16,11.16,0,0,0-1.88,1.35Z"/><path class="cls-1" d="M902.19,883.13c2.12.13,2.86-2.68,3.67-3.91a7.62,7.62,0,0,1-4.62,1.92A2.9,2.9,0,0,0,902.19,883.13Z"/><path class="cls-1" d="M753.38,878.19l-2.64.39C751.42,878.46,752.58,878.34,753.38,878.19Z"/><path class="cls-1" d="M1063.21,883.23a2.13,2.13,0,0,0,.86,1C1064.07,883.89,1063.73,883.55,1063.21,883.23Z"/><path class="cls-1" d="M569.29,791.41c-.19.1-.2.26-.34.37C569.55,792,569.8,791.92,569.29,791.41Z"/><path class="cls-1" d="M639.3,875.84l-1.21-.92a5.51,5.51,0,0,0-1.31.93Z"/><path class="cls-1" d="M1479,732.83l-.32.23C1477.23,734.85,1478.14,733.93,1479,732.83Z"/><path class="cls-1" d="M1199.22,241.22c9,2.51-14.67,3.22-1.1,6C1196.85,246.14,1210.45,242.85,1199.22,241.22Z"/><path class="cls-1" d="M734.77,867.17c1.27,0,2.56-.06,3.85,0A22.28,22.28,0,0,0,734.77,867.17Z"/><path class="cls-1" d="M1198.12,247.24v0l1.4.26Z"/><path class="cls-1" d="M1623.81,595.29a5.66,5.66,0,0,0-2.33.49C1621.73,595.94,1622.31,595.89,1623.81,595.29Z"/><path class="cls-1" d="M1512.34,693.91l3-2.23A26.06,26.06,0,0,0,1512.34,693.91Z"/><path class="cls-1" d="M1612.69,527.9c-1.32-1.52-1.55-2.27-3.81-3.86a4.25,4.25,0,0,0,.38.82A8,8,0,0,1,1612.69,527.9Z"/><path class="cls-1" d="M1553.91,473a14.28,14.28,0,0,0,.7,1.42l2,1.63Z"/><path class="cls-1" d="M389.77,625.62a12,12,0,0,1,1,4.38C391.21,627.69,400.33,635.23,389.77,625.62Z"/><path class="cls-1" d="M732.38,868.38a3,3,0,0,1,2.39-1.21c-.92,0-1.8.08-2.67.15C731.87,867.74,731.81,868.13,732.38,868.38Z"/><path class="cls-1" d="M1595.16,541.88l-9.05-9C1588.53,535.49,1591.83,538.77,1595.16,541.88Z"/><path class="cls-1" d="M657.79,264.29l-2.93.34A6.94,6.94,0,0,0,657.79,264.29Z"/><path class="cls-1" d="M1558.12,507.29a28.46,28.46,0,0,0-3.93-6.33,5.37,5.37,0,0,0-1.58-.49Z"/><path class="cls-1" d="M390.76,630s0,0,0,0S390.74,630,390.76,630Z"/><path class="cls-1" d="M456.81,682.59c-8.84-8.37-6.64-1.26-10-1.47-11.33-9.15-3.06-6.58-5.38-11.34-7.3-5.47-14.7-7.74-19.54-12.46,0-.79-.77-1.85.88-1.36-9-4.4-20.91-19.32-31.59-24.26a3.15,3.15,0,0,1-.44-1.66c.06,2.59-1,4.15-2.21,4.88-4-3.68-9-5.21-8.85-8.38,2.4,2.34,3.27,1.82,4.93,2.33l-4.9-3.13c-1.39-6,6.53,4.45,8.28,2.57-8.92-6.78-20.38-13.55-25.95-20.1,1-3.7,15.38,12.8,9.11,2.81L380,621c-3.73-10.81,5.61,5.76,2.74-4.77-12-12.59-15.41-12-27.41-24.58-4.15-1.29-1,2.92-5.11,1.63-10.17-7.18-12.26-12-13.85-16.26a22.34,22.34,0,0,0-3-6,17.81,17.81,0,0,0-3-3c-.64-.52-1.36-1-2.18-1.58-.13-.1-.1,0-.15-.06h-.88a12.34,12.34,0,0,1-4.46.37,8.26,8.26,0,0,1-5.11-2.6,18.51,18.51,0,0,1,2.75-1.74,9.49,9.49,0,0,0,3.91,1.61c.91-.72,1-1.23,1-1.83s-.3-1.2-.39-1.87a2.67,2.67,0,0,1,0-1,2.65,2.65,0,0,1,.19-.56,12.49,12.49,0,0,1,.87-1.08,41.57,41.57,0,0,1,7.22-5.95c-1.26,3.24-8.82,10-6.63,8.55,10.41-5.56,4.42-7.1,10.84-13.09l3.65,1.24c12.74-12.63,25.5-27.9,39.59-41.91-.11,1.49-1.87,4.59,2.23,2.17,17.15-18.33,39.37-36.19,58.4-51.2l4.75-8.45c1.59-1.44,3.81-1.75,2.5.25,7.64-5.61-.91-1.69,1.61-5.62,3.78-3.81,6.32-3.6,4.44-.64C465,429.75,485.5,406.69,500.44,397l-1.9,3c10.78-8.44,7.14-14.9,18.25-21.53l-1.42,2c22.49-19.26,44.56-43.54,64.08-55.71.25-6,22.69-18.61,20.06-24.22,14.34-9.4,11.52-5.32,30.26-20.13,4.82-4.13,4.4-9.15,9.73-15l2.24,2.12,1.13-2c.07-.1.06-.13.06-.16v-.36c0-.16,0-.33,0-.5a14.56,14.56,0,0,1,.54-2.29,8.28,8.28,0,0,1,.67-.61,11.53,11.53,0,0,1,1.45,1.84,6.86,6.86,0,0,1,.48.93c0,.07.18.15.28.23l.36.23.71.46,7.37-.79c-2.94-.19-6.24-1.39-5.8-2.27,11.51-1.4,28.06,2.14,28.35,3.72l27.23-2.61c-.61,1.24-5.17,1.67-8.77,2.46,14.53-3.14,2.64,3.25,16,.36-1.79-.7,1-1.83,1.27-2.45,6.64,1.86,21.75,1.88,32.94,1.09l-2.15,2.12c20.2.55,42.58-1,65.25-1-8.13-1-6.26-4.67.39-5l2.66,3.26c4.29-2-7-1.23,1.86-3.7,8.47.38,5.7,3.7.83,4.77l10.3-1.13c.6,1-1.81,1.48-2.44,2.72,4.23-2,17.77,3.27,23.87-.24l.58,1c22.66,0,32.94-1.1,51.4-1.26.36-2.81,7.58-2.19,13.08-4.46,13.56.9,28.62,3.11,45,2.87,11.48-1.4,3.35-2.38,8.52-4.06.84,2.56,17.17,2.33,8.7,4.17,19.62-.42,25.06-.52,49.87-2.6-2.69-1-5.72-1.5-4.15-2.37,4.5-.42,10.24,1.07,9.59,2.3l-1.18.27c27.85-3.85,64.27,7.46,86.45,2.12l-1.24.27,23-2.78c10.58.44-6.35,1.92,1.48,3.51,24.81-4.28,39.2.61,59.62-2.23,15.82,7.55,56.12-.53,77.47,4.29l-1.24-1.78c5.52-1.74,6.67,1,10.74,1.43-.58-1.39-6-1.6-2.56-2.57q6.07-.29,12.23-.41l7.91-.14,7.43,7.13q5.34,5.18,10.62,10.47c7.06,7.05,14.07,14.24,21,21.46,14,14.45,27.85,29.06,41.87,43.06,12.48,12.31,13.55.06,26.8,18.24l-6.84-1.87c28.55,21.24,52.76,49.46,80.35,70.63-2-.86-2.75-.17-5.21-2.49,3.71,6.75,19.69,18.54,21.11,17.2,3.79,3.84-.29,2.14,1.46,5.14,4.39,6,15.54,10.32,16.76,14.73.22.74-2-.84-3.14-1.62,4.28,2.41,16.07,15.42,14.61,10.27,8.6,9.83,19,16.06,25.47,24.34,7,2.34,15.24,16.26,19.79,14.53-3.77,2.67,14.16,18.21,21.62,22.27-2.95-.88,4.25,5.91.6,5.09,6.9,6.35,13.75,11.6,14.14,8.79a37.84,37.84,0,0,0,4.7,6.48c.88,1,1.78,1.9,2.72,2.78l.62.59.17.14.37.24c.52.31,1.2.59,2,1a22.8,22.8,0,0,1,2.45,1.26,3.74,3.74,0,0,1-1.81,1.71,4,4,0,0,1-3.44-.06c0,.15-.1.3-.16.46v0l-.11.12-.22.24-.43.48-.87,1-3.47,3.82-6.89,7.53q-6.84,7.46-13.56,14.59c-9,9.53-17.79,18.69-26.58,27.63-2.42-3.91,19.93-19.23,15.91-22-16.1,17.58-23.48,29.77-41.45,45.06-4.88,3.71,1.2-3.8,2.18-5.77-16.08,17.57-33.83,31-47.6,47.25-.24-.34,1.11-2.24,2.45-4-2.94,2.95-7.53,6.13-5.78,7.31l2.58-3.18c6.89-2.36-7.84,15.83-7.31,17.49,1.15-9.12-16.26,13.16-13.12.07-1.74,2.15-3.59,5.21-2.2,5.78-3.24,2.49-4.73,2.78-2.78-1.17-10.14,11-4.78,9-14.69,18.16-.64-.76,1.09-2.9,1.31-4.71-3.68,6.08-7.38,12.19-16.3,19.37.1-.91-1.4-.57,1.1-2.88-14.13,13.6-20.92,26.58-37.91,39.9,1.69-7.49-6.32,3.95-9.7,2l-7.7,8.71,4.63-1.84c-7.45,6.87-12.14,15-19.34,20l4.45-6.27-13.39,13.48,8.82-6.3c-6.18,8.41,4,2.7-6.54,11.15,1.74-2.15-7.44,6.89-12.8,8.88,0,0,0,0,0,0-2.85,4.29-5.77,8.73-11.87,13.17-2.24.45-1.68-4.09-3.14-3.81-1.49,5.66-16.76,16.83-19.07,23.54,1-2-.26-3.5-1-3.33l-1.3,4.69c-4,2.61-4.76,2.79-5.27,1.13-.62.54-1.15,1-1.59,1.45l-.61.61a6.22,6.22,0,0,0-.43.47,2,2,0,0,0-.48,1c-.06.53.36.81.82,1s1,.37.86.82-.84,1.24-2.67,2.57c-.35-.07-1.07-.17-1.87-.3.7-.15.54-.41,1.47-.69,0-.07.15-.39.44-.78l-.57.44c-1.44-.11-2.81-.17-4.17-.19h-2.93l-3,0c-4,.1-7.92.29-11.81.48a179.62,179.62,0,0,1-23,.08c-4.57-3.75,13.51-.92,8.29-4.08-22.31.68-46.18,4.5-67.76,3.61l4,.42c-3,5.3-16.07-2.62-27-.12,2.68-.39,3.51-2.95,2.79-2.35-14.78-.86-30.22,1.3-52.61,3l2.77-1.37c-8.71-1.21-22.93-.7-32.34-1.32-2.8,1.36-8.18,1.14-4.91,3.12-29-7.76-55.33,4.16-81.07-2.3,3.08,0,7.34-1.19,4.89-1.2l-21.92,1.26c1.73,2.31,2.87,1.4,7.48,3.2-2.78,1.37-9,2.43-14.4,2.43,9.86-1.53-.09-3.71-4.34-5,.71.71-.75,1.49-.39,2.21-11.45-4.11-1.92,4.65-17.55,1.88l.82-1.22c-5.85.62-11.24,2.23-17.55,1.88-2.62-2.67,6.23-1.25,6.63-3.45-8.86.16-17.49,5.07-25.51,2.4,3.76-.74,9.18-.75,12.94-1.49-8.73-3.14-9.75-2.34-16.24-2.84l.64.07-15-1.42,3.83.85c-11.09,7-22.59,1.27-37.53,5.84,14.52-4.32,2.4-2.5,3.51-5.53-3.81-.84-9.61-1.79-8-2.64-7.06,2.45-11.79-1.92-21.75,1.65-.45-1-7.56-.09-6-2.54-9.18.76,2.17,1.69,1.4,2.92-14.15,3.33-33.26-4-53.62.53-17.56,1.88-20.8,5.17-37.09,6.81-5.5-1.56,4.5-3.56,4.5-3.56a75.16,75.16,0,0,0-23.9-.05c1.69-.85,0-1.57-2.6-2.67-6.71.26-4.48,3.55-13.33,2.12a22.82,22.82,0,0,1,6.7-3.92c-7.91.9-15.71,2.72-23.9,3.6-2.17-1.7,4.94-2.58,7.83-3.69-9.2.76-23.83,1.54-26.67,4.23l5.9,1c-3.35.13-1.73-2.31.75-2.8,7.88-2.11,11.36.93,11.81,1.91l-5.83.62c6,5.72,23.41-.91,35.14-.58l-4.89,4.16,12-3.45c2.56,1.08,4.31,3.4-1.48,4,8.41,2.06,7.44-1.48,14.67.82.8.35.43.55-.3.72l8.21-1.24c-1.61.87,1.37,2.94-3.68,2.34,14.75,2.4,23.79-3.12,29.34,0l-1.23.25c20.46-1.4,2-3.05,17.33-6.63l10.32,7.53,2-3.05c2.11.11,6.28.33,5.51,1.56,7.86-2.09-1.34-1.33,3.22-3.31,10.16,2.79,28-1.3,30.31,3.57,3.65-2.32-9.72-1.79,1.13-3.41,3.1,5.24,12.54-.89,21.82,1.51-2.85,2.7-11.64,1.27-2.35,3.68,5.6-4.57,18.08,1,25.91.12.36-3.63,17-1.51,30.16-2.72-.83,1.22,24.72,2,37,3.31l-.36.61c2.36-3.67,15-3,24.15-3.74-.36,2.2-2,3.06-7,4l8.63,0c2-1.18,4.72-1.8,10.32-2.22l-2.17,2.75c11.49-.15,23.13-3.23,37.91-1.4.83-2.56-11.75-7.13,3.88-8.84.58,1.38,1.15,3.75-2.94,4.32,1.34-.19,4.78-1.15,7.48-.56L1042,879c6.73,1,3.52-2,8.9-1.73-.11,2,4,1.41,3.21,3-1.37.2-4.7-.81-6.76,0,6.07.36,13.41,1.53,15.83,3-.53-1.12,0-2.66,4.44-2.91,11.49-.15,3.94,2.37,10.64,3.39,2.78-1.37,10.11,0,10.3-2.9,3.36,0,4,1.39,5.28,2.19,5.94-1.3,27.77-.37,21.07-3.51l-1.53-.21c.29-.06.62-.07,1-.13h0c19.48-2.94,40.47,1.67,59.81.41l0,1c11.55-1.13,25.69-.67,33.93-2.8,3.42,0,8.06,1.81,6.6,3,8.82-.74,9.81-1.85,22.55-.22-8.87,1.72,3.06,1.53-9.09,1.26,11.47.86,14.06,2.44,26.37-.26-4.19,2.53,8.63,3.18,14.08,2.43l-8-1.81a161,161,0,0,1,16.92.07l-2.94,3.33a71.07,71.07,0,0,0,16.58.75c2.65-.17,5.23-.44,7.77-.76l.94-.12,1.45-.13,3-.25,5.71-.52,7.41-8.2c1.6-1.83,3.23-3.58,4.95-5.2a37.66,37.66,0,0,1,11.64-7.76c3-5.94-10.43,7.5-8.23,1.72,8.19-7,19.67-11.22,22.14-13.52,12.06-8.74,6.76-13,18.93-22.6-2.25.49-5.78-.56,1.9-9.26,8.2-7,13.1-5.42,8.77-.07-1.83,1.84-3,2.41-3.19,2-2.26,2.7-5.25,6.2-1.25,4.22l.21-1.82c4.74-2.78,15.51-13,14.29-9.2,5.19-6.4,1.22-3.81-3.61-.13,11.29-8.2,15.85-14.73,27-23.62-2.1,1.07-4.58,1.48-2.92-.05,16.29-13.2,5.19-7.93,15.19-18,7.12-4.17.84,5.12,10.23-5.72,7.2-5.05,3.5,1,1.63,4.11,7.93-10.54,18.77-15.47,24.48-20.23l-4.35,5.38a74,74,0,0,1,7.56-7.82l-4.47.94c3.22-2.44,5.71-4.76,6.33-4,2-4-5-.73-.46-7.89,4.74-2.77,11-12.08,14.55-11-13,10.72,3.52,1-6.56,11.14a43.09,43.09,0,0,1,7.45-6.87c.68-.16,0,.86-.65,1.74,13.7-8.94,3-7.66,15.24-19-.34,2.75,5.13-.18,6.87-2.32-4.95,4.57-4.38,0-.79-5.17,8.77-6.31,7.81-8.7,12-12.42l-5.12,3.9c.37-2.78,4.44-6.26,9.52-11.77,1.41.57-4.31,5.32-1.94,4,3.93-7.94,15.9-10.43,22.91-19.86,4.74-2.78,2.66,2.09,6.65-.53,7.9-10.53,11.92-7.8,20.58-18.49-4.5.94-4.6,1.83.82-6.41l-15.22,16.51,8.14-12.35c-5,4.59-9.4,10.83-12.64,13.3,3.68-6.1,3.57-5.18-.15-4.42,9.2-3.7,12-14,21.44-19.57l3.79,4.54c13.55-9,18.8-21.7,35.07-34.86l-5.6,3.83c.44-3.63,9.19-9,13.48-14.34.89,1.87,4.47-.49,7.41-1.56-1.25-.83,11.26-10.33,10-14.5.31-.14.84-.49,1.33-.79l1.48-1,3.07-2c2.1-1.36,4.28-2.81,6.56-4.34a113.9,113.9,0,0,0,9.56-9.14,147.82,147.82,0,0,0-17-11.76c-1.24-.78-2.46-1.56-3.68-2.37-1.06-.71-2.16-1.47-3.35-2.28a44.75,44.75,0,0,1-6.32-5.41c5,1.77.6-4.28,9.58,2-3.94-3.7-7.25-7.29-8.24-6.35-1.47-3-12.78-8.29-15.13-13-2.26-.92-4.22.08-8.54-4.18-.21-.75.68-.7.68-.7-.68.7-7.85-5.52-5.47-.3-8-15.87-34.33-31.45-41.32-45.22-9.08-7.57-19.91-16.81-27.84-24,.91,0,.7-.69,2,.84-9.55-11.43-10.51-2.06-21.4-15-4.11-8.19,7.7,4.84,4.61.3,2.73-6.34-15.44-13.21-21.12-23.71l2.26,1.6c-4.82-7.52-17.11-12.61-27.12-22.6,0,0,.89.05.73-.66-9.33-4.18-23.45-15.87-34-24.47,4.83,1,5.44,3.23,5.31-.42-4.7-3.89-1.52,4.25-10.91-3.53-1.94-3.71-7.53-10.59-6.5-13.4l8.49,7.72c-1.86-6.62-10.94-10.05-14.93-14.63l1.62-.61c-13.2-11.63-16.06-8.93-29.68-22l.62,2.2c-10.2-4.21-4.83-7.51-14.34-12.43l.41-5c-5.63-4-20-13.5-29.49-21.3,7.06,2.58,18.53,11.25,26.19,16-4.92-4.63-17-15.46-20.88-16.43,2.25,1.58,5.41,3.21,7,5.49-8.17-3.39-17.19-9.72-27-19,2.28-1.3.46-4.46-3.12-8.51-1.79-2-4-4.27-6.4-6.62l-9.61-9.38c-2.67-.07-5.31-.17-7.87-.31l-1.82-.11-1.23-.12c-.8-.09-1.58-.19-2.33-.31a20.63,20.63,0,0,1-7.21-2.16c-23.82,2.83-47.25-1.21-75-.76,9.84,6-8.1.17-6.4,6.28-6.46.4-8.93.3-9.5-.1l-19.59-3.65c-4.64-1.78,6.14-1.35,5.55-2.72-14.15-.47-5.94-2.6-15.3-4.22,1.92,2.19-4.92,3.13-13,2.3l11.36,2.82c-19.78,3.25-17.09-5.13-37-1.91l6.31-1.93c-10.23,1.14-37.74,0-47.77,4.88-1.81-.71-4.2-2.38.31-2.82-24.45-.74-54.42,5.22-73.42,2.2l1.85-1.49c-4.56.43-7.94,2.81-13.65,1.3.3-.62,1.84-1.49-.27-1.58-2.42.51-12.12,2.62-18.16,1.75l5.16-1.68c-23.85-2-36.6,4.09-56.59,5.12.05-4.4-18.71-5.83-28.08-6.55l.33-.62c-27.77-.54-47.17,3.65-72.88,5.38-16-4.78-54.07-2-79.72-4.68,3.92.8-.64,3.43-5.2,3.87-6-.89-16.64,3.05-15.69-1l2.15.08c-4.54-4-16.91-2.9-26.57-3l-1.6,5.28c-9.76-3-21.87-3.22-33.84-2.81-6,.2-11.94.57-17.55.85-2.8.14-5.52.26-8.11.32l-2.5,0h-3c-2,0-3.93,0-5.82-.06-1.64,1.47-3.24,2.86-4.79,4.15l-2.3,1.88-.57.45-.28.22-.18.12-.7.48a21.26,21.26,0,0,1-5.33,2.62c-3.56,5.12-9.09,10.27-12.61,15.36l-1.69-2.3c-12.84,11-19.25,16.5-34.05,31.25l1.73-4.39c-8.73,7.91-5.3,16.12-13.12,23.66l-5.28-.86c-15,14.07-32.71,25.56-44.93,42.22-.18-.68-.57-2,1.74-4.38-7.14,6.52-29.3,23.44-22.77,25.29-2.75-2.6-15.75,14.2-22.72,23l-.64-3.22c-4.42,9-4,9.91-12.86,19.56-2.51,1.85-3.51.23,0-2.06-8.55,6-4.08,7.42-14.25,14.88l2.2-4.48c-7.92,7.09-6.65,7.21-9.51,12.72-4.12,5.38-15.22,13.25-18.08,12.48,0,2.1-2.85,7.58-7.93,11.32-1.26-.12,0-2.11.64-3.1-14.28,10.74-17.1,20.4-27.9,26.74a2.56,2.56,0,0,0-2.64.2c10.36-9.59,18.77-17.24,18.13-16.36-1.75-1.88-10.39,5.57-6.18-3.21-5.37,7.66-13.94,21.42-22.89,28.12a5,5,0,0,1-1.68.36l.65-1a23.44,23.44,0,0,0-4.86,5.1,75.19,75.19,0,0,0-7.25,5.72c-2.41-.66-10.34,8.09-14.57,11.89,2.26,1.74-3.49,6.49,3.2,3.42-.8.47.55-1,3.23-3.64a17.13,17.13,0,0,0,1.58-1.87c0,.13-.07.29-.12.45,2.68-2.61,6.19-6,10.2-9.79-2.3,4.11-4.91,8.19-10.58,11.34-.89,3.32-2,6.86-2.7,8.74-8.37,2.44-20.77,11.13-23.95,10.79-1.44,1.61-3,3.26-4.55,4.93l-2.4,2.54-.31.31-.48.49-1,1L308.33,548c-5.54,5.51-11.06,11-16,16.1,6.1,5.2,11.92,10,17,13.75a46.1,46.1,0,0,0,6.47,4.28,28.64,28.64,0,0,0,4.62,1.94c4.07,2.88,3.12,5,3.9,6.85-2.45-1.56-4.87-3.93-6.51-4.43,8.13,5.75,21.73,19.58,26,18.49,8,9.71-7.43-2.29,5.48,8.93l-2.46-.75c20.56,27.27,46.39,30.44,68.47,61.42-1.57-2.11-2.37-3.14-2.33-4,28.79,31.45,66.16,57.5,93.2,90,8,8.92,10.54,8.08,17.08,11.74l-.18,4,11.47,5.94c14.64,10.18,17.27,26.27,36.89,38l-.72-3.46c5.61,5.76,19.39,16.47,16.82,17.26.85.29,3.36.25,4.93,3.17l-.9,1.32L607.78,850c10.38,11.26-6,3,10.05,18.39,6.48,5.21,20.39,12.74,18.84,9.85-2.39-2.34-5.58-6.56-4.68-7.88l6.1,4.57c4.18-2.47,11.7-2,.32-17L627,851.1l-1.51-4.5,8.07,7.35c-3.07-5.78-7.22-7.08-11.31-9.14.06-1.59-.7-3.44-2.27-5.53l-12.34-5.43c.12-2.39,6.64,1.25,1.08-5.31-5.76-2.56,1.39,6.89-6.74,1.14-3.09-5.78-.59-5.8-7.15-9.45.07-1.57,1.72-1.08,4.19.5-5.72-3.37-13-11.25-17.08-11.73-2.94-6.32-16.45-14.43-13-17.22-2.21-.62-10.7-5.26-15.17-9.18,11.54,3.56-16.07-15.43-10.11-17.61-9.12-2-22.68-18.3-34.89-26.1a6.62,6.62,0,0,1,3.25,1.82c-5.59-5.77-6.32-8.4-9.47-12.58-3.43,2.16-13.17-5.71-19.74-8.54-4.61-9.47,7.5.71,7.72-4.05-1.8,2.66-14.65-9.34-14-5.12-3.9-6.85-4-5.26-4.57-10.27-4.31,2.68-5.69-4.17-12.3-6.23-6.31-9.19,1.08-5.27-8.67-12.34C447.86,676.6,456.81,682.59,456.81,682.59ZM380,505.69l0,0-4.18,4.12Zm17.43-16.34c-2.2,1.9-4.86,4.36-7.65,7-1.27-.14-1.29-1.49.5-3.09C389.79,494.61,394.28,491.18,397.45,489.35ZM347.22,509.6c2.49-2.87,3.79-3.33,4.56-3.26-1.27,1.25-2.73,2.75-4.6,4.76,0,.15-.09.39-.09.55A3.85,3.85,0,0,1,347.22,509.6Z"/><path class="cls-1" d="M344.76,516.94a11.29,11.29,0,0,1-1,1.21,22.55,22.55,0,0,0,2.08-1.08c.14-.53.28-1.07.38-1.55Z"/><path class="cls-1" d="M1114.94,879.49l.5.06a1.34,1.34,0,1,0-.5-.06Z"/><polygon class="cls-1" points="642.25 268.1 641.74 267.61 640.64 269.49 642.25 268.1"/><path class="cls-1" d="M983.35,869.84a3.5,3.5,0,0,0-1.73-.72A4.59,4.59,0,0,0,983.35,869.84Z"/><path class="cls-1" d="M926.5,869.21l-8-1C921.94,868.78,924.48,869.05,926.5,869.21Z"/><path class="cls-1" d="M882.8,867.81a3.09,3.09,0,0,0-.86,1.21l.09,0Z"/><path class="cls-1" d="M1497.3,682.22a14.45,14.45,0,0,0,1.15-1.24C1501,677.88,1499.15,679.87,1497.3,682.22Z"/><path class="cls-1" d="M1350.64,828.16c1.26-1.87,2.5-3.71,4-5.51C1351.76,825,1349.63,826.92,1350.64,828.16Z"/><path class="cls-1" d="M1596.15,542.87s0,0,0,0l-1-1Z"/><path class="cls-1" d="M1361.66,816.13a32.43,32.43,0,0,0-7.06,6.52A50.59,50.59,0,0,0,1361.66,816.13Z"/><path class="cls-1" d="M693.37,866.54l-2.1-.12a.47.47,0,0,1-.25.45Z"/><path class="cls-1" d="M691,866.87l-2.34.34A4.38,4.38,0,0,0,691,866.87Z"/><path class="cls-1" d="M683.76,867.91l4.92-.7C687,867.2,684.88,867.11,683.76,867.91Z"/><path class="cls-1" d="M751.23,867.84l.66-1A1.33,1.33,0,0,0,751.23,867.84Z"/><path class="cls-1" d="M768.81,867.54c-4.19-.23-10.52-2.17-16.37-1.53l-.55.81C754.64,865.3,764.83,869.26,768.81,867.54Z"/><path class="cls-1" d="M842.2,880.14l-14.73-.81c2.57,1.08,6,2.54-.74,2.8C845.3,885.37,822.9,879.71,842.2,880.14Z"/><path class="cls-1" d="M887.88,881.72c-7.91.5.09,1.57-.33,2.19C892.57,882.92,893.79,882.67,887.88,881.72Z"/><path class="cls-1" d="M1218,881.73l-.8,2.56C1223.32,883.92,1217.27,883.29,1218,881.73Z"/><polygon class="cls-1" points="1281.12 868.51 1275.18 866.92 1272.35 869.26 1281.12 868.51"/><polygon class="cls-1" points="1322.95 875.43 1321.25 877.52 1328.06 869.89 1322.95 875.43"/><path class="cls-1" d="M1566.06,481l-.8,3.56C1568.65,486.94,1571.7,485,1566.06,481Z"/><path class="cls-1" d="M1388.93,320c-.83-2.93-5.06-8.26-9.15-10C1383.56,313.83,1386.65,318.39,1388.93,320Z"/><polygon class="cls-1" points="694.66 240.41 699.47 239.36 690.4 240.24 694.66 240.41"/><text class="cls-2" transform="translate(689.52 597.45)">DE<tspan class="cls-3" x="182.78" y="0">T</tspan><tspan x="277.68" y="0">AILS</tspan></text><path class="cls-4" d="M416.5,352.87a205.58,205.58,0,0,1,5,53c-1.25,28.13,8.78,74.48,8.78,82.75s5,49.66,5,56.28,138-13.24,138-13.24-5.64-73.66-.63-108.41,8.78-76.14,5-82.76-163-3.31-161.79,5,0,8.27,0,8.27Z"/><path class="cls-5" d="M466.67,404.18s6.27,130.76,6.27,134.07,12.55,0,12.55,0-10-130.76-6.28-134.07S466.67,404.18,466.67,404.18Z"/><path class="cls-5" d="M531.89,400.87s6.27,130.76,6.27,134.07,12.55,0,12.55,0-10-130.76-6.28-134.07S531.89,400.87,531.89,400.87Z"/><path class="cls-6" d="M434.75,382.65c-4,25.49-2.95,42.19-2.95,42.19l7,51.18,8.78,57.47s11.17-2.56,12.5-1.65S456.19,426,456,419.47s-8.19-45.6-12.88-45S435.71,376.55,434.75,382.65Z"/><line class="cls-6" x1="440" y1="374.9" x2="439.69" y2="374.94"/><line class="cls-6" x1="454.18" y1="532.62" x2="439.69" y2="374.94"/><line class="cls-6" x1="449.81" y1="483.26" x2="458.19" y2="464.78"/><line class="cls-6" x1="444.63" y1="427.49" x2="452.59" y2="399.29"/><line class="cls-6" x1="446.82" y1="452.17" x2="432.74" y2="399.75"/><line class="cls-6" x1="450.62" y1="494.01" x2="436.13" y2="456.84"/><path class="cls-6" d="M551.33,368.21c-5.44,25-5.64,41.83-5.64,41.83l2.89,52.16,4,58.67s10.42-1.09,11.57,0,3.76-106.48,4-113-4.34-46.72-8.68-46.72S552.63,362.24,551.33,368.21Z"/><line class="cls-6" x1="556.68" y1="361.15" x2="556.39" y2="361.15"/><line class="cls-6" x1="558.71" y1="520.87" x2="556.39" y2="361.15"/><line class="cls-6" x1="558.13" y1="470.89" x2="567.09" y2="453.51"/><line class="cls-6" x1="557.26" y1="414.39" x2="566.52" y2="387.23"/><line class="cls-6" x1="557.55" y1="439.38" x2="548.29" y2="385.05"/><line class="cls-6" x1="558.13" y1="481.76" x2="547.42" y2="442.64"/><path class="cls-7" d="M489.88,359.49s-35.12,33.11-41.39,48H558.86c12.54,0-31.36-49.65-36.37-48S489.88,359.49,489.88,359.49Z"/><path class="cls-8" d="M489.77,423.29c5.21-1.07,12.76-3.7,19.81-6.41,9.88-3.79,18.76-7.73,18.76-7.73l1,117-39.61,15.43Z"/><line class="cls-8" x1="506.97" y1="417.5" x2="505.93" y2="535.77"/><line class="cls-8" x1="506.97" y1="461.21" x2="528.86" y2="452.21"/><line class="cls-8" x1="490.29" y1="458.64" x2="506.97" y2="461.21"/><line class="cls-8" x1="489.25" y1="497.21" x2="505.93" y2="499.78"/><line class="cls-8" x1="505.93" y1="501.06" x2="528.86" y2="490.78"/><line class="cls-8" x1="489.25" y1="495.92" x2="505.93" y2="501.06"/><ellipse class="cls-4" cx="515.31" cy="477.92" rx="2.61" ry="3.21"/><path class="cls-7" d="M417.13,540.73s164.3-23.17,173.08-16.55c0,0,3.77,24.82,0,26.48s-164.3,11.58-168.06,14.9S410.86,540.73,417.13,540.73Z"/><polygon class="cls-4" points="466.42 546.08 466.64 561.57 548.2 552.5 548 538.41 466.42 546.08"/><path class="cls-5" d="M445.71,560.59s112.3-9.93,115.93-8.28,0,13.25,0,13.25l-115.93,5S442.08,560.59,445.71,560.59Z"/><path class="cls-4" d="M432.81,583.76V570.52l8.53-.63c29.42-2.16,125.22-9,133.71-7.65a17.36,17.36,0,0,1,0,9.94C573.37,577.14,437.83,580.45,432.81,583.76Z"/><path class="cls-5" d="M478.31,160c5.08,20.51,20.24,73.13,12.88,32.37s-15.25-61.53-14.41-45.87"/><path class="cls-5" d="M517.14,157.3c-4.77,20.64-15.26,75.21-3.55,36.26s14.31-61.93,8.18-48.47"/><path class="cls-9" d="M496.77,170.81c-1.25,5,6.27,13.24,6.27,1.66S496.77,170.81,496.77,170.81Z"/><path class="cls-10" d="M501.75,149.4s-1.66-3.45-5.65-.69c-.67,3.44.33,10.33-.34,12.4a7.66,7.66,0,0,0-3,5.51c-.33,2.07-.67,6.89-.67,6.89s13.31,1.38,14.31,0,0-10.33-1.66-11.71-3,1.38-3-5.51S502.42,150.09,501.75,149.4Z"/><path class="cls-7" d="M487.08,186.63s23.54-9.08,29.42,0c1.68,36.33-3.36,31.79-5,31.79s-25.22-4.54-26.9,0S481.2,186.63,487.08,186.63Z"/><path class="cls-8" d="M411.49,338c-1.26-1.66-6.28-11.59-6.28-11.59l71.5-97.65,25.08-24.83,84,112.55,3.77,24.83-87.71-7.38-73.59,4.52Z"/><path class="cls-7" d="M404,336.32s1.25,11.59,0,18.21S427.79,338,498,344.6s89.05,5,94.07,11.58,7.52-29.79,2.5-28.13-117.89,3.31-140.47,0S404,326.39,404,336.32Z"/><path class="cls-5" d="M387.66,336.32s1.25,9.93,11.28,5,60.21-86.07,80.27-107.58S495.52,208.88,503,215.5s76.51,112.55,85.29,120.82,22.58,33.1,18.82,16.55c-1.13-4.95-7.31-22.25-20.07-41.37-29.91-44.82-81.4-108.58-84-110.9-3.76-3.31-36.37,29.8-66.47,76.14C422.77,294.94,410.23,323.08,387.66,336.32Z"/><path class="cls-6" d="M543.18,307.41c0,19.4-90.76,19.4-90.76,0s20.32-35.14,45.38-35.14S543.18,288,543.18,307.41Z"/><line class="cls-11" x1="497.8" y1="322.25" x2="495.55" y2="271.77"/><line class="cls-11" x1="503.05" y1="322.25" x2="532.3" y2="284.64"/><line class="cls-11" x1="489.55" y1="321.26" x2="469.3" y2="279.69"/><path class="cls-11" d="M467.74,318.63s42.84-68.39,54.45,1.27"/><path class="cls-12" d="M475.05,154.44c18.43,0,52,3.32,53,0s-19.48-83-28.14-68S464.23,154.44,475.05,154.44Z"/><path class="cls-6" d="M487.88,149.22c16.8-5.8,28.53,4.3,23.53-15.2s-10-39-16.19-15.62S485.08,150.19,487.88,149.22Z"/><line class="cls-11" x1="498.1" y1="147.46" x2="503.77" y2="110.14"/><line class="cls-11" x1="501.5" y1="125.07" x2="493.25" y2="122.61"/><line class="cls-11" x1="500.36" y1="132.53" x2="513.08" y2="140.52"/><line class="cls-11" x1="500.21" y1="137.89" x2="489.02" y2="141.76"/><path class="cls-13" d="M497.37,36c-4.21,0-8.36,1.38-8.88,3.45s-3.66,5.51,0,5.51,6.79-3.44,10.44-1.38c0,5.52.53,15.17,0,21.37a60.38,60.38,0,0,0,0,13.79c.53,4.14,5.23,2.07,5.23-2.76s-.52-27.57,0-29.64-1.57-3.45,2.09-2.76,7.83,2.76,8.88.69,2.61-9-3.14-8.27-7.83,3.45-8.35,0,1-18.61-1.57-17.23-4.18,2.07-4.18,8.27S498.93,36,497.37,36Z"/><path class="cls-5" d="M466.67,146c-5,18.21-1.25,24.83,7.53,5s26.34-72.82,27.59-62.89,27.59,72.82,32.61,74.48-8.78-36.42-12.54-48-12.54-34.76-20.07-39.73S478,124.47,472.94,132.74,466.67,146,466.67,146Z"/><path class="cls-14" d="M898.47,622.88v16.84c0,2.78,4.4,2.78,4.4,0V622.88c0-2.78-4.4-2.78-4.4,0Z"/><path d="M896.28,628v11.72c0,2.78,4.39,2.78,4.39,0V628c0-2.78-4.39-2.78-4.39,0Z"/><path d="M905.79,630.93v26.36c0,2.78,4.4,2.78,4.4,0V630.93c0-2.78-4.4-2.78-4.4,0Z"/><path d="M911.5,623.76l5.13,5.12c2,2,5.12-1.17,3.07-3.07l-5.12-5.13c-1.9-2-5,1-3.08,3.08Z"/><path d="M907.26,622.15v39.53c0,2.78,4.39,2.78,4.39,0V622.15c0-2.78-4.39-2.78-4.39,0Z"/><path class="cls-14" d="M923.36,943.51S848.7,665.34,895.55,617s58.56,20.5,57.09,43.93c-.58,9.07-1.31,49.92-2,97.65-1.17,75.4-2.34,167.78-2.34,177.59C948.25,952.29,924.83,949.37,923.36,943.51Z"/><path class="cls-14" d="M1022.19,636.79c-2.93,4.39-1.47,5.86-7.32,16.1-3.08,5.57-5.42,6.74-8.06,6.74a27.11,27.11,0,0,0-2.19-5.27c-4.39-7.32-13.18-2.93-23.43,2.93s-8.05,50.51-9.51,59.29-1.47,14.64-10.25,32.21-17.57,11.71-17.57,11.71c-8.05-3.66-9.52,13.91-2.2,18.3s41-26.35,43.93-30.74,10.24-23.43,19-42.46c5.71-12.44,5.85-27.52,4-38.36,3.81-1.17,8-2.78,12.15-4.1,8.79-2.93,10.25-19,10.25-26.35S1025.12,632.4,1022.19,636.79Z"/><path class="cls-14" d="M877.25,793.44c-4.4-11.71-11.72-33.67-10.25-45.38s-2.93-24.89-16.11-26.36-16.1,17.57-13.17,30.75,17.56,54.17,24.88,57.1,36.61,4.39,41,8.78,5.85-4.39-1.47-13.17C893.35,799.3,881.64,805.16,877.25,793.44Z"/><path class="cls-14" d="M891.89,666.07c4.39,0,2.92-16.1,2.92-16.1-10.24-1.47-20.49-2.93-19-10.25s0-42.46-14.64-33.68-2.93,36.61,0,41S887.49,666.07,891.89,666.07Z"/><path class="cls-15" d="M891.89,960.35h114.19c8.79,0,1.47-11.72-7.32-8.79s0-17.57-17.57-13.17c0,0-18.88-20.5-34.4-9.52,0,0-34.41-24.16-46.12-3.66S878.71,960.35,891.89,960.35Z"/><path d="M903.89,627.27v27.82a1.1,1.1,0,0,0,2.2,0V627.27a1.11,1.11,0,0,0-2.2,0Z"/><path d="M926.58,606.78v22.69a1.1,1.1,0,0,0,2.2,0V606.78a1.11,1.11,0,0,0-2.2,0Z"/><path d="M923.66,652.16v21.23a1.1,1.1,0,1,0,2.19,0V652.16a1.1,1.1,0,0,0-2.19,0Z"/><path d="M857.77,614.1v7.32a1.1,1.1,0,0,0,2.2,0V614.1a1.11,1.11,0,0,0-2.2,0Z"/><path d="M863.63,632.4v8.05a1.1,1.1,0,0,0,2.2,0V632.4a1.11,1.11,0,0,0-2.2,0Z"/><path d="M888.52,688.76v20.5a1.1,1.1,0,0,0,2.19,0v-20.5a1.1,1.1,0,0,0-2.19,0Z"/><path d="M909,704.87v30.74a1.1,1.1,0,1,0,2.19,0V704.87a1.1,1.1,0,0,0-2.19,0Z"/><path d="M898,753.91v19a1.1,1.1,0,0,0,2.2,0v-19c0-1.31-2.2-1.31-2.2,0Z"/><path d="M931.71,723.17v16.1a1.1,1.1,0,1,0,2.19,0v-16.1a1.1,1.1,0,0,0-2.19,0Z"/><path d="M920.73,766.36v13.17a1.1,1.1,0,1,0,2.19,0V766.36a1.1,1.1,0,0,0-2.19,0Z"/><path d="M936.83,797.84v15.37a1.1,1.1,0,0,0,2.2,0V797.84a1.11,1.11,0,0,0-2.2,0Z"/><path d="M911.94,799.3v17.57a1.1,1.1,0,0,0,2.2,0V799.3a1.11,1.11,0,0,0-2.2,0Z"/><path d="M913.41,844.69v13.17a1.1,1.1,0,1,0,2.19,0V844.69a1.1,1.1,0,0,0-2.19,0Z"/><path d="M936.54,865.62a1.1,1.1,0,0,0,0-2.19,1.1,1.1,0,1,0,0,2.19Z"/><path d="M936.1,863v13.9a1.1,1.1,0,1,0,2.2,0V863a1.11,1.11,0,0,0-2.2,0Z"/><path d="M925.85,878.36v11.71a1.1,1.1,0,1,0,2.2,0V878.36a1.11,1.11,0,0,0-2.2,0Z"/><path d="M962.45,756.11v6.59a1.1,1.1,0,0,0,2.2,0v-6.59a1.11,1.11,0,0,0-2.2,0Z"/><path d="M984.41,668.27V680a1.1,1.1,0,0,0,2.2,0V668.27a1.11,1.11,0,0,0-2.2,0Z"/><path d="M996.13,680v16.1a1.1,1.1,0,1,0,2.19,0V680a1.1,1.1,0,0,0-2.19,0Z"/><path d="M983,708.53V726.1a1.1,1.1,0,0,0,2.2,0V708.53a1.11,1.11,0,0,0-2.2,0Z"/><path d="M1023.94,641.18v5.13a1.1,1.1,0,0,0,2.2,0v-5.13a1.11,1.11,0,0,0-2.2,0Z"/><path d="M841.67,731.22v5.86a1.1,1.1,0,1,0,2.19,0v-5.86a1.1,1.1,0,0,0-2.19,0Z"/><path d="M854.85,735.61v16.11a1.09,1.09,0,1,0,2.19,0V735.61a1.1,1.1,0,0,0-2.19,0Z"/><path d="M849.72,751.72v11.71a1.1,1.1,0,0,0,2.2,0V751.72a1.11,1.11,0,0,0-2.2,0Z"/><path d="M858.51,768.55v13.91a1.1,1.1,0,1,0,2.19,0V768.55a1.1,1.1,0,0,0-2.19,0Z"/><path d="M866.56,803V788.32a1.1,1.1,0,0,0-2.2,0V803a1.1,1.1,0,0,0,2.2,0Z"/><path d="M882.66,809.55V800a1.1,1.1,0,0,0-2.19,0v9.52a1.09,1.09,0,1,0,2.19,0Z"/><path d="M912.38,677.78l-7.32-7.32c-1-1-2.49.59-1.61,1.61l7.32,7.32a1.14,1.14,0,0,0,1.61-1.61Z"/><path d="M933.17,704.87V687.3a1.1,1.1,0,1,0-2.19,0v17.57a1.1,1.1,0,0,0,2.19,0Z"/><path d="M938.74,661.82l8.78-8.78c1-1-.59-2.49-1.61-1.61l-8.78,8.78c-.88,1,.58,2.64,1.61,1.61Z"/><path d="M940.49,770.75V753.18a1.09,1.09,0,0,0-2.19,0v17.57a1.1,1.1,0,0,0,2.19,0Z"/><path d="M892.18,729.17a45.86,45.86,0,0,1,11.13,11.42c.73,1.17,2.63,0,1.9-1.17a47.94,47.94,0,0,0-12-12.3c-1.17-.73-2.19,1.17-1,2Z"/><path d="M913.85,794.91l-8.79-8.79c-1-1-2.49.59-1.61,1.61l8.79,8.79c1,1,2.63-.59,1.61-1.61Z"/><path d="M928.49,836.05l10.25-10.25c1-1-.59-2.49-1.61-1.61l-10.25,10.25c-.88,1,.58,2.63,1.61,1.61Z"/><path d="M933,851.86l4.39-8.78c.58-1.32-1.32-2.35-1.91-1.18l-4.39,8.79c-.58,1.32,1.32,2.49,1.91,1.17Z"/><path d="M917.07,829.31v-1.46a1.1,1.1,0,1,0-2.2,0v1.46a1.1,1.1,0,1,0,2.2,0Z"/><path d="M925.85,874.7a78.85,78.85,0,0,1,5.71-23.13c.59-1.32-1.61-1.91-2-.59a82.68,82.68,0,0,0-5.71,23.72c-.29,1.46,1.91,1.46,2.05,0Z"/><path d="M920,738.54v-8.78a1.1,1.1,0,1,0-2.2,0v8.78a1.1,1.1,0,1,0,2.2,0Z"/><path d="M939.18,677.49c1-2.93,1.9-5.86,2.92-8.78.44-1.32-1.61-1.91-2.05-.59-1,2.93-1.9,5.86-2.92,8.78-.44,1.32,1.61,1.91,2,.59Z"/><path class="cls-16" d="M907.7,946.88c2.34-3.22,7.76-2.49,9.66.88,1.32,2.48,5.12.29,3.81-2.2-3.66-6.44-13-6.59-17.28-.88-1.61,2.34,2.2,4.54,3.81,2.2Z"/><path class="cls-16" d="M929.07,934.73a10.67,10.67,0,0,1,11.57-.44c2.49,1.31,4.68-2.49,2.2-3.81a15.87,15.87,0,0,0-16.11.44c-2.2,1.61,0,5.42,2.34,3.81Z"/><path class="cls-16" d="M961.14,946.88A17.22,17.22,0,0,1,974.9,950c2.34,1.61,4.54-2.19,2.19-3.81A22.29,22.29,0,0,0,960,942.63c-2.63.59-1.46,4.83,1.18,4.25Z"/><path class="cls-16" d="M934.93,946.44a16.28,16.28,0,0,1,10.54-.88c2.78.73,3.95-3.51,1.17-4.25a20.48,20.48,0,0,0-12.88.88c-2.64,1-1.47,5.27,1.17,4.25Z"/><path class="cls-17" d="M1502.36,740.16a5.14,5.14,0,0,1,4.1-3c.77-.13,6.53-.58,6,1.28-.38,1.15,1.48,1.67,1.86.51,1-3.39-3-3.84-5.38-3.9-3.39-.07-6.72.89-8.26,4.16-.45,1.15,1.22,2.11,1.73,1Z"/><path class="cls-17" d="M1501.34,742.14a11.78,11.78,0,0,1,7.36-5c2.37-.64,10.82-1.8,8.83,3.26-.44,1.15,1.41,1.67,1.86.51,1.86-4.86-3.71-6.53-7.36-6.27-4.93.38-9.6,2.3-12.36,6.59-.64,1,1,2,1.67,1Z"/><path class="cls-18" d="M1625.34,467.18c-19.84-4.61-18.43,15.36-19.84,20S1597,539.33,1592.76,567c-2.75,17.87-14.41,24.2-22.28,26.44,3.52-36.1,7.3-73.56,9.54-83.22,4.22-18.44,8.51-86-4.23-93.66s-41.16-15.37-53.9,44.55c-4,19-4.36,53.14-3,91.17-12.55,2.62-37.13,2.5-38.16-37.45-1.41-53.72,7.11-62.93,7.11-69.08s-46.8-43-39.76,21.51,34.06,90.59,48.27,95.2c8,2.62,15.56,4.74,23.18,4.67,3.71,78.94,13.7,167.29,13.7,167.29s24.14,6.14,21.25,0,5.7-49.11,8.52-67.54c1-6.15,2.69-23.69,4.74-45,15.49,1.86,46.09-42.31,56.27-53.33,11.33-12.29,15.62-59.85,19.85-70.61S1645.26,471.79,1625.34,467.18Z"/><path class="cls-19" d="M1540.45,434.59a46,46,0,0,0-1.47,8.83c-.06.64.9.64,1,0a49,49,0,0,1,1.41-8.57.47.47,0,1,0-.9-.26Z"/><path class="cls-19" d="M1559.28,422.23a101,101,0,0,0-.84,17,.48.48,0,0,0,1,0,97.86,97.86,0,0,1,.77-16.77c.13-.58-.83-.83-.89-.26Z"/><path class="cls-19" d="M1574.26,455.52l-1.92,8.84c-.13.58.76.83.89.26l1.92-8.84a.46.46,0,1,0-.89-.26Z"/><path class="cls-19" d="M1548.46,455.52c-.52,3.27-1,6.47-1.54,9.74-.06.57.83.89.9.25.51-3.26,1-6.46,1.53-9.73.13-.58-.77-.83-.89-.26Z"/><path class="cls-19" d="M1535.4,472.17a26,26,0,0,1,.25,7c-.06.64.9.64,1,0a25.24,25.24,0,0,0-.32-7.3c-.06-.64-1-.38-.89.26Z"/><path class="cls-19" d="M1539.05,499.19V511a.48.48,0,0,0,1,0V499.19a.48.48,0,1,0-1,0Z"/><path class="cls-19" d="M1529.57,517.62v8.71a.48.48,0,1,0,1,0v-8.71a.48.48,0,0,0-1,0Z"/><path class="cls-19" d="M1559.21,482.09a43.79,43.79,0,0,0-1.6,18.63c.07.58,1,.64,1,0a42.51,42.51,0,0,1,1.54-18.37c.19-.58-.71-.83-.9-.26Z"/><path class="cls-19" d="M1566.06,496.11c-.19,3.4-.38,6.79-.64,10.25-.06.64.9.64,1,0,.19-3.4.39-6.79.64-10.25.07-.64-.89-.57-1,0Z"/><path class="cls-19" d="M1553.58,540.48c-.64,4.29-1.28,8.51-1.92,12.8-.07.58.83.9.89.26.64-4.29,1.28-8.52,1.92-12.8.13-.58-.83-.84-.89-.26Z"/><path class="cls-19" d="M1543.4,523.77c-.19,4.29-.39,8.51-.51,12.8a.48.48,0,1,0,1,0c.19-4.29.38-8.51.51-12.8.06-.64-.9-.64-1,0Z"/><path class="cls-19" d="M1533.35,549.31v11.78a.48.48,0,1,0,1,0V549.31c0-.57-1-.57-1,0Z"/><path class="cls-19" d="M1564.59,522.62a28,28,0,0,0-.45,7.3c.07.64,1,.64,1,0a26.16,26.16,0,0,1,.45-7c.06-.64-.83-.89-1-.25Z"/><path class="cls-19" d="M1565.68,564.1a120.24,120.24,0,0,0-3.33,19c-.07.64.89.64,1,0a116.68,116.68,0,0,1,3.26-18.76c.2-.58-.7-.83-.89-.26Z"/><path class="cls-19" d="M1544.74,578.51a75,75,0,0,1-1.41,14.21c-.12.58.84.83.9.26a78.4,78.4,0,0,0,1.41-14.47c.06-.58-.9-.58-.9,0Z"/><path class="cls-19" d="M1533.8,602.58a184.29,184.29,0,0,0,.12,20.49c.07.64,1,.64,1,0a200.07,200.07,0,0,1-.12-20.49c.06-.64-.9-.64-1,0Z"/><path class="cls-19" d="M1550.76,613.14a68.43,68.43,0,0,0-1.86,14,.48.48,0,1,0,1,0,65.41,65.41,0,0,1,1.86-13.7c.13-.58-.83-.83-1-.26Z"/><path class="cls-19" d="M1556.59,625.11c.25,9.54.51,19.08.77,28.69a.48.48,0,1,0,1,0c-.26-9.54-.52-19.08-.77-28.69a.48.48,0,1,0-1,0Z"/><path class="cls-19" d="M1535.2,636.89a89.53,89.53,0,0,0,1.6,18c.13.58,1,.32.9-.25a87.53,87.53,0,0,1-1.6-17.74c.06-.64-.9-.64-.9,0Z"/><path class="cls-19" d="M1549.86,654.24c-.19,5.32-.19,10.57.07,15.88a.48.48,0,0,0,1,0c-.26-5.31-.26-10.56-.07-15.88.07-.57-.89-.57-1,0Z"/><path class="cls-19" d="M1541.54,677.68c-.57,4.09-1.15,8.13-1.73,12.22-.06.58.84.9.9.26l1.73-12.23c.06-.57-.83-.83-.9-.25Z"/><path class="cls-19" d="M1546.92,687.53c-.77,6.85-1.47,13.64-2.24,20.49-.07.64.9.64,1,0,.77-6.85,1.47-13.64,2.24-20.49.06-.64-.9-.64-1,0Z"/><path class="cls-19" d="M1575.15,596.88a60.22,60.22,0,0,0-1.85,17,.48.48,0,1,0,1,0,61.23,61.23,0,0,1,1.85-16.71.5.5,0,0,0-1-.26Z"/><path class="cls-19" d="M1591.61,590.1a17.31,17.31,0,0,0-2.95,6.72c-.13.57.77.83.9.25a17.56,17.56,0,0,1,2.88-6.53c.38-.51-.45-1-.83-.44Z"/><path class="cls-19" d="M1600.63,544.77c-.38,6-.7,11.91-1.09,17.92-.06.64.9.64,1,0,.39-6,.71-11.9,1.09-17.92.07-.64-.89-.64-1,0Z"/><path class="cls-19" d="M1606.33,530.11a12.82,12.82,0,0,1,1.09,10.82c-.19.57.7.83.9.25a13.88,13.88,0,0,0-1.16-11.58.49.49,0,0,0-.83.51Z"/><path class="cls-19" d="M1611.39,500.53a18.81,18.81,0,0,1,2.43,9.41.48.48,0,0,0,1,0,19.91,19.91,0,0,0-2.56-9.92.49.49,0,0,0-.83.51Z"/><path class="cls-19" d="M1620.93,472.55c-.39,5.45-.77,10.89-1.09,16.39-.07.64.9.64,1,0,.38-5.44.77-10.88,1.09-16.39.06-.57-.9-.57-1,0Z"/><path class="cls-19" d="M1631.43,481.64a94.45,94.45,0,0,0-6.28,16.46c-.19.57.77.83.9.25a91,91,0,0,1,6.15-16.19c.38-.64-.45-1.09-.77-.52Z"/><path class="cls-19" d="M1623.62,522.62a51.27,51.27,0,0,0,9.54-11.4c.32-.51-.52-1-.84-.51a52.41,52.41,0,0,1-9.41,11.2c-.45.45.26,1.09.71.71Z"/><path class="cls-19" d="M1614.91,552.64a59.24,59.24,0,0,0,9.47-16.9c.2-.57-.7-.83-.89-.25a58.75,58.75,0,0,1-9.22,16.45c-.45.45.26,1.15.64.7Z"/><path class="cls-19" d="M1601.72,581.13a21.77,21.77,0,0,1,7.24-12c.44-.38-.2-1.09-.71-.7a22.59,22.59,0,0,0-7.49,12.35c-.13.71.83,1,1,.32Z"/><path class="cls-19" d="M1459.4,455.65a66.55,66.55,0,0,1,4.93-18.12c.26-.57-.57-1-.83-.51a69.7,69.7,0,0,0-5.06,18.63c-.06.64.9.64,1,0Z"/><path class="cls-19" d="M1469.77,449.19a42,42,0,0,1,9.1-12.1c.44-.45-.2-1.09-.71-.71a41.47,41.47,0,0,0-9.22,12.29c-.25.58.58,1.09.83.52Z"/><path class="cls-19" d="M1466.64,490.35a53.86,53.86,0,0,0-4.1-9.22c-.64-1.09-6.72-8.38-5.89-9.41.38-.45-.32-1.15-.7-.7-1.67,2.05,1.34,4.41,2.56,5.89a45.57,45.57,0,0,1,7.23,13.63c.19.64,1.09.39.9-.19Z"/><path class="cls-19" d="M1470.61,476.2a49.26,49.26,0,0,1,7.74-19.33c.32-.51-.51-1-.83-.51a50.72,50.72,0,0,0-7.87,19.59c-.07.64.83.89,1,.25Z"/><path class="cls-19" d="M1471.82,526.84c.32-6.33.64-12.61.9-19a.48.48,0,0,0-1,0c-.32,6.34-.64,12.62-.9,19a.48.48,0,0,0,1,0Z"/><path class="cls-19" d="M1480.08,541.7a59.38,59.38,0,0,1,1.41-12.62c.13-.57-.77-.83-.9-.25a62.31,62.31,0,0,0-1.47,12.87c0,.57,1,.57,1,0Z"/><path class="cls-19" d="M1506,558.34c-6.47-4.67-12.87-9.28-19.33-14-.52-.38-1,.45-.52.84l19.34,13.95c.57.39,1-.44.51-.83Z"/><path class="cls-19" d="M1514,558.53v-3.07a.48.48,0,0,0-1,0v3.07a.48.48,0,1,0,1,0Z"/><path class="cls-16" d="M1486.29,746.63s19.85-43,38.29-4.61c0,0-2.82-39.95,9.92-24.59s11.33,16.9,11.33,16.9,14.21-38.41,25.55-18.43,15.62-3.08,17,4.61S1614,732.8,1596.92,742,1490.52,751.24,1486.29,746.63Z"/><path class="cls-17" d="M1501,741a18.8,18.8,0,0,1,.64-3.9c1.09-2.44,2.44-1.41,4.16-.71,3,1.15,5.89,2.37,8.78,3.52,1.15.45,1.66-1.41.51-1.85l-7.69-3.08c-1.47-.57-3.13-1.53-4.8-1.4-3.26.32-3.07,4.48-3.45,6.91-.2,1.22,1.66,1.73,1.85.51Z"/><path class="cls-17" d="M1532.19,743c2.57-3.2,8.65-7.43,12.75-4.16,1,.77,2.3-.58,1.34-1.35-4.93-4-12-.06-15.43,4.17-.77,1,.58,2.3,1.34,1.34Z"/><path class="cls-17" d="M1565.68,734.59c.32-3,2.43-6.08,5.7-6.34s5.76,2.24,6.59,5.19a1,1,0,0,0,1.86-.51c-1.09-3.85-4.55-7-8.71-6.6s-6.91,4.35-7.36,8.26c-.13,1.22,1.79,1.22,1.92,0Z"/><g id="Layer_4-2" data-name="Layer 4"><path class="cls-20" d="M367.8,636.32s-13.63,14.07-9.6,16.14,22.49,6,21.4,3-3.32-18-3.32-18Z"/></g><g id="Layer_11" data-name="Layer 11"><path class="cls-21" d="M131.09,564.6s.73-18.7,5.75-14.24,10.33,20.26,18,19.45S131.09,564.6,131.09,564.6Z"/></g><g id="Layer_3-2" data-name="Layer 3"><path class="cls-22" d="M479.06,665.07,306.7,633.4s-6.38-21.58,2.85-20.29,165.75,25.1,172.61,29.82S479.06,665.07,479.06,665.07Z"/></g><g id="Layer_2-2" data-name="Layer 2"><path class="cls-23" d="M112.36,557.28l369.21,63L477.7,648,108.49,585S103.14,556,112.36,557.28Z"/></g><g id="Layer_8" data-name="Layer 8"><path d="M543.29,743.65s-15.58,84.34-12.15,86.7,70.13,23,87.51,19.78,69.13,43.53,63.6,42.76c-3.14-.44-25.35-20.48-75.15-27.45-29.29-9.75-61.51-18.78-85.4-21.37-.82-7.64,13.69-97.76,13.69-97.76Z"/></g><g id="Layer_9" data-name="Layer 9"><path class="cls-24" d="M566,749.65s8,36.85-11.73,43.49c0,0,21.88,5,23.91-23s-5.09-30.8-5.09-30.8Z"/></g><g id="Layer_6" data-name="Layer 6"><path class="cls-25" d="M655.66,706.73s29.11-46.7,66.78-47.07c-7.38-1-42.54,48.58-39.33,66S655.66,706.73,655.66,706.73Z"/><path class="cls-22" d="M622,638.07s1.51-24.24-16.41-30.51-77-14.54-83-11.63-3.88,27.67-3.88,27.67Z"/><path class="cls-26" d="M633.45,677.29s65.48,56.19,68.66,60.4-10.05,85.11-12.66,90.38S589.06,819.65,588,813.86s8.82-49.55,8.53-60.87S630.28,673.08,633.45,677.29Z"/><polygon class="cls-27" points="654.68 733.86 678.18 754.08 671.98 798.35 605.57 789.05 608.93 765.07 654.68 733.86"/><polygon class="cls-26" points="652.58 744.85 668.18 758.33 664.05 787.84 619.78 781.64 622.03 765.59 652.58 744.85"/></g><g id="Layer_7" data-name="Layer 7"><path class="cls-28" d="M589,806.48l-1,7.38,19.11,51.58s136.76,17.27,59.54,98.61c0,0,103.26,1.3,118.05,16.54s47.82-140-103.43-161.19C605.37,810.65,589,806.48,589,806.48Z"/><path class="cls-29" d="M639.83,833.16c33.42,4.49,71,10.31,100.07,28.12,14.72,9,25,21.93,28.58,39,3.12,15.29,1.32,30.84-.64,46.17,1.24-.76,2.66-1.5,3.87-2.09-12.89-4.62-25.53-.38-38.69,1-4.22.54-10.51,1.16-14.55-.91-4.88-2.75-1.92-9.11-.69-13.83,2.14-7.22,3.3-14.2,2.28-21.68-3.71-27.23-29.73-45.54-56.33-43.63-3.61.25-2.88,5.8.73,5.56a47.82,47.82,0,0,1,41.14,17.8,42.5,42.5,0,0,1,9.43,28c-.3,7.48-3.86,14.12-4.9,21.5-.49,3.51-.74,6.67,1.56,9.06,3.46,3.49,11.12,3.82,15.63,3.88,14.09.1,28.19-6.58,42.16-1.61a2.83,2.83,0,0,0,3.87-2.1c4.08-31.77,4.3-65.6-24-86.49-13.65-10-29.76-15.83-45.87-20.34a433.36,433.36,0,0,0-62.72-12.74c-3.67-.7-4.44,4.84-.94,5.33Z"/><path class="cls-29" d="M742.32,888.33c6.1,4.8,20.65,28.47,6.33,31.35-5,1-11.76-2-13.67-7.18-.82-2.18.62-7.06.77-9.48a27,27,0,0,0-1.11-10.88c-6.51-20.66-32-26.86-49.62-33.84-3.37-1.42-5.6,3.73-2.22,5.14,15.69,6.15,39.73,11.77,46.28,29.43,4,10.52-5.33,26,9.17,31.19,9.31,3.37,20,1.86,21.18-8.89,1.34-12.22-4.2-23.72-13.65-31.44-2.9-2.1-6.34,2.31-3.46,4.6Z"/></g><g id="Layer_5" data-name="Layer 5"><path class="cls-20" d="M473.9,607.92s144.4,16.46,151.26,21.19,13.28,39.47,16.45,43.68-9.05,64.56-9.05,64.56-25.75,22.72-35.49,25.12-128.6-21.78-132-24.14S466.52,606.89,473.9,607.92Z"/></g><g id="Layer_10" data-name="Layer 10"><path class="cls-21" d="M498.18,622.6l70.09,9.82s63.4,17.35-3,21.22l-66.41-9.31Z"/><path class="cls-21" d="M497.86,651.71,568,661.53s62.45,24.17-5.42,38.74L496.12,691Z"/><path class="cls-21" d="M498.78,698.86l70.09,9.82s63.17,19-3.61,25.82l-66.41-9.3Z"/></g><path class="cls-4" d="M811.24,275.16V349.9s250.73,11,258.26,12.51,4-76.31,7.66-80.33S814.33,271.52,811.24,275.16Z"/><path class="cls-30" d="M890.93,275.79s-1.36,20.34.14,35.4,1.51,20.34,0,24.86-1.08,10.67.22,14.75,16.35,4.08,16.35,4.08,1-74.57,2.39-79.09-3.14-12.05-9.92-8.28-9.79,11.3-9.79,11.3"/><path class="cls-30" d="M987.34,279.56s-1.36,20.33.14,35.4,1.51,20.33,0,24.85-1.08,10.67.21,14.75,16.36,4.08,16.36,4.08,1-74.56,2.39-79.08-3.14-12.05-9.92-8.29-9.79,11.3-9.79,11.3"/><path class="cls-8" d="M914.07,310.41v26.77h29.58a29.8,29.8,0,0,1,0-14.8c2.11-7.74,0-38,0-38s-23.24-7.05-19.72,25.36Z"/><path class="cls-8" d="M979.57,310.41v26.77H950a29.8,29.8,0,0,0,0-14.8c-2.11-7.74,0-38,0-38s23.24-7.05,19.72,25.36Z"/><path class="cls-31" d="M822.91,286v12.8c0,2.26,13.56,0,16.57,1.51s2.26-14.31,0-14.31Z"/><path class="cls-31" d="M850.78,327.39v12.8c0,2.26,13.56,0,16.57,1.51s2.26-14.31,0-14.31Z"/><path class="cls-31" d="M825.17,304.79s.75,11.3,0,13.56,12.81-.76,13.56,0-1.51-12.05,0-13.56S826.68,303.28,825.17,304.79Z"/><path class="cls-31" d="M848.52,286v12.8c0,3,9.79-2.26,21.09-2.26,0,0,3-9,0-10.54S848.52,286,848.52,286Z"/><path class="cls-31" d="M850.78,305.54s.75,12,0,13.56,13.56-1.51,16.57-1.51,1.51-12,0-12Z"/><path class="cls-31" d="M822.91,325.13s.76,12.05,0,13.55,13.56-1.5,16.57-1.5,1.51-12.05,0-12.05Z"/><path class="cls-31" d="M1016.51,291.19V304c0,2.26,13.56,0,16.57,1.51s2.26-14.31,0-14.31Z"/><path class="cls-31" d="M1044.38,332.61v12.8c0,2.26,13.55,0,16.57,1.51s2.26-14.31,0-14.31Z"/><path class="cls-31" d="M1018.77,310s.75,11.3,0,13.56,12.8-.75,13.55,0-1.5-12.05,0-13.56S1020.27,308.51,1018.77,310Z"/><path class="cls-31" d="M1042.12,291.19V304c0,3,9.79-2.26,21.09-2.26,0,0,3-9,0-10.54S1042.12,291.19,1042.12,291.19Z"/><path class="cls-31" d="M1044.38,310.77s.75,12.05,0,13.56,13.55-1.51,16.57-1.51,1.5-12.05,0-12.05Z"/><path class="cls-31" d="M1016.51,330.35s.75,12,0,13.56,13.56-1.51,16.57-1.51,1.5-12,0-12Z"/><path class="cls-32" d="M784.88,375.21s72.3-6.78,87.37-5.27,80.59,2.26,95.65,3.77,115.24,3,122.77,4.51,32.38,3,36.15,3,.75-18.83,1.51-23.35-8.29,0-17.33,0-87.37-1.51-97.16-2.26-72.3-3-84.35-4.52-67.79.75-81.35,0-64-2.26-66.28-.75-7.53,27.86-2.26,26.36Z"/><path class="cls-4" d="M850.4,187.67s-2.26,79.08,0,79.84,214.66.75,219.18,3-4.52-70,3.76-76.82-39.16-1.51-39.16-1.51-190.56-10.55-189.05-7.53S850.4,187.67,850.4,187.67Z"/><path class="cls-31" d="M859.84,200.94v9c0,1.59,9.51,0,11.62,1.06s1.59-10,0-10Z"/><path class="cls-31" d="M879.39,230v9c0,1.58,9.51,0,11.63,1.06s1.58-10,0-10Z"/><path class="cls-31" d="M861.42,214.15s.53,7.93,0,9.51,9-.53,9.52,0-1.06-8.45,0-9.51S862.48,213.09,861.42,214.15Z"/><path class="cls-31" d="M877.81,200.94v9c0,2.12,6.87-1.58,14.79-1.58,0,0,2.12-6.34,0-7.4S877.81,200.94,877.81,200.94Z"/><path class="cls-31" d="M879.39,214.68s.53,8.45,0,9.51,9.51-1.06,11.63-1.06,1.06-8.45,0-8.45Z"/><path class="cls-31" d="M859.84,228.42s.53,8.46,0,9.51,9.51-1.05,11.62-1.05,1.06-8.46,0-8.46Z"/><path class="cls-31" d="M912.56,204v9c0,1.58,9.51,0,11.63,1.05s1.58-10,0-10Z"/><path class="cls-31" d="M932.11,233v9c0,1.59,9.52,0,11.63,1.06s1.59-10,0-10Z"/><path class="cls-31" d="M914.15,217.16s.52,7.93,0,9.52,9-.53,9.51,0-1.06-8.46,0-9.52S915.2,216.11,914.15,217.16Z"/><path class="cls-31" d="M930.53,204v9c0,2.11,6.87-1.59,14.8-1.59,0,0,2.11-6.34,0-7.4S930.53,204,930.53,204Z"/><path class="cls-31" d="M932.11,217.69s.53,8.46,0,9.51,9.52-1,11.63-1,1.06-8.46,0-8.46Z"/><path class="cls-31" d="M912.56,231.43s.53,8.46,0,9.52,9.51-1.06,11.63-1.06,1-8.46,0-8.46Z"/><path class="cls-31" d="M965.28,204.7v9c0,1.58,9.52,0,11.63,1.06s1.59-10.05,0-10.05Z"/><path class="cls-31" d="M984.84,233.77v9c0,1.58,9.51,0,11.62,1.05s1.59-10,0-10Z"/><path class="cls-31" d="M966.87,217.92s.53,7.92,0,9.51,9-.53,9.51,0-1.06-8.46,0-9.51S967.93,216.86,966.87,217.92Z"/><path class="cls-31" d="M983.25,204.7v9c0,2.11,6.87-1.59,14.8-1.59,0,0,2.11-6.34,0-7.4S983.25,204.7,983.25,204.7Z"/><path class="cls-31" d="M984.84,218.44s.53,8.46,0,9.52,9.51-1.06,11.62-1.06,1.06-8.46,0-8.46Z"/><path class="cls-31" d="M965.28,232.19s.53,8.45,0,9.51,9.52-1.06,11.63-1.06,1.06-8.45,0-8.45Z"/><path class="cls-31" d="M1018,205.46v9c0,1.59,9.51,0,11.62,1.06s1.59-10,0-10Z"/><path class="cls-31" d="M1037.56,234.52v9c0,1.58,9.51,0,11.63,1.06s1.58-10,0-10Z"/><path class="cls-31" d="M1019.59,218.67s.53,7.93,0,9.51,9-.53,9.51,0-1-8.45,0-9.51S1020.65,217.61,1019.59,218.67Z"/><path class="cls-31" d="M1036,205.46v9c0,2.12,6.87-1.58,14.8-1.58,0,0,2.12-6.35,0-7.4S1036,205.46,1036,205.46Z"/><path class="cls-31" d="M1037.56,219.2s.53,8.45,0,9.51,9.51-1.06,11.63-1.06,1-8.45,0-8.45Z"/><path class="cls-31" d="M1018,232.94s.52,8.45,0,9.51,9.51-1.06,11.62-1.06,1.06-8.45,0-8.45Z"/><path class="cls-30" d="M817.63,224.2s.58,21.84,0,27.11,7.54,3.77,7.54,3.77V224.2Z"/><path class="cls-30" d="M831.94,224.2s.58,21.84,0,27.11,7.54,3.77,7.54,3.77V224.2Z"/><path class="cls-30" d="M852.28,226.46s.58,21.84,0,27.11,7.54,3.77,7.54,3.77V226.46Z"/><path class="cls-30" d="M873.37,226.46s.58,21.84,0,27.11,7.54,3.77,7.54,3.77V226.46Z"/><path class="cls-30" d="M893,226.46s.58,21.84,0,27.11,7.54,3.77,7.54,3.77V226.46Z"/><path class="cls-30" d="M920.06,226.46s.58,21.84,0,27.11,7.54,3.77,7.54,3.77V226.46Z"/><path class="cls-30" d="M954.71,226.46s.58,21.84,0,27.11,7.54,3.77,7.54,3.77V226.46Z"/><path class="cls-30" d="M993.12,228.72s.58,21.84,0,27.11,7.54,3.77,7.54,3.77V228.72Z"/><path class="cls-30" d="M1018.73,231.73s.58,21.84,0,27.12,7.54,3.76,7.54,3.76V231.73Z"/><path class="cls-30" d="M1051.87,231.73s.58,21.84,0,27.12,7.54,3.76,7.54,3.76V231.73Z"/><path class="cls-32" d="M801.82,218.93s.76.75,0,5.27,70.8,4.52,88.88,5.27,56.49.75,72.3,0,51.22,2.26,59.5,3.77,27.12-.76,40.68,0,15.06,4.52,16.57.75-1.51-1.51,2.26-6.78-15.07-5.27-17.33-4.52-72.3.76-79.83,0-44.44,0-53.48,0-30.88.76-42.18.76-23.35,0-35.4-1.51-17.32-2.26-24.1-3S804.84,216.67,801.82,218.93Z"/><path class="cls-32" d="M793.91,253.2s3.77,21.84,3,23.35,26.36-3,41.42-.76,64,0,76.83.76,55.73,0,70.8,3,41.42,1.5,49.71,0,26.36,2.26,33.89,3,27.87,3,30.88,0,3.77-19.58,0-21.09-30.88.76-37.66,0-45.19,0-52-1.5-30.88-3.77-39.92-3-15.06-.75-27.11-2.26c-9.25-1.15-40.67-1.5-49-1.5-2.71,0-20.34,2.26-34.65.75S797.68,250.18,793.91,253.2Z"/><path class="cls-32" d="M825.55,170.35s258.34,3,259.85,9,5.27,18.07,0,18.82S821,199,821.78,193.7,818.77,170.35,825.55,170.35Z"/><path class="cls-33" d="M813.5,153.78S812,153,812,165.83c0,0-2.26,3,1.51,4.52s10.8.07,15.19,0,259,9,270.26,8.24c3.77-4.52,1.51-9.79,0-12s-44.43-8.28-52.72-6.78-95.65-2.26-107-3.76-70.8-3.77-86.62-2.26-36.9-1.51-34.64-.76S813.5,153.78,813.5,153.78Z"/><path class="cls-34" d="M838.73,120.52a48.6,48.6,0,0,1,35.82-13.39c22.35,1.05,29.56.63,39.11,1.84s-5.13-52.65,60-42.8,52.32,43.94,52.76,51.5,35.43-5.12,40.49,6.43,13.36,39.08,3.6,42.39-129-11.35-158.63-11.23S835.39,166,832.14,150,831.71,125.09,838.73,120.52Z"/><path class="cls-35" d="M839.78,140.55s-5.71-14.59,15.47-22.64,40.18-4.14,49.76-3.69,19.19.14,21.14-7.3,1.89-23.29,7.69-27.54,81.08-23.33,85.58,34.19c0,0-6.16,11.77,5.81,12.34s32.28-6,34.36.86,12.39,25.46,3.47,28.06-75.12-1.27-103.74-4.88-47-3.72-73.53-1.2S837.52,154.77,839.78,140.55Z"/><path class="cls-35" d="M887.17,124.29c-.79-8.4-10.07-8.26-16.33-7-1.89.39-1.09,3.28.8,2.9,4-.82,12-2,12.53,4.09.18,1.91,3.18,1.93,3,0Z"/><path d="M871.57,124.91c-.63-4-3-8.88-7.81-8.39a7.18,7.18,0,0,0-6.2,8c.57,3.89,4.1,6.59,7.85,7,1.36.16,6-.74,6.72.87,1.07,2.5-2.38,2.84-3.81,3.19-4,1-8.12,1.66-11.91-.35l.3,2.35a15.53,15.53,0,0,1,7.52-4.89c1.84-.55,1-3.45-.8-2.89a18.57,18.57,0,0,0-8.84,5.66,1.52,1.52,0,0,0,.31,2.36c4.53,2.41,9.39,1.84,14.22.65,2.84-.69,6.87-2,6.43-5.68s-4.52-4.23-7.45-4.28c-2,0-3.72.1-5.43-1.2s-2.94-3.69-1.58-5.88a3.72,3.72,0,0,1,6.19-.12,10.35,10.35,0,0,1,1.39,4.37c.3,1.9,3.19,1.09,2.9-.8Z"/><path d="M888.6,129.46a3.93,3.93,0,0,0-6.15.12,4.94,4.94,0,0,0,.82,6.49c1.67,1.56,4.78,2.51,6.73,1,2.45-1.95,1.22-5.14-.19-7.27l-2.35,1.81c1.74,1.72,4.24,4.31,6.69,4.94a2.46,2.46,0,0,0,3.15-3.06c-.47-1.87-3.37-1.08-2.9.8a1,1,0,0,0-.76-1.38q-.85-.59-1.65-1.23a29.38,29.38,0,0,1-2.41-2.19c-1.18-1.16-3.32.36-2.36,1.82.74,1.13,2.28,3.72-.36,3.41a2.61,2.61,0,0,1-1.72-1.16c-.66-.45-.67-1,0-1.57.17-1.14.62-1.27,1.37-.37,1.21,1.51,3.32-.62,2.12-2.12Z"/><path d="M904.23,121c1.33,2.59-1.13,5.8.18,8.64,1.07,2.32,3.58,3.47,5.91,4.09,4.77,1.26,12.23.22,11.13-6.36-.32-1.9-3.21-1.09-2.89.8.84,5-10.44,3.45-11.59-.2-.48-1.53.43-3.39.56-4.95a6.14,6.14,0,0,0-.71-3.54c-.88-1.71-3.47-.2-2.59,1.52Z"/><path d="M932.11,118.59c-3.13,0-6.54,1.18-7.62,4.4a6.18,6.18,0,0,0,3,7.5,6,6,0,0,0,8.69-6.18,6,6,0,0,0-.59-2c-.28-.59-1.23-1.36-1.38-1.93l-.15,1.16-.64.31-1.29-.74.15.2c1.15,1.51,3.76,0,2.59-1.52a2,2,0,0,0-3.55,1.39c.18,1.06,1.14,1.54,1.59,2.44a3.28,3.28,0,0,1-.26,3.35,3.09,3.09,0,0,1-5.39-1.1c-.74-3.06,2.38-4.25,4.86-4.24a1.5,1.5,0,0,0,0-3Z"/><path d="M944.76,117.71c0,.43-2.54.89-3,1.14a3.73,3.73,0,0,0-1.41,1.35,4.81,4.81,0,0,0-.1,4.5c1.37,3,5.22,6.7,8.78,6.21,4-.55,4.58-5,3.25-8.12-1.6-3.77-5.41-6-8.87-7.84-1.7-.9-3.22,1.69-1.51,2.59a23.28,23.28,0,0,1,5.82,3.88,7.6,7.6,0,0,1,2.13,3.48,3.12,3.12,0,0,1-1,3c-.79.46-2.14-.45-2.7-.86a12,12,0,0,1-2.84-2.9c-1.1-1.75-.22-2.44,1.43-3.1s2.77-1.39,3-3.34-2.82-1.9-3,0Z"/><path d="M956.81,119.65a15,15,0,0,0,3.49,7.17,1.51,1.51,0,0,0,2.36-.3c3.05-6.06,13.34-7.17,17.16-1.36,1.53,2.32,2,4.29,5.09,4.78,1.89.31,2.7-2.58.8-2.89-3.21-.52-3.43-5.15-5.74-6.89-1.9-1.43-5.1-1.65-7.38-1.7-5.23-.1-10.08,1.69-12.52,6.54l2.35-.3a12.08,12.08,0,0,1-2.71-5.85c-.37-1.89-3.26-1.09-2.9.8Z"/><rect class="cls-8" x="938.1" y="310.32" width="4.8" height="2.67" rx="1.23" ry="1.23"/><path class="cls-36" d="M1190.64,824.41s3,102.82-11.35,113.83,195.92,2,202.49,3.74,11.65,2.69,10.45-5.27-5.37-61.81-3-72.22-58.54-45.9-68.1-46.51S1193.93,818,1190.64,824.41Z"/><path class="cls-37" d="M1264.17,851.11c4.83-15.86,55.83,0,55.83,0s-20.84,58.55-3.62,71.78c3.26,13.42-32.45,5.62-42.24,8.16s-22.12,0-22.12,0S1272,879.2,1264.17,851.11Z"/><polyline class="cls-38" points="1291.91 844.76 1283.2 888.27 1280.67 930.33"/><polyline class="cls-38" points="1314.02 870.87 1287.92 863.98 1265.8 867.6"/><polyline class="cls-38" points="1258.91 910.02 1282.12 907.48 1310.03 910.75"/><polygon class="cls-39" points="1292.09 892.08 1289.99 890.83 1287.78 891.84 1288.32 889.47 1286.67 887.67 1289.1 887.45 1290.29 885.33 1291.25 887.57 1293.64 888.05 1291.81 889.65 1292.09 892.08"/><polygon class="cls-39" points="1279.04 891.35 1276.94 890.1 1274.73 891.12 1275.27 888.74 1273.62 886.95 1276.04 886.73 1277.24 884.6 1278.2 886.84 1280.59 887.33 1278.75 888.93 1279.04 891.35"/><polygon class="cls-40" points="1337.99 853.01 1354.8 853.23 1354.78 873.84 1335.81 875.1 1337.99 853.01"/><polygon class="cls-40" points="1205.98 848.84 1227.64 849.11 1227.62 875.29 1203.17 876.89 1205.98 848.84"/><path class="cls-41" d="M1206.75,849.43c0,5.41-.6,28.06,0,29.25s-4.77,0-4.77,0,1.79-23.28.59-27.46S1206.75,848.24,1206.75,849.43Z"/><path class="cls-41" d="M1231.23,849.43c0,5.41-.6,28.06,0,29.25s-4.78,0-4.78,0,1.79-23.28.6-27.46S1231.23,848.24,1231.23,849.43Z"/><path class="cls-42" d="M1200.19,844.66c10.14,0,28.65,1.79,31.63,1.79s3.59,4.18,1.8,4.77-32.24-1.19-33.43,0S1197.8,844.66,1200.19,844.66Z"/><path class="cls-42" d="M1196.6,875.1c6,0,19.11,1.59,26.27.8s12.54-.8,11.34.79-.59,3.19-7.76,3.19-22.09,0-27.46-.4S1194.22,875.1,1196.6,875.1Z"/><path class="cls-41" d="M1338,854.19c0,4-.45,20.92,0,21.81s-3.56,0-3.56,0,1.33-17.36.44-20.48S1338,853.3,1338,854.19Z"/><path class="cls-41" d="M1356.26,854.19c0,4-.45,20.92,0,21.81s-3.56,0-3.56,0,1.33-17.36.44-20.48S1356.26,853.3,1356.26,854.19Z"/><path class="cls-42" d="M1333.11,850.63c7.57,0,21.37,1.33,23.59,1.33s2.68,3.12,1.34,3.56-24-.89-24.93,0S1331.33,850.63,1333.11,850.63Z"/><path class="cls-42" d="M1330.44,873.33c4.47,0,14.24,1.19,19.59.6s9.35-.6,8.46.59-.45,2.37-5.79,2.37-16.47,0-20.48-.29S1328.66,873.33,1330.44,873.33Z"/><path class="cls-41" d="M1175.11,910.32c.63,3.16,3.77,20.56,2.18,24.31s7.37,3.15,7.37,3.15-4.77-25.67-2.38-27.46S1174.52,907.34,1175.11,910.32Z"/><path class="cls-41" d="M1196.6,908.53s6.79,21.16,2.2,26.4,5,5.84,6.16,4.64-7.16-27.46,0-29.25S1196.6,908.53,1196.6,908.53Z"/><path class="cls-41" d="M1224.06,908.53s-3.58,27.46-4.77,31.64,8.36,0,8.36,0-4.78-23.28,8.35-29.85S1224.06,908.53,1224.06,908.53Z"/><path class="cls-41" d="M1334.5,909.13c.63,3.15,3.77,20.55,2.18,24.3s7.37,3.16,7.37,3.16-4.77-25.67-2.38-27.46S1333.91,906.14,1334.5,909.13Z"/><path class="cls-41" d="M1356,907.34s6.79,21.16,2.2,26.4,5,5.83,6.16,4.64-7.16-27.46,0-29.25S1356,907.34,1356,907.34Z"/><path class="cls-41" d="M1383.45,907.34s-3.58,27.46-4.77,31.64,8.36,0,8.36,0-4.78-23.28,8.35-29.85S1383.45,907.34,1383.45,907.34Z"/><path class="cls-42" d="M1170.64,934.5s55.51,1.19,71,0,108-1.19,112.83,0,37.61,0,39.4-1.19,14.33,21.49,3,21.49-46-3-62.69-2.39-71.63,1.19-96.11,2.39-14.32,1.19-41.19,0-22.68,1.19-28.65.59S1164.67,934.5,1170.64,934.5Z"/><path class="cls-42" d="M1163.77,899s-1.79,10.15,0,13.13,60.89-1.79,72.23-.59,9.55-1.2,9.55-1.2,3.59-12.53,0-11.34-51.93,2.39-57.3,2.39S1164.37,896,1163.77,899Z"/><path class="cls-42" d="M1322,897.79c0,6-1.79,10.15,0,10.74s51.34-.59,57.9,0,16.12,2.39,21.49,1.79,6-7.16,5.38-9-6,0-13.14,0-37.61-1.79-48.95-3.58S1322,895.4,1322,897.79Z"/><path class="cls-36" d="M1347,734.22s-37.52,75-28.06,82.38c10.75,8.36-140.88,4.18-140.88,4.18s18.5-73.43,4.77-90.14c4.78-13.14,164.17,4.77,164.17,4.77"/><polygon class="cls-40" points="1297.91 743.77 1319.58 744.04 1319.56 770.22 1295.1 771.83 1297.91 743.77"/><path class="cls-41" d="M1297.49,743.77c0,5.41-.6,28.06,0,29.25s-4.78,0-4.78,0,1.8-23.28.6-27.46S1297.49,742.58,1297.49,743.77Z"/><path class="cls-41" d="M1322,743.77c0,5.41-.6,28.06,0,29.25s-4.78,0-4.78,0,1.79-23.28.6-27.46S1322,742.58,1322,743.77Z"/><path class="cls-42" d="M1290.92,739c10.15,0,28.66,1.8,31.64,1.8s3.58,4.17,1.79,4.77-32.23-1.19-33.43,0S1288.54,739,1290.92,739Z"/><path class="cls-42" d="M1287.34,769.44c6,0,19.1,1.59,26.27.8s12.53-.8,11.34.79-.6,3.19-7.76,3.19-22.09,0-27.46-.4S1285,769.44,1287.34,769.44Z"/><polygon class="cls-40" points="1251.35 743.77 1273.02 744.04 1272.99 770.22 1248.54 771.83 1251.35 743.77"/><path class="cls-41" d="M1276.6,743.17c0,5.41-.6,28.06,0,29.25s-4.78,0-4.78,0,1.79-23.28.6-27.46S1276.6,742,1276.6,743.17Z"/><path class="cls-41" d="M1250.93,743.77c0,5.41-.6,28.06,0,29.25s-4.78,0-4.78,0,1.79-23.28.6-27.46S1250.93,742.58,1250.93,743.77Z"/><path class="cls-42" d="M1244.36,739c10.15,0,28.65,1.8,31.64,1.8s3.58,4.17,1.79,4.77-32.24-1.19-33.43,0S1242,739,1244.36,739Z"/><path class="cls-42" d="M1240.78,769.44c6,0,19.1,1.59,26.27.8s12.53-.8,11.34.79-.6,3.19-7.76,3.19-22.09,0-27.46-.4S1238.39,769.44,1240.78,769.44Z"/><path class="cls-37" d="M1207.5,738.82c8.79-2.19,17.14-2.45,27.34,3.27s6.12,53,3.27,59.58-36.32,4.49-36.32,2.85S1199.34,740.86,1207.5,738.82Z"/><line class="cls-38" x1="1220.15" y1="737.6" x2="1217.29" y2="806.16"/><line class="cls-38" x1="1219.33" y1="760.45" x2="1240.96" y2="760.45"/><line class="cls-38" x1="1202.2" y1="760.45" x2="1219.33" y2="760.45"/><line class="cls-38" x1="1201.38" y1="779.22" x2="1240.96" y2="783.3"/><circle class="cls-38" cx="1224.84" cy="773.31" r="1.43"/><circle class="cls-38" cx="1215.05" cy="773.31" r="1.43"/><path class="cls-41" d="M1169.14,789.14c.63,3.15,3.77,20.55,2.18,24.3s7.37,3.16,7.37,3.16-4.77-25.67-2.38-27.46S1168.55,786.15,1169.14,789.14Z"/><path class="cls-41" d="M1190.63,787.35s6.79,21.16,2.2,26.4,5,5.83,6.16,4.64-7.16-27.46,0-29.25S1190.63,787.35,1190.63,787.35Z"/><path class="cls-41" d="M1218.09,787.35s-3.58,27.46-4.77,31.64,8.36,0,8.36,0-4.78-23.28,8.35-29.85S1218.09,787.35,1218.09,787.35Z"/><path class="cls-41" d="M1252.12,790.93c.63,3.15,3.77,20.55,2.18,24.31s7.37,3.15,7.37,3.15-4.77-25.67-2.39-27.46S1251.52,788,1252.12,790.93Z"/><path class="cls-41" d="M1325.56,790.52c.86,3.47,5.17,22.62,3,26.75s10.13,3.47,10.13,3.47-6.56-28.25-3.28-30.22S1324.74,787.23,1325.56,790.52Z"/><path class="cls-41" d="M1273.61,789.14s6.79,21.16,2.2,26.4,5,5.84,6.16,4.64-7.16-27.46,0-29.25S1273.61,789.14,1273.61,789.14Z"/><path class="cls-41" d="M1301.07,789.14s-3.58,27.46-4.77,31.64,8.35,0,8.35,0-4.77-23.28,8.36-29.85S1301.07,789.14,1301.07,789.14Z"/><path class="cls-43" d="M1165,813.61s155.81-1.79,163,0,76.41,43,81.78,50.15-3,12.54-3,12.54-55.22-48.06-89.85-51.64-147.45-.6-154,6.57S1158.1,813.32,1165,813.61Z"/><path class="cls-43" d="M1156,724.67c-1.6,4-.6,12.53,0,14.32s6.57-12.53,77-7.16,110.44,5.37,114.62,7.16,16.11-12.53,0-11.34c-13.1,1-98.13-2.32-137.31-4.18-9.06-.43-17.12-.63-19.7-1.19-8.35.6-18.43-.13-25.86.25C1159.92,722.78,1156.48,723.49,1156,724.67Z"/><path class="cls-42" d="M1162.92,783.46s-3.91,6.65,0,8.61,133.16-1.18,158-.39,20.89-.79,20.89-.79,7.83-8.22,0-7.43S1228.19,785,1216.45,785,1164.23,781.5,1162.92,783.46Z"/><path class="cls-43" d="M1226.15,662.28c-16.86,21.69-25.27,63.86-25.27,63.86s128.45,10.24,135.36,8.11-9.8-88.68-58.75-83.91S1230.33,656.91,1226.15,662.28Z"/><path class="cls-44" d="M1231.53,669.45c-4.78,9.55-23.29,40-22.09,47.16s86,9.55,100.89,8.95,20.89.6,11.93-19.7-11.34-35.82-24.47-36.41-37.61-14.33-51.94-7.17Z"/><path class="cls-45" d="M1300.83,692.06a3.49,3.49,0,0,0-3.23,2.51l-16-4.39a9.44,9.44,0,0,1-5.63-4.24l-.06-.09a9.44,9.44,0,0,1-.5-8.29l5.65-13.88a3.25,3.25,0,0,0,1.25.19,3.5,3.5,0,1,0-2.78-1.22l-8.32,6.54c-4.06,3.18-5.69,13.78-10.6,12.19l-14.92-12a3.49,3.49,0,0,0-2.47-6.09,3.5,3.5,0,0,0,.26,7,3.58,3.58,0,0,0,.73-.11L1248,680.8c1.73,4.82,10.06,9.26,7.08,13.42l-14.21,10.23a3.5,3.5,0,1,0,.32,2.2l13-.4c2.31-.07,6-3.54,9-5.4a3.18,3.18,0,0,1,4.75,1.92l.12,17.94a3.49,3.49,0,1,0,1.72.08l5.14-12.43c1.37-4.7,7.6-6.68,12.24-8.21l10.48-3.47a3.5,3.5,0,1,0,3.19-4.62Z"/><path class="cls-46" d="M1602.75,293.66c-23,0-60.4-40.34-89-95.92-18.35-35.62-29.9-71.3-31.69-97.89-1.26-18.71,2.45-30.86,10.74-35.13a15.37,15.37,0,0,1,7.1-1.63c22.95,0,60.39,40.34,89,95.93,15.68,30.43,26.46,61.06,30.37,86.26,3.88,25,.53,41.62-9.42,46.75A15.37,15.37,0,0,1,1602.75,293.66Z"/><path d="M1499.88,62.59v1c10.77,0,25.55,9.46,41.61,26.64,16.39,17.51,33.06,42,47,69,15.65,30.39,26.41,61,30.31,86.12,1.89,12.16,2.06,22.37.52,30.33s-4.82,13.4-9.67,15.89a14.79,14.79,0,0,1-6.87,1.58c-10.77,0-25.55-9.46-41.61-26.63-16.39-17.52-33.07-42-47-69-18.31-35.56-29.84-71.16-31.63-97.69-1.23-18.24,2.49-30.54,10.47-34.65a14.79,14.79,0,0,1,6.87-1.58v-1m0,0a15.76,15.76,0,0,0-7.33,1.69c-8.73,4.49-12.23,17.46-11,35.61,1.72,25.51,12.78,61.25,31.74,98.07,29,56.39,66.8,96.2,89.47,96.2a15.79,15.79,0,0,0,7.33-1.69c21-10.82,11.72-70.67-20.73-133.68-29-56.39-66.8-96.2-89.47-96.2Z"/><path class="cls-47" d="M1481.66,100.33s7.41,99.9,100.88,186.23c0,0-139.09-50.66-202.93,31.32l-23.28-52.83S1501.07,221.93,1481.66,100.33Z"/><path class="cls-48" d="M1298.71,279,1343,258.19l13.36,6.86,23.28,52.83s-11.57,11.85-10.73,17.31c.51,3.28-16.42,11.28-30,17.15-9,3.89-16.56,6.84-16.56,6.84S1224.9,311.14,1298.71,279Z"/><path class="cls-49" d="M1330.87,356.73a89.3,89.3,0,0,1,18.3,27.9c6.44,16.32,9,36.59,9,36.59s37.4-7.47,43.42-26.29-46.72-31.59-44.48-51.07Z"/><ellipse class="cls-50" cx="1545.08" cy="179.62" rx="6.11" ry="27.94" transform="translate(89.24 727.41) rotate(-27.25)"/><path class="cls-51" d="M1507.61,181.24s18-5.61,23.59-24.06c0,0,1,27.38,24.1,46.77,0,0-22.43-.36-30.89,9.89C1524.41,213.84,1505.31,184.39,1507.61,181.24Z"/><path class="cls-52" d="M1384.51,270.18s80.06-31.41,91.4-62.79c0,0,6.53,24.13,37.11,33.92,0,0-119.86,34.24-121.32,42.84S1384.51,270.18,1384.51,270.18Z"/><path class="cls-53" d="M1279.76,310.88l15.52-8c2.5-1.29.5-5.17-2-3.88l-15.52,8c-2.5,1.28-.5,5.16,2,3.88Z"/><path class="cls-53" d="M1280.46,304.62l7.77-4c2.49-1.28.5-5.17-2-3.88l-7.76,4c-2.5,1.29-.51,5.17,2,3.88Z"/><path class="cls-53" d="M1280.6,316.33l21.74-11.19c2.49-1.29.5-5.17-2-3.88l-21.73,11.19c-2.5,1.29-.51,5.17,2,3.88Z"/><path class="cls-53" d="M1287.66,318.59l12.42-6.4c2.5-1.28.5-5.16-2-3.88l-12.42,6.4c-2.5,1.29-.5,5.17,2,3.88Z"/><path class="cls-53" d="M1294.72,320.85l4.65-2.4c2.5-1.29.51-5.17-2-3.88l-4.65,2.4c-2.5,1.29-.51,5.17,2,3.88Z"/></g></svg>
