<svg id="Layer_1" data-name="Layer 1" xmlns="http://www.w3.org/2000/svg" viewBox="0 0 1920 1080"><defs><style>.cls-1{fill:#367c1d;}.cls-2{fill:#fff;}.cls-3{fill:#39440c;}.cls-4{fill:#96a362;}.cls-5{fill:#a01227;}.cls-6{fill:none;stroke:#bfd8b4;stroke-miterlimit:10;}.cls-7{fill:#93542a;}.cls-8{fill:#f7c6a4;}.cls-9{fill:#2c5b18;}.cls-10{fill:#5b5550;}.cls-11{fill:#44413f;}.cls-12{fill:#726c67;}.cls-13{fill:#a3a19f;}.cls-14{fill:#0c2120;}.cls-15{fill:#2d2520;}.cls-16{fill:#323d3d;}.cls-17{fill:#182626;}.cls-18{fill:#75411a;}.cls-19{fill:#8c6628;}</style></defs><title>frog</title><path class="cls-1" d="M1600.2,471.64s-96.49,4.07-151.54-78.81c-26.82-69.28-30.47-121.08-14.63-165.77s15.85-40.83,8.53-59.72-24.37-68.26,11-92.63,49-15,55.06-6.91,17.06,17.67,19.5,27.22,6.09,4.06,23.16,2.64,23.15-11,23.15-11,17.07-58.5,61.15-49,34.33,78.82,32.91,91,8.53,31.29,17.06,39.41,42.86,20.32,39.21,93.85C1721.28,335.54,1712.74,445.64,1600.2,471.64Z"/><path class="cls-2" d="M1464.5,84.05s35.55-31.28,52.62,21.74a22.47,22.47,0,0,1,1,3.45c14.43,50-24.58,57.69-40.22,53.83-7.31-1.83-18.89-10.15-25.39-22.75C1445,125.9,1444.19,106,1464.5,84.05Z"/><path class="cls-2" d="M1645.5,63.74s24.38,29.86,0,65.21c-18.28,24.37-29.25,25.79-51.39,21.73-15.85-12.19-26.82-35.35-4.88-69.27S1638.19,57,1645.5,63.74Z"/><ellipse cx="1487.26" cy="120.21" rx="9.14" ry="10.16"/><ellipse cx="1615.44" cy="103.76" rx="9.14" ry="10.16"/><path class="cls-3" d="M1450.89,139.1s40-30.47,66.84-34.73c-7.72-17.68-20.11-40.23-46.52-30.27S1435.05,124.88,1450.89,139.1Z"/><path class="cls-3" d="M1578.87,94.61s56.48-.2,76.59,29.26c0,0,29.86-55.26-19.3-72.93C1602.44,40.38,1578.87,94.61,1578.87,94.61Z"/><path class="cls-4" d="M1556.93,211.22s-133.26-24.38-111.32,77.39,105.23,141.39,133.26,144,75.77-35.34,88-59.72,51.4-92.43,42.87-134.48S1689,165.1,1604.47,199C1587.4,211.22,1556.93,211.22,1556.93,211.22Z"/><path class="cls-5" d="M1560.59,230.31s-61.15-8.12-70.9,5.49-6.09,13.61,0,19.09,58.71,23.16,96.5,11,67.24-15,63.58-44.89-62.37-4.06-67.24,0C1577.65,224.83,1567.9,231.53,1560.59,230.31Z"/><path class="cls-6" d="M1508,249.21s80.64,8.12,118.63-23.16"/><ellipse cx="1575.83" cy="187.45" rx="9.75" ry="10.97"/><ellipse cx="1539.06" cy="191.51" rx="9.75" ry="10.97"/><path class="cls-7" d="M1530.53,50.13s2.43,6.7,15.84,2.64,31.89-13.41,33.11,6.9,0,24.38,3.66,25.8,24.38,9.55,8.53,8.13-37.38,1.83-44.89,7.72-28.44,35.75-30.88,25,11-11,9.75-23.15c-.61-5.49-3.45-11.18-5.89-16.66-3-6.7-5.89-13.41-3.86-19.91C1519.56,54.19,1519.56,46.06,1530.53,50.13Z"/><path class="cls-8" d="M1579.48,75.93c-12.19-1.43-52.61,2.64-58.71,12.18l2.44,5.49s30.47-16.25,57.49-12.19"/><g id="Layer_10" data-name="Layer 10"><path class="cls-7" d="M1576.59,530.81s-23.78,18.29-3.66,23.78,95.11-22,142.66,14.63,78.65,31.09,62.19,3.66-9.15-27.43-5.49-36.58,11-12.8-18.29-18.29c-12.8-9.14-5.49-14.63-20.12-23.78s-11,3.66-51.21,18.29S1587.57,519.84,1576.59,530.81Z"/><path class="cls-8" d="M1700.05,505.21s63.28,37.49,68.77,38c5.3.55,0,9.69,0,11.52s-79.93-41.15-75.54-46.27S1700.05,505.21,1700.05,505.21Z"/><path class="cls-1" d="M1475.08,877.4c-36.58-49.2-23.77-113.39-3.65-173.75S1572,597.57,1577.51,584.77s31.09-115.23,78.64-106.08,40.24,56.7,42.07,71.33,71.33,18.29,84.13,62.18,18.29,36.58,12.8,65.85-25.6,54.86-23.77,82.3,44.07,204.29-84.14,223.13C1575.68,999.94,1539.1,963.36,1475.08,877.4Z"/><ellipse cx="1527.52" cy="645.71" rx="10.97" ry="6.4" transform="translate(32.34 1363.13) rotate(-48.55)"/><path class="cls-4" d="M1539.1,665.24c18.29-9.14,34.75-21.94,58.52-14.63S1658,690.85,1604.94,775c-23.78,34.75-45.72,98.76-47.55,122.54s6.4,76.09-13.35,58.16c-19.57-17.92-105.54-89.62-90.9-176.31s21.76-85.23,26.33-94.19c8.42-1.65,21.22-1.65,30.36-5.31S1535.44,668.9,1539.1,665.24Z"/><path class="cls-5" d="M1486.06,707.31s12.8,3.66,32.92-9.15,56.7-40.23,60.35-16.46-45.72,53-60.35,54.87-49.38,5.49-53,0-.92-22.86,2.38-27.8S1476.91,701.82,1486.06,707.31Z"/><path class="cls-6" d="M1559.22,694.51c-3.66,1.82-36.58,32.92-93.28,23.77"/><path class="cls-2" d="M1630.55,508a88.35,88.35,0,0,0-22,31.09c-3.29,7.87-6.59,16.28-5.49,27.44.55,4.39,2.38,20.3,14.63,27.62,8.42,4.93,19,4.57,27.44-.19,16.46-9.14,38.41-38.41,34.75-71.33S1639.69,497,1630.55,508Z"/><ellipse cx="1620.49" cy="542.7" rx="10.97" ry="11.89"/><path class="cls-3" d="M1611.52,532.64s58.71,2.93,68,6.59c0,0,6.22-38.59-22.31-40.42S1612.62,529.9,1611.52,532.64Z"/><ellipse class="cls-9" cx="1757.66" cy="781.38" rx="5.49" ry="16.46"/><ellipse class="cls-9" cx="1732.97" cy="590.05" rx="8.23" ry="10.97" transform="translate(-92.68 454.61) rotate(-14.56)"/><ellipse class="cls-9" cx="1712.85" cy="610.17" rx="7.68" ry="17.92" transform="translate(-98.38 450.2) rotate(-14.56)"/><ellipse class="cls-9" cx="1742.11" cy="628.46" rx="4.57" ry="7.68" transform="translate(-102.04 458.14) rotate(-14.56)"/><ellipse class="cls-9" cx="1733.88" cy="871" rx="5.49" ry="10.97"/><ellipse class="cls-9" cx="1712.85" cy="847.22" rx="10.06" ry="16.46"/></g><path class="cls-9" d="M1238.9,756.52s82.23,17.81,117.49,41.49,88.73,55.19,90.75,60.46-21.23,114.65,3.18,89.19,15.86-90.56,21-110.48-20.42-1.44-52.72-23.67-74.54-42.9-97-49.61-62-27.17-73.45-26.35S1233.29,754.84,1238.9,756.52Z"/><path class="cls-9" d="M1183.88,718.17s-25.48,80.37-52.75,113-64.16,82.56-69.7,84S946.51,880.61,970.27,908s90.85,26.36,110.69,33.83,3.29-20.3,28.82-50.11,50.36-69.75,59.2-91.47,33.21-59,33.4-70.59S1186.09,712.74,1183.88,718.17Z"/><path class="cls-7" d="M1156.16,317.13s-23,17.68-3.53,23,91.93-21.21,137.9,14.15,76,30.05,60.11,3.53-8.84-26.52-5.31-35.36,10.61-12.37-17.68-17.68c-12.37-8.84-5.3-14.14-19.44-23s-10.61,3.54-49.51,17.68S1166.77,306.52,1156.16,317.13Z"/><path class="cls-8" d="M1275.48,292.32s61.19,36.21,66.41,36.7-.07,9.32-.08,11.09-77.22-39.78-73.09-44.64S1275.48,292.32,1275.48,292.32Z"/><path class="cls-1" d="M1047,645.16c-35.4-47.54-23-109.62-3.54-168s97.24-102.54,102.55-114.92,30-111.38,76-102.54,38.89,54.81,40.66,68.95,69,17.68,81.33,60.11,17.68,35.36,12.37,63.65-24.75,53-23,79.56S1376,729.42,1252.12,747.7C1144.28,763.61,1108.92,728.25,1047,645.16Z"/><ellipse cx="1108.81" cy="428.17" rx="10.61" ry="6.1" transform="translate(53.88 975.8) rotate(-48.55)"/><path class="cls-4" d="M1119.92,447.07c17.68-8.84,33.59-21.21,56.57-14.14s58.35,38.89,7.08,120.22c-23,33.59-44.2,95.47-46,118.45s6.11,73.52-12.86,56.21-102-86.58-87.89-170.4,21-82.31,25.52-91c8.05-1.64,20.42-1.64,29.26-5.17S1116.38,450.61,1119.92,447.07Z"/><path class="cls-5" d="M1068.65,487.74s12.37,3.53,31.82-8.84,54.81-38.9,58.34-15.91-44.19,51.27-58.34,53-47.73,5.31-51.27,0-.86-22.07,2.22-26.94S1059.81,482.43,1068.65,487.74Z"/><path class="cls-6" d="M1139.37,475.36c-3.54,1.77-35.36,31.82-90.17,23"/><path class="cls-2" d="M1208.32,295a85.26,85.26,0,0,0-21.22,30.05c-3.15,7.6-6.44,15.8-5.3,26.52.44,4.19,2.23,19.7,14,26.64,8.13,4.77,18.33,4.48,26.61-.12,15.91-8.84,37.13-37.12,33.59-68.95S1217.16,284.42,1208.32,295Z"/><ellipse cx="1198.59" cy="328.62" rx="10.61" ry="11.49"/><path class="cls-3" d="M1190,318.9s56.79,2.9,65.85,6.31c0,0,6-37.25-21.63-39S1191.09,316.24,1190,318.9Z"/><path class="cls-10" d="M1012,540.37s-4.21,5.8-2.63,6.32,8.42,1,7.89,0-2.1-6.32-2.1-6.32Z"/><path class="cls-11" d="M922.72,526.43s-.69-6.8,1.36-5.44,4.76,6.8,7.48,6.12S922.72,526.43,922.72,526.43Z"/><path class="cls-12" d="M1053.65,545.14l-63.94-2.73s-3.4-7.48,0-7.48,61.22.68,63.94,2S1053.65,545.14,1053.65,545.14Z"/><path class="cls-13" d="M915.57,524.73l136.72,4.08V539l-136.72-4.08S912.17,524.73,915.57,524.73Z"/><path d="M1080.86,570.3s-1.36,31.29,0,32,26.53,4.76,32.65,2.72,27.2,12.24,25.16,12.24c-1.16,0-10.2-6.12-28.56-6.12-11.07-2.06-23.17-3.69-32-3.4-.68-2.72,0-36.05,0-36.05Z"/><path class="cls-14" d="M1089.36,571.32s4.76,12.93-2,16.33c0,0,8.16.68,7.48-9.53s-3.4-10.88-3.4-10.88Z"/><path class="cls-15" d="M1119.63,551.26s8.16-18.37,21.76-20.41c-2.72,0-12.92,19.73-10.88,25.85S1119.63,551.26,1119.63,551.26Z"/><path class="cls-12" d="M1104,528.13s-.68-8.84-7.48-10.2-28.57-1.36-30.61,0,0,10.2,0,10.2Z"/><path class="cls-16" d="M1110.11,541.73s26.52,17,27.88,18.37.68,31.29,0,33.33-36.73,2-37.41,0,.68-18.37,0-22.45S1108.75,540.37,1110.11,541.73Z"/><polygon class="cls-17" points="1120.65 561.12 1130.17 567.24 1130.17 583.57 1105.68 583.57 1105.68 574.72 1120.65 561.12"/><polygon class="cls-16" points="1120.42 565.2 1126.77 569.28 1126.77 580.16 1110.45 580.16 1110.45 574.27 1120.42 565.2"/><path class="cls-18" d="M1100.58,590.71v2.72l9.53,17.68s50.33-.68,26.52,32.65c0,0,37.41-4.76,43.54,0s10.2-53-45.58-53C1106.71,591.39,1100.58,590.71,1100.58,590.71Z"/><path class="cls-19" d="M1120.31,598.29c12.29,0,26.22.09,37.64,5.17,12,5.35,13.74,17,13.9,28.84l1.9-1.44c-5.07-.94-9.25,1.12-14.09,2.27-1.14.27-4.68,1.18-5.64.28s-.07-4.14.06-5.35a18.5,18.5,0,0,0-1-8.73c-3.47-9.08-13.47-13.48-22.66-11.63-1.89.39-1.09,3.28.8,2.9a17,17,0,0,1,16.79,5.91,15.16,15.16,0,0,1,3,11.35,23.88,23.88,0,0,0-.13,7,1.49,1.49,0,0,0,1,1c7.29,2.63,13.7-3.45,21-2.11a1.53,1.53,0,0,0,1.9-1.45c-.15-11.37-1.56-23.38-12.19-29.8-12-7.25-28.79-7.25-42.35-7.21a1.5,1.5,0,0,0,0,3Z"/><path class="cls-19" d="M1159.91,613a10.73,10.73,0,0,1,5,6.32c.23.88.69,2.87-.11,3.65-.51.51-3.51.54-4,.31-2-1-1.62-4.49-1.93-6.33a10.41,10.41,0,0,0-1.92-4.49c-4.19-5.77-12.45-6.65-18.86-8.2-1.88-.45-2.68,2.44-.8,2.9,6.86,1.65,18,2.67,18.71,11.5.34,4,.8,7.39,5.54,7.73,11.43.83,5.67-12.4-.13-16-1.65-1-3.16,1.58-1.52,2.59Z"/><path class="cls-10" d="M1048.89,524.73s53-1.36,55.77,0,6.81,13.6,8.17,15,0,23.81,0,23.81-8.17,9.52-11.57,10.88-47.61-1.36-49-2S1046.17,524.73,1048.89,524.73Z"/><path class="cls-11" d="M1058.41,528.81h25.85s23.81,3,0,7.82h-24.49Z"/><path class="cls-11" d="M1059.77,539.35h25.85s23.81,5.56,0,14.29h-24.49Z"/><path class="cls-11" d="M1062.49,556.36h25.85s23.81,3.7,0,9.52h-24.49Z"/><path class="cls-9" d="M1276.4,508.56s-107.94,127.67-143,100.57,66.34-25.61,115.1-104.29Z"/><ellipse class="cls-9" cx="1322.35" cy="608.84" rx="5.3" ry="15.91"/><ellipse class="cls-9" cx="1298.49" cy="423.89" rx="7.87" ry="10.61" transform="translate(-64.86 339.99) rotate(-14.56)"/><ellipse class="cls-9" cx="1279.04" cy="443.34" rx="7.4" ry="17.24" transform="translate(-70.37 335.73) rotate(-14.56)"/><ellipse class="cls-9" cx="1307.33" cy="461.02" rx="4.49" ry="7.36" transform="translate(-73.91 343.41) rotate(-14.56)"/><ellipse class="cls-9" cx="1299.37" cy="695.47" rx="5.3" ry="10.61"/><ellipse class="cls-9" cx="1279.04" cy="672.49" rx="9.72" ry="15.91"/></svg>
