<svg id="Layer_1" data-name="Layer 1" xmlns="http://www.w3.org/2000/svg" viewBox="0 0 1920 1080"><defs><style>.cls-1{fill:#77421b;}.cls-2{fill:#30190a;}.cls-3{fill:#c9c4c1;}.cls-3,.cls-34,.cls-35,.cls-36,.cls-42,.cls-44,.cls-45,.cls-46,.cls-47,.cls-48,.cls-5{stroke:#000;}.cls-28,.cls-3,.cls-34,.cls-35,.cls-36,.cls-42,.cls-44,.cls-45,.cls-46,.cls-47,.cls-48,.cls-5,.cls-8{stroke-miterlimit:10;}.cls-4{fill:#4f2a11;}.cls-5,.cls-9{fill:#3f3f3f;}.cls-6{fill:#e26e17;}.cls-7{fill:#ccae1b;}.cls-35,.cls-8{fill:none;}.cls-8{stroke:#30190a;}.cls-10{fill:#ede4bc;}.cls-11{fill:#179926;}.cls-12{fill:#442d19;}.cls-13{fill:#774d2f;}.cls-14{fill:#9e633b;}.cls-15{fill:#143f17;}.cls-16{fill:#000200;}.cls-17{fill:#5b5550;}.cls-18{fill:#44413f;}.cls-19{fill:#726c67;}.cls-20{fill:#a3a19f;}.cls-21{fill:#0c2120;}.cls-22{fill:#2d2520;}.cls-23{fill:#323d3d;}.cls-24{fill:#182626;}.cls-25{fill:#75411a;}.cls-26{fill:#8c6628;}.cls-27{fill:#602315;}.cls-28{fill:#fff;stroke:#381810;}.cls-29{fill:#381810;}.cls-30{fill:#723322;}.cls-31{fill:#4c2306;}.cls-32{fill:#605553;}.cls-33{fill:#996c44;}.cls-34{fill:#a5a5a5;}.cls-36{fill:#d8c623;}.cls-37{fill:#9e9c9a;}.cls-38{fill:#301b0c;}.cls-39{fill:#603a20;}.cls-40{fill:#140b05;}.cls-41{fill:#604326;}.cls-42{fill:#ccb244;}.cls-43{fill:#c7f2ff;}.cls-44{fill:#f2f9f9;}.cls-45{fill:#ff7373;}.cls-46{fill:#424441;}.cls-47{fill:#6a7265;}.cls-48{fill:#dee5da;}.cls-49{fill:#bcc9c9;}.cls-50{fill:#d15e5e;}</style></defs><title>housandacces</title><path class="cls-1" d="M352.89,353.38a212,212,0,0,1,5.19,54.74c-1.3,29.07,9.07,77,9.07,85.52s5.19,51.32,5.19,58.16,142.59-13.68,142.59-13.68-5.84-76.12-.65-112,9.07-78.69,5.18-85.53S351,337.13,352.25,345.68s0,8.55,0,8.55Z"/><path class="cls-2" d="M404.74,406.4s6.49,135.14,6.49,138.56,13,0,13,0-10.37-135.13-6.48-138.56S404.74,406.4,404.74,406.4Z"/><path class="cls-2" d="M472.15,403s6.48,135.14,6.48,138.56,13,0,13,0S481.22,406.4,485.11,403,472.15,403,472.15,403Z"/><path class="cls-3" d="M371.76,384.15c-4.14,26.34-3.05,43.61-3.05,43.61L376,480.65,385.06,540s11.54-2.64,12.91-1.7-4.06-109.43-4.25-116.14-8.46-47.13-13.31-46.48S372.75,377.85,371.76,384.15Z"/><line class="cls-3" x1="377.18" y1="376.14" x2="376.86" y2="376.19"/><line class="cls-3" x1="391.84" y1="539.15" x2="376.86" y2="376.19"/><line class="cls-3" x1="387.31" y1="488.13" x2="395.97" y2="469.03"/><line class="cls-3" x1="381.96" y1="430.49" x2="390.19" y2="401.35"/><line class="cls-3" x1="384.22" y1="456" x2="369.67" y2="401.82"/><line class="cls-3" x1="388.16" y1="499.24" x2="373.17" y2="460.83"/><path class="cls-3" d="M492.24,369.23c-5.63,25.81-5.83,43.23-5.83,43.23l3,53.9L493.58,527s10.77-1.12,12,0,3.89-110,4.19-116.78-4.49-48.29-9-48.29S493.58,363.05,492.24,369.23Z"/><line class="cls-3" x1="497.77" y1="361.93" x2="497.47" y2="361.93"/><line class="cls-3" x1="499.86" y1="527" x2="497.47" y2="361.93"/><line class="cls-3" x1="499.26" y1="475.35" x2="508.53" y2="457.38"/><line class="cls-3" x1="498.37" y1="416.95" x2="507.93" y2="388.88"/><line class="cls-3" x1="498.67" y1="442.78" x2="489.1" y2="386.64"/><line class="cls-3" x1="499.26" y1="486.58" x2="488.2" y2="446.15"/><path class="cls-4" d="M428.72,360.22S392.43,394.43,386,409.83H500c13,0-32.41-51.32-37.59-49.61S428.72,360.22,428.72,360.22Z"/><path class="cls-5" d="M428.62,426.15c5.38-1.1,13.18-3.82,20.47-6.62,10.21-3.92,19.39-8,19.39-8l1.08,120.9-40.94,15.94Z"/><line class="cls-5" x1="446.39" y1="420.17" x2="445.31" y2="542.4"/><line class="cls-5" x1="446.39" y1="465.34" x2="469.02" y2="456.04"/><line class="cls-5" x1="429.15" y1="462.69" x2="446.39" y2="465.34"/><line class="cls-5" x1="428.08" y1="502.54" x2="445.31" y2="505.2"/><line class="cls-5" x1="445.31" y1="506.53" x2="469.02" y2="495.9"/><line class="cls-5" x1="428.08" y1="501.22" x2="445.31" y2="506.53"/><ellipse class="cls-1" cx="455.01" cy="482.62" rx="2.69" ry="3.32"/><path class="cls-4" d="M353.54,547.53s169.81-23.95,178.88-17.11c0,0,3.89,25.66,0,27.37s-169.8,12-173.69,15.39S347.06,547.53,353.54,547.53Z"/><polygon class="cls-1" points="404.49 553.05 404.72 569.07 489 559.69 488.8 545.13 404.49 553.05"/><path class="cls-2" d="M383.08,568.05s116.07-10.26,119.81-8.55,0,13.68,0,13.68l-119.81,5.14S379.33,568.05,383.08,568.05Z"/><path class="cls-1" d="M369.75,592V578.32l8.82-.66c30.4-2.23,129.41-9.34,138.18-7.9a17.89,17.89,0,0,1,0,10.27C515,585.16,374.93,588.58,369.75,592Z"/><path class="cls-2" d="M416.77,154.07c5.25,21.2,20.92,75.59,13.31,33.46s-15.76-63.59-14.89-47.41"/><path class="cls-2" d="M456.91,151.25c-4.93,21.33-15.78,77.73-3.67,37.48s14.78-64,8.45-50.09"/><path class="cls-6" d="M435.85,165.22c-1.29,5.13,6.49,13.68,6.49,1.71S435.85,165.22,435.85,165.22Z"/><path class="cls-7" d="M441,143.09s-1.72-3.56-5.85-.72c-.68,3.56.35,10.68-.34,12.82-2.06,1.42-2.75,3.56-3.1,5.7S431,168,431,168s13.75,1.42,14.78,0,0-10.68-1.72-12.11-3.09,1.43-3.09-5.69S441.69,143.8,441,143.09Z"/><path class="cls-4" d="M425.84,181.57s24.32-9.38,30.4,0c1.74,37.54-3.47,32.85-5.21,32.85s-26.06-4.7-27.8,0S419.76,181.57,425.84,181.57Z"/><path class="cls-5" d="M347.71,338c-1.3-1.71-6.48-12-6.48-12l73.88-100.92L441,199.43l86.85,116.32,3.89,25.65-90.65-7.62-76.05,4.67Z"/><path class="cls-4" d="M339.93,336.27s1.3,12,0,18.82,24.63-17.11,97.22-10.26,92,5.13,97.22,12S542.15,326,537,327.72s-121.85,3.42-145.18,0S339.93,326,339.93,336.27Z"/><path class="cls-2" d="M323.08,336.27s1.3,10.27,11.67,5.13,62.22-88.94,83-111.18,16.85-25.66,24.63-18.82,79.07,116.32,88.14,124.87,23.33,34.21,19.44,17.11c-1.16-5.12-7.54-23-20.74-42.77C498.27,264.29,445.06,198.4,442.34,196c-3.89-3.42-37.6,30.79-68.71,78.68C359.38,293.51,346.41,322.59,323.08,336.27Z"/><path class="cls-3" d="M483.82,306.39c0,20.05-93.8,20.05-93.8,0s21-36.32,46.9-36.32S483.82,286.33,483.82,306.39Z"/><line class="cls-8" x1="436.92" y1="321.73" x2="434.59" y2="269.56"/><line class="cls-8" x1="442.34" y1="321.73" x2="472.57" y2="282.86"/><line class="cls-8" x1="428.39" y1="320.71" x2="407.46" y2="277.74"/><path class="cls-8" d="M405.85,318s44.27-70.68,56.27,1.31"/><path class="cls-9" d="M413.4,148.3c19.05,0,53.7,3.43,54.82,0S448.08,62.55,439.13,78,402.22,148.3,413.4,148.3Z"/><path class="cls-3" d="M426.66,142.9c17.36-6,29.49,4.44,24.32-15.7s-10.33-40.3-16.73-16.15S423.77,143.9,426.66,142.9Z"/><line class="cls-8" x1="437.22" y1="141.09" x2="443.08" y2="102.51"/><line class="cls-8" x1="440.74" y1="117.94" x2="432.21" y2="115.4"/><line class="cls-8" x1="439.57" y1="125.66" x2="452.71" y2="133.91"/><line class="cls-8" x1="439.41" y1="131.19" x2="427.84" y2="135.19"/><path class="cls-10" d="M436.47,25.9c-4.35,0-8.64,1.43-9.18,3.56s-3.78,5.7,0,5.7,7-3.56,10.8-1.42c0,5.7.54,15.67,0,22.08a62.09,62.09,0,0,0,0,14.25c.54,4.28,5.4,2.14,5.4-2.85s-.54-28.49,0-30.63-1.62-3.56,2.16-2.85,8.09,2.85,9.17.71,2.7-9.26-3.24-8.55-8.09,3.56-8.63,0S444,6.67,441.33,8.09,437,10.23,437,16.64,438.09,25.9,436.47,25.9Z"/><path class="cls-2" d="M404.74,139.56c-5.18,18.81-1.29,25.66,7.78,5.13s27.22-75.26,28.52-65,28.52,75.26,33.7,77-9.07-37.63-13-49.6S448.82,71.14,441,66s-24.63,51.32-29.81,59.87S404.74,139.56,404.74,139.56Z"/><path class="cls-11" d="M574,585.43v17.4c0,2.88,4.54,2.88,4.54,0v-17.4c0-2.88-4.54-2.88-4.54,0Z"/><path d="M571.74,590.73v12.1c0,2.88,4.54,2.88,4.54,0v-12.1c0-2.88-4.54-2.88-4.54,0Z"/><path d="M581.58,593.75V621c0,2.87,4.54,2.87,4.54,0V593.75c0-2.87-4.54-2.87-4.54,0Z"/><path d="M587.48,586.34l5.29,5.29c2.12,2.12,5.3-1.21,3.18-3.17l-5.3-5.3c-2-2.12-5.14,1.06-3.17,3.18Z"/><path d="M583.09,584.67v40.86c0,2.87,4.54,2.87,4.54,0V584.67c0-2.87-4.54-2.87-4.54,0Z"/><path class="cls-11" d="M599.73,916.8S522.57,629.31,571,579.38s60.53,21.18,59,45.39c-.61,9.38-1.37,51.6-2.12,100.92-1.21,77.93-2.42,173.41-2.42,183.54C625.46,925.88,601.25,922.85,599.73,916.8Z"/><path class="cls-11" d="M701.87,599.8c-3,4.54-1.52,6.06-7.57,16.65-3.18,5.75-5.6,7-8.32,7a28.15,28.15,0,0,0-2.27-5.45c-4.54-7.56-13.62-3-24.21,3s-8.32,52.2-9.83,61.28-1.52,15.13-10.6,33.29-18.15,12.1-18.15,12.1c-8.33-3.78-9.84,14.38-2.27,18.92S661,719.34,664,714.8s10.59-24.21,19.67-43.88c5.9-12.86,6-28.45,4.09-39.64,3.93-1.21,8.32-2.88,12.55-4.24,9.08-3,10.6-19.67,10.6-27.24S704.89,595.26,701.87,599.8Z"/><path class="cls-11" d="M552.07,761.71c-4.54-12.11-12.1-34.81-10.59-46.91s-3-25.72-16.65-27.24-16.64,18.16-13.61,31.78,18.15,56,25.72,59,37.83,4.54,42.37,9.08,6.05-4.54-1.52-13.62C568.71,767.76,556.61,773.81,552.07,761.71Z"/><path class="cls-11" d="M567.2,630.07c4.54,0,3-16.65,3-16.65-10.59-1.51-21.19-3-19.67-10.59s0-43.88-15.13-34.8-3,37.83,0,42.37S562.66,630.07,567.2,630.07Z"/><path class="cls-12" d="M567.2,934.2h118c9.08,0,1.52-12.1-7.56-9.08s0-18.16-18.16-13.62c0,0-19.52-21.18-35.56-9.83,0,0-35.55-25-47.66-3.78S553.58,934.2,567.2,934.2Z"/><path d="M579.61,590v28.75a1.14,1.14,0,0,0,2.27,0V590a1.14,1.14,0,0,0-2.27,0Z"/><path d="M603.06,568.79v23.45a1.14,1.14,0,0,0,2.27,0V568.79a1.14,1.14,0,0,0-2.27,0Z"/><path d="M600,615.69v21.94a1.14,1.14,0,0,0,2.27,0V615.69a1.14,1.14,0,0,0-2.27,0Z"/><path d="M532,576.35v7.57a1.14,1.14,0,0,0,2.27,0v-7.57a1.14,1.14,0,0,0-2.27,0Z"/><path d="M538,595.26v8.33a1.14,1.14,0,0,0,2.27,0v-8.33a1.14,1.14,0,0,0-2.27,0Z"/><path d="M563.72,653.52V674.7a1.14,1.14,0,1,0,2.27,0V653.52a1.14,1.14,0,0,0-2.27,0Z"/><path d="M584.91,670.16v31.78a1.13,1.13,0,1,0,2.26,0V670.16a1.14,1.14,0,0,0-2.26,0Z"/><path d="M573.56,720.85v19.67a1.14,1.14,0,1,0,2.27,0V720.85a1.14,1.14,0,0,0-2.27,0Z"/><path d="M608.36,689.08v16.64a1.14,1.14,0,0,0,2.27,0V689.08a1.14,1.14,0,0,0-2.27,0Z"/><path d="M597,733.71v13.62a1.14,1.14,0,0,0,2.27,0V733.71a1.14,1.14,0,0,0-2.27,0Z"/><path d="M613.65,766.25v15.88a1.14,1.14,0,1,0,2.27,0V766.25a1.14,1.14,0,0,0-2.27,0Z"/><path d="M587.93,767.76v18.16a1.14,1.14,0,0,0,2.27,0V767.76a1.14,1.14,0,0,0-2.27,0Z"/><path d="M589.44,814.66v13.62a1.14,1.14,0,1,0,2.27,0V814.66a1.14,1.14,0,0,0-2.27,0Z"/><path d="M613.35,836.3a1.14,1.14,0,0,0,0-2.27,1.14,1.14,0,0,0,0,2.27Z"/><path d="M612.9,833.58V848a1.14,1.14,0,1,0,2.27,0V833.58a1.14,1.14,0,0,0-2.27,0Z"/><path d="M602.31,849.47v12.1a1.14,1.14,0,0,0,2.27,0v-12.1a1.14,1.14,0,0,0-2.27,0Z"/><path d="M640.13,723.12v6.81a1.14,1.14,0,0,0,2.27,0v-6.81a1.14,1.14,0,0,0-2.27,0Z"/><path d="M662.83,632.34v12.1a1.14,1.14,0,0,0,2.27,0v-12.1a1.14,1.14,0,0,0-2.27,0Z"/><path d="M674.93,644.44v16.64a1.14,1.14,0,1,0,2.27,0V644.44a1.14,1.14,0,0,0-2.27,0Z"/><path d="M661.32,674V692.1a1.14,1.14,0,1,0,2.27,0V674a1.14,1.14,0,0,0-2.27,0Z"/><path d="M703.68,604.34v5.3a1.14,1.14,0,0,0,2.27,0v-5.3a1.14,1.14,0,0,0-2.27,0Z"/><path d="M515.3,697.4v6.05a1.14,1.14,0,0,0,2.27,0V697.4a1.14,1.14,0,0,0-2.27,0Z"/><path d="M528.92,701.94v16.64a1.14,1.14,0,1,0,2.27,0V701.94a1.14,1.14,0,0,0-2.27,0Z"/><path d="M523.62,718.58v12.11a1.14,1.14,0,0,0,2.27,0V718.58a1.14,1.14,0,0,0-2.27,0Z"/><path d="M532.7,736v14.38a1.14,1.14,0,0,0,2.27,0V736a1.14,1.14,0,0,0-2.27,0Z"/><path d="M541,771.54V756.41a1.14,1.14,0,0,0-2.27,0v15.13a1.14,1.14,0,0,0,2.27,0Z"/><path d="M557.67,778.35v-9.83a1.14,1.14,0,1,0-2.27,0v9.83a1.14,1.14,0,0,0,2.27,0Z"/><path d="M588.39,642.17l-7.57-7.56c-1.06-1.06-2.57.6-1.66,1.66l7.56,7.57c1.06,1,2.72-.61,1.67-1.67Z"/><path d="M609.87,670.16V652a1.14,1.14,0,1,0-2.27,0v18.15a1.14,1.14,0,1,0,2.27,0Z"/><path d="M615.62,625.68l9.08-9.08c1.06-1.06-.61-2.57-1.66-1.66L614,624c-.91,1.06.6,2.73,1.66,1.67Z"/><path d="M617.44,738.25V720.1a1.14,1.14,0,1,0-2.27,0v18.15a1.14,1.14,0,1,0,2.27,0Z"/><path d="M567.5,695.28a47.17,47.17,0,0,1,11.5,11.8c.76,1.21,2.73,0,2-1.21a49.5,49.5,0,0,0-12.41-12.71c-1.21-.75-2.27,1.21-1.06,2.12Z"/><path d="M589.9,763.22l-9.08-9.08c-1.06-1.06-2.57.61-1.66,1.67l9.07,9.07c1.06,1.06,2.73-.6,1.67-1.66Z"/><path d="M605,805.74l10.59-10.59c1.06-1.06-.6-2.58-1.66-1.67l-10.6,10.59c-.9,1.06.61,2.73,1.67,1.67Z"/><path d="M609.72,822.08l4.54-9.08c.6-1.36-1.36-2.42-2-1.21l-4.54,9.08c-.6,1.36,1.36,2.57,2,1.21Z"/><path d="M593.23,798.78v-1.52a1.14,1.14,0,0,0-2.27,0v1.52a1.14,1.14,0,0,0,2.27,0Z"/><path d="M602.31,845.68a81.1,81.1,0,0,1,5.9-23.9c.6-1.37-1.67-2-2.12-.61a85.11,85.11,0,0,0-5.9,24.51c-.31,1.52,2,1.52,2.12,0Z"/><path d="M596.25,705v-9.07a1.14,1.14,0,1,0-2.27,0V705a1.14,1.14,0,1,0,2.27,0Z"/><path d="M616.08,641.87c1-3,2-6,3-9.08.46-1.36-1.66-2-2.12-.61-1.06,3-2,6.06-3,9.08-.46,1.36,1.66,2,2.12.61Z"/><path class="cls-13" d="M583.54,920.28c2.42-3.33,8-2.57,10,.91,1.36,2.57,5.3.3,3.93-2.27-3.78-6.66-13.46-6.81-17.85-.91-1.67,2.42,2.27,4.69,3.93,2.27Z"/><path class="cls-13" d="M605.63,907.72a11.06,11.06,0,0,1,12-.45c2.57,1.36,4.84-2.58,2.27-3.94a16.42,16.42,0,0,0-16.65.46c-2.27,1.66,0,5.6,2.42,3.93Z"/><path class="cls-13" d="M638.77,920.28A17.8,17.8,0,0,1,653,923.46c2.43,1.66,4.7-2.27,2.27-3.94a23,23,0,0,0-17.7-3.63c-2.72.61-1.51,5,1.21,4.39Z"/><path class="cls-13" d="M611.69,919.83a16.81,16.81,0,0,1,10.89-.91c2.88.75,4.09-3.63,1.21-4.39a21,21,0,0,0-13.31.91c-2.73,1.06-1.52,5.44,1.21,4.39Z"/><path class="cls-14" d="M214.1,992.6a8,8,0,0,1,6.4-4.7c1.2-.2,10.2-.9,9.3,2-.6,1.8,2.3,2.6,2.9.8,1.6-5.3-4.7-6-8.4-6.1-5.3-.1-10.5,1.4-12.9,6.5-.7,1.8,1.9,3.3,2.7,1.5Z"/><path class="cls-14" d="M212.5,995.7a18.41,18.41,0,0,1,11.5-7.9c3.7-1,16.9-2.8,13.8,5.1-.7,1.8,2.2,2.6,2.9.8,2.9-7.6-5.8-10.2-11.5-9.8-7.7.6-15,3.6-19.3,10.3-1,1.6,1.6,3.1,2.6,1.5Z"/><path class="cls-15" d="M406.2,566.2c-31-7.2-28.8,24-31,31.2s-13.3,81.5-19.9,124.7c-4.3,27.9-22.5,37.8-34.8,41.3,5.5-56.4,11.4-114.9,14.9-130,6.6-28.8,13.3-134.3-6.6-146.3s-64.3-24-84.2,69.6c-6.3,29.6-6.8,83-4.7,142.4-19.6,4.1-58,3.9-59.6-58.5-2.2-83.9,11.1-98.3,11.1-107.9s-73.1-67.2-62.1,33.6S182.5,707.8,204.7,715c12.5,4.1,24.3,7.4,36.2,7.3,5.8,123.3,21.4,261.3,21.4,261.3s37.7,9.6,33.2,0,8.9-76.7,13.3-105.5c1.5-9.6,4.2-37,7.4-70.2,24.2,2.9,72-66.1,87.9-83.3,17.7-19.2,24.4-93.5,31-110.3S437.3,573.4,406.2,566.2Z"/><path class="cls-16" d="M273.6,515.3a71,71,0,0,0-2.3,13.8c-.1,1,1.4,1,1.5,0a76.45,76.45,0,0,1,2.2-13.4.73.73,0,1,0-1.4-.4Z"/><path class="cls-16" d="M303,496a157.57,157.57,0,0,0-1.3,26.6.75.75,0,1,0,1.5,0,152.84,152.84,0,0,1,1.2-26.2c.2-.9-1.3-1.3-1.4-.4Z"/><path class="cls-16" d="M326.4,548l-3,13.8c-.2.9,1.2,1.3,1.4.4l3-13.8a.73.73,0,1,0-1.4-.4Z"/><path class="cls-16" d="M286.1,548c-.8,5.1-1.6,10.1-2.4,15.2-.1.9,1.3,1.4,1.4.4.8-5.1,1.6-10.1,2.4-15.2.2-.9-1.2-1.3-1.4-.4Z"/><path class="cls-16" d="M265.7,574a40.6,40.6,0,0,1,.4,11c-.1,1,1.4,1,1.5,0a39.7,39.7,0,0,0-.5-11.4c-.1-1-1.6-.6-1.4.4Z"/><path class="cls-16" d="M271.4,616.2v18.4a.75.75,0,0,0,1.5,0V616.2a.75.75,0,0,0-1.5,0Z"/><path class="cls-16" d="M256.6,645v13.6a.75.75,0,0,0,1.5,0V645a.75.75,0,0,0-1.5,0Z"/><path class="cls-16" d="M302.9,589.5a68.19,68.19,0,0,0-2.5,29.1c.1.9,1.6,1,1.5,0a66.46,66.46,0,0,1,2.4-28.7c.3-.9-1.1-1.3-1.4-.4Z"/><path class="cls-16" d="M313.6,611.4c-.3,5.3-.6,10.6-1,16-.1,1,1.4,1,1.5,0,.3-5.3.6-10.6,1-16,.1-1-1.4-.9-1.5,0Z"/><path class="cls-16" d="M294.1,680.7c-1,6.7-2,13.3-3,20-.1.9,1.3,1.4,1.4.4,1-6.7,2-13.3,3-20,.2-.9-1.3-1.3-1.4-.4Z"/><path class="cls-16" d="M278.2,654.6c-.3,6.7-.6,13.3-.8,20a.75.75,0,0,0,1.5,0c.3-6.7.6-13.3.8-20,.1-1-1.4-1-1.5,0Z"/><path class="cls-16" d="M262.5,694.5v18.4a.75.75,0,1,0,1.5,0V694.5a.75.75,0,0,0-1.5,0Z"/><path class="cls-16" d="M311.3,652.8a43.75,43.75,0,0,0-.7,11.4c.1,1,1.6,1,1.5,0a40.76,40.76,0,0,1,.7-11c.1-1-1.3-1.4-1.5-.4Z"/><path class="cls-16" d="M313,717.6a188.47,188.47,0,0,0-5.2,29.7c-.1,1,1.4,1,1.5,0a181.44,181.44,0,0,1,5.1-29.3c.3-.9-1.1-1.3-1.4-.4Z"/><path class="cls-16" d="M280.3,740.1a117.68,117.68,0,0,1-2.2,22.2c-.2.9,1.3,1.3,1.4.4a122.75,122.75,0,0,0,2.2-22.6c.1-.9-1.4-.9-1.4,0Z"/><path class="cls-16" d="M263.2,777.7a284.69,284.69,0,0,0,.2,32c.1,1,1.6,1,1.5,0a310.53,310.53,0,0,1-.2-32c.1-1-1.4-1-1.5,0Z"/><path class="cls-16" d="M289.7,794.2a106.82,106.82,0,0,0-2.9,21.8.75.75,0,0,0,1.5,0,102.11,102.11,0,0,1,2.9-21.4c.2-.9-1.3-1.3-1.5-.4Z"/><path class="cls-16" d="M298.8,812.9c.4,14.9.8,29.8,1.2,44.8a.75.75,0,0,0,1.5,0c-.4-14.9-.8-29.8-1.2-44.8a.75.75,0,1,0-1.5,0Z"/><path class="cls-16" d="M265.4,831.3a139.23,139.23,0,0,0,2.5,28.1c.2.9,1.6.5,1.4-.4a136,136,0,0,1-2.5-27.7c.1-1-1.4-1-1.4,0Z"/><path class="cls-16" d="M288.3,858.4c-.3,8.3-.3,16.5.1,24.8a.75.75,0,0,0,1.5,0c-.4-8.3-.4-16.5-.1-24.8.1-.9-1.4-.9-1.5,0Z"/><path class="cls-16" d="M275.3,895c-.9,6.4-1.8,12.7-2.7,19.1-.1.9,1.3,1.4,1.4.4.9-6.4,1.8-12.7,2.7-19.1.1-.9-1.3-1.3-1.4-.4Z"/><path class="cls-16" d="M283.7,910.4c-1.2,10.7-2.3,21.3-3.5,32-.1,1,1.4,1,1.5,0,1.2-10.7,2.3-21.3,3.5-32,.1-1-1.4-1-1.5,0Z"/><path class="cls-16" d="M327.8,768.8a94.56,94.56,0,0,0-2.9,26.5.75.75,0,0,0,1.5,0,95.94,95.94,0,0,1,2.9-26.1.78.78,0,0,0-1.5-.4Z"/><path class="cls-16" d="M353.5,758.2a27.43,27.43,0,0,0-4.6,10.5c-.2.9,1.2,1.3,1.4.4a27.49,27.49,0,0,1,4.5-10.2c.6-.8-.7-1.5-1.3-.7Z"/><path class="cls-16" d="M367.6,687.4c-.6,9.3-1.1,18.6-1.7,28-.1,1,1.4,1,1.5,0,.6-9.3,1.1-18.6,1.7-28,.1-1-1.4-1-1.5,0Z"/><path class="cls-16" d="M376.5,664.5a20.08,20.08,0,0,1,1.7,16.9c-.3.9,1.1,1.3,1.4.4a21.68,21.68,0,0,0-1.8-18.1.76.76,0,0,0-1.3.8Z"/><path class="cls-16" d="M384.4,618.3a29.31,29.31,0,0,1,3.8,14.7.75.75,0,1,0,1.5,0,31.15,31.15,0,0,0-4-15.5.76.76,0,0,0-1.3.8Z"/><path class="cls-16" d="M399.3,574.6c-.6,8.5-1.2,17-1.7,25.6-.1,1,1.4,1,1.5,0,.6-8.5,1.2-17,1.7-25.6.1-.9-1.4-.9-1.5,0Z"/><path class="cls-16" d="M415.7,588.8a147.9,147.9,0,0,0-9.8,25.7c-.3.9,1.2,1.3,1.4.4a143.16,143.16,0,0,1,9.6-25.3c.6-1-.7-1.7-1.2-.8Z"/><path class="cls-16" d="M403.5,652.8A79.68,79.68,0,0,0,418.4,635c.5-.8-.8-1.6-1.3-.8a82.31,82.31,0,0,1-14.7,17.5c-.7.7.4,1.7,1.1,1.1Z"/><path class="cls-16" d="M389.9,699.7a92.81,92.81,0,0,0,14.8-26.4c.3-.9-1.1-1.3-1.4-.4a91.68,91.68,0,0,1-14.4,25.7c-.7.7.4,1.8,1,1.1Z"/><path class="cls-16" d="M369.3,744.2a34,34,0,0,1,11.3-18.7c.7-.6-.3-1.7-1.1-1.1a35.3,35.3,0,0,0-11.7,19.3c-.2,1.1,1.3,1.5,1.5.5Z"/><path class="cls-16" d="M147,548.2a103.33,103.33,0,0,1,7.7-28.3c.4-.9-.9-1.6-1.3-.8a108.18,108.18,0,0,0-7.9,29.1c-.1,1,1.4,1,1.5,0Z"/><path class="cls-16" d="M163.2,538.1a65.67,65.67,0,0,1,14.2-18.9c.7-.7-.3-1.7-1.1-1.1a64.56,64.56,0,0,0-14.4,19.2c-.4.9.9,1.7,1.3.8Z"/><path class="cls-16" d="M158.3,602.4a84.23,84.23,0,0,0-6.4-14.4c-1-1.7-10.5-13.1-9.2-14.7.6-.7-.5-1.8-1.1-1.1-2.6,3.2,2.1,6.9,4,9.2a71.51,71.51,0,0,1,11.3,21.3c.3,1,1.7.6,1.4-.3Z"/><path class="cls-16" d="M164.5,580.3a77.17,77.17,0,0,1,12.1-30.2c.5-.8-.8-1.6-1.3-.8A79.28,79.28,0,0,0,163,579.9c-.1,1,1.3,1.4,1.5.4Z"/><path class="cls-16" d="M166.4,659.4c.5-9.9,1-19.7,1.4-29.6a.75.75,0,0,0-1.5,0c-.5,9.9-1,19.7-1.4,29.6a.75.75,0,0,0,1.5,0Z"/><path class="cls-16" d="M179.3,682.6a92.92,92.92,0,0,1,2.2-19.7c.2-.9-1.2-1.3-1.4-.4a96.78,96.78,0,0,0-2.3,20.1.75.75,0,0,0,1.5,0Z"/><path class="cls-16" d="M219.8,708.6l-30.2-21.8c-.8-.6-1.5.7-.8,1.3L219,709.9c.9.6,1.6-.7.8-1.3Z"/><path class="cls-16" d="M232.2,708.9v-4.8a.75.75,0,0,0-1.5,0v4.8a.75.75,0,1,0,1.5,0Z"/><path class="cls-13" d="M189,1002.7s31-67.2,59.8-7.2c0,0-4.4-62.4,15.5-38.4S282,983.5,282,983.5s22.2-60,39.9-28.8,24.4-4.8,26.6,7.2,39.9,19.2,13.3,33.6S195.6,1009.9,189,1002.7Z"/><path class="cls-14" d="M211.9,993.9c.3-1.8.3-4.5,1-6.1,1.7-3.8,3.8-2.2,6.5-1.1,4.6,1.8,9.2,3.7,13.7,5.5,1.8.7,2.6-2.2.8-2.9l-12-4.8c-2.3-.9-4.9-2.4-7.5-2.2-5.1.5-4.8,7-5.4,10.8-.3,1.9,2.6,2.7,2.9.8Z"/><path class="cls-14" d="M260.7,997.1c4-5,13.5-11.6,19.9-6.5,1.5,1.2,3.6-.9,2.1-2.1-7.7-6.2-18.8-.1-24.1,6.5-1.2,1.5.9,3.6,2.1,2.1Z"/><path class="cls-14" d="M313,983.9c.5-4.7,3.8-9.5,8.9-9.9s9,3.5,10.3,8.1a1.5,1.5,0,0,0,2.9-.8c-1.7-6-7.1-11-13.6-10.3s-10.8,6.8-11.5,12.9c-.2,1.9,2.8,1.9,3,0Z"/><g id="Layer_4" data-name="Layer 4"><path class="cls-17" d="M1290.56,652.31s-14.09,14.55-9.92,16.69,23.24,6.17,22.11,3.1-3.42-18.56-3.42-18.56Z"/></g><g id="Layer_11" data-name="Layer 11"><path class="cls-18" d="M1045.92,578.2s.76-19.33,5.94-14.72,10.68,20.94,18.57,20.1S1045.92,578.2,1045.92,578.2Z"/></g><g id="Layer_3" data-name="Layer 3"><path class="cls-19" d="M1405.55,682,1227.42,649.3s-6.6-22.3,2.94-21,171.3,25.94,178.39,30.82S1405.55,682,1405.55,682Z"/></g><g id="Layer_2" data-name="Layer 2"><path class="cls-20" d="M1026.57,570.63l381.58,65.11-4,28.6-381.58-65.12S1017,569.29,1026.57,570.63Z"/></g><g id="Layer_8" data-name="Layer 8"><path d="M1471.92,763.25s-16.09,87.15-12.55,89.6,72.48,23.75,90.44,20.44,71.45,45,65.73,44.19c-3.24-.45-26.19-21.16-77.66-28.37-30.28-10.07-63.57-19.4-88.27-22.08-.84-7.89,14.15-101,14.15-101Z"/></g><g id="Layer_9" data-name="Layer 9"><path class="cls-21" d="M1495.35,769.44s8.27,38.09-12.13,45c0,0,22.61,5.11,24.71-23.76s-5.26-31.83-5.26-31.83Z"/></g><g id="Layer_6" data-name="Layer 6"><path class="cls-22" d="M1588.06,725.09s30.09-48.27,69-48.65c-7.63-1.07-44,50.21-40.65,68.17S1588.06,725.09,1588.06,725.09Z"/><path class="cls-19" d="M1553.3,654.13s1.56-25-17-31.53-79.53-15-85.78-12-4,28.6-4,28.6Z"/><path class="cls-23" d="M1565.11,694.66s67.68,58.07,71,62.42-10.37,88-13.08,93.41-103.75-8.7-104.85-14.68,9.12-51.21,8.81-62.91S1561.83,690.31,1565.11,694.66Z"/><polygon class="cls-24" points="1587.05 753.13 1611.34 774.03 1604.93 819.78 1536.3 810.17 1539.77 785.38 1587.05 753.13"/><polygon class="cls-23" points="1584.88 764.49 1601 778.41 1596.73 808.91 1550.98 802.5 1553.3 785.92 1584.88 764.49"/></g><g id="Layer_7" data-name="Layer 7"><path class="cls-25" d="M1519.2,828.18l-1.07,7.63,19.75,53.3S1679.21,907,1599.41,991c0,0,106.72,1.34,122,17.09s49.43-144.69-106.89-166.59C1536.09,832.49,1519.2,828.18,1519.2,828.18Z"/><path class="cls-26" d="M1571.7,855.75c34.54,4.64,73.35,10.66,103.42,29.07,15.22,9.32,25.79,22.66,29.54,40.29,3.23,15.81,1.37,31.87-.66,47.72a45.06,45.06,0,0,1,4-2.16c-13.33-4.78-26.38-.39-40,1-4.35.55-10.86,1.2-15-.94-5-2.85-2-9.41-.72-14.29,2.21-7.47,3.42-14.68,2.36-22.41-3.83-28.14-30.72-47.07-58.21-45.09-3.73.26-3,6,.75,5.74a49.48,49.48,0,0,1,42.52,18.4,43.94,43.94,0,0,1,9.74,29c-.31,7.73-4,14.6-5.06,22.22-.51,3.63-.77,6.89,1.61,9.36,3.57,3.62,11.49,4,16.15,4,14.56.09,29.14-6.81,43.58-1.67a2.93,2.93,0,0,0,4-2.17c4.21-32.84,4.44-67.79-24.8-89.38-14.11-10.34-30.76-16.36-47.4-21a447.41,447.41,0,0,0-64.83-13.16c-3.79-.73-4.59,5-1,5.5Z"/><path class="cls-26" d="M1677.62,912.77c6.31,5,21.35,29.42,6.54,32.4-5.19,1-12.14-2.09-14.12-7.42-.85-2.25.64-7.3.79-9.8a27.91,27.91,0,0,0-1.14-11.24c-6.73-21.35-33-27.76-51.28-35-3.49-1.46-5.79,3.86-2.3,5.32,16.22,6.35,41.06,12.16,47.83,30.41,4.12,10.88-5.5,26.83,9.48,32.23,9.62,3.49,20.73,1.94,21.89-9.18,1.38-12.63-4.34-24.51-14.11-32.49-3-2.17-6.55,2.39-3.58,4.75Z"/></g><g id="Layer_5" data-name="Layer 5"><path class="cls-17" d="M1400.22,623s149.23,17,156.32,21.9,13.72,40.79,17,45.14-9.35,66.72-9.35,66.72-26.61,23.49-36.68,26-132.91-22.51-136.46-25S1392.59,621.9,1400.22,623Z"/></g><g id="Layer_10" data-name="Layer 10"><path class="cls-18" d="M1425.3,638.14l72.44,10.15s65.53,17.93-3.07,21.93L1426,660.6Z"/><path class="cls-18" d="M1425,668.23l72.44,10.15s64.53,25-5.61,40l-68.63-9.61Z"/><path class="cls-18" d="M1425.93,717l72.44,10.14s65.28,19.64-3.74,26.69L1426,744.18Z"/></g><path class="cls-1" d="M717.69,353.7V469.81s389.54,17.09,401.24,19.43,6.24-118.55,11.89-124.8S722.5,348,717.69,353.7Z"/><path class="cls-27" d="M841.51,354.68s-2.12,31.59.22,55,2.34,31.6,0,38.62-1.69,16.58.33,22.91,25.41,6.34,25.41,6.34S869,361.7,871.18,354.68,866.3,336,855.77,341.8s-15.21,17.56-15.21,17.56"/><path class="cls-27" d="M991.29,360.53s-2.12,31.59.22,55,2.34,31.6,0,38.62-1.69,16.58.32,22.91,25.42,6.34,25.42,6.34,1.56-115.84,3.71-122.86-4.88-18.73-15.41-12.88-15.21,17.56-15.21,17.56"/><path class="cls-5" d="M877.45,408.46V450h46a46.22,46.22,0,0,1,0-23c3.28-12,0-59.09,0-59.09s-36.11-11-30.64,39.39Z"/><path class="cls-5" d="M979.22,408.46V450h-46a46.22,46.22,0,0,0,0-23c-3.28-12,0-59.09,0-59.09s36.11-11,30.64,39.39Z"/><path class="cls-28" d="M735.83,370.47v19.89c0,3.51,21.06,0,25.74,2.34s3.51-22.23,0-22.23Z"/><path class="cls-28" d="M779.12,434.83v19.89c0,3.51,21.07,0,25.75,2.34s3.51-22.23,0-22.23Z"/><path class="cls-28" d="M739.34,399.73s1.17,17.55,0,21.06,19.89-1.17,21.06,0-2.34-18.72,0-21.06S741.68,397.39,739.34,399.73Z"/><path class="cls-28" d="M775.61,370.47v19.89c0,4.69,15.22-3.51,32.77-3.51,0,0,4.68-14,0-16.38S775.61,370.47,775.61,370.47Z"/><path class="cls-28" d="M779.12,400.9s1.18,18.72,0,21.06,21.07-2.34,25.75-2.34,2.34-18.72,0-18.72Z"/><path class="cls-28" d="M735.83,431.32s1.17,18.72,0,21.06S756.89,450,761.57,450s2.34-18.72,0-18.72Z"/><path class="cls-28" d="M1036.6,378.59v19.89c0,3.51,21.07,0,25.75,2.34s3.51-22.23,0-22.23Z"/><path class="cls-28" d="M1079.9,443v19.89c0,3.51,21.06,0,25.74,2.34s3.51-22.23,0-22.23Z"/><path class="cls-28" d="M1040.11,407.84s1.17,17.56,0,21.07,19.9-1.17,21.07,0-2.34-18.73,0-21.07S1042.45,405.5,1040.11,407.84Z"/><path class="cls-28" d="M1076.39,378.59v19.89c0,4.68,15.21-3.51,32.76-3.51,0,0,4.68-14,0-16.38S1076.39,378.59,1076.39,378.59Z"/><path class="cls-28" d="M1079.9,409s1.17,18.73,0,21.07,21.06-2.34,25.74-2.34,2.34-18.73,0-18.73Z"/><path class="cls-28" d="M1036.6,439.44s1.17,18.72,0,21.06,21.07-2.34,25.75-2.34,2.34-18.72,0-18.72Z"/><path class="cls-29" d="M676.74,509.13s112.33-10.53,135.73-8.19,125.21,3.51,148.61,5.85,179,4.69,190.74,7,50.31,4.68,56.17,4.68,1.17-29.26,2.34-36.28-12.88,0-26.92,0-135.74-2.34-151-3.51-112.33-4.68-131.05-7-105.32,1.17-126.38,0-99.46-3.51-103-1.17-11.71,43.3-3.51,41Z"/><path class="cls-1" d="M778.54,217.77s-3.51,122.86,0,124S1112,343,1119.05,346.48s-7-108.82,5.85-119.35-60.84-2.34-60.84-2.34-296-16.38-293.71-11.7S778.54,217.77,778.54,217.77Z"/><path class="cls-28" d="M793.2,238.38v14c0,2.46,14.78,0,18.06,1.64s2.46-15.6,0-15.6Z"/><path class="cls-28" d="M823.58,283.54v14c0,2.46,14.78,0,18.06,1.64s2.46-15.6,0-15.6Z"/><path class="cls-28" d="M795.66,258.91s.82,12.31,0,14.78,14-.82,14.78,0-1.64-13.14,0-14.78S797.3,257.27,795.66,258.91Z"/><path class="cls-28" d="M821.11,238.38v14c0,3.28,10.68-2.46,23-2.46,0,0,3.29-9.86,0-11.5S821.11,238.38,821.11,238.38Z"/><path class="cls-28" d="M823.58,259.73s.82,13.14,0,14.78,14.78-1.64,18.06-1.64,1.64-13.14,0-13.14Z"/><path class="cls-28" d="M793.2,281.08s.82,13.13,0,14.78,14.78-1.65,18.06-1.65,1.64-13.13,0-13.13Z"/><path class="cls-28" d="M875.11,243.06v14c0,2.46,14.78,0,18.06,1.64s2.47-15.6,0-15.6Z"/><path class="cls-28" d="M905.49,288.22v14c0,2.46,14.78,0,18.06,1.64s2.46-15.6,0-15.6Z"/><path class="cls-28" d="M877.57,263.59s.82,12.31,0,14.78,14-.82,14.78,0-1.64-13.14,0-14.78S879.21,262,877.57,263.59Z"/><path class="cls-28" d="M903,243.06v14c0,3.28,10.68-2.46,23-2.46,0,0,3.29-9.86,0-11.5S903,243.06,903,243.06Z"/><path class="cls-28" d="M905.49,264.41s.82,13.14,0,14.78,14.78-1.64,18.06-1.64,1.64-13.14,0-13.14Z"/><path class="cls-28" d="M875.11,285.76s.82,13.13,0,14.78,14.78-1.65,18.06-1.65,1.64-13.13,0-13.13Z"/><path class="cls-28" d="M957,244.23v14c0,2.46,14.78,0,18.06,1.64s2.47-15.6,0-15.6Z"/><path class="cls-28" d="M987.4,289.39v14c0,2.46,14.78,0,18.06,1.64s2.47-15.6,0-15.6Z"/><path class="cls-28" d="M959.48,264.76s.82,12.31,0,14.78,14-.82,14.78,0-1.64-13.14,0-14.78S961.12,263.12,959.48,264.76Z"/><path class="cls-28" d="M984.94,244.23v14c0,3.28,10.67-2.46,23-2.46,0,0,3.28-9.86,0-11.5S984.94,244.23,984.94,244.23Z"/><path class="cls-28" d="M987.4,265.58s.82,13.14,0,14.78,14.78-1.64,18.06-1.64,1.64-13.14,0-13.14Z"/><path class="cls-28" d="M957,286.93s.82,13.13,0,14.78,14.78-1.65,18.06-1.65,1.64-13.13,0-13.13Z"/><path class="cls-28" d="M1038.93,245.4v14c0,2.46,14.78,0,18.06,1.64s2.47-15.6,0-15.6Z"/><path class="cls-28" d="M1069.31,290.56v14c0,2.46,14.78,0,18.06,1.64s2.47-15.6,0-15.6Z"/><path class="cls-28" d="M1041.39,265.93s.82,12.31,0,14.78,14-.82,14.78,0-1.64-13.14,0-14.78S1043,264.29,1041.39,265.93Z"/><path class="cls-28" d="M1066.85,245.4v14c0,3.28,10.67-2.46,23-2.46,0,0,3.28-9.86,0-11.5S1066.85,245.4,1066.85,245.4Z"/><path class="cls-28" d="M1069.31,266.75s.82,13.14,0,14.78,14.78-1.64,18.06-1.64,1.64-13.14,0-13.14Z"/><path class="cls-28" d="M1038.93,288.1s.82,13.13,0,14.78,14.78-1.65,18.06-1.65,1.65-13.13,0-13.13Z"/><path class="cls-27" d="M727.62,274.52s.91,33.93,0,42.12,11.72,5.86,11.72,5.86v-48Z"/><path class="cls-27" d="M749.86,274.52s.9,33.93,0,42.12,11.71,5.86,11.71,5.86v-48Z"/><path class="cls-27" d="M781.45,278s.9,33.93,0,42.13S793.17,326,793.17,326V278Z"/><path class="cls-27" d="M814.22,278s.9,33.93,0,42.13S825.93,326,825.93,326V278Z"/><path class="cls-27" d="M844.64,278s.9,33.93,0,42.13S856.35,326,856.35,326V278Z"/><path class="cls-27" d="M886.77,278s.9,33.93,0,42.13S898.48,326,898.48,326V278Z"/><path class="cls-27" d="M940.59,278s.9,33.93,0,42.13S952.31,326,952.31,326V278Z"/><path class="cls-27" d="M1000.27,281.54s.9,33.93,0,42.13,11.72,5.85,11.72,5.85v-48Z"/><path class="cls-27" d="M1040.05,286.22s.91,33.94,0,42.13,11.72,5.85,11.72,5.85v-48Z"/><path class="cls-27" d="M1091.54,286.22s.9,33.94,0,42.13,11.72,5.85,11.72,5.85v-48Z"/><path class="cls-29" d="M703.07,266.33s1.17,1.17,0,8.19,110,7,138.07,8.19,87.76,1.17,112.34,0,79.57,3.51,92.44,5.85,42.12-1.17,63.19,0,23.4,7,25.74,1.17-2.34-2.34,3.51-10.53-23.4-8.19-26.91-7-112.34,1.17-124,0-69,0-83.08,0-48,1.17-65.53,1.17-36.27,0-55-2.34-26.92-3.51-37.45-4.68S707.75,262.82,703.07,266.33Z"/><path class="cls-29" d="M690.78,319.57s5.85,33.93,4.68,36.27,40.95-4.68,64.36-1.17,99.46,0,119.35,1.17,86.59,0,110,4.69,64.36,2.34,77.23,0,40.95,3.51,52.65,4.68,43.3,4.68,48,0,5.85-30.43,0-32.77-48,1.17-58.51,0-70.21,0-80.74-2.34-48-5.85-62-4.68-23.4-1.17-42.12-3.51c-14.36-1.79-63.19-2.34-76.06-2.34-4.22,0-31.6,3.51-53.83,1.17S696.63,314.89,690.78,319.57Z"/><path class="cls-29" d="M739.92,190.85s401.37,4.68,403.71,14.05,8.19,28.08,0,29.25-410.73,1.17-409.56-7S729.39,190.85,739.92,190.85Z"/><path class="cls-30" d="M721.2,165.11s-2.34-1.17-2.34,18.72c0,0-3.51,4.68,2.34,7s16.78.12,23.6.06,402.34,14,419.89,12.82c5.85-7,2.34-15.22,0-18.73s-69-12.87-81.91-10.53S934.17,171,916.62,168.62s-110-5.85-134.57-3.51-57.34-2.34-53.83-1.17S721.2,165.11,721.2,165.11Z"/><path class="cls-31" d="M760.4,113.44S781.34,91,816.05,92.63s45.94,1,60.76,2.86S868.85,13.7,970,29s81.28,68.25,82,80,55-8,62.91,10,20.75,60.72,5.6,65.86S920,167.23,874.05,167.41s-118.84,16.66-123.88-8.18S749.5,120.55,760.4,113.44Z"/><path class="cls-32" d="M762,144.56s-8.87-22.67,24-35.18,62.43-6.43,77.31-5.73,29.81.23,32.84-11.34,2.94-36.18,11.95-42.78,126-36.25,132.95,53.11c0,0-9.56,18.29,9,19.17s50.14-9.36,53.37,1.34,19.26,39.56,5.4,43.6-116.71-2-161.18-7.59-73-5.78-114.24-1.86S758.52,166.66,762,144.56Z"/><path class="cls-32" d="M834.84,119.3c-1.17-12.41-15.21-11.91-24.32-10-1.89.38-1.09,3.27.8,2.89,6.85-1.4,19.56-3,20.52,7.16.18,1.91,3.18,1.93,3,0Z"/><path d="M810.62,120.49c-.82-5.51-3.69-12.29-10.2-12.47-5.95-.16-10.85,5.81-9.95,11.58,1,6.29,7.06,10.11,13.06,10.22,1.11,0,2.23-.16,3.34-.12h1.67q6.06-.16,3.74,4c-.7,2.7-.85,2.6-3.22,3.34-1,.31-2,.53-3,.77-6.25,1.48-12.72,2.42-18.61-.77l.31,2.36a24.79,24.79,0,0,1,12-7.81c1.85-.55,1.06-3.45-.79-2.89a27.66,27.66,0,0,0-13.36,8.58,1.51,1.51,0,0,0,.3,2.35c6.88,3.73,14.41,2.69,21.73.88,4.33-1.08,11.41-3.69,8.56-9.57-3.44-7.12-13.06-2.27-18.5-5.7s-6.16-12.56,1.23-14.11c6-1.26,8.11,5.77,8.76,10.14.29,1.91,3.18,1.1,2.9-.79Z"/><path d="M837.29,127.92a5.27,5.27,0,0,0-8.37.19c-2,2.79-1.14,6.66,1.27,8.9s6.77,3.62,9.45,1.36c3.34-2.81,1.33-7.23-.59-10.16L836.69,130c2.56,2.52,6.33,6.49,9.92,7.43,2.6.69,4.64-1.1,4-3.71-.47-1.87-3.36-1.07-2.89.8,0-.08-4.89-3-5.14-3.24-1.32-1.07-2.54-2.22-3.75-3.4s-3.31.35-2.35,1.81c1.48,2.26,3.84,7.26-1.5,6.53a4.62,4.62,0,0,1-3.06-2.14q-2-1.44.16-3.21c.46-2.38,1.49-2.67,3.11-.86,1.21,1.51,3.32-.62,2.12-2.12Z"/><path d="M862.88,113.83c2.16,4.21-1.74,9.07.33,13.52,1.56,3.36,5.27,5,8.65,5.87,6.69,1.78,17.85.68,16.26-8.85-.32-1.9-3.21-1.1-2.9.79,1.53,9.14-17.67,6.82-19.59.13-1.29-4.47,2.15-8.48-.16-13-.88-1.72-3.47-.2-2.59,1.52Z"/><path d="M905.49,111.27c-4.5,0-9.45,1.6-11,6.24a8.75,8.75,0,0,0,4.27,10.7A8.5,8.5,0,0,0,911,119.44a8.75,8.75,0,0,0-.82-2.87,8.3,8.3,0,0,0-.89-1.45c-.75-1-.5-.5-1.77-.5l-1.29-.74.23.3c1.15,1.52,3.76,0,2.59-1.51a2.18,2.18,0,0,0-4,1.51c.16,1.49,1.75,2.35,2.39,3.6a6,6,0,0,1-.47,6.13,5.64,5.64,0,0,1-9.83-2c-1.3-5.31,3.93-7.66,8.36-7.64a1.5,1.5,0,0,0,0-3Z"/><path d="M926,109.08c-.13,1.38-5.82,2.49-6.93,4.28a6.61,6.61,0,0,0-.15,6.16c1.92,4.37,7.56,9.87,12.7,9.26,5.8-.68,6.39-7.19,4.47-11.59-2.46-5.62-8.21-9-13.4-11.69-1.7-.9-3.22,1.69-1.51,2.59,3.25,1.71,6.6,3.53,9.21,6.16a12.86,12.86,0,0,1,3.53,5.78c.43,1.72-.45,4.79-2.07,5.69-1.44.81-3.87-.7-4.91-1.48a19.47,19.47,0,0,1-4.62-4.75c-.45-.72-1.37-2.3-1.11-3.14.53-1.72,2.48-2.3,3.81-2.89,2.26-1,3.73-1.71,4-4.38.18-1.92-2.82-1.91-3,0Z"/><path d="M944.66,111.87a21.51,21.51,0,0,0,5.21,10.77,1.51,1.51,0,0,0,2.36-.3c2-4.43,5.89-7,10.59-7.9,4.4-.9,12.86-1.09,16,2.89s3.08,9.48,9.29,10c1.92.16,1.91-2.84,0-3-1.56-.14-3.61-2.54-4.42-3.82-.58-.9-.84-2-1.35-3a11.25,11.25,0,0,0-2.88-3.88c-2.6-2-6.44-2.25-9.6-2.48-8.08-.58-16.61,1.82-20.24,9.67l2.35-.31a18.81,18.81,0,0,1-4.43-9.45c-.34-1.89-3.23-1.09-2.9.8Z"/><rect class="cls-5" x="914.78" y="408.32" width="7.46" height="4.14" rx="1.9" ry="1.9"/><path class="cls-33" d="M1391.05,315.9s4.57,157.47-17.38,174.34,300,3,310.1,5.73,17.84,4.11,16-8.07-8.23-94.67-4.58-110.61-89.64-70.3-104.28-71.23S1396.08,306.06,1391.05,315.9Z"/><path class="cls-34" d="M1503.65,356.79c7.39-24.28,85.51,0,85.51,0s-31.92,89.67-5.55,109.94c5,20.54-49.69,8.61-64.69,12.49s-33.87,0-33.87,0S1515.59,399.82,1503.65,356.79Z"/><polyline class="cls-35" points="1546.13 347.07 1532.81 413.7 1528.92 478.11"/><polyline class="cls-35" points="1580 387.05 1540.02 376.5 1506.15 382.05"/><polyline class="cls-35" points="1495.6 447.02 1531.14 443.13 1573.89 448.13"/><polygon class="cls-36" points="1546.41 419.53 1543.2 417.62 1539.81 419.18 1540.64 415.54 1538.11 412.79 1541.83 412.45 1543.66 409.2 1545.13 412.63 1548.79 413.37 1545.98 415.83 1546.41 419.53"/><polygon class="cls-36" points="1526.42 418.42 1523.21 416.51 1519.82 418.07 1520.65 414.43 1518.12 411.68 1521.84 411.34 1523.67 408.09 1525.14 411.52 1528.8 412.26 1525.99 414.72 1526.42 418.42"/><polygon class="cls-37" points="1616.71 359.71 1642.45 360.04 1642.42 391.6 1613.37 393.54 1616.71 359.71"/><polygon class="cls-37" points="1414.53 353.31 1447.72 353.73 1447.69 393.82 1410.23 396.28 1414.53 353.31"/><path class="cls-38" d="M1415.72,354.23c0,8.28-.91,43,0,44.8s-7.31,0-7.31,0,2.74-35.66.91-42.06S1415.72,352.4,1415.72,354.23Z"/><path class="cls-38" d="M1453.2,354.23c0,8.28-.91,43,0,44.8s-7.31,0-7.31,0,2.74-35.66.91-42.06S1453.2,352.4,1453.2,354.23Z"/><path class="cls-39" d="M1405.66,346.91c15.55,0,43.89,2.75,48.46,2.75s5.48,6.4,2.74,7.31-49.37-1.83-51.2,0S1402,346.91,1405.66,346.91Z"/><path class="cls-39" d="M1400.18,393.54c9.19,0,29.25,2.44,40.22,1.22s19.2-1.22,17.37,1.22-.91,4.87-11.88,4.87-33.83,0-42.06-.61S1396.52,393.54,1400.18,393.54Z"/><path class="cls-38" d="M1616.73,361.51c0,6.18-.68,32.05,0,33.41s-5.45,0-5.45,0,2-26.59.68-31.36S1616.73,360.15,1616.73,361.51Z"/><path class="cls-38" d="M1644.69,361.51c0,6.18-.69,32.05,0,33.41s-5.46,0-5.46,0,2-26.59.68-31.36S1644.69,360.15,1644.69,361.51Z"/><path class="cls-39" d="M1609.23,356.06c11.59,0,32.73,2,36.14,2s4.09,4.78,2,5.46-36.81-1.37-38.18,0S1606.51,356.06,1609.23,356.06Z"/><path class="cls-39" d="M1605.14,390.83c6.85,0,21.82,1.82,30,.91s14.32-.91,13,.91-.69,3.63-8.87,3.63-25.22,0-31.36-.45S1602.42,390.83,1605.14,390.83Z"/><path class="cls-38" d="M1367.27,447.48c1,4.83,5.76,31.48,3.34,37.22s11.28,4.83,11.28,4.83-7.31-39.31-3.65-42S1366.35,442.91,1367.27,447.48Z"/><path class="cls-38" d="M1400.18,444.74s10.39,32.41,3.36,40.43,7.61,8.94,9.44,7.11-11-42.06,0-44.8S1400.18,444.74,1400.18,444.74Z"/><path class="cls-38" d="M1442.23,444.74s-5.48,42.05-7.31,48.45,12.8,0,12.8,0-7.32-35.65,12.8-45.71S1442.23,444.74,1442.23,444.74Z"/><path class="cls-38" d="M1611.37,445.65c1,4.83,5.76,31.48,3.34,37.22s11.28,4.84,11.28,4.84-7.31-39.32-3.65-42.06S1610.45,441.08,1611.37,445.65Z"/><path class="cls-38" d="M1644.28,442.91s10.39,32.41,3.36,40.43,7.61,8.94,9.44,7.11-11-42.06,0-44.8S1644.28,442.91,1644.28,442.91Z"/><path class="cls-38" d="M1686.33,442.91s-5.48,42-7.31,48.45,12.8,0,12.8,0-7.32-35.65,12.8-45.71S1686.33,442.91,1686.33,442.91Z"/><path class="cls-39" d="M1360.41,484.51s85,1.82,108.79,0,165.48-1.83,172.79,0,57.6,0,60.34-1.83,21.94,32.91,4.57,32.91-70.39-4.57-96-3.66-109.71,1.83-147.19,3.66-21.94,1.83-63.09,0-34.74,1.83-43.88.91S1351.27,484.51,1360.41,484.51Z"/><path class="cls-39" d="M1349.89,430.11s-2.74,15.54,0,20.11,93.26-2.74,110.63-.91,14.63-1.83,14.63-1.83,5.48-19.2,0-17.37-79.54,3.66-87.77,3.66S1350.81,425.54,1349.89,430.11Z"/><path class="cls-39" d="M1592.17,428.28c0,9.14-2.75,15.54,0,16.46s78.62-.92,88.68,0,24.68,3.65,32.91,2.74,9.14-11,8.23-13.71-9.14,0-20.11,0-57.6-2.75-75-5.49S1592.17,424.62,1592.17,428.28Z"/><path class="cls-33" d="M1630.56,177.78s-57.46,114.89-43,126.17c16.45,12.79-215.76,6.39-215.76,6.39s28.34-112.45,7.31-138c7.31-20.12,251.41,7.31,251.41,7.31"/><polygon class="cls-37" points="1555.33 192.41 1588.51 192.83 1588.48 232.92 1551.03 235.38 1555.33 192.41"/><path class="cls-38" d="M1554.68,192.41c0,8.28-.91,43,0,44.8s-7.31,0-7.31,0,2.74-35.66.91-42.06S1554.68,190.58,1554.68,192.41Z"/><path class="cls-38" d="M1592.17,192.41c0,8.28-.92,43,0,44.8s-7.32,0-7.32,0,2.75-35.66.92-42.06S1592.17,190.58,1592.17,192.41Z"/><path class="cls-39" d="M1544.63,185.09c15.54,0,43.88,2.75,48.45,2.75s5.49,6.4,2.74,7.31-49.36-1.83-51.19,0S1541,185.09,1544.63,185.09Z"/><path class="cls-39" d="M1539.14,231.72c9.19,0,29.26,2.44,40.23,1.22s19.2-1.22,17.37,1.22-.92,4.87-11.89,4.87-33.82,0-42-.6S1535.48,231.72,1539.14,231.72Z"/><polygon class="cls-37" points="1484.02 192.41 1517.2 192.83 1517.17 232.92 1479.72 235.38 1484.02 192.41"/><path class="cls-38" d="M1522.69,191.49c0,8.28-.92,43,0,44.8s-7.32,0-7.32,0,2.74-35.65.92-42S1522.69,189.67,1522.69,191.49Z"/><path class="cls-38" d="M1483.37,192.41c0,8.28-.91,43,0,44.8s-7.31,0-7.31,0,2.74-35.66.91-42.06S1483.37,190.58,1483.37,192.41Z"/><path class="cls-39" d="M1473.32,185.09c15.54,0,43.88,2.75,48.45,2.75s5.49,6.4,2.74,7.31-49.36-1.83-51.19,0S1469.66,185.09,1473.32,185.09Z"/><path class="cls-39" d="M1467.83,231.72c9.19,0,29.26,2.44,40.23,1.22s19.2-1.22,17.37,1.22-.92,4.87-11.89,4.87-33.82,0-42-.6S1464.17,231.72,1467.83,231.72Z"/><path class="cls-34" d="M1416.87,184.83c13.46-3.36,26.24-3.75,41.87,5s9.37,81.25,5,91.25-55.62,6.87-55.62,4.37S1404.37,188,1416.87,184.83Z"/><line class="cls-35" x1="1436.24" y1="182.96" x2="1431.87" y2="287.95"/><line class="cls-35" x1="1434.99" y1="217.96" x2="1468.11" y2="217.96"/><line class="cls-35" x1="1408.74" y1="217.96" x2="1434.99" y2="217.96"/><line class="cls-35" x1="1407.49" y1="246.7" x2="1468.11" y2="252.95"/><circle class="cls-35" cx="1443.43" cy="237.64" r="2.19"/><circle class="cls-35" cx="1428.43" cy="237.64" r="2.19"/><path class="cls-38" d="M1358.12,261.89c1,4.83,5.77,31.48,3.34,37.22s11.29,4.84,11.29,4.84-7.31-39.32-3.66-42.06S1357.21,257.32,1358.12,261.89Z"/><path class="cls-38" d="M1391,259.15s10.38,32.41,3.36,40.43,7.61,8.94,9.43,7.11-11-42.06,0-44.8S1391,259.15,1391,259.15Z"/><path class="cls-38" d="M1433.09,259.15s-5.49,42.05-7.31,48.45,12.8,0,12.8,0-7.32-35.65,12.79-45.71S1433.09,259.15,1433.09,259.15Z"/><path class="cls-38" d="M1485.2,264.63c1,4.83,5.77,31.48,3.34,37.23s11.29,4.83,11.29,4.83-7.31-39.31-3.66-42.06S1484.29,260.06,1485.2,264.63Z"/><path class="cls-38" d="M1597.67,264c1.32,5.31,7.92,34.64,4.59,41s15.51,5.32,15.51,5.32-10-43.27-5-46.29S1596.41,259,1597.67,264Z"/><path class="cls-38" d="M1518.11,261.89s10.39,32.41,3.37,40.43,7.6,8.94,9.43,7.11-11-42.05,0-44.8S1518.11,261.89,1518.11,261.89Z"/><path class="cls-38" d="M1560.17,261.89s-5.49,42.06-7.32,48.45,12.8,0,12.8,0-7.31-35.65,12.8-45.71S1560.17,261.89,1560.17,261.89Z"/><path class="cls-40" d="M1351.72,299.37s238.62-2.74,249.59,0,117,65.83,125.25,76.8-4.57,19.2-4.57,19.2-84.57-73.6-137.59-79.08-225.82-.92-235.88,10S1341.21,298.92,1351.72,299.37Z"/><path class="cls-40" d="M1338,163.15c-2.45,6.12-.91,19.2,0,21.94s10.06-19.19,117.94-11,169.13,8.23,175.53,11,24.68-19.19,0-17.37c-20,1.49-150.28-3.55-210.27-6.4-13.88-.65-26.23-1-30.17-1.82-12.8.91-28.24-.21-39.62.38C1344,160.26,1338.73,161.35,1338,163.15Z"/><path class="cls-39" d="M1348.6,253.19s-6,10.19,0,13.18,203.92-1.79,241.9-.6,32-1.19,32-1.19,12-12.59,0-11.39-173.93,2.39-191.92,2.39S1350.6,250.19,1348.6,253.19Z"/><path class="cls-40" d="M1445.43,67.62c-25.82,33.2-38.7,97.79-38.7,97.79s196.71,15.68,207.3,12.43-15-135.82-90-128.51S1451.83,59.39,1445.43,67.62Z"/><path class="cls-41" d="M1453.66,78.59c-7.31,14.62-35.65,61.25-33.83,72.22s131.65,14.63,154.51,13.71,32,.92,18.28-30.17-17.37-54.85-37.48-55.76-57.6-22-79.54-11Z"/><path class="cls-42" d="M1559.79,113.21a5.34,5.34,0,0,0-4.94,3.86l-24.51-6.74a14.41,14.41,0,0,1-8.63-6.48l-.09-.15a14.41,14.41,0,0,1-.77-12.69l8.65-21.25a5.59,5.59,0,0,0,1.92.29,5.37,5.37,0,1,0-4.25-1.87l-12.75,10c-6.21,4.88-8.71,21.11-16.23,18.69l-22.85-18.44a5.34,5.34,0,1,0-3.39,1.38,5.81,5.81,0,0,0,1.12-.16L1478.94,96c2.65,7.38,15.41,14.17,10.83,20.54L1468,132.18a5.36,5.36,0,1,0,.49,3.38l20-.61c3.54-.11,9.16-5.42,13.7-8.27a4.87,4.87,0,0,1,7.28,2.94l.18,27.47a5.36,5.36,0,1,0,2.63.12l7.88-19c2.09-7.18,11.64-10.22,18.74-12.57l16.06-5.31a5.36,5.36,0,1,0,4.87-7.08Z"/><path class="cls-43" d="M1138.79,972.46c-24.11,0-43.72-59.28-43.72-132.14,0-41.41,6.27-79.65,17.21-104.94,7.7-17.8,16.87-27.2,26.51-27.2,24.1,0,43.71,59.28,43.71,132.14S1162.89,972.46,1138.79,972.46Z"/><path d="M1138.79,708.68c11.34,0,22.11,13.55,30.31,38.16,8.32,25,12.9,58.15,12.9,93.48s-4.58,68.52-12.9,93.47c-8.2,24.62-19,38.17-30.31,38.17s-22.12-13.55-30.32-38.17c-8.32-24.95-12.9-58.15-12.9-93.47,0-41.34,6.26-79.51,17.17-104.74,7.51-17.35,16.76-26.9,26-26.9m0-1c-10.15,0-19.5,10.26-27,27.51-10.49,24.25-17.25,62.32-17.25,105.13,0,73.25,19.8,132.64,44.22,132.64S1183,913.57,1183,840.32s-19.8-132.64-44.21-132.64Z"/><path class="cls-44" d="M1111.72,735.65s-40.47,95.29,4.55,218.84c0,0-103.81-112.37-201.26-67.25l3.61-59.55S1072,856.56,1111.72,735.65Z"/><path class="cls-45" d="M859.06,813.25l50.53,1.8,9,12.64L915,887.24s-16.24,5.41-18,10.83c-1.08,3.25-20.43,2.59-35.69,1.55-10.12-.69-18.45-1.55-18.45-1.55S776.05,807.83,859.06,813.25Z"/><path class="cls-46" d="M851.85,899.87a92.42,92.42,0,0,1,3.6,34.29c-1.8,18.05-9,37.9-9,37.9s37.9,10.83,52.34-3.61-28-51.13-16.7-68Z"/><ellipse class="cls-47" cx="1132.47" cy="838.51" rx="6.32" ry="28.87"/><path class="cls-48" d="M1097.28,822.27s19.2,3.37,33.06-10.95c0,0-12,25.63,0,54.38,0,0-20.43-10.94-33.06-5.53C1097.28,860.17,1093.67,824.08,1097.28,822.27Z"/><path class="cls-49" d="M942.08,845.73s88.43,9,113.69-14.43c0,0-5.41,25.26,18,48.72,0,0-126.33-25.26-131.74-18S942.08,845.73,942.08,845.73Z"/><path class="cls-50" d="M826.58,833.55h18c2.9,0,2.9-4.51,0-4.51h-18c-2.9,0-2.91,4.51,0,4.51Z"/><path class="cls-50" d="M830.19,828.14h9c2.91,0,2.91-4.51,0-4.51h-9c-2.9,0-2.91,4.51,0,4.51Z"/><path class="cls-50" d="M824.78,839H850c2.9,0,2.91-4.51,0-4.51H824.78c-2.91,0-2.91,4.51,0,4.51Z"/><path class="cls-50" d="M830.19,844.38h14.44c2.9,0,2.9-4.51,0-4.51H830.19c-2.9,0-2.91,4.51,0,4.51Z"/><path class="cls-50" d="M835.6,849.79H841c2.9,0,2.9-4.51,0-4.51H835.6c-2.9,0-2.9,4.51,0,4.51Z"/></svg>
