<svg id="Layer_1" data-name="Layer 1" xmlns="http://www.w3.org/2000/svg" viewBox="0 0 120 120"><defs><style>.cls-1{fill:#f6bbd0;}.cls-2{fill:#ffd1a4;}.cls-3{fill:#333132;}.cls-4{fill:#fff;}.cls-5{fill:#aaa;}.cls-6{fill:#420b22;}</style></defs><title>joe_1</title><rect class="cls-1" width="120" height="120" rx="25.27" ry="25.27"/><path d="M2,99.47V87.86h9.42l.68-.38c-4.45-3.43-1.51-7.88-2.22-11.85-.24-1.34,1-3,1.63-4.45,1-2.35,2.14-4.67,3.2-7a9.68,9.68,0,0,1,.89-2c3.27-4.21,6.33-8.64,10-12.49C30,45,34,39.72,40.08,36.82c1.39-.67,1.9-1.51,1.32-3.12a15.45,15.45,0,0,1-.24-3.84c-3.51-3.54-3.69-5-.14-9a55.58,55.58,0,0,1,7.45-7.1,13.5,13.5,0,0,1,5.62-2.24c4.6-.86,8.92.64,13,2.48,3,1.32,2.85,4.09,2.54,6.8-.17,1.39-.92,2.92,1.12,3.75.34.14.5,1.18.44,1.78-.27,3,.15,6.07-2.52,8.4a2.9,2.9,0,0,0-.06,2.85,13.35,13.35,0,0,0,5,3.23c6,1.57,12,2.83,18.12,4a4.31,4.31,0,0,1,3.69,3.33c.5,1.59,1.63,3,2.2,4.55a13.82,13.82,0,0,1,1.1,4.87c-.12,4.16.57,8,3.06,11.42a5.68,5.68,0,0,1,1.07,2.45c.27,2.1.27,4.18,2.55,5.41.48.26.5,1.49.63,2.29.45,2.82.86,5.65,1.3,8.56h10.79V99.47Zm63.37-20c-2.67-1.72-14.38-1.73-16.63,0A2.24,2.24,0,0,0,48,81c-.42,5.51,3.35,9.41,8.83,9.43,1.9,0,2.8-.79,2.93-2.47s0-3.57,0-5.36c1.79-.32,3.33-.5,4.82-.89.86-.22,2.17-.52,1-1.91a1.38,1.38,0,0,1-.24-.3ZM49.59,42.33c-.18-1.41-.26-2.83-.54-4.21-.43-2.12-2.49-3.31-4-2.24-5.19,3.51-11,6.25-14.69,11.66-.78,1.15-1.48,2.12,0,3,1.17.7,2.43,2,3.72,0a4,4,0,0,1,2-1.6c3.36-1,6.81-1.69,10.15-2.71C48,45.68,50.18,45.15,49.59,42.33ZM27.27,50.27c-1.8,2.4-3.55,4.73-5.29,7.07L18.6,61.91a24.32,24.32,0,0,0-2.06,2.88c-.95,1.86-1.35,4.13-2.67,5.63-3.33,3.82-1.74,8.11-1.75,12.26l.68.07c.57-3,1.08-5.94,1.76-8.88A4,4,0,0,1,16,71.42c4-2.26,4.89-6.34,6.46-10.07A8.76,8.76,0,0,1,24,59.23c.88-1,1.84-2,2.69-2.88,1.51,1.45,3.33,3.17,5.43,5.17a27.42,27.42,0,0,1,1-3.19A2.46,2.46,0,0,0,32.22,55C30.58,53.63,29.13,52.06,27.27,50.27ZM41.52,87.64c.61-4.1-.86-7.39-2.83-10.59-1-1.61-2-1.59-3.1-.34-3,3.53-5.87,7.15-9,10.93Zm45.35.55c1.08.82,2,1.93,2.48,1.78.92-.27,1.61-1.3,2.44-2.06l-.32,3.54,1,.31A42.93,42.93,0,0,0,96,86.62a3.12,3.12,0,0,0-.49-3A24.39,24.39,0,0,0,89.26,80c-1.56-.57-4-.88-5.13-.06-1.84,1.29-2.95,3.63-4.37,5.52l.7.67,3.89-3.21L85,83c-.2,1-.44,2-.57,3a20,20,0,0,0,0,2.19,18.41,18.41,0,0,0,2.46-.11C87.1,88.15,87.31,88,86.87,88.19ZM60.15,54.82l-1,.12c-.42,3-1.65,6.25-1.06,9.08.81,3.91,3,7.53,4.78,11.76l.87-10h.71l1.6,3.75.44-.08,1.35-13-.47-.14-2.72,5.75Zm2.64-40.38c-8.63-4.82-13.82,1-19.15,5.8C41.92,21.8,40,23.77,40.76,26.4c1.51-1.58,2.76-3.4,4.47-4.53a21.43,21.43,0,0,1,6.1-2.52c4.17-1.17,8.42-2.1,12.7-3.15H58.54Zm1.32,43.25c4.9-8.1,5.43-10.59,3.5-14.42-1.72,2-3.58,4-5.33,6.12-.5.62-1.11,1.66-.91,2.25A64.41,64.41,0,0,0,64.11,57.69ZM98.3,82.57V91l3.51,1.1C103.1,88.06,101.94,85.13,98.3,82.57ZM65.91,40.25c-.23.26,0,.07.15-.18,1.92-4,1.23-8.14.49-12.23-.1-.55-1.25-.91-1.59-1.14C65.3,31.5,65.62,36.05,65.91,40.25Zm-14,8.94,3.69,8.53c.75-2.48,1.3-4.28,1.93-6.32ZM49.23,87.86l-5.78,1.76v1.09l5,1.63Zm17.12-.8c1.67.27,3.66-1.22,3.88-3.59A3.16,3.16,0,0,0,69.51,81c-.62-.4-1.78.06-3.08.17a20.3,20.3,0,0,1,2.41,1.72C68.08,84.35,67.15,85.77,66.35,87.06ZM51.71,92.89c3.89,1.52,8.9,1.46,11.39,0Zm13.45-1.1.47,1L71.55,91l-.36-1.11ZM77.9,88.05l-2.58,2,.4.63h3.51Z"/><path class="cls-2" d="M49.59,42.33c.59,2.82-1.62,3.35-3.39,3.9-3.34,1-6.79,1.73-10.15,2.71a4,4,0,0,0-2,1.6c-1.29,2-2.55.72-3.72,0-1.53-.9-.83-1.87,0-3C34,42.13,39.78,39.39,45,35.88c1.59-1.07,3.65.15,4.08,2.24C49.33,39.5,49.41,40.92,49.59,42.33Z"/><path class="cls-3" d="M27.27,50.27c1.86,1.79,3.31,3.36,4.95,4.69A2.46,2.46,0,0,1,33,58.33a27.42,27.42,0,0,0-1,3.19c-2.1-2-3.92-3.72-5.43-5.17-.85.91-1.81,1.86-2.69,2.88a8.76,8.76,0,0,0-1.5,2.12c-1.57,3.73-2.5,7.81-6.46,10.07a4,4,0,0,0-1.4,2.45c-.68,2.94-1.19,5.92-1.76,8.88l-.68-.07c0-4.15-1.58-8.44,1.75-12.26,1.32-1.5,1.72-3.77,2.67-5.63a24.32,24.32,0,0,1,2.06-2.88L22,57.34C23.72,55,25.47,52.67,27.27,50.27Z"/><path class="cls-4" d="M65.59,79.77c1.22,1.39-.09,1.69-1,1.91-1.49.39-3,.57-4.82.89,0,1.79.11,3.58,0,5.36s-1,2.48-2.93,2.47c-5.48,0-9.25-3.92-8.83-9.43a2.21,2.21,0,0,1,.69-1.42c2.25-1.78,14-1.77,16.63,0-5.57-.9-11.09-1.2-16.5.87a2.36,2.36,0,0,0,1.51.83c4.25,0,8.51-.08,12.75-.28A7.51,7.51,0,0,0,65.59,79.77Z"/><path class="cls-2" d="M86.87,88.19c.44-.2.23,0,0,0-.82.06-1.64.08-2.46.11a20,20,0,0,1,0-2.19c.13-1,.37-2,.57-3L84.29,83,80.4,86.2l-.7-.67c1.42-1.89,2.53-4.23,4.37-5.52,1.16-.82,3.57-.51,5.13.06a24.55,24.55,0,0,1,6.29,3.65,3.12,3.12,0,0,1,.49,3,42.52,42.52,0,0,1-3.58,5.14l-1-.31L91.72,88c-.83.76-1.52,1.79-2.44,2.06C88.84,90.12,88,89,86.87,88.19Z"/><path class="cls-3" d="M60.15,54.82l4.51,7.24,2.72-5.75.47.14-1.35,13-.44.08-1.6-3.75h-.71l-.87,10c-1.8-4.23-4-7.85-4.78-11.76-.59-2.83.64-6,1.06-9.08Z"/><path class="cls-3" d="M62.79,14.44,58.54,16.2H64c-4.28,1.05-8.53,2-12.7,3.15a21.43,21.43,0,0,0-6.1,2.52c-1.71,1.13-3,2.95-4.47,4.53-.76-2.63,1.16-4.6,2.88-6.16C49,15.39,54.16,9.62,62.79,14.44Z"/><path class="cls-3" d="M64.11,57.69a62.4,62.4,0,0,1-2.74-6c-.2-.59.41-1.63.91-2.25,1.75-2.13,3.61-4.16,5.33-6.12C69.54,47.1,69,49.59,64.11,57.69Z"/><path d="M65.59,79.77a7.64,7.64,0,0,1-2.49,1.15c-4.24.2-8.5.24-12.75.28a2.36,2.36,0,0,1-1.51-.83c5.41-2.07,10.93-1.77,16.5-.87A1.27,1.27,0,0,0,65.59,79.77Z"/><path class="cls-3" d="M98.3,82.57c3.64,2.56,4.8,5.49,3.51,9.56L98.3,91Z"/><path class="cls-2" d="M65.91,40.25c-.29-4.2-.61-8.75-1-13.55.34.23,1.49.59,1.59,1.14.74,4.09,1.43,8.23-.49,12.23C65.94,40.32,65.68,40.51,65.91,40.25Z"/><path class="cls-3" d="M51.91,49.19l5.62,2.21c-.63,2-1.18,3.84-1.93,6.32Z"/><path class="cls-4" d="M49.23,87.86l-.73,4.48-5-1.63V89.62Z"/><path class="cls-4" d="M66.35,87.06c.8-1.29,1.73-2.71,2.49-4.22a20.3,20.3,0,0,0-2.41-1.72c1.3-.11,2.46-.57,3.08-.17a3.17,3.17,0,0,1,.72,2.52C70,85.84,68,87.33,66.35,87.06Z"/><path class="cls-4" d="M51.71,92.89H63.1C60.61,94.35,55.6,94.41,51.71,92.89Z"/><path class="cls-4" d="M65.16,91.79l6-1.92L71.55,91l-5.92,1.79Z"/><path class="cls-2" d="M77.9,88.05l1.33,2.6H75.72l-.4-.63Z"/><ellipse class="cls-5" cx="50.13" cy="29.75" rx="2.16" ry="0.61" transform="translate(-6.63 16.48) rotate(-17.53)"/><ellipse class="cls-5" cx="59.87" cy="26.85" rx="2.16" ry="0.57" transform="translate(-5.3 19.21) rotate(-17.47)"/><ellipse cx="59.87" cy="26.69" rx="0.61" ry="0.74"/><ellipse cx="50.29" cy="29.6" rx="0.61" ry="0.74"/><ellipse class="cls-6" cx="57.45" cy="39.36" rx="3.35" ry="0.85" transform="translate(-8.13 15.94) rotate(-14.76)"/></svg>
