<svg xmlns="http://www.w3.org/2000/svg" viewBox="0 0 1920 1080"><defs><style>.cls-1{fill:#152230;}.cls-2{fill:#f2902c;}.cls-3{fill:#fff;}</style></defs><title>privatsnak</title><g id="Layer_5" data-name="Layer 5"><path class="cls-1" d="M560,534.24c-5.09,1.72-8.63,5.72-12.75,8.82-14.54,10.93-28.92,22.07-43.38,33.1-1.15.88-2.19,2.56-3.83,1.9-2.05-.83-1.24-2.95-1.24-4.51-.06-22.38-.22-44.75.09-67.12.08-5.24-1.59-6.26-6.42-6.16-14.21.31-28.44.2-42.66.06-17.27-.17-30-13.25-30-30.5,0-81.73.4-163.45-.19-245.17-.15-20.87,14.81-33.84,33.9-33.82q449.67.51,899.35.24c18.47,0,31,12.48,31,31q0,123.72.07,247.45c0,15.5-8.11,25.65-24.54,30.54-3.22.06-6.44.17-9.65.17H815.17q-102.93,0-205.86,0c-4.28,0-7.9.63-11.46,3.63-7.22,6.09-15.24,11.23-22.51,17.27C570.17,525.42,563.74,528.31,560,534.24Z"/><path class="cls-2" d="M560,534.24c3.79-5.93,10.22-8.82,15.39-13.12,7.27-6,15.29-11.18,22.51-17.27,3.56-3,7.18-3.63,11.46-3.63q102.93.09,205.86,0h534.56c3.21,0,6.43-.11,9.65-.17,1.79,3.45,5.79,3.05,8.57,4.88,9.47,6.21,14.3,14.58,14.29,26,0,81.91-.3,163.82.24,245.73.11,17.12-12.32,33-33,33q-219.57-.45-439.13-.16c-52.9,0-105.8.14-158.7-.1a23.63,23.63,0,0,0-15.45,5.36q-37.2,28.8-74.52,57.42c-5.68,4.37-11.53,8.53-17.25,12.85-3.55,2.69-4.83,1.76-4.83-2.54q0-32.13-.14-64.27c0-8.58-.18-8.7-8.56-8.71-12.9,0-25.81-.41-38.68.11-18,.72-32.33-13.7-32.25-32.53.32-79.06.14-158.13.14-237.19C560.08,538,560,536.13,560,534.24Z"/><path class="cls-3" d="M584.36,425.47H542.77v-160H609q27,0,41.28,14t14.32,39.46q0,25.47-14.32,39.47t-41.28,14H584.36Zm0-86.58h13.79q22.92,0,22.92-19.95T598.15,299H584.36Z"/><path class="cls-3" d="M811.56,425.47H759.78L720.1,363.93v61.54H678.51v-160h64.72q13.37,0,23.34,3.93a43.89,43.89,0,0,1,26.21,26.42,54.74,54.74,0,0,1,3.29,19.09q0,18.25-8.81,29.6t-26,15.39ZM720.1,337H728q12.31,0,18.89-5.09t6.58-14.64q0-9.56-6.58-14.64T728,297.51H720.1Z"/><path class="cls-3" d="M865.84,265.47v160H824.25v-160Z"/><path class="cls-3" d="M923.09,265.47l38.62,97.4,38.83-97.4h45.2l-67.48,160h-33.1l-67.27-160Z"/><path class="cls-3" d="M1136.27,398.81h-59.42l-9.55,27.79H1023l60.9-160h45.41l60.9,160h-44.35Zm-11-31.62-18.67-53.26-18.67,53.26Z"/><path class="cls-3" d="M1251.7,301.83V426.6h-41.59V301.83h-34.17V266.61h109.92v35.22Z"/><path class="cls-3" d="M770.79,614.32a51.38,51.38,0,0,0-13.55-8.15,36,36,0,0,0-13.12-2.64q-8,0-13.12,3.81a11.87,11.87,0,0,0-5.07,9.94,9.88,9.88,0,0,0,2.54,7,22.14,22.14,0,0,0,6.66,4.76,57.13,57.13,0,0,0,9.31,3.49q5.19,1.49,10.26,3.17,20.32,6.78,29.73,18.09t9.42,29.52a57.28,57.28,0,0,1-4.13,22.22,46.41,46.41,0,0,1-12.06,17,55.62,55.62,0,0,1-19.46,11,81.1,81.1,0,0,1-26.14,3.91q-30.25,0-56.07-18l17.77-33.44a71.9,71.9,0,0,0,18.41,12.28,44.27,44.27,0,0,0,18,4q10.15,0,15.13-4.66t5-10.58a14.27,14.27,0,0,0-1.27-6.24,13.7,13.7,0,0,0-4.23-4.87,34.15,34.15,0,0,0-7.72-4.12q-4.77-1.9-11.54-4.24-8-2.53-15.76-5.6A49.63,49.63,0,0,1,696,653.89a37.8,37.8,0,0,1-9.73-12.8q-3.71-7.73-3.7-19.58A56.54,56.54,0,0,1,686.46,600a47.75,47.75,0,0,1,11-16.51,49,49,0,0,1,17.35-10.68,65.55,65.55,0,0,1,23-3.81,100.3,100.3,0,0,1,24.75,3.28,109.36,109.36,0,0,1,24.76,9.62Z"/><path class="cls-3" d="M809.51,733V573.48H851L927.58,671V573.48h41.27V733H927.58L851,635.48V733Z"/><path class="cls-3" d="M1090.1,705.31h-59.25L1021.32,733H977.1l60.73-159.55h45.28L1143.84,733h-44.22Zm-11-31.53-18.62-53.11-18.62,53.11Z"/><path class="cls-3" d="M1193.14,639.29l50.58-65.81h51.21L1231.66,649l69.19,84H1247.1l-54-69.19V733h-41.47V573.48h41.47Z"/></g></svg>
