<svg id="Layer_1" data-name="Layer 1" xmlns="http://www.w3.org/2000/svg" xmlns:xlink="http://www.w3.org/1999/xlink" viewBox="0 0 1920 1080"><defs><style>.cls-1{fill:#6f7c8c;}.cls-1,.cls-14,.cls-16,.cls-2,.cls-3,.cls-35,.cls-36,.cls-37,.cls-4,.cls-44{stroke:#000;}.cls-1,.cls-14,.cls-16,.cls-2,.cls-21,.cls-25,.cls-3,.cls-35,.cls-36,.cls-37,.cls-4,.cls-44{stroke-miterlimit:10;}.cls-2{fill:url(#linear-gradient);}.cls-3{fill:#e5bf23;}.cls-4{fill:url(#linear-gradient-2);}.cls-5{fill:#686461;}.cls-6{fill:#7c7671;}.cls-7{fill:#545352;}.cls-8{fill:#3a3938;}.cls-9{fill:#4c4443;}.cls-10{fill:#3a3232;}.cls-11{fill:#563a2e;}.cls-12{fill:#492b16;}.cls-13{fill:#30190a;}.cls-14{fill:#c9c4c1;}.cls-15{fill:#2d190b;}.cls-16,.cls-22{fill:#3f3f3f;}.cls-17{fill:#77421b;}.cls-18{fill:#4f2a11;}.cls-19{fill:#e26e17;}.cls-20{fill:#ccae1b;}.cls-21,.cls-36{fill:none;}.cls-21{stroke:#30190a;}.cls-23{fill:#ede4bc;}.cls-24{fill:#602315;}.cls-25{fill:#fff;stroke:#381810;}.cls-26{fill:#381810;}.cls-27{fill:#723322;}.cls-28{fill:#4c2306;}.cls-29{fill:#605553;}.cls-30{fill:#9e633b;}.cls-31{fill:#179926;}.cls-32{fill:#000200;}.cls-33{fill:#774d2f;}.cls-34{fill:#3a260a;}.cls-35{fill:#a5a5a5;}.cls-37{fill:#d8c623;}.cls-38{fill:#9e9c9a;}.cls-39{fill:#301b0c;}.cls-40{fill:#603a20;}.cls-41{fill:#996c44;}.cls-42{fill:#140b05;}.cls-43{fill:#604326;}.cls-44{fill:#ccb244;}.cls-45{fill:#edf4f3;}.cls-46{fill:#e1e5e4;}.cls-47{fill:#936b30;}.cls-48{fill:#755832;}.cls-49{fill:#af8034;}.cls-50{fill:#977037;}.cls-51{fill:#d99e37;}.cls-52{fill:#b78439;}.cls-53{fill:#c28f42;}.cls-54{fill:#9e7130;}.cls-55{fill:#996d2e;}.cls-56,.cls-58{font-size:86.05px;font-family:BernardMT-Condensed, Bernard MT Condensed;}.cls-56{fill:#66472b;}.cls-57{letter-spacing:-0.06em;}.cls-58{fill:#775332;}</style><linearGradient id="linear-gradient" x1="974.86" y1="602.3" x2="974.86" y2="2.25" gradientUnits="userSpaceOnUse"><stop offset="0" stop-color="#001a7f"/><stop offset="0.27" stop-color="#4a368c" stop-opacity="0.71"/><stop offset="0.76" stop-color="#cc68a3" stop-opacity="0.2"/><stop offset="1" stop-color="#ff7bac" stop-opacity="0"/></linearGradient><linearGradient id="linear-gradient-2" x1="972.47" y1="1073.06" x2="972.47" y2="384.64" gradientUnits="userSpaceOnUse"><stop offset="0" stop-color="#ff8215"/><stop offset="0.22" stop-color="#ff8039" stop-opacity="0.76"/><stop offset="0.6" stop-color="#ff7d76" stop-opacity="0.36"/><stop offset="0.87" stop-color="#ff7c9d" stop-opacity="0.1"/><stop offset="1" stop-color="#ff7bac" stop-opacity="0"/></linearGradient></defs><title>scenes1draw</title><rect class="cls-1" x="17.53" y="-1.61" width="1924.23" height="605.72"/><rect class="cls-2" x="11.55" y="2.25" width="1926.62" height="600.05"/><rect class="cls-3" x="16.33" y="536.43" width="1911.09" height="537.83"/><rect class="cls-4" x="13.94" y="384.64" width="1917.06" height="688.42"/><path class="cls-5" d="M1016.1,615.48l110.08-185.34,212.29-68.33s85.18-53.35,85.18-68.33S1442,267.27,1459,251.36s17-64.59,17-64.59,73.39-39.31,73.39-46.8,24.9,32.76,24.9,32.76l43.24,23.4L1653,249.49l40.62,87.05s91.74,78.63,100.91,82.37,38,11.23,38,11.23l115.32,72.08,76,89.86L2130,615.48l-174.29,41.19Z"/><path class="cls-6" d="M1169.08,631.27,887.26,270.89s-27-66.46-40.5-44.93-32.91,44.93-32.91,44.93h-27l-22.78-60.84L737.91,226h-40.5l-37.13-30.89s-5.9-13.11-18.56,0-46.41,43.06-46.41,43.06l-45.56,70.2-96.19-48.67-17.72-21.53L367.5,139.84v25.28l-46.41,44.93s-7.6,0-13.5-7.49-33.75-25.28-33.75-25.28S233.34,182,235,196.94s-40.5,54.29-40.5,54.29l-10.12-36.5L122.8,226s8.44,1.87,0,17.78-31.22,27.15-31.22,27.15l-35.45,14.4L20.71,321.44,14,333.6-.39,376.66s-6.75,107.65,0,120.75S18.17,650,24.08,639.69s366.2,16.85,366.2,16.85Z"/><path class="cls-5" d="M957.53,506l57.37-80.08,46.61-68.12s78.88-75.3,93.23-78.88,35.85-28.69,35.85-28.69l50.2,50.2,71.71,43,61,43s64.54,35.86,75.3,39.44,0,125.5,0,125.5-123.1-14.35-174.5,0-180.61,67.9-180.61,67.9a404.46,404.46,0,0,1-50.05,11C1018.49,633.83,957.53,506,957.53,506Z"/><path class="cls-7" d="M843.73,593.25s-74.87-221.78-98.58-236.78S725.17,349.7,710,334s1.23-24.63-20.68-32.19-91.78-36.17-91.78-36.17l-47.09-48-25.77-28.93-35.38,31.52-32.73,13.55-3.36,14.69L428.56,284.2s-28.48,34.87-28.45,33.24-34.36,17.62-34.36,17.62L148.26,597.77Z"/><path class="cls-8" d="M1896.15,190s-133.58,18.88-152.55,31.64-70.6,42.89-70.6,42.89-6.51,45.32-11,56.13-56.14,71.33-78.61,59.41-114.76-75.47-136.84-82.14-99.82,70.19-99.82,70.19-53.26,62.08-135.62,72.06-83.35,30.69-83.92,52.77.63,75.14,17.42,71.27,343.3-4.14,418.64,4.25,200.24,21.12,200.24,21.12,155.32,16,162.76-1.05,49.41-200.93,37.4-217.39S1896.15,190,1896.15,190Z"/><path class="cls-9" d="M-26.79,271.35s139.24,5.31,174.06,29.19,53.18,92,66.72,80.5,124.74,15,124.74,15,25.14,23,25.14,41.58,146,67.22,147,67.22,76.39,48.66,76.39,48.66l15.47,25.65s-67.69-8-89,0-158.59,0-158.59,0l-196.3,3.54-104.43,15L-50,584.5Z"/><path class="cls-10" d="M938.27,580.93s81.73-164.8,106.58-175.78,20.83-4.89,36.86-16.48-.81-18.38,22-23.84,95.77-26.21,95.77-26.21l49.68-35.4,27.25-21.37,36.06,23.81L1346.15,316l3.21,11,24.84,26.86s28.85,26.24,28.85,25,35.26,13.43,35.26,13.43l220.37,197.76Z"/><path class="cls-9" d="M455.74,562.91l87-63.31,87-97.09L668.48,335l61.88,46.43s58,29.55,77.36,29.55,46.42-4.22,58-21.11-1.93-67.53,24.18-54.87,94.76-2.11,94.76-2.11l35.78,65.42v49.6L1152,541.8l21.28,21.11,17.4,59.09S823.2,575.57,745.84,571.35,506,622,506,622Z"/><path class="cls-11" d="M12.89,671.59S3.38,592,16.62,586.89s31.93-35.37,31.93-35.37a216.5,216.5,0,0,0,19.32-44.41c7.61-25.13,3.36-76.24,3.36-76.24l5.25-53.52s6.89-25.15,29.71-1.51,17.75,40.38,7.72,71.06,3.94,74.67,3.94,74.67l27.43,1.21L146.82,488,149.68,423s4.08,5.84,28.27-1.58S216.8,426,224.3,403.67,242,396,254.74,402.18,263,445,263,445L231,480.35s-29.34-7-34,1.33.26,43.39.26,43.39L229,526.46s26.18-19.59,31.23-19.37,11.05,11.81,25-10.21,37-52.12,26.68-63.89-45.45-19,3.76-19.64,47.91-20.52,49.2-.66S339.54,496.44,360.2,520s37.73,30,37.73,30l29.82,12.63S418.21,582,426.5,590.8,425,624.68,425,624.68s8.14,28.65,2,36.87S12.89,671.59,12.89,671.59Z"/><path class="cls-11" d="M1932.2,660.83s32.2-66.12-3-69.19-83.1-26.38-83.1-26.38-29.91-14.86-48.35-34.85-2.75-62.27-2.75-62.27l-9.71-43.48s-16.5-20.08-79.94,1.21-51.15,34.6-26.66,58.94-16.8,61.6-16.8,61.6l-74,3.26-1.25-28.45-2.34-53.05s-11.48,5.13-76,1-105,6.94-123.38-10.74-47-4.86-81.88,1.3-25.74,35.79-25.74,35.79l83.1,26.39s79.63-8.13,91.62-1.73-4.29,35.62-4.29,35.62L1362,559.62s-68.89-13.91-82.52-13.31-30.75,10.59-66.61-6.31-95.39-39.71-66.59-50.22,124-19.33-8.5-15.8-127.37-12.88-132.5,3.52,61.46,66.62,3.86,87.65S905,592.84,905,592.84l-81.37,12.83s24.08,15.12,1,23.07,1.22,27.68,1.22,27.68-24.3,24.18-8.42,30.41S1932.2,660.83,1932.2,660.83Z"/><path class="cls-11" d="M148.23,635.83V599.45l74.57-39.67h45.81l55.65,15.41V521.83l29.34-41.24h65.19l42.38,12.94,50-12.94-22.82-41.23,22.82-50.94H617.62L598.07,415.1s-35.86,17-32.6,24.26,16.3,20.21,16.3,20.21h35.85a87.43,87.43,0,0,0,16.3,0c9.78-.81,29.34,0,29.34,0l44.58-35.07,56.47.3c3.26,12.13,0,38.53,0,38.53l39.11-3.76,19-44.44,7.07-9.73V365.75l71.71,0h16.3v22.64s-16.3,28.3-16.3,34.77,16.3,36.38,16.3,36.38h48.9V446.63l56.5-67.91c18.47,9.7,67.36,26.68,67.36,26.68v36.38s-3.26,24.26,0,34-6.52,18.6,0,25.07-.29,13.44,19.41,28.14.15,14.81,29.49,14.76,58.4-5.2,68.31-14.76,19.7-58.06,19.7-58.06l16.3-11.32s43.46-17.79,57.58-20.21,7.61-21.83,14.13-2.43-4.35,69.32,0,83.58S1311.93,631,1233.7,635.83s-518.29,55.79-518.29,55.79Z"/><path class="cls-12" d="M858.48,448.44s9.12,33.1,7.3,70.63,12.77,99.32,12.77,110.36,7.3,66.21,7.3,75,200.76-17.66,200.76-17.66-8.21-98.22-.91-144.57,12.77-101.53,7.3-110.36-237.26-4.41-235.43,6.62,0,11,0,11Z"/><path class="cls-13" d="M931.48,516.86s9.12,174.37,9.12,178.78,18.26,0,18.26,0-14.61-174.37-9.13-178.78S931.48,516.86,931.48,516.86Z"/><path class="cls-13" d="M1026.38,512.44s9.13,174.37,9.13,178.79,18.25,0,18.25,0-14.6-174.37-9.13-178.79S1026.38,512.44,1026.38,512.44Z"/><path class="cls-14" d="M885,488.15c-5.82,34-4.3,56.26-4.3,56.26L891,612.66l12.77,76.64S920,685.88,922,687.09s-5.73-141.19-6-149.85-11.93-60.81-18.75-60S886.43,480,885,488.15Z"/><line class="cls-14" x1="892.68" y1="477.81" x2="892.22" y2="477.86"/><line class="cls-14" x1="913.31" y1="688.14" x2="892.22" y2="477.86"/><line class="cls-14" x1="906.94" y1="622.31" x2="919.13" y2="597.67"/><line class="cls-14" x1="899.4" y1="547.94" x2="910.98" y2="510.34"/><line class="cls-14" x1="902.59" y1="580.85" x2="882.1" y2="510.94"/><line class="cls-14" x1="908.13" y1="636.65" x2="887.03" y2="587.08"/><path class="cls-14" d="M1054.67,468.89c-7.92,33.3-8.21,55.79-8.21,55.79l4.21,69.55,5.89,78.24s15.15-1.45,16.84,0,5.47-142,5.89-150.69-6.31-62.31-12.63-62.31S1056.56,460.92,1054.67,468.89Z"/><line class="cls-14" x1="1062.45" y1="459.47" x2="1062.03" y2="459.47"/><line class="cls-14" x1="1065.4" y1="672.47" x2="1062.03" y2="459.47"/><line class="cls-14" x1="1064.56" y1="605.82" x2="1077.61" y2="582.63"/><line class="cls-14" x1="1063.29" y1="530.47" x2="1076.76" y2="494.25"/><line class="cls-14" x1="1063.71" y1="563.8" x2="1050.25" y2="491.35"/><line class="cls-14" x1="1064.56" y1="620.31" x2="1048.98" y2="568.14"/><path class="cls-15" d="M965.24,457.26s-51.1,44.15-60.22,64h160.6c18.25,0-45.63-66.21-52.93-64S965.24,457.26,965.24,457.26Z"/><path class="cls-16" d="M965.09,542.34c7.58-1.43,18.57-4.94,28.82-8.54,14.38-5.06,27.3-10.32,27.3-10.32l1.52,156-57.64,20.58Z"/><line class="cls-16" x1="990.12" y1="534.62" x2="988.6" y2="692.34"/><line class="cls-16" x1="990.12" y1="592.91" x2="1021.97" y2="580.91"/><line class="cls-16" x1="965.85" y1="589.48" x2="990.12" y2="592.91"/><line class="cls-16" x1="964.33" y1="640.91" x2="988.6" y2="644.34"/><line class="cls-16" x1="988.6" y1="646.05" x2="1021.97" y2="632.34"/><line class="cls-16" x1="964.33" y1="639.2" x2="988.6" y2="646.05"/><ellipse class="cls-17" cx="1002.25" cy="615.2" rx="3.79" ry="4.29"/><path class="cls-18" d="M859.39,699s239.08-30.9,251.86-22.07c0,0,5.47,33.11,0,35.31s-239.08,15.46-244.56,19.87S850.27,699,859.39,699Z"/><polygon class="cls-17" points="931.12 706.08 931.44 726.75 1050.11 714.65 1049.82 695.86 931.12 706.08"/><path class="cls-13" d="M901,725.44s163.42-13.25,168.69-11,0,17.66,0,17.66L901,738.68S895.7,725.44,901,725.44Z"/><path class="cls-17" d="M882.2,756.34V738.68l12.42-.84c42.8-2.88,182.2-12.06,194.56-10.19a21.27,21.27,0,0,1,0,13.24C1086.74,747.51,889.51,751.92,882.2,756.34Z"/><path class="cls-13" d="M948.41,191.27c7.39,27.35,29.46,97.52,18.74,43.17s-22.19-82.06-21-61.18"/><path class="cls-13" d="M1004.92,187.62c-6.94,27.53-22.21,100.3-5.16,48.36s20.81-82.58,11.9-64.63"/><path class="cls-19" d="M975.28,205.64c-1.82,6.63,9.13,17.66,9.13,2.21S975.28,205.64,975.28,205.64Z"/><path class="cls-20" d="M982.52,177.09s-2.42-4.6-8.23-.92c-1,4.59.49,13.78-.48,16.53-2.91,1.84-3.87,4.6-4.36,7.35s-1,9.19-1,9.19,19.37,1.84,20.82,0,0-13.78-2.42-15.62-4.36,1.84-4.36-7.35S983.49,178,982.52,177.09Z"/><path class="cls-18" d="M961.18,226.74s34.25-12.1,42.81,0c2.45,48.44-4.89,42.39-7.34,42.39s-36.69-6.06-39.14,0S952.62,226.74,961.18,226.74Z"/><path class="cls-16" d="M851.18,428.57c-1.83-2.21-9.13-15.45-9.13-15.45l104-130.22,36.5-33.11,122.28,150.09,5.47,33.1-127.62-9.83-107.08,6Z"/><path class="cls-18" d="M840.23,426.36s1.82,15.45,0,24.28,34.67-22.07,136.88-13.24S1106.68,444,1114,452.85s11-39.73,3.65-37.52-171.55,4.41-204.4,0S840.23,413.12,840.23,426.36Z"/><path class="cls-13" d="M816.5,426.36s1.83,13.25,16.43,6.62,87.6-114.77,116.8-143.46,23.73-33.11,34.68-24.28,111.32,150.09,124.1,161.12,32.85,44.15,27.37,22.08c-1.63-6.61-10.62-29.68-29.2-55.18-43.52-59.77-118.44-144.79-122.27-147.89-5.48-4.41-52.93,39.73-96.73,101.53C867.6,371.18,849.35,408.71,816.5,426.36Z"/><path class="cls-14" d="M1042.81,387.8c0,25.88-132.07,25.88-132.07,0s29.57-46.86,66-46.86S1042.81,361.92,1042.81,387.8Z"/><line class="cls-21" x1="976.77" y1="407.6" x2="973.5" y2="340.28"/><line class="cls-21" x1="984.41" y1="407.6" x2="1026.98" y2="357.44"/><line class="cls-21" x1="964.77" y1="406.28" x2="935.3" y2="350.84"/><path class="cls-21" d="M933,402.77s62.33-91.2,79.23,1.7"/><path class="cls-22" d="M943.67,183.81c26.82,0,75.6,4.43,77.18,0s-28.35-110.64-41-90.73S927.92,183.81,943.67,183.81Z"/><path class="cls-14" d="M962.34,176.85c24.44-7.73,41.51,5.73,34.24-20.26S982,104.59,973,135.75,958.27,178.14,962.34,176.85Z"/><line class="cls-21" x1="977.21" y1="174.51" x2="985.46" y2="124.74"/><line class="cls-21" x1="982.16" y1="144.64" x2="970.15" y2="141.37"/><line class="cls-21" x1="980.51" y1="154.6" x2="999.01" y2="165.25"/><line class="cls-21" x1="980.29" y1="161.74" x2="963.99" y2="166.9"/><path class="cls-23" d="M976.14,25.88c-6.12,0-12.16,1.84-12.92,4.6s-5.32,7.35,0,7.35,9.88-4.6,15.21-1.84c0,7.36.76,20.23,0,28.5s-.77,12.87,0,18.38,7.6,2.76,7.6-3.67-.76-36.77,0-39.53-2.28-4.6,3-3.68,11.4,3.68,12.92.92,3.8-11.95-4.56-11-11.4,4.6-12.16,0,1.52-24.82-2.28-23-6.09,2.76-6.09,11S978.43,25.88,976.14,25.88Z"/><path class="cls-13" d="M931.48,172.54c-7.3,24.28-1.83,33.1,10.95,6.62S980.76,82,982.58,95.28s40.15,97.12,47.45,99.33-12.77-48.56-18.25-64-18.25-46.35-29.2-53-34.68,66.21-42,77.25S931.48,172.54,931.48,172.54Z"/><path class="cls-17" d="M152.23,626.05l3.09,87.48s510.42,3.57,525.8,5.06,5-89.47,12.25-94.32S158.37,621.68,152.23,626.05Z"/><path class="cls-24" d="M314.35,623.83s-1.93,23.85,1.75,41.43,3.91,23.75,1,29.1-1.76,12.53,1,17.25,33.44,4.17,33.44,4.17-1-87.32,1.58-92.66-6.88-14-20.51-9.33-19.45,13.59-19.45,13.59"/><path class="cls-24" d="M510.59,624.66s-1.93,23.85,1.75,41.43,3.91,23.75,1,29.09-1.77,12.54,1,17.26,33.44,4.17,33.44,4.17-1-87.32,1.58-92.66-6.88-14-20.51-9.33-19.45,13.59-19.45,13.59"/><path class="cls-16" d="M362.83,663.49l1.11,31.33,60.17-1.09a20.83,20.83,0,0,1-.61-17.32c4-9.15-1.57-44.52-1.57-44.52s-47.57-7.39-39.07,30.41Z"/><path class="cls-16" d="M496.07,661.06l1.11,31.33L437,693.49a20.7,20.7,0,0,0-.61-17.31c-4.62-9-1.57-44.53-1.57-44.53s47-9.11,41.16,29Z"/><path class="cls-25" d="M176.42,638.26l.53,15c.1,2.64,27.58-.51,33.77,1.14s4-16.83-.59-16.75Z"/><path class="cls-25" d="M234.82,685.71l.53,15c.09,2.65,27.57-.5,33.76,1.15s4-16.84-.59-16.75Z"/><path class="cls-25" d="M181.8,660.22s2,13.19.56,15.86,26-1.35,27.57-.5-3.56-14.05-.56-15.87S184.8,658.4,181.8,660.22Z"/><path class="cls-25" d="M228.51,637.31l.53,15c.12,3.53,19.82-3,42.8-3.42,0,0,5.75-10.69-.44-12.35S228.51,637.31,228.51,637.31Z"/><path class="cls-25" d="M233.91,660.15s2,14.07.56,15.87,27.52-2.27,33.64-2.38,2.57-14.17-.49-14.11Z"/><path class="cls-25" d="M178,684.1s2,14.08.56,15.87,27.52-2.26,33.64-2.38,2.57-14.16-.5-14.1Z"/><path class="cls-25" d="M570.4,637.18l.53,15c.09,2.65,27.57-.5,33.76,1.15s4-16.83-.59-16.75Z"/><path class="cls-25" d="M628.79,684.64l.53,15c.09,2.64,27.57-.51,33.76,1.15s4-16.84-.59-16.76Z"/><path class="cls-25" d="M575.77,659.14s2,13.2.56,15.87,26-1.36,27.57-.5-3.56-14-.56-15.87S578.77,657.32,575.77,659.14Z"/><path class="cls-25" d="M622.48,636.23l.53,15c.12,3.53,19.82-3,42.8-3.43,0,0,5.75-10.69-.44-12.34S622.48,636.23,622.48,636.23Z"/><path class="cls-25" d="M627.89,659.07s2,14.08.56,15.87,27.51-2.26,33.64-2.38,2.56-14.16-.5-14.1Z"/><path class="cls-25" d="M572,683s2,14.08.56,15.87,27.51-2.27,33.64-2.38,2.56-14.16-.5-14.11Z"/><path class="cls-26" d="M102.75,744.14s146.79-10.62,177.49-9.41,164-.35,194.7.85,234.51-.75,249.89.73,66,2.33,73.65,2.19.76-22.07,2.1-27.39-16.85.31-35.23.65-177.76,1.48-197.71,1-147.19-.84-171.76-2.16-137.84,3.4-165.44,3-130.31-.26-134.84,1.58-14.17,32.9-3.51,30.94Z"/><path class="cls-17" d="M228.27,522.18s-1.32,92.66,3.3,93.46S668.2,608.55,677.48,611,665.39,529.2,682,521s-79.72-.31-79.72-.31-388-5.27-384.81-1.8S228.27,522.18,228.27,522.18Z"/><path class="cls-25" d="M248,537.36l.37,10.52c.07,1.86,19.35-.35,23.69.81s2.81-11.82-.41-11.76Z"/><path class="cls-25" d="M289,570.66l.38,10.52c.06,1.85,19.34-.35,23.69.8s2.81-11.81-.42-11.75Z"/><path class="cls-25" d="M251.78,552.77s1.41,9.26.4,11.14,18.25-1,19.34-.36-2.5-9.86-.39-11.13S253.89,551.49,251.78,552.77Z"/><path class="cls-25" d="M284.56,536.7l.37,10.51c.09,2.48,13.91-2.11,30-2.4,0,0,4-7.5-.31-8.66S284.56,536.7,284.56,536.7Z"/><path class="cls-25" d="M288.35,552.72s1.43,9.88.39,11.14,19.31-1.59,23.61-1.67,1.8-9.94-.35-9.9Z"/><path class="cls-25" d="M249.15,569.53s1.42,9.88.39,11.14,19.31-1.59,23.61-1.67,1.8-9.94-.35-9.9Z"/><path class="cls-25" d="M355.37,538.93l.37,10.52c.07,1.86,19.35-.35,23.69.81s2.81-11.82-.41-11.76Z"/><path class="cls-25" d="M396.34,572.23l.37,10.52c.07,1.85,19.35-.36,23.69.8s2.81-11.81-.41-11.75Z"/><path class="cls-25" d="M359.14,554.34s1.4,9.26.39,11.13,18.25-1,19.35-.35-2.5-9.86-.39-11.13S361.25,553.06,359.14,554.34Z"/><path class="cls-25" d="M391.92,538.27l.37,10.51c.08,2.48,13.9-2.11,30-2.4,0,0,4-7.5-.31-8.66S391.92,538.27,391.92,538.27Z"/><path class="cls-25" d="M395.71,554.29s1.42,9.88.39,11.14,19.31-1.59,23.61-1.67,1.8-9.94-.35-9.9Z"/><path class="cls-25" d="M356.51,571.1s1.42,9.88.39,11.14,19.3-1.59,23.6-1.67,1.8-9.94-.35-9.9Z"/><path class="cls-25" d="M462.63,537.86l.37,10.51c.07,1.86,19.35-.35,23.7.81s2.81-11.81-.42-11.75Z"/><path class="cls-25" d="M503.61,571.15l.37,10.52c.06,1.86,19.35-.35,23.69.81s2.81-11.82-.42-11.76Z"/><path class="cls-25" d="M466.4,553.26s1.41,9.26.4,11.14,18.25-.95,19.35-.35-2.5-9.86-.4-11.14S468.51,552,466.4,553.26Z"/><path class="cls-25" d="M499.18,537.19l.37,10.52c.09,2.47,13.91-2.11,30-2.41,0,0,4-7.5-.3-8.66S499.18,537.19,499.18,537.19Z"/><path class="cls-25" d="M503,553.21s1.43,9.88.4,11.14,19.3-1.59,23.6-1.67,1.8-9.94-.35-9.9Z"/><path class="cls-25" d="M463.77,570s1.42,9.87.39,11.13,19.31-1.59,23.61-1.67,1.8-9.94-.35-9.9Z"/><path class="cls-25" d="M569.9,536.78l.37,10.52c.06,1.85,19.35-.36,23.69.8s2.81-11.81-.42-11.75Z"/><path class="cls-25" d="M610.87,570.08l.37,10.51c.07,1.86,19.35-.35,23.69.81s2.81-11.81-.41-11.75Z"/><path class="cls-25" d="M573.67,552.19s1.4,9.26.39,11.13,18.25-1,19.35-.35-2.5-9.86-.39-11.14S575.77,550.91,573.67,552.19Z"/><path class="cls-25" d="M606.44,536.11l.37,10.52c.09,2.47,13.91-2.11,30-2.41,0,0,4-7.5-.31-8.66S606.44,536.11,606.44,536.11Z"/><path class="cls-25" d="M610.24,552.14s1.42,9.88.39,11.13,19.3-1.59,23.6-1.67,1.8-9.93-.35-9.89Z"/><path class="cls-25" d="M571,569s1.43,9.88.4,11.13,19.3-1.59,23.6-1.67,1.8-9.93-.35-9.89Z"/><path class="cls-24" d="M163.13,566.16s2.08,25.55,1.12,31.74S179.74,602,179.74,602l-1.27-36.15Z"/><path class="cls-24" d="M192.23,565.63s2.09,25.54,1.13,31.74,15.49,4.13,15.49,4.13l-1.28-36.15Z"/><path class="cls-24" d="M233.69,567.52s2.08,25.54,1.12,31.74,15.49,4.13,15.49,4.13L249,567.24Z"/><path class="cls-24" d="M276.58,566.74s2.09,25.54,1.12,31.73,15.5,4.13,15.5,4.13l-1.28-36.14Z"/><path class="cls-24" d="M316.41,566s2.08,25.54,1.12,31.74,15.5,4.12,15.5,4.12l-1.28-36.14Z"/><path class="cls-24" d="M371.56,565s2.08,25.55,1.12,31.74,15.49,4.13,15.49,4.13l-1.27-36.15Z"/><path class="cls-24" d="M442,563.71s2.08,25.55,1.12,31.74,15.49,4.13,15.49,4.13l-1.28-36.15Z"/><path class="cls-24" d="M520.25,564.93s2.08,25.55,1.12,31.74,15.49,4.13,15.49,4.13l-1.28-36.15Z"/><path class="cls-24" d="M572.46,567.51s2.08,25.54,1.12,31.74,15.49,4.13,15.49,4.13l-1.28-36.15Z"/><path class="cls-24" d="M639.86,566.28S641.94,591.82,641,598s15.49,4.12,15.49,4.12L655.2,566Z"/><path class="cls-26" d="M130.76,560.58s1.56.85.22,6.17,144.18,2.66,181,2.87S426.88,568.4,459,566.93s104.26.75,121.18,2.2,55.11-1.89,82.72-1.51,30.82,4.73,33.73.27-3.12-1.71,4.32-8-30.86-5.61-35.42-4.65-147,3.57-162.38,3-90.39,1.65-108.77,2-62.78,2-85.75,2.45-47.49.87-72.07-.45-35.32-2-49.14-2.63S136.79,557.82,130.76,560.58Z"/><path class="cls-26" d="M116.09,601s8.56,25.43,7.09,27.22,53.5-4.5,84.23-2.42,130.21-2.37,156.28-2,113.36-2.07,144.12.9,84.32.22,101.11-1.85,53.71,1.67,69.06,2.27,56.8,2.49,62.81-1.15,6.85-23.06-.87-24.68-62.78,2-76.6,1.4-91.91,1.67-105.76.16-63-3.26-81.32-2-30.67-.32-55.24-1.64c-18.85-1-82.78-.25-99.64.06-5.52.1-41.26,3.4-70.43,2.16S123.63,597.32,116.09,601Z"/><path class="cls-26" d="M177,502.83s525.57-6.07,528.88.93,11.47,21,.78,22S169,536.5,170.31,530.3,163.22,503.08,177,502.83Z"/><path class="cls-27" d="M151.81,483.88s-3.1-.83-2.57,14.16c0,0-4.47,3.61,3.25,5.24s22-.31,30.9-.52,527.09.92,550-.39c7.47-5.43,2.65-11.51-.5-14.1s-90.73-8-107.52-6-194.64.91-217.68-.44-144.16-1.77-176.26.58-75.13-.4-70.5.4S151.81,483.88,151.81,483.88Z"/><path class="cls-28" d="M201.75,444s26.81-17.41,72.31-17,60.15-.35,79.61.7-12.6-61.43,120.26-52.32,108.24,49.48,109.45,58.32,71.86-7.31,82.62,6,28.78,45.25,9.08,49.49S412.16,480.72,352,482s-155.12,15.39-162.39-3.2S187.67,449.63,201.75,444Z"/><path class="cls-29" d="M204.73,467.42s-12.22-16.87,30.51-27.08S316.8,434,336.3,434.17s39-.53,42.69-9.33,2.9-27.32,14.51-32.51S557.45,362,569,429.17c0,0-12,14,12.35,14.22s65.4-8.24,69.9-.26,26.27,29.35,8.24,32.72S506.6,477.15,448.23,474s-95.78-2.61-149.6,1.33S200.7,484.15,204.73,467.42Z"/><path class="cls-29" d="M298.83,446.29c-.92-4.63-6.26-6.63-10.36-7.51-6.94-1.5-14.12-.44-21.06.51-1.9.26-1.09,3.15.8,2.89A78.31,78.31,0,0,1,283,441.11c3.92.21,11.93,1.05,12.91,6,.38,1.89,3.27,1.09,2.89-.8Z"/><path d="M267.24,448.06c-2-6.9-8.69-10.28-15.66-9.28-5.27.75-13.29,5.49-8.62,11.53,2.23,2.88,6.29,4.29,9.73,4.94,5.14,1,11.72-1.29,16.52.66,6.05,2.46-.78,3.95-3.06,4.38-3.27.61-6.57,1.09-9.87,1.46-6.4.71-12.82.81-19-1.05l.36,2.75a40.21,40.21,0,0,1,16-6.33c1.9-.36,1.1-3.25-.79-2.89a42.3,42.3,0,0,0-16.77,6.63,1.52,1.52,0,0,0,.36,2.74c8.9,2.65,18.22,1.56,27.25.13,3-.48,14-1.56,11.76-7.24-2.73-6.81-16.84-3.21-22-4.13-2.54-.45-5.93-1.33-7.6-3.47-2.8-3.58,1.8-6.22,5-7,5.66-1.3,11.7,1.13,13.42,6.93.54,1.84,3.44,1.06,2.89-.8Z"/><path d="M302.2,452.62c-5.67-3.87-16.17,2.49-8.66,7.51,3,2,9.39,3.3,12.55,1,3.62-2.66,1-6.11-1.6-8.3l-1.82,2.36c3.77,2,13.36,8.25,17.15,4a1.58,1.58,0,0,0,.24-1.82l-.28-.59c-.83-1.74-3.42-.22-2.59,1.51l.28.6.23-1.82c-2,2.24-11.53-3.4-13.52-4.46-1.43-.77-3.17,1.21-1.81,2.35,3.55,3-2.24,5.35-5,3.62-7.09-4.41.95-5,3.32-3.33,1.6,1.09,3.1-1.51,1.52-2.59Z"/><path d="M336.53,442.31c2.33,2.62-1.84,7.07.9,10.32,2.51,3,7.7,3.56,11.24,4,4.54.6,22.91,1.85,20.13-7.52-.55-1.85-3.44-1.06-2.89.8,1.32,4.45-10,4.3-12.29,4.18a39.41,39.41,0,0,1-10.52-1.64c-2.7-.9-3.77-2.76-3.43-5.69.1-.87.57-1.67.61-2.58a5.16,5.16,0,0,0-1.62-4c-1.29-1.44-3.4.68-2.13,2.12Z"/><path d="M391.67,438.54c-4.47.07-11.88.52-14,5.38-1.87,4.31,2.45,7.53,6.18,8.38,4.17,1,10.2.63,13.31-2.74a5.36,5.36,0,0,0,1.38-4.91,5.84,5.84,0,0,0-1.54-2.6c-.67-.68-2.33-1.26-2.71-2v1.52h-.73c1.43,1.29,3.56-.82,2.12-2.12s-4.55-.54-4.13,1.76c.27,1.51,2.11,1.86,3.07,2.73,2.24,2,.28,4.15-1.93,5-3.13,1.23-9.28,1.63-11.69-1.29-4.08-5,8.34-6.06,10.66-6.09,1.93,0,1.94-3,0-3Z"/><path d="M418.84,436.74c-.11.87-5.38,1.2-6.36,1.53a5.48,5.48,0,0,0-2.89,1.93,4.09,4.09,0,0,0,.41,5.06c3.38,4.36,11.3,7.24,16.68,6.54,5.11-.66,8-5,4.62-9.47-4-5.16-12-7-17.91-8.63a1.5,1.5,0,0,0-.8,2.89c4.32,1.22,8.82,2.43,12.72,4.68,1.48.86,4.24,2.49,4.47,4.44.5,4.16-6.22,3.32-8.36,2.72a25.22,25.22,0,0,1-6.05-2.81c-.72-.42-2.73-1.41-2.95-2.09-.53-1.71,2.28-2.7,3.34-2.88,2.67-.43,5.69-.82,6.08-3.91.25-1.91-2.75-1.89-3,0Z"/><path d="M443.37,438.49c1.31,3.83,3.9,6.28,7.27,8.4a1.54,1.54,0,0,0,2.05-.54c5.84-7.81,20.46-7,29-6.12,5.69.56,7,2.93,10.7,6.31a11.62,11.62,0,0,0,7.81,2.87c1.93.06,1.93-2.94,0-3-6.14-.19-7.32-5.77-12.25-8-4.07-1.8-9.44-1.55-13.77-1.56-8.14,0-18.79.84-24.09,7.94l2-.54c-2.66-1.68-4.84-3.54-5.89-6.61-.62-1.81-3.52-1-2.89.8Z"/><path class="cls-16" d="M419.41,665.48l-5.42.1c-1.19,0-2.19-.67-2.23-1.52h0c0-.86.93-1.58,2.12-1.6l5.42-.1c1.19,0,2.2.66,2.23,1.52h0C421.56,664.74,420.6,665.46,419.41,665.48Z"/><path class="cls-30" d="M1865.38,709.75a1.32,1.32,0,0,1,1.08-.74,4.48,4.48,0,0,1,1,0h.39c.58.16.64-.11.17-.79-.62,1.83,2.28,2.62,2.89.8.76-2.29-1.74-3-3.45-3s-3.75.53-4.64,2.28,1.72,3.24,2.59,1.51Z"/><path class="cls-30" d="M1864.91,710.58a4.25,4.25,0,0,1,2.4-1.54c.17,0,3.13-.48,3,0-.68,1.8,2.21,2.59,2.89.79,1.1-2.88-2.14-4.17-4.42-4a8.26,8.26,0,0,0-6.43,3.28c-1.12,1.58,1.48,3.08,2.59,1.52Z"/><path class="cls-31" d="M1920,595.35c-9-1.92-8.32,6.4-9,8.32s-3.85,21.78-5.77,33.3a13,13,0,0,1-10.06,11c1.59-15.07,3.29-30.69,4.3-34.71,1.92-7.69,3.84-35.86-1.92-39.07s-18.57-6.4-24.34,18.57c-1.82,7.9-2,22.18-1.34,38-5.66,1.08-16.75,1.05-17.23-15.61-.64-22.42,3.2-26.26,3.2-28.82s-21.13-17.93-17.93,9,15.37,37.78,21.78,39.7a35.78,35.78,0,0,0,10.46,2c1.68,32.93,6.19,69.78,6.19,69.78s10.88,2.56,9.6,0,2.56-20.5,3.85-28.18c.42-2.57,1.21-9.87,2.14-18.74,7,.78,20.81-17.66,25.39-22.25,5.13-5.12,7-25,9-29.46S1928.92,597.27,1920,595.35Z"/><path class="cls-32" d="M1881.12,581.59a17.79,17.79,0,0,0-.68,3.83c-.08,1,1.42,1,1.5,0a16,16,0,0,1,.63-3.43.75.75,0,0,0-1.45-.4Z"/><path class="cls-32" d="M1889.61,576.46a39.1,39.1,0,0,0-.39,7.25c0,1,1.55,1,1.5,0a37.37,37.37,0,0,1,.34-6.85c.13-1-1.31-1.35-1.45-.4Z"/><path class="cls-32" d="M1896.39,590.32l-.87,3.67c-.23.94,1.22,1.34,1.44.4l.88-3.67c.22-.94-1.23-1.34-1.45-.4Z"/><path class="cls-32" d="M1884.75,590.34l-.69,4c-.16,1,1.29,1.35,1.45.4l.68-4c.16-.94-1.28-1.35-1.44-.4Z"/><path class="cls-32" d="M1878.84,597.56a9.39,9.39,0,0,1,.1,2.8c-.09,1,1.41.95,1.5,0a11.07,11.07,0,0,0-.15-3.2c-.18-.95-1.63-.54-1.45.4Z"/><path class="cls-32" d="M1880.46,608.69v4.91a.75.75,0,0,0,1.5,0v-4.91a.75.75,0,0,0-1.5,0Z"/><path class="cls-32" d="M1876.19,616.37V620a.75.75,0,0,0,1.5,0v-3.63a.75.75,0,0,0-1.5,0Z"/><path class="cls-32" d="M1889.58,601.42a17.65,17.65,0,0,0-.71,8.1c.14,1,1.58.54,1.45-.4a15.91,15.91,0,0,1,.71-7.31c.3-.91-1.14-1.31-1.45-.39Z"/><path class="cls-32" d="M1892.66,607.41l-.28,4.26c-.06,1,1.44,1,1.5,0l.28-4.26c.06-1-1.44-1-1.5,0Z"/><path class="cls-32" d="M1887.05,625.77l-.87,5.34c-.15.94,1.29,1.35,1.45.39l.86-5.33c.16-.95-1.29-1.35-1.44-.4Z"/><path class="cls-32" d="M1882.44,618.94l-.25,5.33c0,1,1.46,1,1.5,0l.25-5.33c0-1-1.46-1-1.5,0Z"/><path class="cls-32" d="M1877.9,629.61v4.91a.75.75,0,0,0,1.5,0v-4.91a.75.75,0,0,0-1.5,0Z"/><path class="cls-32" d="M1892,618.31a11,11,0,0,0-.23,3.19c.07,1,1.57,1,1.5,0a9.65,9.65,0,0,1,.18-2.79c.2-1-1.25-1.35-1.45-.4Z"/><path class="cls-32" d="M1892.52,635.62a47.34,47.34,0,0,0-1.51,8.08c-.1,1,1.4,1,1.5,0A44.66,44.66,0,0,1,1894,636a.75.75,0,0,0-1.45-.4Z"/><path class="cls-32" d="M1883,641.78a28.8,28.8,0,0,1-.61,5.78c-.19.94,1.25,1.34,1.45.4a31.34,31.34,0,0,0,.66-6.18.75.75,0,0,0-1.5,0Z"/><path class="cls-32" d="M1878.11,651.81a75.84,75.84,0,0,0,.05,8.53c0,1,1.56,1,1.5,0a75.84,75.84,0,0,1-.05-8.53c.05-1-1.45-1-1.5,0Z"/><path class="cls-32" d="M1885.77,656.08a26.8,26.8,0,0,0-.86,6,.75.75,0,0,0,1.5,0,25,25,0,0,1,.81-5.57.75.75,0,0,0-1.45-.4Z"/><path class="cls-32" d="M1888.38,661.2l.35,11.95c0,1,1.53,1,1.5,0l-.35-11.95c0-1-1.53-1-1.5,0Z"/><path class="cls-32" d="M1878.73,666.11a35.23,35.23,0,0,0,.75,7.66c.19.94,1.64.54,1.44-.4a33.4,33.4,0,0,1-.69-7.26.75.75,0,0,0-1.5,0Z"/><path class="cls-32" d="M1885.36,673.37q-.13,3.32,0,6.61c0,1,1.55,1,1.5,0q-.18-3.3,0-6.61c.05-1-1.45-1-1.5,0Z"/><path class="cls-32" d="M1881.6,683l-.78,5.1c-.14.94,1.31,1.35,1.45.4l.78-5.1c.14-.95-1.3-1.36-1.45-.4Z"/><path class="cls-32" d="M1884,687.24l-1,8.54c-.11,1,1.39,1,1.5,0l1-8.54c.11-1-1.39-1-1.5,0Z"/><path class="cls-32" d="M1896.8,649.29a24.43,24.43,0,0,0-.87,7.22.75.75,0,0,0,1.5,0,23.2,23.2,0,0,1,.81-6.83.75.75,0,0,0-1.44-.39Z"/><path class="cls-32" d="M1904.26,646.31a7.86,7.86,0,0,0-1.39,3c-.22.93,1.23,1.33,1.45.39a6.79,6.79,0,0,1,1.24-2.58.76.76,0,0,0-.27-1,.77.77,0,0,0-1,.27Z"/><path class="cls-32" d="M1908.26,627.69l-.49,7.47c-.06,1,1.44,1,1.5,0l.49-7.47c.06-1-1.44-1-1.5,0Z"/><path class="cls-32" d="M1910.9,621.86a4.46,4.46,0,0,1,.43,4.09c-.33.91,1.12,1.3,1.45.4a5.91,5.91,0,0,0-.58-5.25c-.52-.81-1.82-.06-1.3.76Z"/><path class="cls-32" d="M1913.19,609.52a6.55,6.55,0,0,1,1,3.65.75.75,0,0,0,1.5,0,8.08,8.08,0,0,0-1.23-4.41c-.5-.82-1.8-.07-1.29.76Z"/><path class="cls-32" d="M1917.43,597.59l-.5,6.83c-.07,1,1.43,1,1.5,0l.5-6.83c.07-1-1.43-1-1.5,0Z"/><path class="cls-32" d="M1922.24,601.08a38.08,38.08,0,0,0-2.88,7c-.28.93,1.17,1.32,1.45.4a35.18,35.18,0,0,1,2.73-6.63c.45-.85-.84-1.61-1.3-.76Z"/><path class="cls-32" d="M1919.54,618.85a22.53,22.53,0,0,0,4.4-4.85c.54-.81-.76-1.56-1.3-.76a21.16,21.16,0,0,1-4.16,4.55c-.74.61.32,1.67,1.06,1.06Z"/><path class="cls-32" d="M1915.62,631.36a24.86,24.86,0,0,0,4.4-7.28c.35-.9-1.1-1.29-1.45-.4a22.46,22.46,0,0,1-4,6.62c-.63.73.43,1.79,1.07,1.06Z"/><path class="cls-32" d="M1909.8,643a8.53,8.53,0,0,1,3.13-4.74c.76-.59-.31-1.64-1.06-1.06a9.86,9.86,0,0,0-3.52,5.4.75.75,0,0,0,1.45.4Z"/><path class="cls-32" d="M1845.56,590.73a26.11,26.11,0,0,1,2.17-7.48c.41-.87-.89-1.63-1.29-.76a27,27,0,0,0-2.32,7.84c-.13.95,1.31,1.36,1.44.4Z"/><path class="cls-32" d="M1850.21,588.12a16.76,16.76,0,0,1,4-4.93c.74-.62-.33-1.68-1.06-1.06a18,18,0,0,0-4.25,5.23c-.45.85.84,1.61,1.3.76Z"/><path class="cls-32" d="M1848.84,604.85a19.71,19.71,0,0,0-1.94-4c-.26-.41-2.67-3.27-2.59-3.37.57-.77-.73-1.52-1.3-.76-.82,1.11.41,2.12,1.11,2.91a17.24,17.24,0,0,1,3.27,5.62c.33.9,1.78.51,1.45-.4Z"/><path class="cls-32" d="M1850.63,599.26a19.88,19.88,0,0,1,3.43-8c.56-.78-.74-1.53-1.3-.75a21,21,0,0,0-3.58,8.3c-.18.94,1.26,1.34,1.45.4Z"/><path class="cls-32" d="M1851.2,620.21l.41-7.89c.05-1-1.45-1-1.5,0l-.41,7.89c0,1,1.45,1,1.5,0Z"/><path class="cls-32" d="M1854.92,626.41a22.07,22.07,0,0,1,.62-5.12c.23-.94-1.22-1.34-1.44-.4a23.3,23.3,0,0,0-.68,5.52.75.75,0,0,0,1.5,0Z"/><path class="cls-32" d="M1866.37,632.89l-8.71-5.82c-.81-.54-1.56.76-.76,1.3l8.72,5.82c.8.53,1.55-.77.75-1.3Z"/><path class="cls-32" d="M1870.22,633.45v-1.28a.75.75,0,0,0-1.5,0v1.28a.75.75,0,0,0,1.5,0Z"/><path class="cls-33" d="M1857.19,711.9s9-17.93,17.29-1.92c0,0-1.28-16.65,4.49-10.25s5.12,7,5.12,7,6.4-16,11.53-7.69,7-1.28,7.68,1.92,11.53,5.13,3.84,9S1859.11,713.82,1857.19,711.9Z"/><path class="cls-30" d="M1864.84,709.83a5.88,5.88,0,0,1,.3-1.65c-.4.15-.38.25.07.3l.75.27,3.72,1.38c1.81.67,2.59-2.23.8-2.89l-3.23-1.2a6.91,6.91,0,0,0-2.74-.71c-2.07.13-2.27,2.07-2.56,3.7-.34,1.89,2.55,2.7,2.89.8Z"/><path class="cls-30" d="M1878.68,711.18c1-1.11,3.08-2.58,4.53-1.49s3-1.45,1.52-2.59c-2.54-1.89-6.36-.13-8.18,2-1.26,1.45.86,3.58,2.13,2.12Z"/><path class="cls-30" d="M1894.09,706.88a1.76,1.76,0,0,1,3.45-.2c.57,1.84,3.47,1.05,2.89-.8a4.75,4.75,0,0,0-9.34,1c-.21,1.91,2.79,1.9,3,0Z"/><path class="cls-34" d="M1337.16,572.34s7.88,142.85-29.93,158.15,516.66,2.74,534,5.2,30.71,3.73,27.56-7.32-14.17-85.88-7.87-100.34-154.37-63.77-179.57-64.62S1345.82,563.41,1337.16,572.34Z"/><path class="cls-35" d="M1531.07,609.43c12.72-22,147.24,0,147.24,0s-55,81.35-9.56,99.74c8.6,18.63-85.58,7.8-111.39,11.33s-58.32,0-58.32,0S1551.62,648.47,1531.07,609.43Z"/><polyline class="cls-36" points="1604.21 600.62 1581.26 661.06 1574.57 719.49"/><polyline class="cls-36" points="1662.53 636.88 1593.69 627.32 1535.37 632.35"/><polyline class="cls-36" points="1517.2 691.28 1578.39 687.76 1652.02 692.29"/><polygon class="cls-37" points="1604.69 666.35 1599.17 664.62 1593.33 666.03 1594.75 662.73 1590.4 660.24 1596.8 659.93 1599.95 656.98 1602.48 660.09 1608.78 660.76 1603.94 662.99 1604.69 666.35"/><polygon class="cls-37" points="1570.27 665.34 1564.75 663.61 1558.9 665.02 1560.33 661.72 1555.98 659.23 1562.38 658.92 1565.53 655.97 1568.06 659.08 1574.36 659.75 1569.52 661.98 1570.27 665.34"/><polygon class="cls-38" points="1725.74 612.09 1770.07 612.38 1770.02 641.01 1720 642.77 1725.74 612.09"/><polygon class="cls-38" points="1377.61 606.28 1434.75 606.66 1434.69 643.03 1370.2 645.26 1377.61 606.28"/><path class="cls-39" d="M1379.65,607.11c0,7.51-1.58,39,0,40.64s-12.6,0-12.6,0,4.73-32.35,1.58-38.15S1379.65,605.45,1379.65,607.11Z"/><path class="cls-39" d="M1444.19,607.11c0,7.51-1.57,39,0,40.64s-12.59,0-12.59,0,4.72-32.35,1.57-38.15S1444.19,605.45,1444.19,607.11Z"/><path class="cls-40" d="M1362.33,600.47c26.76,0,75.56,2.49,83.44,2.49s9.44,5.81,4.72,6.64-85-1.66-88.16,0S1356,600.47,1362.33,600.47Z"/><path class="cls-40" d="M1352.88,642.77c15.83,0,50.38,2.21,69.27,1.11s33.06-1.11,29.91,1.1-1.57,4.43-20.46,4.43-58.25,0-72.42-.56S1346.59,642.77,1352.88,642.77Z"/><path class="cls-39" d="M1725.78,613.72c0,5.6-1.17,29.07,0,30.3s-9.39,0-9.39,0,3.52-24.12,1.18-28.45S1725.78,612.48,1725.78,613.72Z"/><path class="cls-39" d="M1773.92,613.72c0,5.6-1.18,29.07,0,30.3s-9.4,0-9.4,0,3.53-24.12,1.18-28.45S1773.92,612.48,1773.92,613.72Z"/><path class="cls-40" d="M1712.87,608.77c20,0,56.35,1.85,62.22,1.85s7,4.33,3.52,5-63.39-1.23-65.74,0S1708.17,608.77,1712.87,608.77Z"/><path class="cls-40" d="M1705.83,640.31c11.79,0,37.56,1.65,51.65.83s24.65-.83,22.31.82-1.18,3.3-15.27,3.3-43.43,0-54-.41S1701.13,640.31,1705.83,640.31Z"/><path class="cls-39" d="M1296.21,691.7c1.66,4.38,9.93,28.56,5.75,33.77s19.44,4.38,19.44,4.38-12.6-35.66-6.3-38.15S1294.64,687.56,1296.21,691.7Z"/><path class="cls-39" d="M1352.88,689.21s17.89,29.4,5.8,36.68,13.1,8.11,16.24,6.45-18.89-38.15,0-40.64S1352.88,689.21,1352.88,689.21Z"/><path class="cls-39" d="M1425.3,689.21s-9.45,38.15-12.59,44,22,0,22,0-12.6-32.34,22-41.47S1425.3,689.21,1425.3,689.21Z"/><path class="cls-39" d="M1716.54,690c1.66,4.38,9.93,28.56,5.75,33.77s19.44,4.38,19.44,4.38-12.6-35.66-6.3-38.15S1715,685.9,1716.54,690Z"/><path class="cls-39" d="M1773.21,687.56s17.89,29.4,5.8,36.67,13.1,8.11,16.24,6.45-18.89-38.15,0-40.64S1773.21,687.56,1773.21,687.56Z"/><path class="cls-39" d="M1845.63,687.56s-9.44,38.15-12.59,44,22,0,22,0-12.6-32.34,22-41.47S1845.63,687.56,1845.63,687.56Z"/><path class="cls-40" d="M1284.4,725.29s146.41,1.66,187.34,0,284.94-1.66,297.54,0,99.18,0,103.9-1.66,37.78,29.86,7.87,29.86-121.22-4.15-165.3-3.32-188.91,1.66-253.45,3.32-37.79,1.66-108.63,0-59.82,1.66-75.56.83S1268.66,725.29,1284.4,725.29Z"/><path class="cls-40" d="M1266.3,675.94s-4.72,14.1,0,18.25,160.57-2.49,190.49-.83S1482,691.7,1482,691.7s9.45-17.41,0-15.76-137,3.32-151.13,3.32S1267.87,671.8,1266.3,675.94Z"/><path class="cls-40" d="M1683.48,674.29c0,8.29-4.72,14.1,0,14.92s135.39-.82,152.71,0,42.5,3.32,56.67,2.49,15.74-10,14.17-12.44-15.75,0-34.64,0-99.18-2.49-129.09-5S1683.48,671,1683.48,674.29Z"/><path class="cls-41" d="M1749.6,447.05s-98.95,104.22-74,114.45c28.34,11.61-371.53,5.8-371.53,5.8s48.8-102,12.6-125.23c12.59-18.25,432.92,6.63,432.92,6.63"/><polygon class="cls-38" points="1620.04 460.32 1677.18 460.7 1677.13 497.06 1612.64 499.3 1620.04 460.32"/><path class="cls-39" d="M1618.94,460.32c0,7.51-1.58,39,0,40.63s-12.6,0-12.6,0,4.72-32.34,1.58-38.15S1618.94,458.66,1618.94,460.32Z"/><path class="cls-39" d="M1683.48,460.32c0,7.51-1.57,39,0,40.63s-12.59,0-12.59,0,4.72-32.34,1.57-38.15S1683.48,458.66,1683.48,460.32Z"/><path class="cls-40" d="M1601.62,453.68c26.76,0,75.56,2.49,83.44,2.49s9.44,5.8,4.72,6.63-85-1.65-88.16,0S1595.32,453.68,1601.62,453.68Z"/><path class="cls-40" d="M1592.17,496c15.82,0,50.38,2.21,69.27,1.1s33.06-1.1,29.91,1.11-1.57,4.42-20.46,4.42-58.25,0-72.42-.55S1585.88,496,1592.17,496Z"/><polygon class="cls-38" points="1497.25 460.32 1554.39 460.7 1554.34 497.06 1489.85 499.3 1497.25 460.32"/><path class="cls-39" d="M1563.84,459.49c0,7.51-1.58,39,0,40.63s-12.6,0-12.6,0,4.72-32.34,1.58-38.15S1563.84,457.83,1563.84,459.49Z"/><path class="cls-39" d="M1496.14,460.32c0,7.51-1.57,39,0,40.63s-12.59,0-12.59,0,4.72-32.34,1.57-38.15S1496.14,458.66,1496.14,460.32Z"/><path class="cls-40" d="M1478.83,453.68c26.76,0,75.56,2.49,83.43,2.49s9.45,5.8,4.72,6.63-85-1.65-88.15,0S1472.53,453.68,1478.83,453.68Z"/><path class="cls-40" d="M1469.38,496c15.82,0,50.38,2.21,69.27,1.1s33.06-1.1,29.91,1.11-1.58,4.42-20.47,4.42-58.24,0-72.41-.55S1463.08,496,1469.38,496Z"/><path class="cls-35" d="M1381.62,453.44c23.18-3.05,45.2-3.4,72.1,4.54s16.15,73.7,8.61,82.77-95.78,6.24-95.78,4S1360.1,456.28,1381.62,453.44Z"/><line class="cls-36" x1="1414.98" y1="451.74" x2="1407.45" y2="546.99"/><line class="cls-36" x1="1412.83" y1="483.49" x2="1469.87" y2="483.49"/><line class="cls-36" x1="1367.63" y1="483.49" x2="1412.83" y2="483.49"/><line class="cls-36" x1="1365.48" y1="509.57" x2="1469.87" y2="515.24"/><ellipse class="cls-36" cx="1427.36" cy="501.35" rx="3.77" ry="1.98"/><ellipse class="cls-36" cx="1401.53" cy="501.35" rx="3.77" ry="1.98"/><path class="cls-39" d="M1280.47,523.35c1.66,4.38,9.93,28.55,5.75,33.76s19.44,4.39,19.44,4.39-12.6-35.67-6.3-38.15S1278.89,519.2,1280.47,523.35Z"/><path class="cls-39" d="M1337.14,520.86s17.89,29.4,5.8,36.68,13.09,8.1,16.24,6.44-18.89-38.15,0-40.63S1337.14,520.86,1337.14,520.86Z"/><path class="cls-39" d="M1409.56,520.86s-9.45,38.15-12.6,43.95,22,0,22,0-12.59-32.34,22-41.46S1409.56,520.86,1409.56,520.86Z"/><path class="cls-39" d="M1499.29,525.83c1.66,4.38,9.93,28.56,5.75,33.77s19.44,4.38,19.44,4.38-12.59-35.66-6.3-38.15S1497.72,521.69,1499.29,525.83Z"/><path class="cls-39" d="M1693,525.26c2.29,4.82,13.65,31.43,7.9,37.16s26.71,4.83,26.71,4.83-17.3-39.25-8.65-42S1690.79,520.69,1693,525.26Z"/><path class="cls-39" d="M1556,523.35s17.89,29.4,5.8,36.67,13.1,8.11,16.24,6.45-18.89-38.15,0-40.64S1556,523.35,1556,523.35Z"/><path class="cls-39" d="M1628.38,523.35s-9.44,38.15-12.59,43.95,22,0,22,0-12.6-32.34,22-41.47S1628.38,523.35,1628.38,523.35Z"/><path class="cls-42" d="M1269.45,557.35s410.88-2.49,429.77,0S1900.73,617.06,1914.9,627s-7.87,17.42-7.87,17.42-145.62-66.76-236.93-71.74-388.85-.83-406.16,9.12S1251.34,556.93,1269.45,557.35Z"/><path class="cls-42" d="M1245.83,433.78c-4.21,5.55-1.57,17.41,0,19.9s17.32-17.42,203.08-9.95,291.24,7.46,302.26,9.95,42.51-17.42,0-15.76c-34.52,1.35-258.76-3.22-362.08-5.8-23.89-.6-45.15-.88-51.95-1.66-22,.83-48.62-.18-68.22.35C1256.16,431.15,1247.08,432.14,1245.83,433.78Z"/><path class="cls-40" d="M1264.07,515.45s-10.33,9.24,0,12,351.14-1.63,416.55-.54,55.08-1.09,55.08-1.09,20.65-11.42,0-10.33-299.5,2.17-330.49,2.17S1267.51,512.73,1264.07,515.45Z"/><path class="cls-42" d="M1430.81,347.11c-44.47,30.12-66.65,88.71-66.65,88.71s338.74,14.23,357,11.28-25.84-123.21-154.93-116.58S1441.83,339.65,1430.81,347.11Z"/><path class="cls-43" d="M1445,357.06c-12.6,13.27-61.4,55.57-58.25,65.52s226.7,13.27,266,12.44,55.1.83,31.49-27.37-29.91-49.76-64.55-50.59-99.18-19.9-137-9.95Z"/><path class="cls-44" d="M1627.73,388.47c-4.08.08-7.43,1.54-8.51,3.5L1577,385.86c-6.19-.89-11.57-3-14.86-5.88a.86.86,0,0,0-.14-.13c-3.86-3.5-4.24-7.77-1.34-11.52l14.91-19.28a16,16,0,0,0,3.3.26c5.09-.09,9.07-2.35,8.88-5s-4.46-4.77-9.55-4.67-9.06,2.35-8.88,5a4.08,4.08,0,0,0,2.22,3l-21.94,9.08c-10.7,4.42-15,19.14-27.95,16.94l-39.35-16.72c2-.92,3.15-2.29,3-3.78-.18-2.68-4.46-4.78-9.55-4.68s-9.06,2.35-8.88,5,4.47,4.78,9.55,4.68a15,15,0,0,0,1.93-.15l10.1,14.82c4.57,6.69,26.54,12.86,18.66,18.64l-37.47,14.2c-1.57-1.63-4.85-2.73-8.56-2.66-5.09.1-9.06,2.35-8.88,5s4.47,4.77,9.56,4.68c4.4-.09,8-1.79,8.72-4l34.35-.56c6.1-.1,15.78-4.91,23.59-7.5,4.79-1.58,11.13-.21,12.54,2.67l.31,24.92c-4.33.47-7.53,2.52-7.36,4.93.18,2.68,4.46,4.77,9.55,4.68s9.06-2.35,8.88-5c-.15-2.13-2.88-3.89-6.54-4.47l13.57-17.27c3.6-6.52,20-9.28,32.27-11.41l27.65-4.82c1.28,2,4.9,3.37,9.06,3.29,5.09-.1,9.07-2.35,8.88-5S1632.82,388.37,1627.73,388.47Z"/><path class="cls-30" d="M95.32,768.32a1.34,1.34,0,0,1,1.08-.75,6.44,6.44,0,0,1,1-.05l.39,0c.58.15.63-.11.16-.8-.61,1.84,2.29,2.62,2.9.8.76-2.28-1.74-3-3.45-3s-3.76.53-4.65,2.28,1.72,3.24,2.59,1.52Z"/><path class="cls-30" d="M94.86,769.14a4.2,4.2,0,0,1,2.4-1.53c.16-.05,3.13-.48,3-.06-.69,1.81,2.21,2.59,2.89.8,1.09-2.88-2.14-4.18-4.42-4a8.21,8.21,0,0,0-6.43,3.28c-1.12,1.58,1.48,3.08,2.59,1.51Z"/><path class="cls-31" d="M149.9,653.91c-9-1.92-8.33,6.4-9,8.33s-3.84,21.77-5.76,33.3a13,13,0,0,1-10.06,11c1.58-15.07,3.29-30.68,4.3-34.71,1.92-7.68,3.84-35.86-1.93-39.06s-18.57-6.41-24.33,18.57c-1.82,7.89-2,22.17-1.35,38-5.66,1.08-16.75,1-17.22-15.61-.64-22.41,3.2-26.25,3.2-28.82s-21.13-17.93-17.93,9,15.37,37.78,21.77,39.7a35.9,35.9,0,0,0,10.47,1.95c1.68,32.94,6.18,69.78,6.18,69.78s10.89,2.56,9.61,0,2.56-20.49,3.84-28.18c.43-2.57,1.22-9.87,2.15-18.74,7,.78,20.8-17.66,25.39-22.24,5.12-5.13,7-25,9-29.46S158.86,655.83,149.9,653.91Z"/><path class="cls-32" d="M111.06,640.15a19.23,19.23,0,0,0-.68,3.83c-.07,1,1.43,1,1.5,0a16.71,16.71,0,0,1,.63-3.43.75.75,0,0,0-1.45-.4Z"/><path class="cls-32" d="M119.56,635a39.2,39.2,0,0,0-.39,7.26c0,1,1.54,1,1.5,0a36.61,36.61,0,0,1,.33-6.86c.14-.94-1.31-1.35-1.44-.4Z"/><path class="cls-32" d="M126.34,648.88l-.88,3.68c-.22.94,1.23,1.34,1.45.4l.87-3.68c.23-.94-1.22-1.34-1.44-.4Z"/><path class="cls-32" d="M114.69,648.91l-.68,4c-.16.95,1.28,1.35,1.45.4l.68-4c.16-.95-1.29-1.35-1.45-.4Z"/><path class="cls-32" d="M108.79,656.12a9.74,9.74,0,0,1,.1,2.8c-.1,1,1.4,1,1.5,0a10.68,10.68,0,0,0-.16-3.19c-.18-1-1.62-.55-1.44.39Z"/><path class="cls-32" d="M110.4,667.25v4.91a.75.75,0,0,0,1.5,0v-4.91a.75.75,0,0,0-1.5,0Z"/><path class="cls-32" d="M106.13,674.94v3.63a.75.75,0,0,0,1.5,0v-3.63a.75.75,0,0,0-1.5,0Z"/><path class="cls-32" d="M119.53,660a17.39,17.39,0,0,0-.71,8.1c.13.95,1.58.55,1.45-.4a15.87,15.87,0,0,1,.7-7.3c.31-.92-1.14-1.31-1.44-.4Z"/><path class="cls-32" d="M122.61,666l-.28,4.27c-.06,1,1.44,1,1.5,0l.28-4.27c.06-1-1.44-1-1.5,0Z"/><path class="cls-32" d="M117,684.33l-.86,5.34c-.16.94,1.29,1.35,1.44.4l.87-5.34c.15-.94-1.29-1.35-1.45-.4Z"/><path class="cls-32" d="M112.38,677.5l-.24,5.34c0,1,1.46,1,1.5,0l.24-5.34c.05-1-1.45-1-1.5,0Z"/><path class="cls-32" d="M107.84,688.17v4.91a.75.75,0,0,0,1.5,0v-4.91a.75.75,0,0,0-1.5,0Z"/><path class="cls-32" d="M122,676.87a11.37,11.37,0,0,0-.23,3.19c.08,1,1.58,1,1.5,0a9.67,9.67,0,0,1,.18-2.79c.2-.94-1.24-1.34-1.45-.4Z"/><path class="cls-32" d="M122.47,694.19a46.23,46.23,0,0,0-1.52,8.08c-.09,1,1.41,1,1.5,0a44.77,44.77,0,0,1,1.46-7.69.75.75,0,0,0-1.44-.39Z"/><path class="cls-32" d="M113,700.34a28.8,28.8,0,0,1-.61,5.78c-.2.94,1.25,1.35,1.44.4a31.35,31.35,0,0,0,.67-6.18.75.75,0,0,0-1.5,0Z"/><path class="cls-32" d="M108.06,710.37a76,76,0,0,0,0,8.54c.06,1,1.56,1,1.5,0a76,76,0,0,1,0-8.54c0-1-1.45-1-1.5,0Z"/><path class="cls-32" d="M115.72,714.64a26.82,26.82,0,0,0-.87,6c0,1,1.47,1,1.5,0a25,25,0,0,1,.81-5.58.75.75,0,0,0-1.44-.4Z"/><path class="cls-32" d="M118.32,719.76l.36,12a.75.75,0,0,0,1.5,0l-.36-12a.75.75,0,0,0-1.5,0Z"/><path class="cls-32" d="M108.68,724.67a35.16,35.16,0,0,0,.74,7.66c.2.95,1.65.55,1.45-.4a33.34,33.34,0,0,1-.69-7.26.75.75,0,0,0-1.5,0Z"/><path class="cls-32" d="M115.31,731.93c-.1,2.21-.08,4.41,0,6.62.06,1,1.56,1,1.5,0-.11-2.21-.13-4.41,0-6.62,0-1-1.46-1-1.5,0Z"/><path class="cls-32" d="M111.55,741.56l-.78,5.1c-.14,1,1.3,1.35,1.45.4L113,742c.15-1-1.3-1.35-1.44-.4Z"/><path class="cls-32" d="M114,745.8l-1,8.55c-.11.95,1.39.94,1.5,0l1-8.55c.12-1-1.38-.95-1.5,0Z"/><path class="cls-32" d="M126.74,707.85a25.15,25.15,0,0,0-.87,7.22.75.75,0,0,0,1.5,0,23.44,23.44,0,0,1,.82-6.82.75.75,0,0,0-1.45-.4Z"/><path class="cls-32" d="M134.21,704.88a7.67,7.67,0,0,0-1.39,2.94c-.22.94,1.22,1.34,1.44.4a6.76,6.76,0,0,1,1.24-2.59.75.75,0,0,0-.26-1,.77.77,0,0,0-1,.27Z"/><path class="cls-32" d="M138.21,686.25l-.49,7.47c-.06,1,1.44,1,1.5,0l.49-7.47c.06-1-1.44-1-1.5,0Z"/><path class="cls-32" d="M140.85,680.42a4.47,4.47,0,0,1,.43,4.09c-.33.91,1.11,1.3,1.45.4a5.92,5.92,0,0,0-.59-5.25c-.52-.81-1.82-.06-1.29.76Z"/><path class="cls-32" d="M143.13,668.08a6.65,6.65,0,0,1,1,3.66.75.75,0,0,0,1.5,0,8.11,8.11,0,0,0-1.23-4.42c-.51-.82-1.81-.06-1.3.76Z"/><path class="cls-32" d="M147.37,656.15l-.5,6.83c-.07,1,1.43,1,1.5,0l.5-6.83c.07-1-1.43-.95-1.5,0Z"/><path class="cls-32" d="M152.19,659.65a37.62,37.62,0,0,0-2.89,7,.75.75,0,0,0,1.45.4,36.14,36.14,0,0,1,2.73-6.63c.46-.85-.84-1.61-1.29-.75Z"/><path class="cls-32" d="M149.49,677.41a22.51,22.51,0,0,0,4.39-4.85c.55-.8-.75-1.55-1.29-.76a21.18,21.18,0,0,1-4.16,4.55c-.75.62.32,1.67,1.06,1.06Z"/><path class="cls-32" d="M145.56,689.92a25,25,0,0,0,4.41-7.28c.35-.9-1.1-1.29-1.45-.4a22.76,22.76,0,0,1-4,6.62c-.63.73.43,1.8,1.06,1.06Z"/><path class="cls-32" d="M139.75,701.58a8.53,8.53,0,0,1,3.12-4.74c.77-.59-.3-1.64-1.06-1.06a9.84,9.84,0,0,0-3.51,5.4.75.75,0,0,0,1.45.4Z"/><path class="cls-32" d="M75.51,649.3a25.61,25.61,0,0,1,2.17-7.48c.4-.87-.89-1.64-1.3-.76a27.14,27.14,0,0,0-2.32,7.84c-.13.94,1.32,1.35,1.45.4Z"/><path class="cls-32" d="M80.15,646.68a16.59,16.59,0,0,1,4-4.92c.74-.63-.32-1.68-1.06-1.06a17.68,17.68,0,0,0-4.24,5.22c-.46.85.84,1.61,1.29.76Z"/><path class="cls-32" d="M78.79,663.41a20.25,20.25,0,0,0-1.94-4c-.27-.41-2.68-3.26-2.6-3.37.58-.77-.72-1.52-1.29-.75-.83,1.11.41,2.12,1.1,2.9a17.66,17.66,0,0,1,3.28,5.62c.33.9,1.78.52,1.45-.4Z"/><path class="cls-32" d="M80.57,657.82A20.06,20.06,0,0,1,84,649.88c.57-.79-.73-1.54-1.29-.76a21,21,0,0,0-3.58,8.3c-.19.94,1.26,1.35,1.44.4Z"/><path class="cls-32" d="M81.14,678.78l.42-7.9c0-1-1.45-1-1.5,0l-.42,7.9c0,1,1.45,1,1.5,0Z"/><path class="cls-32" d="M84.87,685a21.54,21.54,0,0,1,.62-5.12c.22-.94-1.22-1.34-1.45-.4a23.36,23.36,0,0,0-.67,5.52.75.75,0,0,0,1.5,0Z"/><path class="cls-32" d="M96.32,691.45l-8.72-5.81c-.8-.54-1.55.76-.75,1.29l8.71,5.82c.81.54,1.56-.76.76-1.3Z"/><path class="cls-32" d="M100.16,692v-1.28a.75.75,0,0,0-1.5,0V692a.75.75,0,0,0,1.5,0Z"/><path class="cls-33" d="M87.14,770.46s9-17.93,17.29-1.92c0,0-1.28-16.65,4.48-10.24s5.13,7,5.13,7,6.4-16,11.52-7.68,7.05-1.29,7.69,1.92,11.52,5.12,3.84,9S89.06,772.38,87.14,770.46Z"/><path class="cls-30" d="M94.79,768.39a5.53,5.53,0,0,1,.29-1.64c-.4.15-.37.25.08.29l.74.28,3.72,1.37c1.82.67,2.6-2.23.8-2.89l-3.23-1.19a6.88,6.88,0,0,0-2.73-.72c-2.08.13-2.27,2.07-2.57,3.7-.34,1.89,2.55,2.7,2.9.8Z"/><path class="cls-30" d="M108.62,769.74c1-1.11,3.08-2.57,4.54-1.49s3-1.45,1.51-2.59c-2.53-1.89-6.35-.13-8.17,2-1.26,1.45.85,3.58,2.12,2.12Z"/><path class="cls-30" d="M124,765.44a1.76,1.76,0,0,1,3.45-.2c.56,1.84,3.46,1.06,2.89-.8a4.75,4.75,0,0,0-9.34,1c-.22,1.91,2.78,1.9,3,0Z"/><path class="cls-30" d="M1186.52,736.05a1.33,1.33,0,0,1,1.08-.75,6.24,6.24,0,0,1,1,0l.4,0c.58.15.63-.11.16-.8-.62,1.84,2.28,2.62,2.89.8.76-2.28-1.74-3-3.45-3s-3.75.53-4.64,2.28,1.72,3.24,2.59,1.52Z"/><path class="cls-30" d="M1186.05,736.87a4.23,4.23,0,0,1,2.4-1.53c.17-.05,3.13-.48,3-.06-.68,1.81,2.21,2.59,2.89.8,1.1-2.88-2.14-4.18-4.42-4a8.23,8.23,0,0,0-6.43,3.28c-1.12,1.58,1.48,3.08,2.59,1.51Z"/><path class="cls-31" d="M1241.09,621.64c-9-1.92-8.32,6.4-9,8.33s-3.84,21.77-5.77,33.3a13,13,0,0,1-10.06,11c1.59-15.07,3.29-30.68,4.3-34.71,1.92-7.68,3.84-35.86-1.92-39.06s-18.57-6.41-24.34,18.57c-1.82,7.89-2,22.17-1.34,38-5.66,1.08-16.75,1-17.23-15.61-.64-22.41,3.2-26.25,3.2-28.82s-21.13-17.93-17.93,9,15.37,37.78,21.78,39.71a36.08,36.08,0,0,0,10.46,1.94c1.68,32.94,6.19,69.78,6.19,69.78s10.88,2.56,9.6,0,2.56-20.49,3.85-28.18c.42-2.57,1.21-9.87,2.14-18.74,7,.79,20.81-17.66,25.39-22.24,5.13-5.13,7-25,9-29.46S1250.06,623.56,1241.09,621.64Z"/><path class="cls-32" d="M1202.26,607.88a17.9,17.9,0,0,0-.68,3.83c-.08,1,1.42,1,1.5,0a16.06,16.06,0,0,1,.63-3.43.75.75,0,0,0-1.45-.4Z"/><path class="cls-32" d="M1210.75,602.75a39.2,39.2,0,0,0-.39,7.26c.05,1,1.55,1,1.5,0a37.48,37.48,0,0,1,.34-6.86c.13-.94-1.31-1.35-1.45-.4Z"/><path class="cls-32" d="M1217.53,616.61l-.87,3.68c-.23.94,1.22,1.34,1.44.4L1219,617c.22-.94-1.23-1.34-1.45-.4Z"/><path class="cls-32" d="M1205.89,616.64l-.69,4.05c-.16.94,1.29,1.35,1.45.39l.68-4c.16-.95-1.28-1.35-1.44-.4Z"/><path class="cls-32" d="M1200,623.85a9.39,9.39,0,0,1,.1,2.8c-.09,1,1.41,1,1.5,0a11,11,0,0,0-.15-3.19c-.18-1-1.63-.55-1.45.39Z"/><path class="cls-32" d="M1201.6,635v4.91a.75.75,0,0,0,1.5,0V635a.75.75,0,0,0-1.5,0Z"/><path class="cls-32" d="M1197.33,642.67v3.63a.75.75,0,0,0,1.5,0v-3.63a.75.75,0,0,0-1.5,0Z"/><path class="cls-32" d="M1210.72,627.71a17.66,17.66,0,0,0-.71,8.1c.14,1,1.58.55,1.45-.4a15.88,15.88,0,0,1,.71-7.3c.3-.92-1.14-1.31-1.45-.4Z"/><path class="cls-32" d="M1213.8,633.7l-.28,4.27c-.06,1,1.44,1,1.5,0l.28-4.27c.06-1-1.44-1-1.5,0Z"/><path class="cls-32" d="M1208.19,652.06l-.87,5.34c-.15.94,1.29,1.35,1.45.4l.86-5.34c.16-.94-1.29-1.35-1.44-.4Z"/><path class="cls-32" d="M1203.58,645.23l-.25,5.34c0,1,1.46,1,1.5,0l.25-5.34c0-1-1.46-1-1.5,0Z"/><path class="cls-32" d="M1199,655.9v4.91a.75.75,0,0,0,1.5,0V655.9a.75.75,0,0,0-1.5,0Z"/><path class="cls-32" d="M1213.15,644.6a11,11,0,0,0-.23,3.19c.07,1,1.57,1,1.5,0a9.67,9.67,0,0,1,.18-2.79c.2-.94-1.25-1.34-1.45-.4Z"/><path class="cls-32" d="M1213.66,661.92a47.15,47.15,0,0,0-1.51,8.08c-.1,1,1.4,1,1.5,0a44.48,44.48,0,0,1,1.46-7.68.75.75,0,0,0-1.45-.4Z"/><path class="cls-32" d="M1204.18,668.07a28.8,28.8,0,0,1-.61,5.78c-.19.94,1.25,1.35,1.45.4a31.34,31.34,0,0,0,.66-6.18.75.75,0,0,0-1.5,0Z"/><path class="cls-32" d="M1199.25,678.1a76,76,0,0,0,0,8.54c.06,1,1.56,1,1.5,0a76,76,0,0,1,0-8.54c0-1-1.45-1-1.5,0Z"/><path class="cls-32" d="M1206.91,682.37a26.8,26.8,0,0,0-.86,6c0,1,1.47,1,1.5,0a25,25,0,0,1,.81-5.58.75.75,0,0,0-1.45-.4Z"/><path class="cls-32" d="M1209.52,687.49l.35,12a.75.75,0,0,0,1.5,0l-.35-12c0-1-1.53-1-1.5,0Z"/><path class="cls-32" d="M1199.87,692.4a35.17,35.17,0,0,0,.75,7.66c.19,1,1.64.55,1.44-.4a33.34,33.34,0,0,1-.69-7.26.75.75,0,0,0-1.5,0Z"/><path class="cls-32" d="M1206.5,699.66c-.09,2.21-.08,4.41,0,6.62,0,1,1.55,1,1.5,0-.12-2.21-.13-4.41,0-6.62,0-1-1.45-1-1.5,0Z"/><path class="cls-32" d="M1202.74,709.29l-.77,5.1c-.15,1,1.3,1.35,1.44.4l.78-5.1c.14-1-1.3-1.35-1.45-.4Z"/><path class="cls-32" d="M1205.16,713.53l-1,8.55c-.11.95,1.39.94,1.5,0l1-8.55c.11-1-1.39-.95-1.5,0Z"/><path class="cls-32" d="M1217.94,675.58a24.47,24.47,0,0,0-.87,7.22.75.75,0,0,0,1.5,0,23.09,23.09,0,0,1,.81-6.82.75.75,0,0,0-1.44-.4Z"/><path class="cls-32" d="M1225.4,672.61a7.81,7.81,0,0,0-1.39,2.94c-.22.94,1.23,1.34,1.45.4a6.76,6.76,0,0,1,1.24-2.59.74.74,0,0,0-.27-1,.77.77,0,0,0-1,.27Z"/><path class="cls-32" d="M1229.4,654l-.49,7.47c-.06,1,1.44,1,1.5,0l.49-7.47c.06-1-1.44-1-1.5,0Z"/><path class="cls-32" d="M1232,648.15a4.48,4.48,0,0,1,.43,4.1c-.33.9,1.12,1.29,1.45.39a5.91,5.91,0,0,0-.58-5.25c-.52-.81-1.82-.06-1.3.76Z"/><path class="cls-32" d="M1234.33,635.81a6.56,6.56,0,0,1,1,3.66.75.75,0,0,0,1.5,0,8.11,8.11,0,0,0-1.23-4.42c-.5-.82-1.8-.06-1.29.76Z"/><path class="cls-32" d="M1238.57,623.88l-.5,6.83c-.07,1,1.43,1,1.5,0l.5-6.83c.07-1-1.43-1-1.5,0Z"/><path class="cls-32" d="M1243.38,627.38a38.28,38.28,0,0,0-2.88,7c-.28.93,1.17,1.32,1.45.4a35.45,35.45,0,0,1,2.73-6.63c.45-.85-.84-1.61-1.3-.75Z"/><path class="cls-32" d="M1240.68,645.14a22.07,22.07,0,0,0,4.4-4.85c.54-.8-.76-1.55-1.3-.76a20.93,20.93,0,0,1-4.16,4.55c-.74.62.32,1.67,1.06,1.06Z"/><path class="cls-32" d="M1236.76,657.66a24.78,24.78,0,0,0,4.4-7.29c.35-.9-1.1-1.29-1.45-.4a22.33,22.33,0,0,1-4,6.62c-.63.73.43,1.8,1.07,1.07Z"/><path class="cls-32" d="M1230.94,669.31a8.6,8.6,0,0,1,3.13-4.74c.76-.58-.31-1.64-1.06-1.06a9.85,9.85,0,0,0-3.52,5.41.75.75,0,0,0,1.45.39Z"/><path class="cls-32" d="M1166.7,617a25.92,25.92,0,0,1,2.17-7.48c.41-.87-.89-1.64-1.29-.76a26.84,26.84,0,0,0-2.32,7.84c-.13.94,1.31,1.35,1.44.4Z"/><path class="cls-32" d="M1171.35,614.41a16.59,16.59,0,0,1,4-4.92c.74-.63-.33-1.68-1.06-1.06a17.87,17.87,0,0,0-4.25,5.22c-.45.86.84,1.61,1.3.76Z"/><path class="cls-32" d="M1170,631.15a19.53,19.53,0,0,0-1.94-4c-.26-.41-2.67-3.26-2.59-3.37.57-.77-.73-1.52-1.3-.75-.82,1.11.41,2.12,1.11,2.9a17.45,17.45,0,0,1,3.27,5.62c.33.9,1.78.52,1.45-.39Z"/><path class="cls-32" d="M1171.77,625.55a19.78,19.78,0,0,1,3.43-7.94c.56-.79-.74-1.54-1.3-.76a21.13,21.13,0,0,0-3.58,8.3c-.18.94,1.26,1.35,1.45.4Z"/><path class="cls-32" d="M1172.34,646.51l.41-7.9c0-1-1.45-1-1.5,0l-.41,7.9c0,1,1.45,1,1.5,0Z"/><path class="cls-32" d="M1176.06,652.7a22.14,22.14,0,0,1,.62-5.12c.23-.94-1.22-1.34-1.44-.4a23.37,23.37,0,0,0-.68,5.52.75.75,0,0,0,1.5,0Z"/><path class="cls-32" d="M1187.51,659.18l-8.71-5.81c-.81-.54-1.56.76-.76,1.29l8.72,5.82c.8.54,1.55-.76.75-1.3Z"/><path class="cls-32" d="M1191.36,659.74v-1.28a.75.75,0,0,0-1.5,0v1.28a.75.75,0,0,0,1.5,0Z"/><path class="cls-33" d="M1178.33,738.19s9-17.93,17.29-1.92c0,0-1.28-16.65,4.49-10.24s5.12,7,5.12,7,6.4-16,11.53-7.68,7-1.29,7.68,1.92,11.53,5.12,3.85,9S1180.26,740.11,1178.33,738.19Z"/><path class="cls-30" d="M1186,736.12a5.88,5.88,0,0,1,.3-1.64c-.4.15-.38.25.07.29l.75.28,3.72,1.37c1.81.67,2.59-2.23.8-2.89l-3.23-1.19a6.93,6.93,0,0,0-2.74-.72c-2.07.13-2.27,2.07-2.56,3.7-.34,1.89,2.55,2.7,2.89.8Z"/><path class="cls-30" d="M1199.82,737.47c1-1.11,3.08-2.57,4.53-1.49s3.05-1.44,1.52-2.59c-2.54-1.89-6.36-.13-8.18,2-1.26,1.45.86,3.58,2.13,2.12Z"/><path class="cls-30" d="M1215.23,733.17a1.76,1.76,0,0,1,3.45-.2c.57,1.84,3.47,1.06,2.89-.8a4.75,4.75,0,0,0-9.34,1c-.21,1.91,2.79,1.9,3,0Z"/><path class="cls-30" d="M785.53,690.58c.19-.36-.32.19-.09.06s0,0-.08,0h.35l.25,0c.46,0,.2-.2-.79-.72v-.8l0,.1a1.51,1.51,0,0,0,1.05,1.84A1.53,1.53,0,0,0,788,690a1.77,1.77,0,0,0-.5-1.83,2.52,2.52,0,0,0-1.74-.55,3,3,0,0,0-2.85,1.41,1.55,1.55,0,0,0,.54,2.06,1.52,1.52,0,0,0,2-.54Z"/><path class="cls-30" d="M785.33,690.94a1,1,0,0,1,.55-.29,2,2,0,0,1,.41-.08h.2c.56.06.44-.27-.35-1a1.52,1.52,0,0,0,1.05,1.85,1.54,1.54,0,0,0,1.85-1.05,2.08,2.08,0,0,0-.56-2.17,2.79,2.79,0,0,0-2.19-.65,4.53,4.53,0,0,0-3.55,1.85,1.52,1.52,0,0,0,.53,2.06,1.54,1.54,0,0,0,2.06-.54Z"/><path class="cls-31" d="M808.76,639.93c-3.93-.84-3.65,2.81-3.93,3.65s-1.69,9.56-2.53,14.62a5.72,5.72,0,0,1-4.42,4.84c.69-6.62,1.44-13.47,1.89-15.24.84-3.37,1.68-15.74-.85-17.15s-8.15-2.81-10.68,8.15c-.8,3.47-.87,9.74-.59,16.7-2.49.47-7.35.46-7.56-6.86-.28-9.84,1.4-11.52,1.4-12.65s-9.27-7.87-7.87,3.94,6.75,16.59,9.56,17.43a15.62,15.62,0,0,0,4.59.85c.74,14.46,2.72,30.64,2.72,30.64s4.78,1.12,4.22,0,1.12-9,1.68-12.37c.19-1.13.54-4.34.94-8.23,3.07.34,9.14-7.75,11.15-9.77,2.25-2.25,3.09-11,3.94-12.93S812.7,640.77,808.76,639.93Z"/><path class="cls-32" d="M791.31,633.78a9.08,9.08,0,0,0-.32,1.79c-.07,1,1.43,1,1.5,0a6.57,6.57,0,0,1,.27-1.39.75.75,0,0,0-1.45-.4Z"/><path class="cls-32" d="M795,631.53a17.21,17.21,0,0,0-.19,3.29c0,1,1.54,1,1.5,0a15.47,15.47,0,0,1,.13-2.89A.78.78,0,0,0,796,631a.75.75,0,0,0-.92.53Z"/><path class="cls-32" d="M798,637.61l-.38,1.61c-.22.94,1.22,1.34,1.45.4l.38-1.61c.22-.94-1.22-1.34-1.45-.4Z"/><path class="cls-32" d="M792.9,637.62l-.3,1.78c-.16.94,1.29,1.35,1.45.4l.3-1.78c.16-.94-1.29-1.35-1.45-.4Z"/><path class="cls-32" d="M790.31,641a4.2,4.2,0,0,1,0,1.12c-.09,1,1.41,1,1.5,0a5.55,5.55,0,0,0-.08-1.52c-.18-.94-1.62-.54-1.45.4Z"/><path class="cls-32" d="M791,645.79v2.15a.75.75,0,0,0,1.5,0v-2.15a.75.75,0,0,0-1.5,0Z"/><path class="cls-32" d="M789.13,649.16v1.59a.75.75,0,0,0,1.5,0v-1.59a.75.75,0,0,0-1.5,0Z"/><path class="cls-32" d="M795,642.48a8.21,8.21,0,0,0-.31,3.78c.14,1,1.58.55,1.45-.4a6.57,6.57,0,0,1,.31-3c.31-.92-1.14-1.31-1.45-.4Z"/><path class="cls-32" d="M796.36,645.22l-.12,1.88c-.06,1,1.44,1,1.5,0l.12-1.88c.06-1-1.44-1-1.5,0Z"/><path class="cls-32" d="M793.91,653.17l-.38,2.34a.79.79,0,0,0,.52.93.77.77,0,0,0,.93-.53l.38-2.34a.78.78,0,0,0-.53-.92.76.76,0,0,0-.92.52Z"/><path class="cls-32" d="M791.87,650.28l-.1,2.35c0,1,1.45,1,1.5,0l.1-2.35c0-1-1.45-1-1.5,0Z"/><path class="cls-32" d="M789.88,655v2.15a.75.75,0,0,0,1.5,0V655a.75.75,0,0,0-1.5,0Z"/><path class="cls-32" d="M796.09,649.9a5.89,5.89,0,0,0-.12,1.51c.07,1,1.57,1,1.5,0a4.12,4.12,0,0,1,.07-1.11c.19-.95-1.26-1.35-1.45-.4Z"/><path class="cls-32" d="M796.31,657.5a22.69,22.69,0,0,0-.68,3.66c-.09,1,1.41,1,1.5,0a19,19,0,0,1,.63-3.26.75.75,0,0,0-1.45-.4Z"/><path class="cls-32" d="M792.14,660.31a13.27,13.27,0,0,1-.25,2.43c-.2.94,1.24,1.34,1.44.4a14.18,14.18,0,0,0,.31-2.83.75.75,0,0,0-1.5,0Z"/><path class="cls-32" d="M790,664.72a35.89,35.89,0,0,0,0,3.74c.06,1,1.56,1,1.5,0a35.89,35.89,0,0,1,0-3.74c0-1-1.45-1-1.5,0Z"/><path class="cls-32" d="M793.35,666.48a12.57,12.57,0,0,0-.39,2.73.75.75,0,0,0,1.5,0,10.24,10.24,0,0,1,.34-2.33.75.75,0,0,0-1.45-.4Z"/><path class="cls-32" d="M794.48,668.84l.15,5.24a.75.75,0,0,0,1.5,0l-.15-5.24c0-1-1.53-1-1.5,0Z"/><path class="cls-32" d="M790.25,671a15.68,15.68,0,0,0,.34,3.48c.19.94,1.64.54,1.44-.4a13.85,13.85,0,0,1-.28-3.08.75.75,0,0,0-1.5,0Z"/><path class="cls-32" d="M793.16,674.18c0,1,0,1.94,0,2.9s1.55,1,1.5,0,0-1.93,0-2.9-1.46-1-1.5,0Z"/><path class="cls-32" d="M791.52,678.29l-.34,2.24a.78.78,0,0,0,.52.93.77.77,0,0,0,.93-.53l.34-2.24a.77.77,0,0,0-.53-.92.75.75,0,0,0-.92.52Z"/><path class="cls-32" d="M792.57,680.27l-.44,3.75c-.12,1,1.38,1,1.5,0l.44-3.75c.11-1-1.39-.95-1.5,0Z"/><path class="cls-32" d="M798.19,663.5a11.35,11.35,0,0,0-.4,3.28c0,1,1.53,1,1.5,0a10.09,10.09,0,0,1,.35-2.89.75.75,0,0,0-1.45-.39Z"/><path class="cls-32" d="M801.51,662.09a4,4,0,0,0-.65,1.39.75.75,0,0,0,1.44.4,2.69,2.69,0,0,1,.51-1,.76.76,0,0,0-.27-1,.77.77,0,0,0-1,.27Z"/><path class="cls-32" d="M803.21,654.13l-.22,3.28c-.06,1,1.44,1,1.5,0l.22-3.28c.06-1-1.44-1-1.5,0Z"/><path class="cls-32" d="M804.43,651.78a1.6,1.6,0,0,1,.14,1.47c-.33.91,1.12,1.3,1.45.4a3.05,3.05,0,0,0-.3-2.63c-.51-.81-1.81-.06-1.29.76Z"/><path class="cls-32" d="M805.43,646.36a2.54,2.54,0,0,1,.39,1.39.75.75,0,0,0,1.5,0,4.11,4.11,0,0,0-.6-2.15.75.75,0,0,0-1.29.76Z"/><path class="cls-32" d="M807.23,640.91l-.22,3c-.07,1,1.43,1,1.5,0l.22-3c.07-1-1.43-.95-1.5,0Z"/><path class="cls-32" d="M809.4,642.23a17.46,17.46,0,0,0-1.3,3.17.75.75,0,0,0,1.44.4A15.68,15.68,0,0,1,810.7,643c.45-.85-.84-1.61-1.3-.76Z"/><path class="cls-32" d="M808.88,650.54a10.54,10.54,0,0,0,2-2.21c.54-.8-.76-1.55-1.3-.76a8.89,8.89,0,0,1-1.76,1.91.75.75,0,0,0,1.06,1.06Z"/><path class="cls-32" d="M807.16,656a11.61,11.61,0,0,0,2-3.39c.35-.89-1.1-1.28-1.45-.39a9.29,9.29,0,0,1-1.66,2.72c-.63.72.43,1.79,1.07,1.06Z"/><path class="cls-32" d="M804.71,661a3.4,3.4,0,0,1,1.27-1.9.76.76,0,0,0,0-1.06.77.77,0,0,0-1.06,0,4.69,4.69,0,0,0-1.66,2.56.75.75,0,0,0,1.45.4Z"/><path class="cls-32" d="M776.51,638a11,11,0,0,1,.91-3.19c.41-.87-.89-1.63-1.29-.76a12,12,0,0,0-1.06,3.55c-.13.94,1.31,1.35,1.44.4Z"/><path class="cls-32" d="M778.51,637a6.94,6.94,0,0,1,1.69-2.08c.74-.62-.33-1.68-1.06-1.06a8.22,8.22,0,0,0-1.93,2.38c-.46.85.84,1.61,1.3.76Z"/><path class="cls-32" d="M778,644a9.64,9.64,0,0,0-.89-1.86c-.17-.25-.34-.49-.53-.72a4.11,4.11,0,0,0-.38-.45,1.29,1.29,0,0,0-.16-.17c-.14-.19-.16-.09-.07.29.57-.78-.73-1.53-1.3-.76s.12,1.3.55,1.79a7,7,0,0,1,1.33,2.28c.33.9,1.78.51,1.45-.4Z"/><path class="cls-32" d="M778.73,641.76a8.57,8.57,0,0,1,1.47-3.39c.56-.78-.74-1.53-1.3-.76a9.51,9.51,0,0,0-1.61,3.75c-.19.94,1.26,1.35,1.44.4Z"/><path class="cls-32" d="M779,650.85l.18-3.47c.05-1-1.45-1-1.5,0l-.18,3.47c0,1,1.45,1,1.5,0Z"/><path class="cls-32" d="M780.63,653.56a9.62,9.62,0,0,1,.26-2.13c.23-.94-1.22-1.34-1.44-.4a10.83,10.83,0,0,0-.32,2.53.75.75,0,0,0,1.5,0Z"/><path class="cls-32" d="M785.45,656.05l-3.82-2.56c-.81-.53-1.56.76-.76,1.3l3.83,2.55c.8.54,1.55-.76.75-1.29Z"/><path class="cls-32" d="M787.35,656.66v-.57a.75.75,0,0,0-1.5,0v.57a.75.75,0,0,0,1.5,0Z"/><path class="cls-33" d="M781.21,691.09s3.94-7.87,7.59-.84c0,0-.56-7.31,2-4.5s2.25,3.1,2.25,3.1,2.81-7,5.06-3.38,3.09-.56,3.37.85,5.06,2.24,1.69,3.93S782.05,691.94,781.21,691.09Z"/><path class="cls-30" d="M785.38,690.41l.08-.45,0-.18c0-.2,0-.13-.15.19l-.66.38c-.35,0-.44,0-.25,0l.3.1.54.21,1.2.44a1.5,1.5,0,0,0,.8-2.89,8.12,8.12,0,0,0-2.85-.87c-1.34,0-1.73,1.13-1.93,2.24a1.54,1.54,0,0,0,1,1.85,1.52,1.52,0,0,0,1.85-1.05Z"/><path class="cls-30" d="M791.24,691.37a1.76,1.76,0,0,1,.61-.49l.27-.07c.18,0,.2,0,0,0s-.11,0,0,.05a1.5,1.5,0,0,0,2-.54,1.54,1.54,0,0,0-.54-2c-1.4-1-3.58-.19-4.6,1a1.52,1.52,0,0,0,0,2.12,1.5,1.5,0,0,0,2.12,0Z"/><path class="cls-30" d="M798.25,688.89c0,.14-.17.32,0,.1a.17.17,0,0,1-.13.07l.1,0c-.18,0-.25-.14-.07,0-.21-.21,0,.13-.06,0a1.53,1.53,0,0,0,1.85,1,1.51,1.51,0,0,0,1-1.84,2.92,2.92,0,0,0-5.75.66,1.51,1.51,0,0,0,1.5,1.5,1.53,1.53,0,0,0,1.5-1.5Z"/><path class="cls-45" d="M1476.05,146.81c0-24.81-28.18-44.91-62.94-44.91-20.4,0-38.53,6.92-50,17.66-8.3-12.28-21.83-20.27-37.11-20.27-21.18,0-39,15.35-44.19,36.17a49.87,49.87,0,0,0-27.54-8.08c-25.25,0-45.72,17.94-45.72,40.06s20.47,40.06,45.72,40.06a50.25,50.25,0,0,0,24.14-6c4.67,18.29,25,32,49.38,32,21.19,0,39.33-10.41,46.77-25.14,8.12,11.15,22.36,18.55,38.58,18.55,25.25,0,45.72-17.94,45.72-40.06a35.21,35.21,0,0,0-1-8.44C1469.08,170.3,1476.05,159.13,1476.05,146.81Z"/><path class="cls-46" d="M1461,151.83c0-21.62-25-39.15-55.85-39.15-18.11,0-34.19,6-44.4,15.4a40,40,0,0,0-32.94-17.67c-18.79,0-34.6,13.37-39.21,31.53a44.79,44.79,0,0,0-24.43-7c-22.41,0-40.58,15.63-40.58,34.92s18.17,34.92,40.58,34.92a45.38,45.38,0,0,0,21.42-5.26c4.14,15.93,22.18,27.93,43.82,27.93,18.8,0,34.9-9.07,41.5-21.91,7.2,9.72,19.84,16.17,34.24,16.17,22.4,0,40.57-15.64,40.57-34.92a29.92,29.92,0,0,0-.91-7.36C1454.81,172.31,1461,162.58,1461,151.83Z"/><path class="cls-45" d="M1437.32,164.85c0-5-20.47-9-45.73-9-14.82,0-28,1.39-36.35,3.54-6-2.46-15.86-4.06-27-4.06-15.39,0-28.33,3.07-32.11,7.25a114,114,0,0,0-20-1.62c-18.35,0-33.22,3.59-33.22,8s14.87,8,33.22,8a119.46,119.46,0,0,0,17.54-1.21c3.39,3.67,18.16,6.43,35.87,6.43,15.4,0,28.57-2.09,34-5,5.9,2.23,16.25,3.71,28,3.71,18.35,0,33.22-3.59,33.22-8a2.57,2.57,0,0,0-.74-1.69C1432.26,169.56,1437.32,167.32,1437.32,164.85Z"/><path class="cls-45" d="M739.82,66.73c0-24.8-28.18-44.91-62.94-44.91-20.4,0-38.53,6.93-50,17.66-8.3-12.27-21.83-20.27-37.11-20.27-21.18,0-39,15.35-44.19,36.17A49.86,49.86,0,0,0,518,47.31c-25.26,0-45.73,17.93-45.73,40.05s20.47,40.06,45.73,40.06a50.42,50.42,0,0,0,24.14-6c4.66,18.28,25,32,49.37,32,21.2,0,39.33-10.4,46.77-25.14,8.12,11.15,22.37,18.55,38.58,18.55,25.26,0,45.73-17.93,45.73-40.06a35.78,35.78,0,0,0-1-8.44C732.86,90.23,739.82,79.06,739.82,66.73Z"/><path class="cls-46" d="M724.76,71.75c0-21.62-25-39.15-55.85-39.15-18.1,0-34.19,6-44.4,15.4a40,40,0,0,0-32.93-17.67c-18.8,0-34.6,13.38-39.22,31.53a44.79,44.79,0,0,0-24.43-7c-22.41,0-40.58,15.63-40.58,34.92s18.17,34.92,40.58,34.92a45.38,45.38,0,0,0,21.42-5.26c4.14,15.94,22.19,27.93,43.82,27.93,18.81,0,34.9-9.07,41.5-21.91,7.21,9.72,19.85,16.17,34.24,16.17,22.41,0,40.57-15.63,40.57-34.92a30.4,30.4,0,0,0-.9-7.36C718.58,92.23,724.76,82.5,724.76,71.75Z"/><path class="cls-45" d="M701.09,84.77c0-5-20.47-9-45.73-9-14.82,0-28,1.39-36.34,3.54-6-2.46-15.87-4.06-27-4.06-15.39,0-28.33,3.08-32.11,7.25a114,114,0,0,0-20-1.62c-18.35,0-33.22,3.6-33.22,8s14.87,8,33.22,8a120.86,120.86,0,0,0,17.54-1.21c3.39,3.66,18.16,6.42,35.87,6.42,15.4,0,28.58-2.09,34-5,5.9,2.24,16.25,3.72,28,3.72,18.35,0,33.22-3.6,33.22-8a2.52,2.52,0,0,0-.74-1.69C696,89.48,701.09,87.24,701.09,84.77Z"/><path class="cls-47" d="M1440.85,445.8s9.49.68,6.1,9.49-4.4,10.84-11.86,8.81-9.82-12.2-6.43-14.57,5.31-3.73,8.75-3.73"/><path class="cls-48" d="M1435,448.82s3.72-3.49,6.36,1.37,3.17,6.07-.41,8.21-8.89-1-8.71-3.25.28-3.6,1.52-5"/><path class="cls-49" d="M1308,1274.76s14.17,21.87,30.26,3.77,122.29-956.38,122.29-956.38-4.43-11.89-13.54-11-19.7,3.73-20,8.84-113.74,942.5-118.45,950.16S1308,1274.76,1308,1274.76Z"/><path class="cls-47" d="M1308.3,1269.1s5.89,20.55,15.13,1.88,120.71-945.91,120.71-945.91l-6.58-4.69s-10.22-4-10.68,1-115.18,935.45-118,943.22S1308.3,1269.1,1308.3,1269.1Z"/><path class="cls-50" d="M1154.55,428.14s263.22,2,281.51,0,37.61,8.13,37.61,8.13,19.31,2,27.44,0,20.32,12.2,29.47,10.16,46.75-6.16,52.85-9.18,40.65-4.1,58.94-5.08,49.8,0,60,0,18.29-6.1,15.24,0,.65,14.42.65,14.42h6.46a28,28,0,0,1,0,10c-1,5.08-9.14,14.23-11.17,18.29s15.24-9.15,22.35-10.16,2,34.55,0,38.62-58.94,14.23-64,16.26,51.83,4.06,55.89,5.08-1,23.37-1,23.37l-27.44,19.31,6.1,5.09-20.33,15.24h38.62L1716.56,609l-44.71,27.44s-234.77-10.16-247-7.11-9.14,10.16-37.6,7.11-90.45-3.05-108.74-5.08-44.72,6.57-51.84,5.83-10.16-15-10.16-15l-11.18-1L1201.3,603s-22.36-5.09-35.57-9.15-26.43-33.54-26.43-33.54l22.36-3L1139.3,545s3-13.22,5.08-17.28,70.13-3,70.13-3l-68.09-10.16,3-24.39,38.62-2-41.66-16.26S1139.29,428,1154.55,428.14Z"/><path class="cls-51" d="M1166.44,419.61s249.52,2.12,266.86,0,35.64,8.46,35.64,8.46,18.31,2.12,26,0,19.26,12.7,27.93,10.58,44.32-6.42,50.1-9.55,38.53-4.27,55.87-5.29,47.21,0,56.84,0,17.34-6.34,14.45,0,.62,15,.62,15h6.13a32.11,32.11,0,0,1,0,10.37c-1,5.29-8.67,14.81-10.6,19s14.45-9.52,21.2-10.58,1.92,36,0,40.2-55.88,14.8-60.7,16.92,49.13,4.23,53,5.29-1,24.33-1,24.33l-26,20.09,5.78,5.29-19.26,15.87h36.6l-6.74,22.21-42.39,28.56s-222.54-10.58-234.1-7.4-8.67,10.57-35.64,7.4-85.74-3.17-103.08-5.29-42.39,6.84-49.14,6.07-9.63-15.59-9.63-15.59l-10.6-1-3.85-19s-21.2-5.29-33.72-9.52-25-34.91-25-34.91l21.2-3.17-21.2-12.7s2.89-13.75,4.82-18,66.47-3.17,66.47-3.17l-64.54-10.58,2.89-25.38,36.6-2.12-39.49-16.92S1152,419.5,1166.44,419.61Z"/><path class="cls-52" d="M1150.48,432.21s263.22,2,281.52,0,37.6,8.13,37.6,8.13,19.31,2,27.44,0,20.33,12.19,29.47,10.16,46.75-6.17,52.85-9.18,40.66-4.1,59-5.08,49.8,0,60,0,18.29-6.1,15.25,0,.64,14.43.64,14.43h6.47a27.93,27.93,0,0,1,0,10c-1,5.08-9.15,14.23-11.18,18.3s15.24-9.15,22.36-10.17,2,34.56,0,38.62-59,14.23-64,16.26,51.83,4.07,55.9,5.09-1,23.37-1,23.37l-27.44,19.31,6.1,5.08L1681,591.77h38.62l-7.11,21.34-44.72,27.44s-234.77-10.16-247-7.12-9.15,10.17-37.6,7.12-90.46-3-108.75-5.08-44.72,6.57-51.83,5.82-10.16-15-10.16-15l-11.18-1L1197.23,607s-22.36-5.08-35.57-9.15-26.42-33.53-26.42-33.53l22.35-3.05-22.35-12.2s3-13.21,5.08-17.28,70.12-3,70.12-3l-68.09-10.17,3.05-24.39,38.62-2-41.67-16.26S1135.22,432.09,1150.48,432.21Z"/><polygon class="cls-53" points="1228.76 580.59 1360.88 580.59 1471.15 596.34 1619.53 596.34 1460.48 607.01 1350.21 588.21 1228.76 580.59"/><polygon class="cls-53" points="1250.11 464.22 1414.75 487.09 1457.43 475.65 1611.91 479.97 1450.83 464.22 1424.15 471.84 1250.11 464.22"/><path class="cls-53" d="M1228.76,524.18S1646,482.51,1650,484,1419.49,544.51,1228.76,524.18Z"/><polygon class="cls-53" points="1234.86 607.01 1339.54 617.17 1246.04 622.76 1234.86 607.01"/><path class="cls-54" d="M1440.84,438.1s-7.79-5.09-13.55,0-3.39,18.29,2.71,18.63,12.88-.68,14.23-6.1S1445.54,440,1440.84,438.1Z"/><path class="cls-55" d="M1438,442.45s-4.26-2.08-7.41,0-1.85,7.47,1.48,7.61,7-.28,7.78-2.49S1440.54,443.23,1438,442.45Z"/><path class="cls-47" d="M548.3,450.58s-9.49.68-6.1,9.49,4.4,10.84,11.85,8.81,9.83-12.2,6.44-14.57-5.32-3.73-8.76-3.73"/><path class="cls-48" d="M554.12,453.6s-3.72-3.49-6.36,1.37-3.17,6.07.41,8.22,8.89-1,8.71-3.26-.28-3.6-1.52-5"/><path class="cls-49" d="M681.14,1279.54s-14.18,21.87-30.26,3.77S528.59,326.93,528.59,326.93,533,315,542.13,316s19.7,3.73,20,8.85S675.87,1267.31,680.58,1275,681.14,1279.54,681.14,1279.54Z"/><path class="cls-47" d="M680.85,1273.88s-5.89,20.55-15.13,1.88S545,329.85,545,329.85l6.58-4.69s10.22-4,10.68,1,115.18,935.45,118,943.22S680.85,1273.88,680.85,1273.88Z"/><path class="cls-50" d="M834.6,432.92s-263.22,2-281.51,0-37.61,8.13-37.61,8.13-19.31,2-27.44,0-20.32,12.2-29.47,10.16-46.75-6.16-52.85-9.18-40.65-4.1-58.94-5.08-49.8,0-60,0-18.29-6.1-15.24,0-.65,14.42-.65,14.42h-6.47a28.27,28.27,0,0,0,0,10c1,5.08,9.15,14.23,11.18,18.29s-15.24-9.15-22.36-10.16-2,34.55,0,38.62,59,14.23,64,16.26-51.83,4.06-55.89,5.08,1,23.38,1,23.38l27.44,19.31-6.1,5.08,20.33,15.24H265.47l7.11,21.34,44.72,27.44s234.77-10.16,247-7.11,9.14,10.16,37.6,7.11,90.45-3,108.74-5.08,44.72,6.57,51.84,5.83,10.16-15,10.16-15l11.18-1,4.06-18.29s22.36-5.09,35.57-9.15S849.85,565,849.85,565l-22.36-3,22.36-12.19s-3.05-13.22-5.08-17.28-70.13-3-70.13-3l68.09-10.16-3.05-24.39-38.62-2,41.67-16.26S849.86,432.81,834.6,432.92Z"/><path class="cls-51" d="M822.71,424.39s-249.52,2.12-266.86,0-35.64,8.46-35.64,8.46-18.31,2.12-26,0-19.26,12.7-27.93,10.58-44.32-6.42-50.1-9.55-38.53-4.27-55.88-5.29-47.2,0-56.84,0-17.34-6.34-14.45,0-.61,15-.61,15h-6.13a32.11,32.11,0,0,0,0,10.37c1,5.29,8.67,14.81,10.6,19s-14.45-9.52-21.2-10.58-1.92,36,0,40.2,55.88,14.81,60.7,16.92-49.14,4.23-53,5.29,1,24.33,1,24.33l26,20.1-5.79,5.28,19.27,15.87H283.21L290,612.67l42.39,28.56s222.54-10.58,234.1-7.4,8.67,10.58,35.64,7.4,85.74-3.17,103.08-5.29,42.39,6.84,49.14,6.07,9.63-15.59,9.63-15.59l10.6-1,3.85-19s21.19-5.29,33.72-9.52,25-34.91,25-34.91L816,558.73l21.2-12.7s-2.89-13.75-4.82-18-66.47-3.17-66.47-3.17l64.54-10.58-2.89-25.38-36.61-2.12,39.5-16.92S837.17,424.28,822.71,424.39Z"/><path class="cls-52" d="M838.67,437s-263.23,2-281.52,0-37.6,8.13-37.6,8.13-19.31,2-27.44,0-20.33,12.19-29.48,10.16-46.75-6.17-52.84-9.18-40.66-4.1-59-5.08-49.8,0-60,0-18.3-6.1-15.25,0-.65,14.43-.65,14.43h-6.46a27.93,27.93,0,0,0,0,10c1,5.08,9.15,14.23,11.18,18.3s-15.25-9.15-22.36-10.17-2,34.56,0,38.62,59,14.23,64,16.26-51.83,4.07-55.9,5.09,1,23.37,1,23.37l27.44,19.31-6.1,5.08,20.33,15.25H269.54l7.11,21.34,44.72,27.44s234.76-10.16,247-7.11,9.15,10.16,37.6,7.11,90.46-3.05,108.75-5.08,44.72,6.57,51.83,5.82,10.16-15,10.16-15l11.18-1,4.07-18.3s22.36-5.08,35.57-9.15,26.42-33.53,26.42-33.53l-22.36-3.05,22.36-12.2s-3-13.21-5.08-17.28-70.12-3-70.12-3l68.09-10.17-3-24.39-38.62-2,41.67-16.26S853.93,436.88,838.67,437Z"/><polygon class="cls-53" points="760.38 585.37 628.26 585.37 518 601.12 369.62 601.12 528.67 611.79 638.94 592.99 760.38 585.37"/><polygon class="cls-53" points="739.04 469 574.4 491.87 531.72 480.43 377.24 484.75 538.32 469 565 476.62 739.04 469"/><path class="cls-53" d="M760.39,529s-417.2-41.67-421.26-40.14S569.66,549.29,760.39,529Z"/><polygon class="cls-53" points="754.29 611.79 649.61 621.96 743.11 627.54 754.29 611.79"/><path class="cls-54" d="M548.31,442.88s7.79-5.09,13.55,0,3.38,18.29-2.71,18.63-12.88-.68-14.23-6.1S543.61,444.8,548.31,442.88Z"/><path class="cls-55" d="M551.18,447.23s4.26-2.08,7.41,0,1.85,7.47-1.48,7.61-7-.28-7.78-2.49S548.61,448,551.18,447.23Z"/><text class="cls-56" transform="translate(359.95 551.05)">Old <tspan class="cls-57" x="132.19" y="0">T</tspan><tspan x="167.36" y="0">own</tspan></text><text class="cls-58" transform="translate(1310.11 548.66)">Duellen</text></svg>
