<svg id="Layer_1" data-name="Layer 1" xmlns="http://www.w3.org/2000/svg" viewBox="0 0 1920 1080"><defs><style>.cls-1{fill:#ff0808;}.cls-2{fill:#3d221d;}.cls-3{fill:#efb27b;}.cls-4{fill:#4c322b;}.cls-5{fill:#492920;}.cls-6{fill:#7c4735;}.cls-10,.cls-23,.cls-7{fill:none;stroke-miterlimit:10;}.cls-7{stroke:#000;}.cls-8{fill:#b7aea1;}.cls-9{fill:#720f35;}.cls-10{stroke:#492920;}.cls-11{fill:#4c2b22;}.cls-12{fill:#1ce82b;}.cls-13{fill:#19f4e9;}.cls-14{fill:#f9a003;}.cls-15{fill:#f706db;}.cls-16{fill:#88fff1;}.cls-17{fill:#264c14;}.cls-18{fill:#93542a;}.cls-19{fill:#f7c6a4;}.cls-20{fill:#367c1d;}.cls-21{fill:#96a362;}.cls-22{fill:#a01227;}.cls-23{stroke:#bfd8b4;}.cls-24{fill:#fff;}.cls-25{fill:#39440c;}.cls-26{fill:#2c5b18;}.cls-27{fill:#198df7;}.cls-28{fill:#f9ff8a;}.cls-29{fill:#ff8c3e;}.cls-30{fill:#f9c0ff;}</style></defs><title>spritesheet</title><g id="_1step" data-name=" 1step"><rect class="cls-1" x="-0.56" y="-10.66" width="381.4" height="544.86"/><path class="cls-2" d="M96.18,222.18l36.94,23.3a10.18,10.18,0,0,0,1.23,4.47,9.74,9.74,0,0,0,2,2.52h0s6.54,8.65,13.49,8.34A63.34,63.34,0,0,1,142.1,255a9.66,9.66,0,0,0,2.28-.09c1.79,1.82,3.85,3.27,5.8,2.23a38.15,38.15,0,0,1-4.3-2.57,9.4,9.4,0,0,0,1.51-.62c2,1.23,4.5,2.32,5.89.27a49.81,49.81,0,0,1-5-.8,9.78,9.78,0,0,0,2.18-1.93c1.8.11,3.62-.12,4-1.48a10.7,10.7,0,0,1-2.82-.31,9.86,9.86,0,0,0,1.09-4c1.77-.14,3.39-.37,3.34-1.34a18.44,18.44,0,0,1-3.44-.64,10,10,0,0,0-1.09-3.27,9.81,9.81,0,0,0-10.8-4.77L102.48,211.5C95.73,207.24,89.42,217.91,96.18,222.18Z"/><path class="cls-2" d="M46.06,295.1c4.69,3.11,12.33-.21,17.08-7.39,3.59-5.45,4.5-11.49,2.72-15.49q16.4-24.89,32.85-49.71a7.67,7.67,0,0,0,4.36-2.18,7.75,7.75,0,0,0,.42-10.5,7.8,7.8,0,0,1,5.06-.84c.58-1.74-4.87-1.16-7.11-.86a6.16,6.16,0,0,0-.68-.34l2.67-5.37c-3.27,0-5.37,2.51-6.62,4.72a8.86,8.86,0,0,0-1.25.23l.57-10.79c-2.9,1.75-4.36,10.4-4.92,13.89a7.25,7.25,0,0,0-.47.75l-4.13-11c-1.82,1.82,1.93,11.23,3.27,14.33a7.66,7.66,0,0,0,.24,2.24L56,268.43a19.57,19.57,0,0,0-9.8,8C41.43,283.65,41.38,292,46.06,295.1Z"/><ellipse class="cls-3" cx="53.84" cy="282.68" rx="10.57" ry="6.66" transform="translate(-200.67 148.4) rotate(-51.4)"/><path class="cls-2" d="M220.09,435.51l-26.5-35.62a5.67,5.67,0,1,0-7.06,3.79,5.76,5.76,0,0,0,2.3.2l26.29,35.36Z"/><path class="cls-2" d="M240.45,419.42s-17.73,2.38-20.71,13.66h0a4.36,4.36,0,1,0,1.93,5.91,5.13,5.13,0,0,0,.41-1.33Z"/><path class="cls-2" d="M191.35,394.53l-29.94-26.34a10.24,10.24,0,0,0,0-5,10.12,10.12,0,0,0-1.56-3.44l.14-.13s.18-8.88-6.15-10.81a40,40,0,0,1,3.49,8.42,9.47,9.47,0,0,0-1.69-1c-.72-2.33-2.64-7.44-5.52-7.4,0,0,4.09,6,3.27,6.53s-1.8-6.27-5.79-4.79a47.1,47.1,0,0,1,2.87,4.77,12,12,0,0,0-1.46.24c-1.59-1.77-3.84-4.16-5.67-2.09a14.22,14.22,0,0,1,3.55,2.86,9.9,9.9,0,0,0-2.75,2,4.47,4.47,0,0,0-4.13,1.26s1.37.26,2.67.63a10.54,10.54,0,0,0-1.46,4.13c-1.35,1.2-2.51,2.76-2.23,4.71a20.75,20.75,0,0,1,2.61-.37,10.33,10.33,0,0,0,12.34,7,9.59,9.59,0,0,0,1.4-.47l29.93,26.33Z"/><path class="cls-4" d="M204.13,106.22c-1.09-3.68-13.56-24-22.59-27.69s-18.07-3.68-19.19,2.78,2.25,19.38,9,22.15S204.13,106.22,204.13,106.22Z"/><path class="cls-5" d="M72.92,385.73a59.81,59.81,0,0,1-3.74,9c-7.91-6.77-27.75-8.41-7.91,6.77,8.31,2.66,20.13,3.27,18.88-6.36C77.57,391.45,72.92,385.73,72.92,385.73Z"/><path class="cls-6" d="M201.31,412.78c-18.05,1.15-62.12,15-76.8,11.3s-75.09-9.59-51.38-89,44.05-128.29,45.17-143.06,7.91-65.52,9-68.29S155.57,73,216.55,109c13.55,10.16,23.71,27.69,28.24,39.69s19.19,41.54,16.93,49.84-3.39,12.93-23.71,7.39-48.56-8.31-31.6,21.23,28.23,24,30.51,21.23,23.71-22.16,33.88-8.32,7.9,28.62,14.68,37.85c2.11,2.86,10.66,9.94,21.15,19.71,23.21,21.63,55.86,56.48,48.86,88.27C345.28,432,245.34,410,201.31,412.78Z"/><path class="cls-3" d="M288.32,322.88c-3.43,5.14-6.16,12.63-10.59,16.84s-44.3,18.76-33.05,45.16,28.28,28.09,47,30.17C312,417.31,379,408,353.88,356.78s-52.69-50.28-55.4-48.64-7.58,2.1-8.87,8.42Z"/><ellipse cx="348.67" cy="382.19" rx="3.39" ry="6.46"/><ellipse cx="237.44" cy="147.29" rx="3.96" ry="6.92"/><path class="cls-7" d="M239.17,168.06c-5.64,7.39-9,16.62,0,14.77a34.62,34.62,0,0,1,5.65-.61c6.2-.24,10.06.44,5.65-6.77-5.64-9.23-4.52-12.92-7.91-10.15Z"/><path class="cls-7" d="M244.79,179.14c0,1.85,2.25,7.38,0,8.31s-5.66.92-6.78-.93"/><path class="cls-8" d="M250.43,210.52c-4.21,5.15-6.78,8.3-13.56,3.69s2.3-12.92,4.48-13.85S252.69,207.75,250.43,210.52Z"/><path class="cls-8" d="M225.59,197.6c3.26,2.69,1.08,11.08,0,12.92s-10.17,3.69-13.56,0-6.77-12.92-2.26-13.84S222.2,194.83,225.59,197.6Z"/><path class="cls-9" d="M259.46,240.05c-3.38-2.77-16.94-13.84-30.51-12.91s-21.38,4.61-21.38,8.3,7.9,24.92,23.71,20.3S262.85,242.82,259.46,240.05Z"/><line class="cls-7" x1="228.97" y1="242.82" x2="238.01" y2="228.05"/><path class="cls-3" d="M208.66,181c-11.29,9.23-22,9.34-20.89,59,.57,27.17,9.17,40,33.88,39.51,9.09-.16,22-5.64,30.51-10.15s29.93-12.71,24.28-21-10.89-10.9-15.61-11.94-23.91,12.85-29.56,12.85-44.06-30.74-29.35-44.3,48.88,9.44,49.85,3.34,11.13.36,10-9.81a71.48,71.48,0,0,0-3.47-14.93C255,174,249.06,163.32,239.17,157c-9,2.77-13.54,12.92-19.19,18.46S208.66,181,208.66,181Z"/><path class="cls-7" d="M255.52,185.81s.85,8.62-5.79-4.72"/><path d="M261.7,201.31s-.25,13.08-29.2,2.72-32.9,5-33.78,6.37c-2,2.51,21.8,39.78,31.91,37.52,18.53-4.56,18.71-10.73,24.88-11.86s9.63-.66,11.86.8-3.43,13.88-24.88,16.14-28.23,1.09-38.39-14.68-14.68-38.39-5.65-44,38.39,0,42.91,1.09,18.07,1.09,19.19,3.39S260.55,199.31,261.7,201.31Z"/><path class="cls-6" d="M146.55,138.53A303.56,303.56,0,0,1,124,115.47c-4.51-5.53-10.16-25.83,11.3-28.6s37.25,24.92,37.25,24.92Z"/><path class="cls-3" d="M162.35,112.69s-10.17-13.84-21.46-12-6.78,11.08-6.78,12,11.35,12.92,12.44,11.08S163.47,114.54,162.35,112.69Z"/><path class="cls-5" d="M222.61,136.18c-6.77-3.93-13.57,0-16.08-.76-2.85,1.56-8.21,4,3.46,5s11.35,3.38,14.49,2.72S225.44,137.86,222.61,136.18Z"/><path class="cls-5" d="M228.06,135.75c.55-3,4.24-3.61,4.73-4.53,1.51-.26,4.16-.94.94,2.51s-2.18,4.08-3.47,4.72S227.83,137,228.06,135.75Z"/><ellipse cx="222.76" cy="153.03" rx="7.12" ry="5.08" transform="translate(-42.96 202.34) rotate(-45)"/><path d="M241.88,163.83c.65.46,7.77,5.61,10.24,12.07a11.07,11.07,0,0,1,.77,3.55c-.09,2-1.83.24-3.17,1.64-.89.92-.44,2-1.46,2.33-.18.05-1.78.53-3.18-1.52-1.09-1.53-1.09-3.12-2.39-8.23-1.67-6.47-3.27-9.87-2.5-10.55C240.39,162.93,240.74,163,241.88,163.83Z"/><path class="cls-7" d="M249.86,179a19.7,19.7,0,0,0,2.26,7.9c2.26,4.52-4.51,3.39-4.51,1.09"/><path class="cls-10" d="M117.53,343.43l-20.88-3.77,13.08,14-2.9,24.15,14.75-19.14-2.18,31,12.94-12.8s8.23.14,9.89,2-2.61-9.8-2.61-9.8"/><polyline class="cls-10" points="171.95 178.47 167.43 199.93 162.91 185.25 160.65 210.08 155 192.02 155 224.76 148.23 208.96"/><path class="cls-1" d="M167.25,262.64c8.35,0,8.36-13,0-13S158.88,262.64,167.25,262.64Z"/><path class="cls-1" d="M178.27,375.59c8.35,0,8.36-13,0-13S169.91,375.59,178.27,375.59Z"/><path class="cls-11" d="M111.39,439.93l36.25-25.64a5.67,5.67,0,1,0-3.61-7.16,5.77,5.77,0,0,0-.26,2.3l-36,25.43Z"/><path class="cls-11" d="M138.21,440.89s-14-11.17-24.16-5.45h0A4.48,4.48,0,1,0,111,441a4.52,4.52,0,0,0,1.4-.67Z"/><path class="cls-11" d="M153.52,411.79l22.89-32.62a10.29,10.29,0,0,0,8.26-2.46l.14.13s8.85-.78,10.08-7.29a39.11,39.11,0,0,1-8,4.36,9,9,0,0,0,.77-1.78c2.24-1,7.11-3.44,6.76-6.29,0,0-5.45,4.71-6.17,3.92s6-2.46,4.14-6.28a42.71,42.71,0,0,1-4.43,3.37,12.11,12.11,0,0,0-.39-1.43c1.59-1.76,3.71-4.26,1.47-5.86a14.21,14.21,0,0,1-2.46,3.84,10.45,10.45,0,0,0-2.26-2.52,4.45,4.45,0,0,0-1.68-4s-.1,1.4-.34,2.72a10.28,10.28,0,0,0-4.26-1c-1.34-1.22-3-2.18-4.92-1.71a20.72,20.72,0,0,1,.65,2.55,10.33,10.33,0,0,0-5.62,13.08,9.56,9.56,0,0,0,.62,1.34L145.9,406.47Z"/><path class="cls-11" d="M263.08,207.39c-4.61-3.2-12.32,0-17.23,7-3.69,5.34-4.74,11.39-3,15.42l-33.89,49a7.72,7.72,0,0,0-6.74,8.61,7.6,7.6,0,0,0,1.68,3.95,7.63,7.63,0,0,1-5.07.73c-.62,1.74,4.84,1.28,7.07,1a7.55,7.55,0,0,0,.69.37l-2.79,5.29c3.27.07,5.45-2.38,6.72-4.57a6.66,6.66,0,0,0,1.25-.21l-.79,10.78c2.94-1.68,4.63-10.3,5.21-13.78a7.84,7.84,0,0,0,.48-.74l3.88,11.06c1.86-1.78-1.68-11.26-2.92-14.39a8.1,8.1,0,0,0-.2-2.25l35.19-50.88a19.57,19.57,0,0,0,10-7.82C267.51,218.93,267.7,210.6,263.08,207.39Z"/><path class="cls-11" d="M212.28,282.61,177.11,256.7a9.75,9.75,0,0,0-.9-4.54,9.64,9.64,0,0,0-1.84-2.67h0s-5.93-9.1-12.85-9.29a62.08,62.08,0,0,1,7.33,6.41,9.15,9.15,0,0,0-2.28-.07c-1.65-2-3.6-3.6-5.62-2.65a41.71,41.71,0,0,1,4.1,2.86,10.9,10.9,0,0,0-1.55.53c-1.95-1.39-4.36-2.65-5.86-.71,0,0,2.4.42,4.93,1.16a9.19,9.19,0,0,0-2.32,1.78c-1.78-.25-3.62-.14-4.1,1.18a11.07,11.07,0,0,1,2.79.51,9.82,9.82,0,0,0-1.35,3.89c-1.79,0-3.41.12-3.44,1.09a18.79,18.79,0,0,1,3.39.89,9.67,9.67,0,0,0,.89,3.38A9.79,9.79,0,0,0,168.84,266l36.39,26.81C211.65,297.53,218.72,287.35,212.28,282.61Z"/></g><g id="_2step" data-name=" 2step"><rect class="cls-12" x="380.84" y="-10.66" width="381.4" height="544.86"/><path class="cls-2" d="M473.7,224l43.68-.61a9.72,9.72,0,0,0,3.46,3.07,9.62,9.62,0,0,0,3.08,1h0s10.22,3.69,15.86-.35a60.85,60.85,0,0,1-9.72-.67,10.18,10.18,0,0,0,1.87-1.32c2.49.56,5,.69,6.08-1.29a39.74,39.74,0,0,1-5,.19,10.19,10.19,0,0,0,.91-1.34c2.39-.08,5.05-.5,5.1-3a47.62,47.62,0,0,1-4.62,2,10.1,10.1,0,0,0,.77-2.81c1.57-.88,3-2.07,2.57-3.42a11.18,11.18,0,0,1-2.54,1.27,9.86,9.86,0,0,0-1.28-3.91c1.42-1.09,2.65-2.18,2.09-2.94a19.87,19.87,0,0,1-3.27,1.34,9.8,9.8,0,0,0-13.84-.82c-.19.17-.37.34-.55.53l-45.19.58C465.2,211.69,465.72,224.08,473.7,224Z"/><path class="cls-2" d="M445,308.6c5.38,1.6,11.72-3.81,14.17-12.08,1.84-6.22.93-12.29-1.92-15.59l16.86-57.15a7.72,7.72,0,0,0,.88-13.52,7.66,7.66,0,0,1,4.59-2.28c0-1.84-5,.31-7,1.25a6.53,6.53,0,0,0-.77-.14l1-5.9c-3.12,1-4.42,4-4.95,6.45a6.37,6.37,0,0,0-1.09.59l-2.62-10.49c-2.26,2.52-1.18,11.23-.64,14.71-.09.28-.16.57-.22.85L456,206c-1.21,2.28,5.12,10.18,7.28,12.76a7.39,7.39,0,0,0,.89,2.06l-17.52,59.35a19.49,19.49,0,0,0-7.05,10.54C437.21,299,439.6,307,445,308.6Z"/><ellipse class="cls-3" cx="448.79" cy="294.46" rx="10.57" ry="6.66" transform="translate(9.8 603.34) rotate(-68.4)"/><path class="cls-2" d="M605.71,403.16,577.78,368.6a5.66,5.66,0,1,0-4.58,4.17l27.7,34.28Z"/><path class="cls-2" d="M622.76,384.11s-17.44,3.85-19.44,15.35h0a4.36,4.36,0,1,0,2.41,5.72,4.55,4.55,0,0,0,.3-1.35Z"/><path class="cls-2" d="M575.24,363.29,543,339.78a10.48,10.48,0,0,0-.43-5,10.26,10.26,0,0,0-1.88-3.27l.14-.14s-.63-8.87-7.11-10.21a39.42,39.42,0,0,1,4.24,8.05,11.87,11.87,0,0,0-1.78-.81c-.93-2.24-3.27-7.16-6.17-6.86,0,0,4.61,5.58,3.82,6.23s-2.36-6.09-6.2-4.25a48,48,0,0,1,3.26,4.49,12,12,0,0,0-1.43.37c-1.75-1.62-4.2-3.79-5.83-1.57a14.19,14.19,0,0,1,3.79,2.53,10.29,10.29,0,0,0-2.56,2.18,4.49,4.49,0,0,0-4,1.61s1.39.13,2.72.4a10.36,10.36,0,0,0-1.09,4.23,5.47,5.47,0,0,0-1.8,4.9,19.18,19.18,0,0,1,2.57-.61,10.33,10.33,0,0,0,12.93,5.85,10,10,0,0,0,1.35-.59l32.2,23.49Z"/><path class="cls-4" d="M585.53,79C584.44,75.3,572,55,562.94,51.29s-18.07-3.68-19.19,2.78,2.26,19.37,9,22.14S585.53,79,585.53,79Z"/><path class="cls-5" d="M454.32,358.48a58.44,58.44,0,0,1-3.73,9c-7.91-6.76-27.74-8.4-7.91,6.78,8.31,2.66,20.14,3.27,18.88-6.36C459,364.2,454.32,358.48,454.32,358.48Z"/><path class="cls-6" d="M582.71,385.54c-18.05,1.14-62.12,15-76.79,11.3s-75.1-9.59-51.38-89,44-128.3,45.16-143.06,7.92-65.53,9-68.3S537,45.73,598,81.75c13.55,10.15,23.72,27.69,28.24,39.69s19.19,41.54,16.93,49.84-3.39,12.92-23.71,7.39-48.56-8.32-31.6,21.23,28.23,24,30.51,21.22S642,199,652.2,212.81s7.9,28.61,14.68,37.84c2.11,2.87,10.67,9.94,21.15,19.72,23.21,21.63,55.86,56.48,48.86,88.27C726.68,404.78,626.74,382.77,582.71,385.54Z"/><path class="cls-3" d="M669.72,295.64c-3.43,5.14-6.15,12.63-10.59,16.83s-44.3,18.77-33,45.16,28.28,28.1,47,30.18c20.32,2.25,87.35-7.06,62.23-58.27s-52.69-50.28-55.4-48.65-7.57,2.11-8.87,8.43Z"/><ellipse cx="730.07" cy="354.95" rx="3.39" ry="6.46"/><ellipse cx="618.84" cy="120.05" rx="3.96" ry="6.92"/><path class="cls-7" d="M620.58,140.82c-5.65,7.39-9,16.62,0,14.77a34.5,34.5,0,0,1,5.64-.61c6.2-.24,10.06.43,5.66-6.77-5.65-9.23-4.53-12.92-7.91-10.16Z"/><path class="cls-7" d="M626.19,151.89c0,1.86,2.25,7.39,0,8.32s-5.66.91-6.78-.93"/><path class="cls-8" d="M631.83,183.28c-4.2,5.15-6.77,8.3-13.55,3.69s2.3-12.92,4.48-13.85S634.09,180.51,631.83,183.28Z"/><path class="cls-8" d="M607,170.35c3.27,2.69,1.09,11.09,0,12.93s-10.17,3.69-13.56,0-6.77-12.93-2.25-13.84S603.6,167.59,607,170.35Z"/><path class="cls-9" d="M640.87,212.81c-3.39-2.77-17-13.84-30.52-12.91S589,204.51,589,208.2s7.9,24.92,23.72,20.3S644.26,215.58,640.87,212.81Z"/><line class="cls-7" x1="610.38" y1="215.58" x2="619.41" y2="200.81"/><path class="cls-3" d="M590.06,153.75c-11.29,9.23-22,9.33-20.89,59,.57,27.16,9.17,40,33.88,39.51,9.09-.16,22-5.65,30.52-10.16s29.92-12.7,24.27-21S647,210.23,642.23,209.19,618.32,222,612.68,222s-44.07-30.74-29.36-44.3,48.88,9.44,49.85,3.34,11.13.36,10-9.81a71.5,71.5,0,0,0-3.48-14.93c-3.27-9.59-9.23-20.26-19.11-26.6-9,2.77-13.55,12.91-19.19,18.46S590.06,153.75,590.06,153.75Z"/><path class="cls-7" d="M636.92,158.56s.85,8.62-5.78-4.72"/><path d="M643.1,174.07s-.25,13.08-29.19,2.71-32.91,5-33.78,6.38c-2,2.5,21.79,39.77,31.9,37.52,18.53-4.56,18.71-10.74,24.88-11.86s9.63-.66,11.86.8-3.42,13.88-24.88,16.13-28.22,1.09-38.39-14.67-14.68-38.39-5.65-44,38.39,0,42.92,1.09,18.06,1.09,19.19,3.39S642,172.06,643.1,174.07Z"/><path class="cls-6" d="M528,111.29a305.46,305.46,0,0,1-22.6-23.06c-4.51-5.53-10.16-25.84,11.3-28.6s37.26,24.9,37.26,24.9Z"/><path class="cls-3" d="M543.75,85.44s-10.17-13.84-21.46-12-6.77,11.08-6.77,12S526.86,98.37,528,96.52,544.87,87.29,543.75,85.44Z"/><path class="cls-5" d="M604,108.94c-6.76-3.94-13.56,0-16.08-.77-2.85,1.56-8.21,4,3.46,5s11.35,3.38,14.5,2.71S606.85,110.61,604,108.94Z"/><path class="cls-5" d="M609.46,108.51c.56-3,4.24-3.62,4.73-4.53,1.52-.26,4.16-.94.94,2.5s-2.18,4.09-3.47,4.72S609.23,109.78,609.46,108.51Z"/><ellipse cx="604.17" cy="125.79" rx="7.12" ry="5.08" transform="translate(88.01 464.05) rotate(-45)"/><path d="M623.28,136.58c.65.47,7.77,5.61,10.24,12.08a11.35,11.35,0,0,1,.78,3.55c-.1,2-1.83.24-3.18,1.63-.89.93-.44,2-1.46,2.34-.18,0-1.78.53-3.18-1.52-1.09-1.54-1.09-3.13-2.38-8.24-1.68-6.46-3.27-9.86-2.51-10.55C621.8,135.69,622.15,135.75,623.28,136.58Z"/><path class="cls-7" d="M631.27,151.8a19.57,19.57,0,0,0,2.25,7.9c2.26,4.52-4.51,3.38-4.51,1.09"/><path class="cls-10" d="M498.93,316.19l-20.88-3.77,13.08,14-2.9,24.14L503,331.47l-2.23,31,12.94-12.81s8.22.15,9.89,2-2.62-9.81-2.62-9.81"/><polyline class="cls-10" points="553.35 151.23 548.83 172.69 544.32 158.01 542.05 182.84 536.41 164.77 536.41 197.52 529.64 181.72"/><path class="cls-1" d="M548.65,235.4c8.35,0,8.36-13,0-13S540.29,235.4,548.65,235.4Z"/><path class="cls-1" d="M559.67,348.35c8.35,0,8.36-13,0-13S551.31,348.35,559.67,348.35Z"/><path class="cls-11" d="M509.61,426.44l24.94-36.78a5.61,5.61,0,0,0,4.7-2.81,5.68,5.68,0,1,0-10-.37L504.48,423Z"/><path class="cls-11" d="M530,441.46S523.25,425,511.6,425h0a4.36,4.36,0,1,0-5.22,3.36,4.64,4.64,0,0,0,1.39.06Z"/><path class="cls-11" d="M538.63,386.5,558.71,352a10.22,10.22,0,0,0,5-1,9.73,9.73,0,0,0,3.06-2.18l.16.12s8.71-1.54,9.42-8.12a38.94,38.94,0,0,1-7.63,5,11.17,11.17,0,0,0,.62-1.85c2.18-1.16,6.78-4,6.19-6.83,0,0-5.06,5.15-5.8,4.43s5.82-3,3.59-6.6a45.47,45.47,0,0,1-4.13,3.72,11.43,11.43,0,0,0-.51-1.38c1.44-1.91,3.33-4.57,1-6a13.8,13.8,0,0,1-2.13,4,10.2,10.2,0,0,0-2.45-2.32,4.46,4.46,0,0,0-2-3.84s0,1.4-.11,2.74a10.28,10.28,0,0,0-4.36-.63c-1.45-1.09-3.19-1.93-5.06-1.29a18.36,18.36,0,0,1,.87,2.49,10.3,10.3,0,0,0-4.5,13.45,10.2,10.2,0,0,0,.73,1.29l-20.07,34.43Z"/><path class="cls-11" d="M666.09,226.91c-2.44-5.06-10.71-6.12-18.47-2.37-5.84,2.83-9.73,7.57-10.25,11.9l-53.65,25.94a7.61,7.61,0,0,0-4.87-.36,7.76,7.76,0,0,0-5.73,8.81,7.71,7.71,0,0,1-4.76-1.88c-1.4,1.21,3.58,3.5,5.65,4.36a6.52,6.52,0,0,0,.42.65l-5,3.27c2.8,1.66,5.9.6,8.1-.67a7.17,7.17,0,0,0,1.2.44l-6,9c3.38,0,9.11-6.67,11.33-9.41.26-.12.52-.26.77-.4l-2.07,11.48c2.5-.63,4.1-10.63,4.55-14a7.63,7.63,0,0,0,.94-2.05l55.7-26.91a19.57,19.57,0,0,0,12.55-1.89C664.22,239.11,668.52,232,666.09,226.91Z"/><path class="cls-11" d="M584.13,267.24l-26.16-35a9.76,9.76,0,0,0,.45-4.61,10.18,10.18,0,0,0-1-3.08h0s-3-10.43-9.64-12.61a59.89,59.89,0,0,1,5.18,8.26,9.83,9.83,0,0,0-2.18-.74c-1-2.34-2.41-4.47-4.62-4.15a39,39,0,0,1,3.09,3.93,11,11,0,0,0-1.62,0c-1.47-1.88-3.38-3.77-5.45-2.36a46.37,46.37,0,0,1,4.36,2.54,9.52,9.52,0,0,0-2.72,1c-1.64-.74-3.44-1.18-4.27,0a11.46,11.46,0,0,1,2.51,1.29,10.24,10.24,0,0,0-2.41,3.34c-1.71-.5-3.26-.86-3.6.05a19.36,19.36,0,0,1,3,1.83,9.82,9.82,0,0,0,7.49,11.68c.25,0,.51.1.76.13l27.09,36.17C579.17,281.35,589,273.64,584.13,267.24Z"/></g><g id="step3"><rect class="cls-13" x="762.24" y="-11.75" width="381.4" height="544.86"/><path class="cls-2" d="M857.8,250.94l42.39-10.51a9.79,9.79,0,0,0,7.3,2.5h0s10.79,1.25,15.36-4a61.4,61.4,0,0,1-9.62,1.55,9.55,9.55,0,0,0,1.53-1.71c2.55,0,5-.47,5.62-2.63a40.07,40.07,0,0,1-4.83,1.32,9.26,9.26,0,0,0,.59-1.51c2.31-.62,4.8-1.65,4.28-4.07,0,0-1.85,1.57-4,3a9.8,9.8,0,0,0,.11-2.91c1.33-1.22,2.43-2.7,1.71-3.91A11.15,11.15,0,0,1,916,230a9.91,9.91,0,0,0-2.18-3.52c1.09-1.38,2.09-2.71,1.36-3.34a19.12,19.12,0,0,1-2.85,2,9.81,9.81,0,0,0-13.67,2.37c-.14.2-.28.41-.41.63L854.41,239C846.72,240.91,850,252.86,857.8,250.94Z"/><path class="cls-2" d="M875.57,337.78c5.45-1.26,8.36-9.07,6.44-17.44-1.44-6.33-5.2-11.18-9.31-12.66l-13.24-58.17a7.75,7.75,0,0,0-5.85-12.23,7.62,7.62,0,0,1,2.89-4.22c-.87-1.64-4.22,2.71-5.54,4.53-.25.08-.49.16-.73.26l-2-5.63c-2.25,2.35-1.91,5.61-1.17,8a6.42,6.42,0,0,0-.68,1.09l-7.43-7.87c-.74,3.27,4.47,10.37,6.65,13.14a8.15,8.15,0,0,0,.22.85L835,242.87c.07,2.59,9.45,6.38,12.6,7.63a7.63,7.63,0,0,0,1.79,1.36q6.9,30.17,13.78,60.32a19.57,19.57,0,0,0-1,12.65C864.13,333.19,870.12,339,875.57,337.78Z"/><ellipse class="cls-3" cx="871.98" cy="323.62" rx="6.66" ry="10.57" transform="translate(-35.53 119.91) rotate(-7.71)"/><path class="cls-2" d="M976.62,428.61,951.85,391.7a5.66,5.66,0,1,0-7.24,3.43,5.76,5.76,0,0,0,2.29.32l24.57,36.6Z"/><path class="cls-2" d="M989.57,405.51s-16.4,7.14-16.13,18.81h0a4.36,4.36,0,1,0,3.46,5.15,4.06,4.06,0,0,0,0-1.39Z"/><path class="cls-2" d="M950.3,386.65,923.75,356.9a10.37,10.37,0,0,0-.5-8.61l.16-.11s1.24-8.8-4.81-11.47a38.84,38.84,0,0,1,2.44,8.72,11.07,11.07,0,0,0-1.56-1.16c-.44-2.39-1.72-7.69-4.58-8,0,0,3.33,6.42,2.42,6.9s-1-6.46-5.18-5.45a45.36,45.36,0,0,1,2.27,5.09,12,12,0,0,0-1.47.06c-1.36-1.95-3.27-4.59-5.37-2.76a14.06,14.06,0,0,1,3.17,3.27,10.19,10.19,0,0,0-3,1.61,4.47,4.47,0,0,0-4.27.73s1.33.43,2.57,1a10.47,10.47,0,0,0-2,3.92c-1.49,1.09-2.82,2.43-2.79,4.36a21.15,21.15,0,0,1,2.64-.05,10.33,10.33,0,0,0,11.41,8.44,14.3,14.3,0,0,0,1.45-.29l26.53,29.74Z"/><path class="cls-4" d="M966.93,94.24c-1.09-3.69-13.55-24-22.59-27.69s-18.06-3.69-19.19,2.78,2.26,19.37,9,22.14S966.93,94.24,966.93,94.24Z"/><path class="cls-5" d="M835.72,373.74a58.44,58.44,0,0,1-3.73,9c-7.91-6.77-27.74-8.4-7.91,6.78,8.32,2.66,20.14,3.27,18.89-6.37C840.37,379.46,835.72,373.74,835.72,373.74Z"/><path class="cls-6" d="M964.11,400.8c-18.05,1.14-62.11,15-76.79,11.3s-75.09-9.59-51.38-89,44-128.29,45.17-143.06,7.91-65.52,9-68.29S918.38,61,979.36,97c13.54,10.16,23.71,27.69,28.23,39.69s19.19,41.54,16.93,49.85-3.38,12.92-23.71,7.38-48.56-8.31-31.6,21.23,28.24,24,30.51,21.23,23.71-22.15,33.88-8.32,7.9,28.62,14.68,37.85c2.11,2.87,10.67,9.94,21.15,19.71,23.21,21.63,55.86,56.48,48.86,88.27C1108.08,420,1008.15,398,964.11,400.8Z"/><path class="cls-3" d="M1051.12,310.89c-3.43,5.15-6.15,12.63-10.59,16.84s-44.29,18.77-33,45.16,28.28,28.09,47,30.17c20.32,2.26,87.35-7.06,62.23-58.26s-52.69-50.28-55.4-48.65-7.57,2.1-8.87,8.42Z"/><ellipse cx="1111.47" cy="370.21" rx="3.39" ry="6.46"/><ellipse cx="1000.25" cy="135.31" rx="3.96" ry="6.92"/><path class="cls-7" d="M1002,156.08c-5.65,7.39-9,16.62,0,14.76a35.64,35.64,0,0,1,5.64-.61c6.2-.24,10.06.44,5.66-6.76-5.65-9.23-4.52-12.93-7.91-10.16Z"/><path class="cls-7" d="M1007.59,167.15c0,1.85,2.26,7.39,0,8.31s-5.66.92-6.78-.92"/><path class="cls-8" d="M1013.24,198.53c-4.21,5.16-6.78,8.31-13.56,3.7s2.3-12.93,4.48-13.85S1015.49,195.77,1013.24,198.53Z"/><path class="cls-8" d="M988.39,185.61c3.27,2.69,1.09,11.08,0,12.92s-10.17,3.7-13.56,0-6.76-12.92-2.25-13.84S985,182.84,988.39,185.61Z"/><path class="cls-9" d="M1022.27,228.06c-3.39-2.76-16.95-13.83-30.51-12.91s-21.38,4.61-21.38,8.31,7.9,24.92,23.71,20.3S1025.66,230.83,1022.27,228.06Z"/><line class="cls-7" x1="991.78" y1="230.83" x2="1000.81" y2="216.07"/><path class="cls-3" d="M971.47,169c-11.29,9.23-22,9.34-20.89,59,.56,27.17,9.16,40,33.88,39.52,9.08-.17,22-5.65,30.51-10.16s29.92-12.71,24.28-21-10.9-10.9-15.62-11.93-23.91,12.84-29.55,12.84S950,206.55,964.72,193s48.89,9.43,49.86,3.33,11.12.36,10-9.81a71.41,71.41,0,0,0-3.48-14.92c-3.27-9.59-9.23-20.26-19.11-26.6-9,2.76-13.55,12.91-19.19,18.46S971.47,169,971.47,169Z"/><path class="cls-7" d="M1018.32,173.82s.85,8.62-5.78-4.72"/><path d="M1024.5,189.33s-.25,13.07-29.19,2.71-32.91,5-33.78,6.37c-2,2.51,21.79,39.78,31.91,37.52,18.52-4.55,18.71-10.73,24.87-11.85s9.64-.67,11.86.79-3.42,13.88-24.88,16.14-28.22,1.09-38.39-14.68-14.68-38.39-5.64-44,38.39,0,42.91,1.09,18.07,1.09,19.19,3.39S1023.36,187.32,1024.5,189.33Z"/><path class="cls-6" d="M909.35,126.55a307.35,307.35,0,0,1-22.6-23.06c-4.51-5.54-10.15-25.84,11.3-28.61S935.31,99.8,935.31,99.8Z"/><path class="cls-3" d="M925.15,100.7S915,86.86,903.7,88.71s-6.78,11.08-6.78,12,11.34,12.92,12.43,11.08S926.28,102.55,925.15,100.7Z"/><path class="cls-5" d="M985.41,124.19c-6.76-3.93-13.56,0-16.08-.76-2.84,1.56-8.21,4,3.47,5s11.34,3.37,14.49,2.71S988.25,125.87,985.41,124.19Z"/><path class="cls-5" d="M990.86,123.77c.56-3,4.24-3.62,4.73-4.54,1.52-.26,4.17-.93.94,2.51s-2.18,4.09-3.47,4.72S990.63,125,990.86,123.77Z"/><ellipse cx="985.56" cy="141.05" rx="7.12" ry="5.08" transform="translate(188.93 738.21) rotate(-45)"/><path d="M1004.68,151.84c.65.47,7.77,5.61,10.24,12.07a11.2,11.2,0,0,1,.78,3.56c-.1,2-1.83.24-3.17,1.63-.9.93-.45,2-1.46,2.33-.19.06-1.79.54-3.19-1.51-1.09-1.54-1.09-3.13-2.38-8.24-1.68-6.46-3.27-9.86-2.51-10.55C1003.2,151,1003.55,151,1004.68,151.84Z"/><path class="cls-7" d="M1012.67,167.05a19.48,19.48,0,0,0,2.25,7.9c2.26,4.52-4.51,3.39-4.51,1.09"/><path class="cls-10" d="M880.33,331.45l-20.88-3.77,13.08,14-2.9,24.15,14.76-19.14-2.24,31,12.94-12.81s8.23.14,9.89,2-2.61-9.81-2.61-9.81"/><polyline class="cls-10" points="934.75 166.49 930.23 187.94 925.72 173.26 923.45 198.1 917.81 180.03 917.81 212.78 911.03 196.97"/><path class="cls-1" d="M930.06,250.65c8.34,0,8.35-13,0-13S921.69,250.65,930.06,250.65Z"/><path class="cls-1" d="M941.07,363.6c8.35,0,8.36-13,0-13S932.72,363.6,941.07,363.6Z"/><path class="cls-11" d="M880.71,417.33l43.71-8a5.65,5.65,0,1,0-1.46-6l-43.36,7.91Z"/><path class="cls-11" d="M877,442.39s11.1-14,5.36-24.19h0a4.36,4.36,0,1,0-5.45-2.91,4.53,4.53,0,0,0,.63,1.24Z"/><path class="cls-11" d="M933.72,405.74,943,367a10.27,10.27,0,0,0,6.78-5.34l.18.08s7.94-4,6.67-10.5a38.57,38.57,0,0,1-5.79,7,9.79,9.79,0,0,0,.06-1.95c1.71-1.72,5.33-5.8,4-8.33,0,0-3.37,6.4-4.29,5.92s4.72-4.52,1.54-7.37a44.63,44.63,0,0,1-2.89,4.78,9.38,9.38,0,0,0-.88-1.19c.83-2.18,1.87-5.33-.81-6a14,14,0,0,1-.87,4.47,10,10,0,0,0-3-1.51,4.4,4.4,0,0,0-3-3.09s.42,1.33.7,2.64a10.3,10.3,0,0,0-4.36.65c-1.7-.63-3.6-.93-5.21.23a19.65,19.65,0,0,1,1.56,2.18,10.32,10.32,0,0,0-.42,14.16,10.62,10.62,0,0,0,1.09,1l-9.27,38.76Z"/><path class="cls-11" d="M1052.59,272.94c-.8-5.57-8.36-9.08-16.9-7.85-6.41.93-11.56,4.29-13.37,8.26l-59,8.51a7.73,7.73,0,0,0-12.66,4.85,7.64,7.64,0,0,1-4-3.27c-1.7.73,2.36,4.42,4.07,5.89a6.21,6.21,0,0,0,.2.74l-5.79,1.57c2.18,2.43,5.45,2.35,7.93,1.81a7.69,7.69,0,0,0,1,.77L945.71,301c3.26,1,10.69-3.61,13.63-5.56a6.45,6.45,0,0,0,.86-.15l-5.45,10.37c2.57.15,7.1-8.9,8.55-12a8.25,8.25,0,0,0,1.51-1.67l61.24-8.85a19.53,19.53,0,0,0,12.53,2C1047.11,284,1053.38,278.5,1052.59,272.94Z"/><path class="cls-11" d="M962,285.47l-23-37.13a9.5,9.5,0,0,0,.84-4.55,10.06,10.06,0,0,0-.7-3.16h0S937,230,930.66,227.23a60.41,60.41,0,0,1,4.43,8.71A9.49,9.49,0,0,0,933,235c-.81-2.42-2-4.68-4.23-4.55a41.3,41.3,0,0,1,2.74,4.19,9.84,9.84,0,0,0-1.63-.09c-1.29-2-3-4.06-5.18-2.84a50.59,50.59,0,0,1,4.14,2.91,10,10,0,0,0-2.82.79c-1.55-.89-3.26-1.48-4.25-.43a11.28,11.28,0,0,1,2.4,1.51,10.17,10.17,0,0,0-2.69,3.11c-1.67-.65-3.27-1.16-3.6-.27a18.12,18.12,0,0,1,2.82,2.1,9.79,9.79,0,0,0,6.51,12.24c.22.07.44.13.67.18l23.82,38.41C955.88,299.09,966.24,292.26,962,285.47Z"/></g><g id="step4"><rect class="cls-14" x="1143.64" y="-10.66" width="381.4" height="544.86"/><path class="cls-2" d="M1256.58,286.28,1287,254.89a9.72,9.72,0,0,0,7.51-1.76h0s9.81-4.65,10.9-11.5a61.36,61.36,0,0,1-7.34,6.42,10.1,10.1,0,0,0,.4-2.26c2.17-1.37,4-3.08,3.36-5.2a42,42,0,0,1-3.39,3.67,10.75,10.75,0,0,0-.3-1.6c1.62-1.75,3.19-3.94,1.48-5.71,0,0-.74,2.31-1.82,4.71a9.44,9.44,0,0,0-1.45-2.52c.48-1.74.63-3.58-.62-4.23a11.15,11.15,0,0,1-.88,2.69,10.22,10.22,0,0,0-3.68-1.85c.23-1.77.34-3.4-.62-3.56a18.23,18.23,0,0,1-1.33,3.27,9.75,9.75,0,0,0-10.33,9.14,8.42,8.42,0,0,0,0,.87L1247.39,278C1241.86,283.66,1251,292,1256.58,286.28Z"/><path class="cls-2" d="M1331.55,332.7c2.93-4.8-.65-12.31-8-16.8-5.53-3.38-11.64-4.08-15.56-2.18l-50.88-31a7.73,7.73,0,0,0-8.94-6.28,7.82,7.82,0,0,0-3.89,1.92,7.68,7.68,0,0,1-1-5c-1.76-.52-1,4.9-.6,7.13a6.29,6.29,0,0,0-.32.7l-5.45-2.48c.12,3.27,2.69,5.29,4.94,6.44a6.57,6.57,0,0,0,.29,1.24l-10.81-.17c1.85,2.84,10.55,4,14,4.41a8.46,8.46,0,0,0,.77.44l-10.82,4.51c1.89,1.75,11.16-2.33,14.16-3.75a7.29,7.29,0,0,0,2.18-.33l52.83,32.21a19.63,19.63,0,0,0,8.39,9.53C1320.29,337.78,1328.62,337.49,1331.55,332.7Z"/><ellipse class="cls-3" cx="1318.84" cy="325.34" rx="6.66" ry="10.57" transform="translate(272.54 1191.62) rotate(-53.48)"/><path class="cls-2" d="M1359.41,437.73l-20.56-39.4a5.68,5.68,0,1,0-7.59,2.61,5.78,5.78,0,0,0,2.27.58L1354,440.59Z"/><path class="cls-2" d="M1384.35,440.7S1370,430,1360,436h0a4.44,4.44,0,1,0-2.85,5.59,4.3,4.3,0,0,0,1.31-.68Z"/><path class="cls-2" d="M1336.86,392.17l-31.08-25a10.3,10.3,0,0,0-1.91-8.41l.15-.13s-.22-8.88-6.63-10.53a39.14,39.14,0,0,1,3.85,8.24,11,11,0,0,0-1.74-.9c-.81-2.27-3-7.3-5.83-7.13,0,0,4.36,5.77,3.52,6.39s-2.08-6.19-6-4.53a44.87,44.87,0,0,1,3.07,4.64,10.4,10.4,0,0,0-1.45.31c-1.65-1.71-4-4-5.75-1.84a14.06,14.06,0,0,1,3.67,2.69,10.33,10.33,0,0,0-2.66,2.09,4.44,4.44,0,0,0-4.09,1.42s1.37.19,2.69.51a10.29,10.29,0,0,0-1.28,4.18c-1.3,1.27-2.38,2.87-2,4.81a20.74,20.74,0,0,1,2.59-.49,10.32,10.32,0,0,0,12.63,6.46,9.59,9.59,0,0,0,1.38-.53l31.06,25Z"/><path class="cls-4" d="M1348.34,106.22c-1.09-3.68-13.56-24-22.59-27.69s-18.07-3.68-19.19,2.78,2.25,19.38,9,22.15S1348.34,106.22,1348.34,106.22Z"/><path class="cls-5" d="M1217.12,385.73a60.27,60.27,0,0,1-3.72,9c-7.92-6.77-27.75-8.41-7.92,6.77,8.32,2.66,20.14,3.27,18.89-6.36C1221.77,391.45,1217.12,385.73,1217.12,385.73Z"/><path class="cls-6" d="M1345.51,412.78c-18,1.15-62.11,15-76.79,11.3s-75.09-9.59-51.38-89,44.05-128.29,45.17-143.06,7.91-65.52,9-68.29S1299.78,73,1360.76,109c13.54,10.16,23.71,27.69,28.23,39.69s19.19,41.54,16.94,49.84-3.39,12.93-23.72,7.39-48.55-8.31-31.6,21.23,28.24,24,30.51,21.23,23.72-22.16,33.88-8.32,7.9,28.62,14.68,37.85c2.12,2.86,10.67,9.94,21.15,19.71,23.22,21.63,55.86,56.48,48.87,88.27C1489.49,432,1389.55,410,1345.51,412.78Z"/><path class="cls-3" d="M1432.53,322.88c-3.44,5.14-6.16,12.63-10.6,16.84s-44.29,18.72-33,45.16,28.26,28.09,47,30.17c20.32,2.26,87.35-7.06,62.23-58.27s-52.68-50.28-55.4-48.64-7.62,2.1-8.87,8.42Z"/><ellipse cx="1492.88" cy="382.19" rx="3.39" ry="6.46"/><ellipse cx="1381.65" cy="147.29" rx="3.96" ry="6.92"/><path class="cls-7" d="M1383.38,168.06c-5.64,7.39-9,16.62,0,14.77a34.51,34.51,0,0,1,5.65-.61c6.2-.24,10,.44,5.65-6.77-5.64-9.23-4.52-12.92-7.91-10.15Z"/><path class="cls-7" d="M1389,179.14c0,1.85,2.26,7.38,0,8.31s-5.65.92-6.78-.93"/><path class="cls-8" d="M1394.64,210.52c-4.21,5.15-6.78,8.3-13.56,3.69s2.26-12.92,4.52-13.85S1396.89,207.75,1394.64,210.52Z"/><path class="cls-8" d="M1369.79,197.6c3.27,2.69,1.09,11.08,0,12.92s-10.17,3.69-13.55,0-6.77-12.92-2.26-13.84S1366.4,194.83,1369.79,197.6Z"/><path class="cls-9" d="M1403.67,240.05c-3.39-2.77-16.94-13.84-30.51-12.91s-21.38,4.61-21.38,8.3,7.9,24.92,23.71,20.3S1407.06,242.82,1403.67,240.05Z"/><line class="cls-7" x1="1373.18" y1="242.82" x2="1382.21" y2="228.05"/><path class="cls-3" d="M1352.87,181c-11.29,9.23-22,9.34-20.89,59,.57,27.17,9.16,40,33.88,39.51,9.09-.16,22-5.64,30.51-10.15s29.92-12.71,24.28-21-10.9-10.9-15.62-11.94-23.91,12.85-29.55,12.85-44.07-30.74-29.36-44.3,48.89,9.44,49.86,3.34,11.12.36,10-9.81a70.87,70.87,0,0,0-3.48-14.93c-3.26-9.59-9.23-20.26-19.11-26.6-9,2.77-13.54,12.92-19.19,18.46S1352.87,181,1352.87,181Z"/><path class="cls-7" d="M1399.73,185.81s.85,8.62-5.79-4.72"/><path d="M1405.91,201.31s-.26,13.08-29.2,2.72-32.91,5-33.78,6.37c-2,2.51,21.79,39.78,31.91,37.52,18.52-4.56,18.71-10.73,24.88-11.86s9.63-.66,11.85.8-3.42,13.88-24.88,16.14-28.22,1.09-38.39-14.68-14.68-38.39-5.64-44,38.39,0,42.91,1.09,18.07,1.09,19.19,3.39S1404.76,199.31,1405.91,201.31Z"/><path class="cls-6" d="M1290.75,138.53a307.38,307.38,0,0,1-22.6-23.06c-4.51-5.53-10.15-25.83,11.3-28.6s37.26,24.92,37.26,24.92Z"/><path class="cls-3" d="M1306.56,112.69s-10.17-13.84-21.46-12-6.78,11.08-6.78,12,11.34,12.92,12.43,11.08S1307.68,114.54,1306.56,112.69Z"/><path class="cls-5" d="M1366.82,136.18c-6.77-3.93-13.57,0-16.09-.76-2.84,1.56-8.2,4,3.47,5s11.34,3.38,14.49,2.72S1369.65,137.86,1366.82,136.18Z"/><path class="cls-5" d="M1372.27,135.75c.55-3,4.23-3.61,4.72-4.53,1.52-.26,4.17-.94.94,2.51s-2.18,4.08-3.46,4.72S1372,137,1372.27,135.75Z"/><ellipse cx="1366.97" cy="153.03" rx="7.12" ry="5.08" transform="translate(292.17 1011.42) rotate(-45)"/><path d="M1386.08,163.83c.66.46,7.77,5.61,10.25,12.07a11.07,11.07,0,0,1,.77,3.55c-.1,2-1.83.24-3.17,1.64-.89.92-.45,2-1.46,2.33-.19.05-1.79.53-3.18-1.52-1.09-1.53-1.09-3.12-2.39-8.23-1.68-6.47-3.27-9.87-2.51-10.55C1384.6,162.93,1385,163,1386.08,163.83Z"/><path class="cls-7" d="M1394.07,179a19.38,19.38,0,0,0,2.26,7.9c2.25,4.52-4.52,3.39-4.52,1.09"/><path class="cls-10" d="M1261.74,343.43l-20.88-3.77,13.07,14-2.9,24.15,14.76-19.14-2.18,31,12.93-12.8s8.23.14,9.9,2-2.62-9.8-2.62-9.8"/><polyline class="cls-10" points="1316.16 178.47 1311.63 199.93 1307.12 185.25 1304.86 210.08 1299.21 192.02 1299.21 224.76 1292.44 208.96"/><path class="cls-1" d="M1311.46,262.64c8.35,0,8.36-13,0-13S1303.09,262.64,1311.46,262.64Z"/><path class="cls-1" d="M1322.48,375.59c8.34,0,8.35-13,0-13S1314.12,375.59,1322.48,375.59Z"/><path class="cls-11" d="M1282.17,413.19l43.78,7.62a5.68,5.68,0,1,0,.7-6.16l-43.41-7.53Z"/><path class="cls-11" d="M1268.77,433.67s15.93-8.14,14.92-19.76h0a4.36,4.36,0,1,0-3.79-4.93,4.26,4.26,0,0,0,.07,1.38Z"/><path class="cls-11" d="M1336.6,416.43l-7.78-39.11a10.28,10.28,0,0,0,3.92-7.62h.2s5.53-7,1.68-12.33a38.91,38.91,0,0,1-2.35,8.8,9.49,9.49,0,0,0-.75-1.8c.84-2.29,2.42-7.51.11-9.23,0,0-.38,7.22-1.41,7.17s2.39-6.08-1.69-7.34a44.71,44.71,0,0,1-.62,5.54,12.49,12.49,0,0,0-1.3-.7c-.18-2.37-.52-5.63-3.27-5.1a14,14,0,0,1,1.09,4.42,9.85,9.85,0,0,0-3.38-.1,4.45,4.45,0,0,0-4.06-1.55s.93,1.09,1.74,2.18a10.28,10.28,0,0,0-3.66,2.39c-1.81.13-3.68.66-4.65,2.38a19.91,19.91,0,0,1,2.3,1.29,10.33,10.33,0,0,0,5.55,13.07,8.79,8.79,0,0,0,1.39.48l7.79,39.09Z"/><path class="cls-11" d="M1410.62,303.81c-.16-5.62-7.26-10-15.88-9.72-6.54.19-12,2.93-14.17,6.67L1321,302.49a7.63,7.63,0,0,0-4.35-2.32,7.74,7.74,0,0,0-8.82,5.69,7.79,7.79,0,0,1-3.6-3.66c-1.76.53,1.85,4.66,3.38,6.31a5.1,5.1,0,0,0,.11.77l-5.92.88c1.88,2.67,5.15,3,7.63,2.72a9.56,9.56,0,0,0,.92.88l-9.16,5.74c3.1,1.38,11-2.36,14.17-3.95a4.25,4.25,0,0,0,.88-.06l-6.6,9.68c2.54.45,8.07-8,9.87-10.9a7.9,7.9,0,0,0,1.68-1.48L1383,311a19.58,19.58,0,0,0,12.23,3.42C1404,314.17,1410.81,309.45,1410.62,303.81Z"/><path class="cls-11" d="M1319.53,307.76q-1.08-21.79-2.24-43.59a9.78,9.78,0,0,0,3.82-6.69h0s3.27-10.36-1-15.84a60.92,60.92,0,0,1-.3,9.74,10.21,10.21,0,0,0-1.38-1.83c.46-2.49.5-5-1.52-6a41.57,41.57,0,0,1,.37,5,8.5,8.5,0,0,0-1.37-.86c-.17-2.39-.7-5-3.17-5,0,0,1.2,2.18,2.18,4.54a9.94,9.94,0,0,0-2.85-.66c-.93-1.53-2.18-2.89-3.51-2.42a11.11,11.11,0,0,1,1.37,2.48,9.69,9.69,0,0,0-3.86,1.42c-1.15-1.37-2.26-2.56-3-2a19.56,19.56,0,0,1,1.46,3.19,9.71,9.71,0,0,0-2.06,2.82,9.82,9.82,0,0,0,2.31,11.58q1.17,22.56,2.33,45.13C1307.58,316.72,1319.94,315.73,1319.53,307.76Z"/></g><g id="step5"><rect class="cls-15" x="1526.07" y="-10.72" width="388.93" height="555.61"/><path class="cls-2" d="M1688.31,288.62l-7.78-43.85a9.9,9.9,0,0,0,3-7.26h0s2-10.89-3-15.9a62,62,0,0,1,.92,9.89,10.66,10.66,0,0,0-1.63-1.66c.15-2.59-.14-5.18-2.29-5.9a44.26,44.26,0,0,1,1,5,9.29,9.29,0,0,0-1.5-.7c-.48-2.39-1.35-5-3.85-4.65,0,0,1.48,2,2.83,4.32a10.19,10.19,0,0,0-3-.32c-1.11-1.43-2.58-2.64-3.87-2a11.1,11.1,0,0,1,1.7,2.34,10.1,10.1,0,0,0-3.72,1.93c-1.33-1.25-2.61-2.31-3.33-1.61a19.74,19.74,0,0,1,1.88,3,10,10,0,0,0,2.07,14.54l8,45.38C1677.3,299.21,1689.68,296.64,1688.31,288.62Z"/><path class="cls-2" d="M1776.29,269.35c-1.33-5.56-9.33-8.44-17.88-6.41-6.44,1.52-11.35,5.4-12.82,9.6l-59.11,14.07a7.87,7.87,0,0,0-12.4,6.08,7.93,7.93,0,0,1-4.35-2.9c-1.65.89,2.8,4.26,4.68,5.55.08.25.17.5.27.74L1669,298.2c2.43,2.22,5.75,1.89,8.22,1.11a8,8,0,0,0,1.11.7l-8,7.63c3.34.73,10.54-4.65,13.34-6.9a5.2,5.2,0,0,0,.86-.23l-4.59,11c2.64-.09,6.42-9.69,7.6-12.91a7.93,7.93,0,0,0,1.38-1.83l61.38-14.6a20,20,0,0,0,12.91.87C1771.74,281.09,1777.6,274.92,1776.29,269.35Z"/><ellipse class="cls-3" cx="1761.85" cy="273.01" rx="10.78" ry="6.79" transform="translate(-20.94 255.02) rotate(-8.23)"/><path class="cls-2" d="M1718.08,447.6l-1.91-45.23a5.79,5.79,0,1,0-8.14-.87,5.71,5.71,0,0,0,1.84,1.51l1.9,44.9Z"/><path class="cls-2" d="M1744.17,450.16s-14.19-11.45-24.61-5.69h0a4.44,4.44,0,1,0-3,5.55,4.26,4.26,0,0,0,1.26-.63Z"/><path class="cls-2" d="M1716.44,394.92l-25.78-31.44a10.54,10.54,0,0,0-.15-8.79l.17-.11s1.64-8.89-4.45-11.89a40.05,40.05,0,0,1,2.13,9,11,11,0,0,0-1.55-1.26c-.34-2.46-1.42-7.91-4.33-8.35,0,0,3.13,6.67,2.22,7.13s-.78-6.67-5-5.79a47.11,47.11,0,0,1,2.09,5.28,9.39,9.39,0,0,0-1.5,0c-1.32-2.05-3.18-4.83-5.36-3.05a14.21,14.21,0,0,1,3.09,3.47,10.23,10.23,0,0,0-3.09,1.52,4.53,4.53,0,0,0-4.45.56s1.34.49,2.58,1.11a10.47,10.47,0,0,0-2.14,3.91c-1.57,1-3,2.35-3,4.37a21.92,21.92,0,0,1,2.69.05,10.54,10.54,0,0,0,11.27,9.09,14.69,14.69,0,0,0,1.48-.23L1709.06,401Z"/><path class="cls-4" d="M1734.8,95.13c-1.11-3.75-13.82-24.44-23-28.23s-18.42-3.76-19.57,2.83,2.3,19.76,9.21,22.58S1734.8,95.13,1734.8,95.13Z"/><path class="cls-5" d="M1601,380.15a59.76,59.76,0,0,1-3.8,9.18c-8.06-6.9-28.29-8.57-8.06,6.91,8.47,2.71,20.53,3.33,19.25-6.49C1605.75,386,1601,380.15,1601,380.15Z"/><path class="cls-6" d="M1731.93,407.74c-18.41,1.17-63.34,15.29-78.31,11.53s-76.57-9.78-52.39-90.72,44.91-130.83,46.06-145.89,8.06-66.81,9.21-69.64,28.79-51.77,91-15.06c13.82,10.35,24.18,28.23,28.79,40.47s19.57,42.36,17.27,50.82-3.45,13.18-24.18,7.54-49.51-8.48-32.22,21.64,28.79,24.45,31.11,21.65,24.18-22.59,34.55-8.48,8.06,29.18,15,38.6c2.15,2.92,10.88,10.13,21.57,20.1,23.67,22.05,57,57.59,49.82,90C1878.74,427.37,1776.83,404.92,1731.93,407.74Z"/><path class="cls-3" d="M1820.66,316.07c-3.5,5.24-6.28,12.88-10.8,17.16s-45.17,19.1-33.71,46,28.82,28.65,47.9,30.77c20.72,2.3,89.07-7.2,63.46-59.41S1833.78,299.36,1831,301s-7.77,2.15-9,8.59Z"/><ellipse cx="1882.2" cy="376.55" rx="3.46" ry="6.59"/><ellipse cx="1768.77" cy="137.02" rx="4.03" ry="7.06"/><path class="cls-7" d="M1770.54,158.2c-5.75,7.53-9.21,16.94,0,15.05a36,36,0,0,1,5.76-.62c6.32-.24,10.25.44,5.76-6.9-5.75-9.41-4.61-13.18-8.06-10.36Z"/><path class="cls-7" d="M1776.26,169.49c0,1.88,2.3,7.53,0,8.47s-5.76.94-6.91-.94"/><path class="cls-8" d="M1782,201.49c-4.29,5.25-6.91,8.47-13.82,3.77s2.3-13.18,4.61-14.13S1784.32,198.67,1782,201.49Z"/><path class="cls-8" d="M1756.68,188.31c3.34,2.74,1.12,11.3,0,13.18s-10.36,3.77-13.82,0-6.9-13.18-2.3-14.11S1753.23,185.49,1756.68,188.31Z"/><path class="cls-9" d="M1791.23,231.6c-3.45-2.82-17.28-14.11-31.11-13.17s-21.8,4.71-21.8,8.47,8,25.42,24.18,20.7S1794.69,234.43,1791.23,231.6Z"/><line class="cls-7" x1="1760.14" y1="234.43" x2="1769.35" y2="219.37"/><path class="cls-3" d="M1739.43,171.37c-11.51,9.42-22.45,9.53-21.3,60.2.57,27.7,9.34,40.77,34.54,40.29,9.27-.16,22.46-5.75,31.12-10.35s30.51-13,24.76-21.43-11.12-11.11-15.93-12.17-24.38,13.1-30.13,13.1-44.94-31.34-29.94-45.17,49.85,9.63,50.84,3.4,11.34.37,10.19-10A72.39,72.39,0,0,0,1790,174c-3.33-9.78-9.41-20.66-19.49-27.13-9.21,2.83-13.81,13.17-19.57,18.83S1739.43,171.37,1739.43,171.37Z"/><path class="cls-7" d="M1787.21,176.29s.87,8.79-5.9-4.82"/><path d="M1793.51,192.1s-.26,13.33-29.77,2.77-33.56,5.09-34.45,6.5c-2,2.55,22.23,40.56,32.54,38.26,18.89-4.65,19.08-10.95,25.37-12.09s9.82-.68,12.09.81-3.49,14.15-25.37,16.45-28.78,1.12-39.15-15-15-39.15-5.75-44.91,39.14,0,43.76,1.11,18.42,1.11,19.56,3.46S1792.34,190.05,1793.51,192.1Z"/><path class="cls-6" d="M1676.09,128.08a309.92,309.92,0,0,1-23-23.51c-4.6-5.65-10.36-26.35,11.52-29.17s38,25.41,38,25.41Z"/><path class="cls-3" d="M1692.2,101.72s-10.37-14.11-21.88-12.22-6.91,11.3-6.91,12.22S1675,114.9,1676.09,113,1693.35,103.61,1692.2,101.72Z"/><path class="cls-5" d="M1753.65,125.68c-6.9-4-13.83,0-16.4-.78-2.9,1.59-8.37,4.07,3.53,5.15s11.57,3.44,14.78,2.77S1756.54,127.39,1753.65,125.68Z"/><path class="cls-5" d="M1759.21,125.25c.56-3.1,4.32-3.69,4.82-4.62,1.54-.27,4.24-1,1,2.55s-2.23,4.17-3.54,4.81S1759,126.54,1759.21,125.25Z"/><ellipse cx="1753.81" cy="142.87" rx="7.26" ry="5.18" transform="translate(412.65 1281.98) rotate(-45)"/><path d="M1773.3,153.87c.66.48,7.92,5.73,10.44,12.32a11.24,11.24,0,0,1,.79,3.62c-.1,2-1.87.24-3.23,1.66-.91.95-.46,2.07-1.49,2.38-.19.06-1.82.55-3.25-1.54-1.11-1.57-1.11-3.19-2.43-8.4-1.71-6.59-3.33-10.06-2.56-10.76C1771.79,153,1772.14,153,1773.3,153.87Z"/><path class="cls-7" d="M1781.44,169.39a20,20,0,0,0,2.3,8.05c2.3,4.61-4.6,3.46-4.6,1.11"/><path class="cls-10" d="M1646.5,337l-21.29-3.84,13.33,14.31-3,24.63,15.05-19.52-2.22,31.6,13.19-13.06s8.39.14,10.09,2.07-2.67-10-2.67-10"/><polyline class="cls-10" points="1701.99 168.81 1697.38 190.69 1692.78 175.72 1690.47 201.04 1684.71 182.62 1684.71 216.01 1677.81 199.9"/><path class="cls-1" d="M1697.2,254.64c8.51,0,8.52-13.24,0-13.24S1688.67,254.64,1697.2,254.64Z"/><path class="cls-1" d="M1708.44,369.82c8.51,0,8.52-13.24,0-13.24S1699.91,369.82,1708.44,369.82Z"/><path class="cls-11" d="M1691.41,413.1l44.87-6.3a5.78,5.78,0,1,0,.07-8.17,5.67,5.67,0,0,0-1.31,2l-44.51,6.22Z"/><path class="cls-11" d="M1700.36,437.28s4.44-17.7-5.23-24.72h0a4.44,4.44,0,1,0-6.32-.38,4.69,4.69,0,0,0,1.11.87Z"/><path class="cls-11" d="M1744.58,398.26l-26.41-30.9a10.55,10.55,0,0,0-.32-8.79l.16-.11s1.46-8.95-4.65-11.8a40.39,40.39,0,0,1,2.3,9,9.72,9.72,0,0,0-1.57-1.22c-.39-2.45-1.58-7.88-4.44-8.26,0,0,3.26,6.61,2.32,7.08s-.91-6.6-5.16-5.68a47.2,47.2,0,0,1,2.23,5.23,12.51,12.51,0,0,0-1.5,0c-1.35-2-3.34-4.74-5.43-2.93a14,14,0,0,1,3.17,3.4,10.15,10.15,0,0,0-3.06,1.59,4.52,4.52,0,0,0-4.37.64s1.34.46,2.6,1a10.41,10.41,0,0,0-2.07,4c-1.55,1-2.93,2.42-3,4.45a20.12,20.12,0,0,1,2.69,0,10.54,10.54,0,0,0,11.45,8.89,12.42,12.42,0,0,0,1.48-.27l26.41,30.9Z"/><path class="cls-11" d="M1754.7,334.88c2.61-5.09-1.62-12.47-9.44-16.47-5.9-3-12.16-3.24-16-1l-54.12-27.62a7.88,7.88,0,0,0-13.33-3.42,7.78,7.78,0,0,1-1.42-5c-1.85-.39-.64,5.07-.08,7.3-.1.25-.19.49-.28.73l-5.72-2.1c.36,3.34,3.14,5.17,5.55,6.17a6.72,6.72,0,0,0,.39,1.25l-11,.65c2.09,2.75,11,3.34,14.63,3.4a6,6,0,0,0,.81.39L1654,304.55c2.06,1.64,11.17-3.22,14.17-4.9a7.71,7.71,0,0,0,2.22-.51l56.18,28.69a20,20,0,0,0,9.27,9.05C1743.63,340.88,1752.08,340,1754.7,334.88Z"/><path class="cls-11" d="M1670.93,294.35q12.94-18.14,25.86-36.26a9.9,9.9,0,0,0,7.31-2.92h0s9.18-6.19,9.27-13.26a62.09,62.09,0,0,1-6.42,7.59,10.09,10.09,0,0,0,0-2.33c2-1.71,3.6-3.72,2.61-5.77a41.9,41.9,0,0,1-2.87,4.23,10.77,10.77,0,0,0-.54-1.57c1.37-2,2.62-4.45.62-6q-.43,2.55-1.11,5a9.84,9.84,0,0,0-1.85-2.32c.23-1.82.09-3.7-1.26-4.17a11.49,11.49,0,0,1-.48,2.85,10.1,10.1,0,0,0-4-1.31c0-1.81-.18-3.48-1.11-3.49a19,19,0,0,1-.86,3.48,10.24,10.24,0,0,0-3.43.94,10,10,0,0,0-5.49,10.71q-13.34,18.78-26.76,37.53C1655.7,293.94,1666.2,301,1670.93,294.35Z"/></g><g id="step1"><rect class="cls-16" x="1534.8" y="523.36" width="384.2" height="554.27"/><path class="cls-17" d="M1664.26,1016.38a5.35,5.35,0,0,0-4.32,1.11c-10.4-7.19-41.27,1.34-41.27,1.34l41.45,7.5a5.46,5.46,0,0,0,7.65-1.31,5.59,5.59,0,0,0-1.31-7.73,5.32,5.32,0,0,0-2.2-.93Z"/><path class="cls-17" d="M1725.32,825.47c.17-.41.34-.83.48-1.28,2.38-7.26-.89-14.9-7.31-17.05s-13.56,2-16,9.27a14.65,14.65,0,0,0,1,11.68l-71.08,100.27,6.25,4.52,4.39-6.19c5.17-5,21-17.31,34.82-27.72,8.25-4.59,17-9.19,24.93-12.93C1725.55,875.28,1725.47,832.11,1725.32,825.47Z"/><path class="cls-17" d="M1645.49,928.57a9.56,9.56,0,0,0-12.54-5.25,9.72,9.72,0,0,0-5.21,12.67,9.61,9.61,0,0,0,8.34,6l25.24,83.14,5.25-1.62-4.91-16.16c-4.5-37.91-8-56.91-13.94-60.22-2.49-4.58-4.39-6.33-5.55-7A9.73,9.73,0,0,0,1645.49,928.57Z"/><path class="cls-17" d="M1740.4,692.69a8.74,8.74,0,0,0,11.67,1.93l49.69,35.06,3.78-5.44-9.22-6.51c-21.67-26.5-34.13-33.2-40.92-33.91a8.45,8.45,0,0,0-1.23-2.22,8.72,8.72,0,0,0-12.37-1.15,8.93,8.93,0,0,0-1.4,12.16Z"/><path class="cls-17" d="M1794.54,731.38a7.64,7.64,0,0,0,9.29,2.21l.12.47c1.54,11.7,10.88,41.37,15.75,56.37-4,2.21-5,9.47-2.29,16.78,2.88,7.76,8.9,12.61,13.43,10.89s5.89-9.39,3-17.13c-2.34-6.26-6.72-10.64-10.71-11.18l-2.41-8.5c-2.19-14.56-6.77-41.41-13.85-50.29a7.8,7.8,0,0,0-1.93-10.8,7.63,7.63,0,0,0-10.69,1.95,7.82,7.82,0,0,0,.28,9.24Z"/><path class="cls-18" d="M1692.87,574.35s-14.27,11.09-2.19,14.41,57.08-13.3,85.62,8.87,47.2,18.85,37.32,2.22-5.49-16.63-3.29-22.17,6.58-7.76-11-11.09c-7.68-5.54-3.29-8.87-12.08-14.41s-6.58,2.22-30.73,11.09S1699.46,567.7,1692.87,574.35Z"/><path class="cls-19" d="M1767,558.8s38,22.7,41.23,23,0,5.86,0,7-48-24.95-45.38-28S1767,558.8,1767,558.8Z"/><path class="cls-20" d="M1632,784.42c-22-29.81-14.27-68.73-2.2-105.31s60.38-64.3,63.67-72.06,18.66-69.83,47.2-64.29,24.15,34.36,25.25,43.23,42.81,11.09,50.49,37.69,11,22.17,7.69,39.91-15.37,33.25-14.27,49.88,26.42,123.78-50.5,135.24C1692.32,858.69,1670.37,836.52,1632,784.42Z"/><ellipse cx="1663.43" cy="643.93" rx="6.62" ry="3.8" transform="translate(87.64 1479.72) rotate(-49.1)"/><path class="cls-21" d="M1670.37,655.83c11-5.54,20.85-13.3,35.12-8.87s36.23,24.39,4.4,75.38c-14.27,21.06-27.45,59.86-28.55,74.27s3.8,46.1-8,35.24S1610,777.53,1618.8,725s13-51.61,15.84-57.07c5-1,12.68-1,18.16-3.24S1668.17,658.05,1670.37,655.83Z"/><path class="cls-22" d="M1638.53,681.32s7.69,2.22,19.76-5.54,34-24.39,36.23-10-27.45,32.14-36.23,33.25-29.64,3.33-31.83,0-.53-13.84,1.38-16.89S1633.05,678,1638.53,681.32Z"/><path class="cls-23" d="M1682.44,673.56c-2.19,1.11-22,20-56,14.42"/><path class="cls-24" d="M1725.25,560.49a53.69,53.69,0,0,0-13.17,18.85c-1.95,4.76-4,9.91-3.29,16.63.27,2.62,1.38,12.35,8.78,16.7a16.58,16.58,0,0,0,16.47-.07c9.87-5.55,23-23.28,20.85-43.24S1730.74,553.84,1725.25,560.49Z"/><ellipse cx="1719.22" cy="581.56" rx="6.59" ry="7.21"/><path class="cls-25" d="M1713.87,575.46s35.26,1.82,40.89,4c0,0,3.73-23.36-13.44-24.47S1714.56,573.8,1713.87,575.46Z"/><path class="cls-26" d="M1794.6,638.59c8.4,0,8.42-13.19,0-13.19S1786.17,638.59,1794.6,638.59Z"/><path class="cls-26" d="M1807,651.89c8.41,0,8.43-13.19,0-13.19S1798.61,651.89,1807,651.89Z"/><path class="cls-26" d="M1790.93,657.07c8.42,0,8.43-13.2,0-13.2S1782.51,657.07,1790.93,657.07Z"/><path class="cls-26" d="M1799.71,793.05c8.42,0,8.43-13.2,0-13.2S1791.29,793.05,1799.71,793.05Z"/><path class="cls-26" d="M1780,805.61c8.42,0,8.43-13.2,0-13.2S1771.53,805.61,1780,805.61Z"/><path class="cls-26" d="M1798.25,810.79c8.41,0,8.43-13.2,0-13.2S1789.83,810.79,1798.25,810.79Z"/><path class="cls-26" d="M1776.55,1029a5.41,5.41,0,0,0-4.09,1.79c-11.42-5.37-40.51,8.13-40.51,8.13l42.11.57a5.14,5.14,0,0,0,2.34.59,5.54,5.54,0,0,0,.15-11.08Z"/><path class="cls-26" d="M1732.28,817.72c-.12-.43-.24-.88-.4-1.31-2.53-7.22-9.74-11.21-16.12-8.93s-9.51,10-7,17.19a14.38,14.38,0,0,0,7.86,8.62l4.76,123.23,7.69-.3-.3-7.62c1.1-7.16,6.1-26.69,10.64-43.48,3.74-8.75,7.82-17.74,11.84-25.67C1762.71,856.92,1736.43,822.86,1732.28,817.72Z"/><path class="cls-26" d="M1734.68,950a9.54,9.54,0,0,0-13.47-1.77,9.77,9.77,0,0,0-1.75,13.6,9.54,9.54,0,0,0,9.6,3.57l46,73.61,4.65-3-8.93-14.29c-14.16-35.42-22.44-52.83-29-54.46-3.59-3.75-5.83-5-7.17-5.24A9.75,9.75,0,0,0,1734.68,950Z"/><path class="cls-26" d="M1738.52,681a8.9,8.9,0,0,0-3.88,11.27l-42.76,43.42,4.68,4.69,7.92-8.06c29.58-17,38.25-28.23,40.13-34.87a8.86,8.86,0,0,0,5.82-12.88,8.73,8.73,0,0,0-11.91-3.57Z"/><path class="cls-26" d="M1687.53,728.93a7.8,7.8,0,0,0-3,9.15l-.46.09c-11.69.58-41.71,7.51-56.94,11.16-1.87-4.16-8.93-5.83-16.38-3.69-7.87,2.22-13.17,7.91-11.85,12.62s8.78,6.65,16.65,4.43c6.38-1.83,11.07-5.87,11.92-9.84l8.59-1.72c14.56-1,41.44-3.33,50.78-9.78a7.63,7.63,0,0,0,10.82-1,7.82,7.82,0,0,0-1-10.93,7.63,7.63,0,0,0-9.15-.49Z"/></g><g id="step2"><rect class="cls-27" x="1150.6" y="522.25" width="384.2" height="554.27"/><path class="cls-17" d="M1234.4,1005.15a5.46,5.46,0,0,0-4.45-.42c-7.43-10.27-39.35-12.62-39.35-12.62l36.6,21.07a5.43,5.43,0,0,0,9.26-.43,5.57,5.57,0,0,0-2.06-7.56Z"/><path class="cls-17" d="M1341.43,806.87a12.4,12.4,0,0,0,.27-1.35c1.19-7.56-3.29-14.55-10-15.61s-13,4.19-14.27,11.73a14.63,14.63,0,0,0,2.85,11.38l-54,110.59,6.88,3.43,3.29-6.84c4.3-5.78,18-20.52,29.89-33.09,7.42-5.87,15.28-11.84,22.54-16.85C1349.64,856,1342.63,813.43,1341.43,806.87Z"/><path class="cls-17" d="M1280.35,928.69a9.72,9.72,0,0,0-5.79-12.4,9.58,9.58,0,0,0-12.29,5.84,9.78,9.78,0,0,0,2.2,10.09l-36.66,78.71,5,2.36,7.12-15.3c21.95-31.12,32-47.55,29.77-54,1.21-5.08,1-7.63.52-8.93A9.58,9.58,0,0,0,1280.35,928.69Z"/><path class="cls-17" d="M1356.51,677.17a8.72,8.72,0,0,0,11.8.72l53,29.78,3.21-5.8-9.82-5.55c-24.22-24.13-37.33-29.52-44.12-29.54a8.74,8.74,0,0,0-11.89-3.64,8.91,8.91,0,0,0-3.6,12,8.82,8.82,0,0,0,1.46,2Z"/><path class="cls-17" d="M1414.26,710.14a7.63,7.63,0,0,0,9.46,1.24l.18.44c2.7,11.5,15,40,21.33,54.46-3.71,2.63-4,10-.6,16.94,3.65,7.4,10.12,11.63,14.47,9.45s4.91-10,1.26-17.35c-2.95-6-7.75-9.89-11.77-10l-3.3-8.21c-3.63-14.27-10.91-40.51-18.85-48.61a7.8,7.8,0,0,0-3-10.55,7.65,7.65,0,0,0-10.45,3,7.81,7.81,0,0,0,1.22,9.17Z"/><path class="cls-18" d="M1308.67,557.72s-14.27,11.09-2.19,14.41,57.08-13.3,85.62,8.87,47.2,18.85,37.32,2.22-5.49-16.63-3.29-22.17,6.58-7.76-11-11.09c-7.68-5.54-3.29-8.86-12.08-14.41s-6.58,2.22-30.73,11.09S1315.26,551.07,1308.67,557.72Z"/><path class="cls-19" d="M1382.76,542.17s38,22.7,41.23,23,0,5.85,0,7-48-24.94-45.38-28S1382.76,542.17,1382.76,542.17Z"/><path class="cls-20" d="M1247.75,767.79c-22-29.81-14.27-68.73-2.2-105.31s60.38-64.3,63.67-72.06,18.66-69.83,47.2-64.29,24.15,34.36,25.25,43.23,42.81,11.09,50.49,37.69,11,22.17,7.69,39.91-15.37,33.26-14.27,49.88,26.42,123.78-50.5,135.25C1308.12,842.06,1286.17,819.89,1247.75,767.79Z"/><ellipse cx="1279.24" cy="627.31" rx="6.62" ry="3.8" transform="translate(-32.45 1183.58) rotate(-49.1)"/><path class="cls-21" d="M1286.17,639.2c11-5.54,20.85-13.3,35.12-8.87s36.23,24.39,4.4,75.38c-14.27,21.06-27.45,59.86-28.55,74.27s3.8,46.1-8,35.24-63.33-54.31-54.56-106.84,13-51.61,15.84-57.06c5-1,12.68-1,18.16-3.25S1284,641.42,1286.17,639.2Z"/><path class="cls-22" d="M1254.33,664.7s7.69,2.21,19.76-5.55,34-24.38,36.23-10-27.45,32.14-36.23,33.25-29.64,3.33-31.83,0-.53-13.84,1.38-16.89S1248.85,661.37,1254.33,664.7Z"/><path class="cls-23" d="M1298.24,656.94c-2.19,1.11-22,19.95-56,14.41"/><path class="cls-24" d="M1341.05,543.87a53.57,53.57,0,0,0-13.17,18.84c-2,4.76-4,9.91-3.29,16.63.27,2.63,1.38,12.35,8.78,16.71a16.6,16.6,0,0,0,16.47-.08c9.87-5.55,23.05-23.28,20.85-43.24S1346.54,537.22,1341.05,543.87Z"/><ellipse cx="1335.02" cy="564.93" rx="6.59" ry="7.21"/><path class="cls-25" d="M1329.67,558.83s35.26,1.82,40.89,4c0,0,3.73-23.36-13.44-24.47S1330.36,557.17,1329.67,558.83Z"/><path class="cls-26" d="M1410.4,622c8.4,0,8.42-13.19,0-13.19S1402,622,1410.4,622Z"/><path class="cls-26" d="M1422.83,635.27c8.41,0,8.43-13.2,0-13.2S1414.41,635.27,1422.83,635.27Z"/><path class="cls-26" d="M1406.73,640.44c8.42,0,8.43-13.2,0-13.2S1398.31,640.44,1406.73,640.44Z"/><path class="cls-26" d="M1415.51,776.43c8.42,0,8.43-13.21,0-13.21S1407.09,776.43,1415.51,776.43Z"/><path class="cls-26" d="M1395.75,789c8.42,0,8.43-13.21,0-13.21S1387.33,789,1395.75,789Z"/><path class="cls-26" d="M1414.05,794.16c8.41,0,8.43-13.2,0-13.2S1405.63,794.16,1414.05,794.16Z"/><path class="cls-26" d="M1416,1014.05a5.53,5.53,0,0,0-3.18,3.16c-12.57-.9-35,22.17-35,22.17l39.51-14.65a5.45,5.45,0,0,0,2.4-.3,5.58,5.58,0,0,0,3.26-7.12,5.48,5.48,0,0,0-7-3.29Z"/><path class="cls-26" d="M1346.92,797.51a10.1,10.1,0,0,0-.72-1.11c-4.31-6.29-12.31-8.25-17.88-4.35s-6.59,12.13-2.27,18.43a14.29,14.29,0,0,0,9.82,6.24l36.57,117.63,7.33-2.32-2.26-7.28c-.85-7.17-1-27.37-1-44.78,1.34-9.42,3-19.22,4.77-27.9C1386.49,827.31,1352.28,801.39,1346.92,797.51Z"/><path class="cls-26" d="M1386,927.16a9.55,9.55,0,0,0-13.14-3.47,9.75,9.75,0,0,0-3.44,13.27,9.56,9.56,0,0,0,9.06,4.77l36.34,78.89,5-2.33-7.06-15.34c-9.61-36.93-15.62-55.27-22-57.73-3.08-4.18-5.16-5.66-6.44-6.12A9.77,9.77,0,0,0,1386,927.16Z"/><path class="cls-26" d="M1352.83,665.38a9,9,0,0,0-1.43,11.87l-32.63,51.59,5.55,3.58,6.06-9.57c25.25-23,31.43-35.81,31.84-42.7a8.58,8.58,0,0,0,2-1.33,8.92,8.92,0,0,0,.66-12.52,8.72,8.72,0,0,0-12.12-.92Z"/><path class="cls-26" d="M1313.08,723.13a7.83,7.83,0,0,0-.95,9.58l-.44.19c-11.3,3.06-39.2,16.29-53.28,23.13-2.7-3.67-10-3.77-16.78-.09-7.22,3.89-11.22,10.55-8.93,14.88s10,4.65,17.21.76c5.84-3.16,9.57-8.11,9.57-12.19l8-3.53c14-4.08,39.77-12.19,47.55-20.45a7.65,7.65,0,0,0,10.36-3.33,7.79,7.79,0,0,0-3.3-10.45,7.62,7.62,0,0,0-9.05,1.49Z"/></g><g id="step3-2" data-name="step3"><rect class="cls-28" x="766.4" y="522.25" width="384.2" height="554.27"/><path class="cls-17" d="M863.72,1028.93a5.47,5.47,0,0,0-4.1,1.78c-11.4-5.43-40.54,7.94-40.54,7.94l42.1.76a5.19,5.19,0,0,0,2.35.6,5.54,5.54,0,0,0,.19-11.08Z"/><path class="cls-17" d="M957.41,824c.09-.44.17-.88.22-1.35.85-7.6-3.91-14.41-10.63-15.15s-12.87,4.76-13.71,12.37a14.51,14.51,0,0,0,3.29,11.23L887.46,944l7,3.13,3-7c4-6,17.06-21.29,28.42-34.36,7.15-6.2,14.74-12.51,21.77-17.84C967.79,872.68,958.92,830.44,957.41,824Z"/><path class="cls-17" d="M902.07,947.65a9.61,9.61,0,1,0-15.37,5.45l-26.83,82.69,5.21,1.73,5.21-16.06c18-33.6,26-51.15,23.05-57.34.57-5.19,0-7.7-.57-8.92A9.6,9.6,0,0,0,902.07,947.65Z"/><path class="cls-17" d="M972.31,696.45a8.72,8.72,0,0,0,11.8-.83l56.32,22.66,2.44-6.17-10.45-4.21c-27.09-20.79-40.74-24.39-47.52-23.56a8.7,8.7,0,0,0-14-.35,8.93,8.93,0,0,0,1.43,12.46Z"/><path class="cls-17" d="M1033.79,721.63a7.62,7.62,0,0,0,9.53,0l.23.41c4.15,11.09,20,37.78,28.09,51.25-3.29,3.08-2.73,10.37,1.57,16.87,4.56,6.86,11.52,10.22,15.54,7.49s3.61-10.5-1-17.37c-3.68-5.54-9-8.81-13-8.4l-4.26-7.76c-5.42-13.68-16-38.8-24.89-45.76a7.77,7.77,0,0,0-4.31-10.07,7.66,7.66,0,0,0-10,4.35,7.81,7.81,0,0,0,2.37,9Z"/><path class="cls-18" d="M924.47,575.46s-14.27,11.08-2.19,14.41,57.08-13.3,85.62,8.87,47.2,18.84,37.32,2.22-5.49-16.63-3.29-22.17,6.58-7.76-11-11.09c-7.68-5.54-3.29-8.87-12.08-14.41s-6.58,2.22-30.73,11.08S931.06,568.81,924.47,575.46Z"/><path class="cls-19" d="M998.56,559.91s38,22.7,41.23,23,0,5.86,0,7-47.95-24.94-45.38-28S998.56,559.91,998.56,559.91Z"/><path class="cls-20" d="M863.55,785.53c-22-29.81-14.27-68.73-2.2-105.31s60.38-64.3,63.67-72.06,18.66-69.84,47.2-64.29,24.15,34.36,25.25,43.23,42.81,11.08,50.49,37.69,11,22.17,7.69,39.91-15.37,33.25-14.27,49.88,26.42,123.78-50.5,135.24C923.92,859.8,902,837.63,863.55,785.53Z"/><ellipse cx="895.05" cy="645.06" rx="6.62" ry="3.8" transform="translate(-178.53 899.29) rotate(-49.1)"/><path class="cls-21" d="M902,656.94c11-5.55,20.85-13.31,35.12-8.87s36.23,24.39,4.4,75.38c-14.27,21.06-27.45,59.86-28.55,74.27s3.8,46.09-8,35.24-63.33-54.32-54.56-106.84,13-51.61,15.84-57.07c5-1,12.68-1,18.16-3.24S899.77,659.15,902,656.94Z"/><path class="cls-22" d="M870.13,682.43s7.69,2.22,19.76-5.54,34-24.39,36.23-10-27.45,32.15-36.23,33.26-29.64,3.33-31.83,0-.53-13.85,1.38-16.89S864.65,679.11,870.13,682.43Z"/><path class="cls-23" d="M914,674.67c-2.19,1.11-21.95,20-56,14.41"/><path class="cls-24" d="M956.85,561.6a53.51,53.51,0,0,0-13.17,18.85c-1.95,4.75-4,9.91-3.29,16.63.27,2.62,1.38,12.35,8.72,16.7a16.57,16.57,0,0,0,16.53-.08c9.87-5.54,23.05-23.28,20.85-43.23S962.34,555,956.85,561.6Z"/><ellipse cx="950.82" cy="582.67" rx="6.59" ry="7.21"/><path class="cls-25" d="M945.47,576.57s35.26,1.82,40.89,4c0,0,3.73-23.36-13.44-24.47S946.16,574.91,945.47,576.57Z"/><path class="cls-26" d="M1026.2,639.7c8.4,0,8.42-13.19,0-13.19S1017.77,639.7,1026.2,639.7Z"/><path class="cls-26" d="M1038.63,653c8.41,0,8.43-13.19,0-13.19S1030.21,653,1038.63,653Z"/><path class="cls-26" d="M1022.53,658.18c8.42,0,8.43-13.2,0-13.2S1014.11,658.18,1022.53,658.18Z"/><path class="cls-26" d="M1031.31,794.16c8.42,0,8.43-13.2,0-13.2S1022.89,794.16,1031.31,794.16Z"/><path class="cls-26" d="M1011.55,806.72c8.42,0,8.43-13.2,0-13.2S1003.13,806.72,1011.55,806.72Z"/><path class="cls-26" d="M1029.85,811.9c8.41,0,8.43-13.2,0-13.2S1021.43,811.9,1029.85,811.9Z"/><path class="cls-26" d="M1084.85,987a5.59,5.59,0,0,0,1.24,4.33c-6.72,10.76,2.86,41.6,2.86,41.6l5.89-42.12a5.59,5.59,0,0,0-1.48-7.7,5.46,5.46,0,0,0-7.62,1.49,5.51,5.51,0,0,0-.89,2.38Z"/><path class="cls-26" d="M962.55,813.75c-.25-.37-.53-.73-.82-1.11-4.88-5.85-13-7-18.21-2.63s-5.42,12.72-.53,18.57a14.29,14.29,0,0,0,10.36,5.28l47.41,113.65,7.08-3-2.93-7c-1.51-7.07-3.59-27.16-5.2-44.49.46-9.5,1.1-19.41,2.19-28.23C1004.7,839.62,968.2,817.1,962.55,813.75Z"/><path class="cls-26" d="M1009.28,935.92a9.57,9.57,0,0,0-12.39,5.62,9.74,9.74,0,0,0,5.56,12.52,9.55,9.55,0,0,0,10-2l77.28,38.46,2.43-5-15-7.47c-30.4-22.71-46.48-33.18-53-31-5-1.31-7.54-1.11-8.78-.69A9.72,9.72,0,0,0,1009.28,935.92Z"/><path class="cls-26" d="M966.18,685a9,9,0,0,0,.68,11.93l-23.05,56.62,6.1,2.53,4.27-10.5C975,718.48,978.82,704.75,978,697.89a8.92,8.92,0,0,0,2.17-12.35,8.73,8.73,0,0,0-12.23-2.2,9.06,9.06,0,0,0-1.8,1.7Z"/><path class="cls-26" d="M937.22,749a7.81,7.81,0,0,0,.74,9.59l-.39.27c-10.57,5-35.71,23.06-48.37,32.32-3.29-3.13-10.46-1.93-16.53,2.92-6.41,5.13-9.18,12.4-6.17,16.24s10.65,2.79,17.07-2.33c5.19-4.16,8-9.71,7.28-13.71l7.29-4.9c13.07-6.54,37-19.15,43.2-28.66a7.66,7.66,0,0,0,9.6-5.14,7.77,7.77,0,0,0-5.09-9.7A7.64,7.64,0,0,0,937.22,749Z"/></g><g id="step4-2" data-name="step4"><rect class="cls-29" x="382.2" y="523.36" width="384.2" height="554.27"/><path class="cls-17" d="M552,1029.5a5.52,5.52,0,0,0-4,2c-11.7-4.72-40,10.39-40,10.39l42.07-1.8a5.46,5.46,0,0,0,7.22-2.87,5.57,5.57,0,0,0-2.85-7.29,5.5,5.5,0,0,0-2.46-.46Z"/><path class="cls-17" d="M572.92,844.2a13.59,13.59,0,0,0,.3-1.33c1.41-7.51-2.85-14.63-9.5-15.9s-13.17,3.81-14.58,11.33a14.69,14.69,0,0,0,2.51,11.46l-57.14,109,6.78,3.63,3.54-6.74c4.45-5.66,18.55-20,30.82-32.21,7.58-5.66,15.61-11.4,23.05-16.19C579.74,893.54,574,850.76,572.92,844.2Z"/><path class="cls-17" d="M508.76,953.43a9.55,9.55,0,0,0-13.54-1.17,9.76,9.76,0,0,0-1.15,13.67,9.56,9.56,0,0,0,9.75,3.14l49.1,71.5,4.51-3.16-9.54-13.88c-15.69-34.75-24.71-51.79-31.4-53.12-3.75-3.59-6-4.69-7.38-4.92A9.77,9.77,0,0,0,508.76,953.43Z"/><path class="cls-17" d="M585.41,715.3a8.73,8.73,0,0,0,11.69,1.79l50.12,34.44,3.7-5.54-9.3-6.39c-22-26.23-34.52-32.77-41.33-33.4a8.39,8.39,0,0,0-1.25-2.12,8.72,8.72,0,0,0-12.32-1.58,8.94,8.94,0,0,0-1.57,12.44l.26.32Z"/><path class="cls-17" d="M640,753.35a7.63,7.63,0,0,0,9.29,2.08l.15.47c1.68,11.69,11.37,41.23,16.46,56.17-3.93,2.28-4.89,9.53-2.08,16.81,3,7.69,9,12.49,13.57,10.72s5.76-9.47,2.78-17.17c-2.4-6.23-6.84-10.55-10.84-11.09l-2.5-8.46c-2.36-14.55-7.28-41.33-14.47-50.12A7.81,7.81,0,0,0,650.29,742a7.64,7.64,0,0,0-10.67,2.08,7.81,7.81,0,0,0,.4,9.24Z"/><path class="cls-18" d="M540.27,594.3s-14.27,11.09-2.19,14.42,57.08-13.31,85.62,8.86,47.2,18.85,37.32,2.22-5.49-16.63-3.29-22.17,6.58-7.76-11-11.09c-7.68-5.54-3.29-8.86-12.08-14.41s-6.58,2.22-30.73,11.09S546.86,587.65,540.27,594.3Z"/><path class="cls-19" d="M614.36,578.75s38,22.7,41.23,23,0,5.85,0,7-48-24.94-45.38-28S614.36,578.75,614.36,578.75Z"/><path class="cls-20" d="M479.35,804.37c-22-29.81-14.27-68.73-2.2-105.31s60.38-64.29,63.67-72,18.66-69.84,47.2-64.3,24.15,34.37,25.25,43.23,42.81,11.09,50.49,37.69,11,22.18,7.69,39.91-15.37,33.26-14.27,49.89,26.42,123.77-50.5,135.24C539.72,878.64,517.77,856.47,479.35,804.37Z"/><ellipse cx="510.85" cy="663.9" rx="6.62" ry="3.8" transform="translate(-325.44 615.39) rotate(-49.1)"/><path class="cls-21" d="M517.77,675.78c11-5.54,20.85-13.3,35.12-8.87s36.23,24.39,4.4,75.38c-14.27,21.07-27.45,59.86-28.55,74.28s3.8,46.09-8,35.24S457.43,797.49,466.2,745s13-51.62,15.84-57.07c5-1,12.68-1,18.16-3.25S515.57,678,517.77,675.78Z"/><path class="cls-22" d="M485.93,701.28s7.69,2.22,19.76-5.54,34-24.39,36.23-10S514.47,717.91,505.69,719s-29.64,3.33-31.83,0-.53-13.84,1.38-16.89S480.45,698,485.93,701.28Z"/><path class="cls-23" d="M529.84,693.52c-2.19,1.11-22,20-56,14.41"/><path class="cls-24" d="M572.65,580.45a53.57,53.57,0,0,0-13.17,18.84c-2,4.76-4,9.91-3.29,16.63.27,2.63,1.38,12.35,8.72,16.71a16.62,16.62,0,0,0,16.53-.08c9.87-5.54,23-23.28,20.85-43.23S578.14,573.8,572.65,580.45Z"/><ellipse cx="566.62" cy="601.51" rx="6.59" ry="7.21"/><path class="cls-25" d="M561.27,595.41s35.26,1.82,40.89,4c0,0,3.73-23.36-13.44-24.46S562,593.75,561.27,595.41Z"/><path class="cls-26" d="M642,658.54c8.4,0,8.42-13.19,0-13.19S633.57,658.54,642,658.54Z"/><path class="cls-26" d="M654.43,671.85c8.41,0,8.43-13.19,0-13.19S646,671.85,654.43,671.85Z"/><path class="cls-26" d="M638.33,677c8.42,0,8.43-13.2,0-13.2S629.91,677,638.33,677Z"/><path class="cls-26" d="M647.11,813c8.42,0,8.43-13.21,0-13.21S638.69,813,647.11,813Z"/><path class="cls-26" d="M627.35,825.57c8.42,0,8.43-13.21,0-13.21S618.93,825.57,627.35,825.57Z"/><path class="cls-26" d="M645.65,830.74c8.41,0,8.43-13.2,0-13.2S637.23,830.74,645.65,830.74Z"/><path class="cls-26" d="M657.07,1008a5.51,5.51,0,0,0-3,3.32c-12.59-.29-33.88,23.86-33.88,23.86l38.79-16.57a5.54,5.54,0,0,0,.57-11.07,5.25,5.25,0,0,0-2.44.44Z"/><path class="cls-26" d="M581.81,835.33c-.1-.44-.21-.88-.35-1.32-2.32-7.28-9.42-11.5-15.86-9.41s-9.79,9.68-7.47,17a14.43,14.43,0,0,0,7.61,8.87l1.1,123.32,7.68-.08-.08-7.62c1.25-7.13,6.9-26.49,11.92-43.15,4-8.63,8.36-17.53,12.59-25.3C611.11,875.43,585.83,840.6,581.81,835.33Z"/><path class="cls-26" d="M575.58,964.28a9.57,9.57,0,0,0-12.1,6.22,9.71,9.71,0,0,0,6.15,12.22,9.54,9.54,0,0,0,9.92-2.51l79,34.61,2.2-5.08-15.3-6.66c-31.48-21.18-48-30.85-54.41-28.43-5.06-1-7.58-.76-8.84-.25A9.69,9.69,0,0,0,575.58,964.28Z"/><path class="cls-26" d="M576.78,705.46a8.87,8.87,0,0,0,5.88,10.35l4.4,61.06,6.58-.49-.82-11.33c6.67-33.69,3.95-47.66.22-53.45a9.33,9.33,0,0,0,.84-2.28,8.87,8.87,0,0,0-6.53-10.67,8.78,8.78,0,0,0-10.56,6.6,1.89,1.89,0,0,0,0,.23Z"/><path class="cls-26" d="M580.22,772.71a7.81,7.81,0,0,0,1.36,9.52l-.38.3C571,788.25,547,807.87,535,817.94c-3.5-2.9-10.56-1.24-16.3,4-6.08,5.54-8.37,13-5.13,16.63s10.82,2.09,16.89-3.44c4.92-4.49,7.35-10.21,6.39-14.15l7-5.37c12.62-7.38,35.68-21.52,41.28-31.41a7.69,7.69,0,0,0,9.25-5.77,7.77,7.77,0,0,0-5.71-9.34,7.66,7.66,0,0,0-8.41,3.65Z"/></g><g id="step5-2" data-name="step5"><rect class="cls-30" x="-2" y="523.36" width="384.2" height="554.27"/><path class="cls-17" d="M159.87,1027.35a5.47,5.47,0,0,0-4,2c-11.67-4.81-40.06,10.06-40.06,10.06l42.07-1.45a5.26,5.26,0,0,0,2.37.47,5.55,5.55,0,0,0-.37-11.09Z"/><path class="cls-17" d="M189.51,822.76a10.14,10.14,0,0,0,.15-1.35c.54-7.64-4.5-14.21-11.25-14.7s-12.66,5.32-13.17,13A14.6,14.6,0,0,0,169,830.76L124.69,945.65l7.15,2.82,2.75-7.11c3.79-6.14,16.15-22,26.95-35.57,6.88-6.51,14.2-13.13,21-18.75C201.92,871,191.27,829.16,189.51,822.76Z"/><path class="cls-17" d="M141.52,942.11a9.58,9.58,0,0,0-12.65-5,9.75,9.75,0,0,0-5,12.77,9.63,9.63,0,0,0,8.46,5.82l26.89,82.66,5.22-1.73-5.23-16c-5.23-37.82-9.07-56.76-15.1-59.95-2.58-4.52-4.47-6.24-5.7-6.84A9.76,9.76,0,0,0,141.52,942.11Z"/><path class="cls-17" d="M198,694.57a8.76,8.76,0,0,0,10.81,4.82L248.18,746l5-4.31-7.3-8.64c-14.38-31.15-24.77-40.79-31.17-43.23a8.78,8.78,0,1,0-17.4,2.39,9,9,0,0,0,.67,2.4Z"/><path class="cls-17" d="M240.76,745.8a7.66,7.66,0,0,0,8.44,4.53v.48c-1.44,11.73.21,42.81,1.2,58.56-4.39,1.11-7.21,7.89-6.4,15.67.85,8.21,5.49,14.41,10.29,13.94s8-7.59,7.17-15.82c-.7-6.65-3.85-12-7.58-13.53l-.21-8.87c1.52-14.66,3.76-41.8-.88-52.19a7.81,7.81,0,0,0,.77-11,7.62,7.62,0,0,0-10.83-.78,7.81,7.81,0,0,0-2,9Z"/><path class="cls-18" d="M156.07,574.35s-14.27,11.09-2.19,14.41,57.08-13.3,85.62,8.87,47.2,18.85,37.32,2.22-5.49-16.63-3.29-22.17,6.58-7.76-11-11.09c-7.68-5.54-3.29-8.87-12.08-14.41s-6.58,2.22-30.73,11.09S162.66,567.7,156.07,574.35Z"/><path class="cls-19" d="M230.16,558.8s38,22.7,41.23,23,0,5.86,0,7-47.95-24.95-45.38-28S230.16,558.8,230.16,558.8Z"/><path class="cls-20" d="M95.15,784.42c-22-29.81-14.27-68.73-2.2-105.31s60.38-64.3,63.67-72.06,18.66-69.83,47.2-64.29S228,577.12,229.07,586s42.81,11.09,50.49,37.69,11,22.17,7.69,39.91S271.88,696.84,273,713.47s26.42,123.78-50.5,135.24C155.52,858.69,133.57,836.52,95.15,784.42Z"/><ellipse cx="126.65" cy="643.96" rx="6.62" ry="3.8" transform="translate(-443.03 318.09) rotate(-49.1)"/><path class="cls-21" d="M133.57,655.83c11-5.54,20.85-13.3,35.12-8.87s36.23,24.39,4.4,75.38c-14.27,21.06-27.45,59.86-28.55,74.27s3.8,46.1-8,35.24S73.23,777.53,82,725s13-51.61,15.84-57.07c5-1,12.68-1,18.16-3.24S131.37,658.05,133.57,655.83Z"/><path class="cls-22" d="M101.73,681.32s7.69,2.22,19.76-5.54,34-24.39,36.23-10S130.27,698,121.49,699.06s-29.64,3.33-31.83,0-.53-13.84,1.38-16.89S96.25,678,101.73,681.32Z"/><path class="cls-23" d="M145.64,673.56c-2.19,1.11-21.95,20-56,14.42"/><path class="cls-24" d="M188.45,560.49a53.69,53.69,0,0,0-13.17,18.85c-1.95,4.76-4,9.91-3.29,16.63.27,2.62,1.38,12.35,8.72,16.7a16.59,16.59,0,0,0,16.53-.07c9.87-5.55,23-23.28,20.85-43.24S193.94,553.84,188.45,560.49Z"/><ellipse cx="182.42" cy="581.56" rx="6.59" ry="7.21"/><path class="cls-25" d="M177.07,575.46s35.26,1.82,40.89,4c0,0,3.73-23.36-13.44-24.47S177.76,573.8,177.07,575.46Z"/><path class="cls-26" d="M257.8,638.59c8.4,0,8.42-13.19,0-13.19S249.37,638.59,257.8,638.59Z"/><path class="cls-26" d="M270.23,651.89c8.41,0,8.43-13.19,0-13.19S261.81,651.89,270.23,651.89Z"/><path class="cls-26" d="M254.13,657.07c8.42,0,8.43-13.2,0-13.2S245.71,657.07,254.13,657.07Z"/><path class="cls-26" d="M262.91,793.05c8.42,0,8.43-13.2,0-13.2S254.49,793.05,262.91,793.05Z"/><path class="cls-26" d="M243.15,805.61c8.42,0,8.43-13.2,0-13.2S234.73,805.61,243.15,805.61Z"/><path class="cls-26" d="M261.45,810.79c8.41,0,8.43-13.2,0-13.2S253,810.79,261.45,810.79Z"/><path class="cls-26" d="M221.33,985.76a5.6,5.6,0,0,0-.45,4.49c-10.23,7.43-12.81,39.64-12.81,39.64l21.11-36.79a5.51,5.51,0,0,0,1.65-1.78,5.59,5.59,0,0,0-1.69-7.66,5.47,5.47,0,0,0-7.58,1.71c-.08.13-.16.26-.23.4Z"/><path class="cls-26" d="M191.89,823c0-.45.08-.9.08-1.37.11-7.64-5.31-13.92-12.08-14s-12.33,6-12.44,13.68a14.63,14.63,0,0,0,4.4,10.85L134.06,949.43l7.31,2.41,2.33-7.25c3.44-6.35,14.88-22.91,24.9-37.08,6.51-6.9,13.43-13.93,19.9-20C207,870.44,194,829.3,191.89,823Z"/><path class="cls-26" d="M142.38,941.92a9.58,9.58,0,0,0-11.93,6.55,9.71,9.71,0,0,0,6.49,12,9.52,9.52,0,0,0,9.83-2.78l79.91,32.57,2-5.15-15.52-6.32c-32-20.36-48.8-29.59-55.11-27-5.08-.92-7.59-.58-8.85,0A9.69,9.69,0,0,0,142.38,941.92Z"/><path class="cls-26" d="M193.14,688.72a8.8,8.8,0,0,0,9.48,7.13l28.18,54.2,5.83-3.09-5.22-10.05c-7.19-33.58-15.21-45.32-20.86-49.11a8.46,8.46,0,0,0-.12-2.46,8.78,8.78,0,1,0-17.38,2.54q.06.4.15.78Z"/><path class="cls-26" d="M223.28,747.23a7.81,7.81,0,0,0,3,9.12l-.31.36c-9,7.49-29.07,31.14-39.12,43.23-4-2.22-10.61.7-15.36,6.89-5,6.55-5.91,14.29-2.07,17.27s11,.09,16-6.46c4-5.3,5.41-11.37,3.75-15.09l5.88-6.54c11.1-9.55,31.27-27.71,35-38.42a7.76,7.76,0,1,0-6.83-10.37Z"/></g></svg>
