<svg xmlns="http://www.w3.org/2000/svg" viewBox="0 0 1920 1080"><defs><style>.cls-1,.cls-10,.cls-13{fill:none;}.cls-2{fill:#848484;}.cls-3{font-size:131.31px;font-family:Chalkduster, Chalkduster;}.cls-4{letter-spacing:0.02em;}.cls-5{fill:#3d221d;}.cls-6{fill:#efb27b;}.cls-7{fill:#4c322b;}.cls-8{fill:#492920;}.cls-9{fill:#7c4735;}.cls-10,.cls-17,.cls-18,.cls-19,.cls-20{stroke:#000;}.cls-10,.cls-13,.cls-17,.cls-18,.cls-19,.cls-20{stroke-miterlimit:10;}.cls-11{fill:#b7aea1;}.cls-12{fill:#720f35;}.cls-13{stroke:#492920;}.cls-14{fill:#ff0808;}.cls-15{fill:#4c2b22;}.cls-16{fill:#c7f2ff;}.cls-17{fill:#f2f9f9;}.cls-18{fill:#ff7373;}.cls-19{fill:#424441;}.cls-20{fill:#dee5da;}.cls-21{fill:#bcc9c9;}.cls-22{fill:#d15e5e;}.cls-23{fill:#491226;}.cls-24{fill:#d82533;}.cls-25{fill:#f9dcdc;}.cls-26{fill:#5b5550;}.cls-27{fill:#44413f;}.cls-28{fill:#726c67;}.cls-29{fill:#a3a19f;}.cls-30{fill:#0c2120;}.cls-31{fill:#2d2520;}.cls-32{fill:#323d3d;}.cls-33{fill:#182626;}.cls-34{fill:#75411a;}.cls-35{fill:#8c6628;}.cls-36{fill:#fce094;}.cls-37{fill:#f9c619;}.cls-38{fill:#f4710f;}.cls-39{fill:#f16ea7;}.cls-40{fill:#ffc0dd;}.cls-41{fill:#ffe7e8;}</style></defs><title>thebear</title><g id="Layer_1" data-name="Layer 1"><polygon class="cls-1" points="379.2 619.51 -95.47 535.64 -260.17 82.63 49.8 -286.51 524.47 -202.64 689.17 250.37 379.2 619.51"/></g><g id="Layer_3" data-name="Layer 3"><path class="cls-2" d="M344.93,849.5c-1.17.86-.51,2.82,2.72,2.43l2.29-3.31Z"/><path class="cls-2" d="M366.67,855.63c3.81-1.6,8.19-4.42,5.73-7.46-3.77,3.18-4.68,1.85-8.73,5.64-3.24.39-5.65-1.06-5.1-2.28-1.15.85-5-.73-6.77,1.35,4.21,2.56,9.54,2.67,15.11.55C368.11,854.16,367,855,366.67,855.63Z"/><path class="cls-2" d="M682.7,860.79l-2-.39A6.78,6.78,0,0,0,682.7,860.79Z"/><path class="cls-2" d="M803,718.94c-.67,1.33-.7,2-.48,2.25C803,719.88,803.43,718.8,803,718.94Z"/><path class="cls-2" d="M822.89,691.81c-.45.57-.79,1.07-1.18,1.6A2.61,2.61,0,0,0,822.89,691.81Z"/><path class="cls-2" d="M682.7,860.79l5.23,1C688.3,860.76,685.25,861,682.7,860.79Z"/><path class="cls-2" d="M410.25,847.65a9.75,9.75,0,0,0-2.84.87c.9-.14,1.77-.26,2.67-.35A3.93,3.93,0,0,1,410.25,847.65Z"/><path class="cls-2" d="M596.38,863.48h-1.59a9.41,9.41,0,0,0-1.32,1.35Z"/><path class="cls-2" d="M530.14,864c1.5.12,2-2.69,2.59-3.92a4.76,4.76,0,0,1-3.26,1.93A3.58,3.58,0,0,0,530.14,864Z"/><path class="cls-2" d="M425.1,859l-1.86.39C423.72,859.31,424.54,859.2,425.1,859Z"/><path class="cls-2" d="M643.8,864.09a2.12,2.12,0,0,0,.6,1A1.39,1.39,0,0,0,643.8,864.09Z"/><path class="cls-2" d="M318,783.06c-.2.05-.27.18-.43.25C318,783.51,318.2,783.51,318,783.06Z"/><path class="cls-2" d="M344.3,856.52l-.67-.85a7.92,7.92,0,0,0-1.47.59Z"/><path class="cls-2" d="M856.6,640.63a1.68,1.68,0,0,0-.18.21C855.89,642.39,856.3,641.57,856.6,640.63Z"/><path class="cls-2" d="M640.72,201.22c6.36,2.51-10.36,3.22-.78,6C639.05,206.14,648.65,202.85,640.72,201.22Z"/><path class="cls-2" d="M412,848c.89,0,1.8-.06,2.72,0A11.67,11.67,0,0,0,412,848Z"/><path class="cls-2" d="M639.94,207.24v0l1,.26Z"/><path class="cls-2" d="M899.28,505.68a4.18,4.18,0,0,0-.35,1.86C899.16,507.36,899.3,506.9,899.28,505.68Z"/><path class="cls-2" d="M869.65,606.65l1.62-2.06A12.6,12.6,0,0,0,869.65,606.65Z"/><path class="cls-2" d="M868.58,460.44c-.52-1.33-.42-1.94-1.72-3.42a2.58,2.58,0,0,0,0,.68A4.07,4.07,0,0,1,868.58,460.44Z"/><path class="cls-2" d="M840.19,411.3a9.6,9.6,0,0,0,0,1.19l1,1.48Z"/><path class="cls-2" d="M230.55,634.36a9.13,9.13,0,0,1-.88,3.53C231,636.13,235.75,643,230.55,634.36Z"/><path class="cls-2" d="M410.28,849.23A2,2,0,0,1,412,848c-.65,0-1.28.09-1.89.15C409.92,848.59,409.88,849,410.28,849.23Z"/><path class="cls-2" d="M848.22,469.53l-4.15-8A89.2,89.2,0,0,0,848.22,469.53Z"/><path class="cls-2" d="M311.65,293.38l-.75,2A3.59,3.59,0,0,0,311.65,293.38Z"/><path class="cls-2" d="M830.33,438.55a15.78,15.78,0,0,0-.85-5.37,3.53,3.53,0,0,0-1.15-.54Z"/><path class="cls-2" d="M229.65,637.92a0,0,0,0,1,0,0A0,0,0,0,0,229.65,637.92Z"/><path class="cls-2" d="M265.13,686c-4.22-7.48-5.15-1.69-7.89-2.2-6-8.36,0-5.47-.13-9.44-4.05-5.06-9.44-7.62-11.71-11.82.35-.62.08-1.53,1.29-1-5.93-4.39-10.18-17.33-17.32-22.32a2.42,2.42,0,0,1,.28-1.35,6.76,6.76,0,0,1-3.78,3.59c-2-3.31-5.6-5-4.23-7.49,1.12,2.08,2.06,1.76,3.27,2.34l-2.93-3c1.19-4.88,3.79,4.17,6,2.89-4.91-6.25-12-12.76-14.15-18.47,2.31-2.79,8,11.64,6.63,3.16L224,629.7c1.08-8.85,2.51,5.1,4.2-3.44-5.29-11.13-8.37-11-13.63-22.14-3-1.44-2,2.19-5,.74-11.64-13.38.54-16.13-9.77-25-3.62-1.74-8-.7-10.57-9.73l4.88.77c-5.62-10.49-8.18-3.12-12.17-15.19,2.42,1.16,5.78,7.46,5.27,5.67-1.4-8.5-4.74-3.85-7.84-9.22l2.31-2.82c-2.05-3.23-4.32-6.47-6.69-9.76l-1.78-2.45-.83-.77c-.58-.55-1.21-1.18-1.89-1.9a28.58,28.58,0,0,1,.89-3.15l.15-.44a.55.55,0,0,1,.08-.17l.11-.24L172,530l.91-1.87c.61-1.24,1.23-2.48,1.87-3.72.49,1.18.21,3.79,2.75,1.47,7.37-16.16,19.23-32.48,29.51-46.24l.71-7.11c.79-1.29,2.56-1.77,2.23-.06,4.29-5.2-1.44-1.23-.84-4.58,1.71-3.37,4-3.48,3.52-1,3.71-11.4,12.06-31.62,21-40.75l-.45,2.52c5.84-7.73.22-12.41,7.05-18.77l-.41,1.74c11.55-17.45,20.76-38.78,32.56-50.36-2.14-4.74,12-17,7.54-21.07,8.49-8.87,7.7-5.39,17.8-18.95,2.47-3.75.15-7.63,2.39-12.74l2.74,1.42,1-8.13,5.2-1.63,1.91-4.9c-1.19,1.7-3.4,3.12-4,2.41,2.85-7.74,11.76-16.08,13.23-15.47l7.35-17.95c.86,1-.38,4-1,6.59,2.4-10.46,3.74,0,5.94-9.57-1.23.74-1.24-1.51-1.68-2,4-3.13,9.31-12.36,12.57-19.59l1.09,2.38c2.16-3.43,4.23-7.06,6.28-10.81l1.53-2.84c.37-.66.25-.5.3-.61l.06-.22c.09-.34.18-.68.28-1,.21-.07.44-.14.69-.2l.4-.1.22,0h.23l.64,0c3.42-.11,6.87-.17,10.32-.16-5.74-1-4.42-4.68.27-5l1.88,3.26c3-2-4.9-1.23,1.32-3.7,6,.38,4,3.71.58,4.77l7.27-1.13c.43,1-1.28,1.48-1.72,2.72,3-2,12.54,3.27,16.85-.24l.41,1c16,0,23.25-1.1,36.28-1.26.25-2.81,5.35-2.19,9.23-4.46,9.57.9,20.2,3.11,31.74,2.87,8.11-1.4,2.37-2.38,6-4.06.6,2.57,12.12,2.33,6.15,4.17a298.13,298.13,0,0,0,35.2-2.6c-1.9-1-4-1.5-2.93-2.37,3.17-.42,7.23,1.07,6.77,2.3l-.84.27c19.66-3.85,45.37,7.46,61,2.12L580,225l16.23-2.78c7.47.44-4.48,1.92,1,3.51,17.51-4.28,27.67.62,42.09-2.23,11.16,7.55,39.61-.53,54.67,4.29l-.87-1.78c3.9-1.74,4.71,1,7.58,1.43-.4-1.39-4.22-1.6-1.8-2.57l4.3-.24,3.92-.17c.83-.09,1.71-.13,2.58-.14.25.44.5.9.74,1.35l.34.69.17.34.55,1q2.51,4.62,4.92,9.32c3.22,6.26,6.35,12.63,9.45,19,6.19,12.78,12.25,25.68,18.67,38.12,5.77,10.95,11.48,1.47,15.6,17.1l-5.08-2.18c15.91,19.64,25.4,44.27,40.53,63.75-1.38-.88-2.26-.42-3.45-2.49.51,5.67,9.45,16.59,11.19,15.68,1.71,3.41-1.1,1.65-.79,4.18,1.37,5.19,9.15,9.72,8.46,13.3-.1.6-1.4-.87-2-1.6,2.69,2.34,7.6,13.76,8.38,9.58,3.44,8.6,9.84,14.58,12.08,21.73,5.06,2.58,6.56,14.34,11.11,13.47-4.25,1.69,4.88,15.74,9.62,19.7-2.16-1,1.29,5.08-1.48,4.06,3.36,5.69,7.12,10.53,8.55,8.37,1.41,13.26,16,19,13.46,28.45q6.33,8.38,12.12,16.41l5.65,7.9c.83.86,1.72,1.86,2.65,3-.38,1.06-.78,2.16-1.23,3.29l-.18.45-.44.9c-.3.59-.59,1.18-.88,1.77-.58,1.18-1.16,2.34-1.74,3.5-1.35-1-.36-3.73,1.16-6.75l.14-.28.07-.15,0-.06.08-.2.18-.4c.12-.26.23-.52.35-.77a2,2,0,0,0,.23-1.3,3.55,3.55,0,0,0-2.71-.35l.58.35a7.23,7.23,0,0,1,.27,1.11c0,.22.06.45.08.7s0,.25,0,.4l-.44,1.19c-1.15,3.14-2.21,6.12-3.35,9.07a89.87,89.87,0,0,1-9.31,18.21c-2.69,3.42-.47-3.09-.41-4.74-6.77,15.44-16.56,27.86-21.89,42-.34-.24.06-1.87.53-3.35-1.35,2.62-4,5.58-2,6.32l1-2.76c4.92-2.57-.45,13.22.64,14.46-2.59-7.26-8.64,12-11.11,1.44-.63,1.87-1,4.46.41,4.76-1.78,2.29-2.93,2.67-2.83-.63-4.3,9.68-.54,7.53-5.35,15.77-.84-.53-.21-2.39-.73-3.83-.74,5.15-1.48,10.32-6.24,16.88-.28-.71-1.42-.29-.2-2.37-6.67,12.14-7.34,23-16.55,35.23-1.5-6-3.81,3.76-7.45,2.59l-3.12,7.63,3.21-1.93c-3.63,6.16-4.44,13-8.57,17.71l1.33-5.37-6.09,12,5-5.86c-2,7.23,4.48,1.69-1.19,9.41.64-1.86-3.61,6.18-7.38,8.31,0,0,0,0,0,0-.74,3.66-1.48,7.44-4.92,11.55-1.72.6-3-3-4.16-2.64,1,4.58-7.63,14.94-7,20.43.06-1.66-1.59-2.71-2.19-2.49l.74,3.8c-2.36,2.47-3,2.69-4,1.44-5.38,8.4,5.68-.37-2,8.85.29-.9-.26-.71.37-2.57-6.86,9.75-10.08,20.68-16.62,29.51-4.86.91,4-8.72-.62-7.11-7.28,14-12.39,30.48-20.78,43.23l1.78-2.26c1.77,2.24-.21,4.37-2.85,6.93a48.34,48.34,0,0,0-4.06,4.23,16.32,16.32,0,0,0-1.67,2.48,11.09,11.09,0,0,0-.61,1.33,6.65,6.65,0,0,0-.2,1.06c.28-1.26-1.53-3.24-1.29-2.47l-.86,1.21c-.24.35-.47.71-.69,1.09-.44.75-.84,1.56-1.26,2.47-1,.11-2,.29-3.17.5l-1.83.35-3.22.39c-4.5.56-9.42,1.2-14.94,1.78l2-1.36c-6.15-1.22-16.19-.7-22.84-1.32-2,1.36-5.76,1.13-3.46,3.12-20.47-7.76-39,4.16-57.22-2.31,2.17,0,5.18-1.19,3.45-1.2l-15.48,1.26c1.23,2.31,2,1.4,5.28,3.2-2,1.37-6.32,2.43-10.16,2.43,7-1.53-.06-3.71-3.06-5,.5.71-.53,1.49-.28,2.21-8.08-4.11-1.35,4.65-12.39,1.88l.59-1.21c-4.13.62-7.94,2.22-12.39,1.87-1.85-2.67,4.39-1.24,4.68-3.44-6.26.15-12.35,5.06-18,2.4,2.66-.75,6.48-.76,9.14-1.5-6.17-3.14-6.89-2.34-11.47-2.84l.45.07-10.59-1.42,2.7.85c-7.83,7-15.94,1.27-26.49,5.84,10.25-4.32,1.69-2.5,2.48-5.53-2.69-.84-6.79-1.78-5.62-2.64-5,2.45-8.32-1.92-15.36,1.65-.31-1-5.33-.09-4.2-2.54-6.49.77,1.53,1.7,1,2.92-10,3.33-23.48-4-37.85.53-12.39,1.88-14.68,5.17-26.18,6.81-3.88-1.56,3.18-3.55,3.18-3.55a37.55,37.55,0,0,0-16.87-.06c1.19-.85,0-1.57-1.84-2.67-4.73.26-3.16,3.56-9.41,2.12a16.37,16.37,0,0,1,4.73-3.92c-5.58.9-11.09,2.72-16.86,3.6-1.53-1.7,3.48-2.58,5.52-3.69-6.49.77-16.82,1.54-18.82,4.23l4.16,1c-2.37.13-1.22-2.31.53-2.8,5.56-2.11,8,.93,8.34,1.91l-4.12.63c4.23,5.72,16.52-.92,24.8-.59l-3.45,4.16,8.5-3.45c1.8,1.08,3,3.4-1.05,4,5.94,2,5.25-1.48,10.35.81.57.36.31.56-.21.72l5.8-1.24c-1.14.88,1,2.94-2.6,2.34,10.41,2.4,16.79-3.12,20.71,0l-.87.26c14.44-1.41,1.4-3.06,12.23-6.64l7.29,7.53,1.42-3.05c1.49.11,4.44.34,3.9,1.56,5.54-2.09-1-1.33,2.27-3.3,7.17,2.78,19.78-1.3,21.39,3.56,2.58-2.32-6.86-1.79.8-3.4,2.18,5.23,8.85-.9,15.4,1.5-2,2.7-8.22,1.27-1.66,3.68,3.95-4.56,12.76,1,18.29.13.26-3.64,12-1.52,21.29-2.73-.59,1.22,17.45,2,26.08,3.31l-.26.61c1.67-3.67,10.57-3,17-3.74-.25,2.2-1.42,3.07-4.93,4l6.09,0c1.44-1.17,3.34-1.79,7.29-2.21L600.55,864c8.11-.15,16.33-3.23,26.76-1.4.59-2.56-8.3-7.13,2.74-8.84.41,1.38.81,3.75-2.07,4.32.94-.18,3.37-1.15,5.27-.56l-4.4,2.33c4.75,1,2.48-2,6.28-1.73-.08,2,2.81,1.41,2.27,3-1,.19-3.32-.82-4.77,0,4.28.35,9.46,1.52,11.17,3-.37-1.13,0-2.66,3.14-2.92,8.1-.14,2.77,2.38,7.5,3.39,2-1.37,7.14.05,7.27-2.9,2.37,0,2.81,1.39,3.73,2.19,4.2-1.3,19.6-.37,14.87-3.51l-1.08-.21c.21-.06.44-.06.69-.13h0c5.91-1.26,12-1.13,18.16-.67l4.59.39,4.65.42c3.81.26,7.76.47,11.6.49,1.26-2.14,2.46-4.35,3.54-6.56l.73.71q.85-1.9,1.77-3.78l1.46-3c1-2,1.94-3.92,2.89-5.82,1.86-3.82,3.48-7.45,4-10.5,1.21-2.08,4.41-4,4.91-2.54,2.47-5.77,1.86-6.93,7.77-13.9-1.64,6.28,2.4-1.11-2.11,6.19,4.78-6.58,7.06-7.38,9.07-16.25.71,3.82,5.81-3.69,7.07-7.4l-4.4,4a80.45,80.45,0,0,1,6-10.31l1.84,3.46c11.78-12.32,9-29.3,21.13-36.83.18-5-5.91,7-6.31,2.21,4.2-6.37,12.3-10.85,13.5-12.91,6.81-8.12.66-10.86,7.21-19.69-1.72.62-5.13.18-2-7.45,4.2-6.38,9-5.62,7.42-1-.83,1.63-1.6,2.21-1.91,1.94-.86,2.35-2,5.4.59,3.43l-.53-1.45c2.94-2.67,8.07-11.81,8.53-8.71,1.9-5.55-.46-3.1-3.12.29,6.37-7.61,7.68-13.21,13.71-21.34-1.37,1.06-3.31,1.64-2.5.26,8.65-12,1.3-6.75,5.85-15.67,4.4-4,2.72,3.92,6.44-5.56,4.13-4.71,3.38.45,3,3,2.61-9.09,9.87-14.09,12.86-18.41l-1.59,4.66a36.16,36.16,0,0,1,3.36-6.91l-3.44,1.2c1.78-2.25,3-4.33,3.82-3.79.11-3.3-4.54,0-3.48-6.12,2.93-2.67,4.64-10.62,8-10.18-6.88,9.77,3.39.45-1.2,9.42a21.72,21.72,0,0,1,3.63-6.17c.51-.19.36.68.13,1.44,8.13-8.45-.47-6.31,5.49-16.49.79,2.18,4.28-.68,4.92-2.54-2.41,4.1-3.7.49-2.7-4,5-5.86,3.22-7.63,5.34-11l-2.82,3.59c-.78-2.22,1.32-5.37,3.47-10.22,1.42.3-1.57,4.62-.1,3.3.22-6.63,9.41-9.84,11.67-18,2.93-2.68,3.07,1.35,5.43-1.12,2.58-9.07,7.06-7.36,10.22-16.64-3.45,1.21-3.18,1.92-1.81-5.11L889.26,577l2.07-10.52c-2.42,4.11-3.74,9.47-5.52,11.74.73-5.16,1-4.43-1.86-3.44,6.36-3.87,4.67-12.25,10.53-17.58l5,3.15a32.1,32.1,0,0,0,6.12-9.91c.37-.92.75-1.85,1.14-2.8l2-4.38c1.31-2.92,2.6-5.82,4-8.78-1.54-2.29-3-4.64-4.52-7.13-.73-1.24-1.46-2.52-2.19-3.86-.18-.34-.36-.68-.55-1l-.27-.52-.18-.36-.65-1.4.37,1.15.18.58c.07.21.22.55.32.81l1.33,3.33a7.71,7.71,0,0,1-2.68-2.54c-.49-.69-.75-1.06-1.07-1.59s-.62-1.06-.92-1.64c-1.23-2.32-2.49-5-4.09-6.85,1.93-.61,1.06-3.55,1.1-5.93-1.14.95-5.27-9.4-9.35-8.59l-1-7c-5-10.84-11.66-8.94-16.79-19.18,3.58,1.91,2.19-3.29,7.35,2.57-1.89-3.31-3.3-6.47-4.51-5.84-.05-2.54-7.6-7.83-7.73-11.81-1.55-1-3.61-.38-5.61-4.17.11-.61.85-.48.85-.48-.85.48-4.5-5.14-4.52-.81C857,439,840.76,424,840.22,412.49c-4.74-6.88-10.31-15.26-14.21-21.74.75.13.86-.47,1.4.87-3.63-9.95-8.12-2.72-12.28-14-.27-6.85,4.65,4.59,3.81.72,4.8-4.68-7.94-12-8.65-20.78l1.3,1.48c-1.14-6.39-9.58-11.67-14.17-20.55,0,0,.74.14.88-.44-6.28-4.25-13.68-14.89-19.28-22.74,3.69,1.31,3.34,3.1,4.67.23-2.47-3.54-3,3.17-7.88-3.91-.19-3.11-2.24-9.08-.26-11.17l4.18,6.94c1-5.38-5.35-9-7-13l1.62-.31c-6.64-10.5-10.13-8.68-16.56-20.38l-.33,1.79c-7-4.37-1.16-6.39-7.31-11.24l2.32-3.88c-3.23-3.7-11.73-12.69-16.69-19.79,5,2.77,11.33,10.76,16,15.3-2.36-4.14-8.36-13.89-11.29-15.07,1.29,1.48,3.34,3.09,3.76,5q-8.41-5.28-15.47-17.69c2.44-.77,2.14-3.43.69-7-.36-.89-.8-1.83-1.28-2.81l-.37-.75-.47-.89-1.22-2.27c-1.67-3.08-3.47-6.32-5.18-9.57-3.73-.15-7.32-.39-10.53-.85-.81-.11-1.59-.24-2.34-.38l-1.1-.23-.67-.26a8,8,0,0,1-2.19-1.29c-16.82,2.83-33.36-1.21-52.94-.76,6.94,6-5.72.17-4.52,6.28-4.56.4-6.3.3-6.71-.1l-13.83-3.65c-3.27-1.78,4.34-1.35,3.92-2.72-10-.47-4.19-2.6-10.8-4.22,1.36,2.19-3.47,3.13-9.16,2.3l8,2.82c-14,3.25-12.06-5.13-26.13-1.91l4.45-1.92c-7.22,1.13-26.64,0-33.72,4.87-1.27-.71-3-2.38.22-2.82-17.26-.74-38.42,5.23-51.83,2.2l1.31-1.49c-3.22.43-5.6,2.81-9.63,1.3.21-.62,1.29-1.49-.2-1.58-1.7.52-8.55,2.62-12.82,1.75l3.65-1.68c-16.83-2-25.83,4.09-39.95,5.12,0-4.4-13.2-5.83-19.81-6.55l.23-.62c-19.6-.54-33.3,3.65-51.45,5.38-3.87-1.65-9.6-2.4-16.18-2.78-3.29-.19-6.8-.3-10.39-.37l-18.07-.22c-1.5,2.49-3,5-4.47,7.43l-2.25,3.66-1.12,1.82c-.37.59-.81,1.31-1,1.52-1.76,2.64-3.52,5.13-5.3,7.36,2.08-2,2.75,2.11,1.52,5.12-2.9,3.23-3.23,11.7-6.39,9.09l.83-1.27c-5,.79-8.49,8.88-12,14.73l4,3.62c-15.57,11.6-20.92,41.88-31.75,46.87-1,4.39-3.69,9-4.67,13.35l-2.34-1.61a246.88,246.88,0,0,0-16.66,28l-.25-3.61c-4.31,7.11,1.82,13.17-1.87,19.9l-4.81-.12c-7.2,12.6-17.75,23.46-21.6,37.79-.42-.52-1.26-1.5-.24-3.62-3.51,5.86-15.68,21.44-9.42,22.2-3.35-1.74-7.8,12.77-10.27,20.39L206,430.68c-.22,7.51.52,8.18-3.25,16.67-1.4,1.71-2.89.54-.82-1.62-4.91,5.58-.55,6.24-6.26,13.15l.11-3.74c-3.94,6.39-2.81,6.35-3.08,11-1.39,4.64-7.73,12-10.46,11.67.82,1.64.55,6.23-2.29,9.69-1.12,0-.83-1.65-.68-2.49-7.91,9.91-6.52,17.77-13.2,23.87a2.14,2.14,0,0,0-2.17.43c5-8.59,9.19-15.47,9-14.71-2.23-1.29-6.64,5.46-6.51-1.86-1.56,6.56-3.44,18.24-8.41,24.43a3.68,3.68,0,0,1-1.28.45l.15-.85a10.7,10.7,0,0,0-1.33,2.22,11.25,11.25,0,0,0-.45,1.14c-.13.41-.25.82-.38,1.21a109.59,109.59,0,0,0-6.2,9.19c-.95.33-2.23,1.82-3.7,4,1.08,2.29,2.84,5.32,4.6,8.26l2.56,4.27,1.13,1.9.55,1c2.27-1.69,4.51,3.09,4.06-2.34.07.33-.1.21-.46-.28-.26-.3-1.18-1.76-2.23-3.46a20.34,20.34,0,0,0-1.58-2.16c.14.08.29.18.45.29l-4.42-7.45,3.21-5.72a37.73,37.73,0,0,1-1.54,5.72,23.32,23.32,0,0,1,4.31,8.38c.8.49,1.6,1,2.36,1.39l1.11.62.52.29.46.17c1.18.45,2.21.88,2.91,1.21-.65,6.72,2.81,17,1.45,19.43,7.5,9.83,15.34,24.49,23.77,28.52,2.33,2.68.69,4.23.62,5.77-1.46-1.48-2.59-3.59-3.79-4.15,4.66,5.35,10.78,17.61,14.8,17.21,3,8.43-5.41-2.58,1.15,7.57l-1.79-.85c6.76,23.51,27.45,28.71,34,55.29-.51-1.81-.78-2.71-.43-3.34,12.11,27.65,33.63,52,43.85,80.27,3.28,7.82,5.78,7.43,9.9,11l-1.71,3.09,7.41,5.86c8.44,9.51,4.37,22.38,16.43,33.62l.74-2.78c2.5,5.1,10,14.94,7.51,15.29.61.31,2.76.55,3,3l-1.29.94,9.3,10.7c4.4,9.9-6.27,1.67,1.33,15.45,3.45,4.76,12.31,12.12,12.13,9.69-1.12-2.08-2.16-5.71-.88-6.66l3.38,4.22c4.52-1.48,10.71-.31,7-13.3l-7-6.5.48-3.69,4,6.6c-.34-4.84-3.35-6.3-6-8.34a5.93,5.93,0,0,0,.24-4.57l-8.35-5.55c1-1.86,5.15,1.68,3-4-3.9-2.62-1.52,5.53-6.18.18-.36-4.85,1.77-4.61-2.36-8.15.68-1.23,1.88-.67,3.36.83-3.53-3.24-6.58-10.17-9.9-11,0-5.26-8.31-13-4.27-14.85-1.63-.71-7-5.24-9.28-8.79,8.4,4-7.6-13.77-1.68-14.84-6.95-2.55-12.09-16.72-19.4-24.11.61.3,1.83.87,2.06,1.76-2.49-5.1-2.07-7.24-3.12-10.84-3.75,1.33-8.94-5.86-13.41-8.77-.2-7.89,6.09,1.35,8.15-2.35-2.58,1.89-8.78-8.86-9.89-5.49-.63-5.77-1.3-4.53.15-8.52-4.71,1.64-3.2-3.86-8-6.17-1.75-7.86,3-4-2.52-10.57C259.88,680.39,265.13,686,265.13,686ZM174,524l0,0c-.81,1.53-1.49,2.83-1.93,3.67Zm8.4-14.63c-1.13,1.73-2.42,3.93-3.76,6.28-1.13,0-1.68-1-.79-2.47C177.92,514.26,180.39,511.09,182.36,509.32Zm-35,28.65a25.51,25.51,0,0,1-2.11-3.47,6.81,6.81,0,0,1,2.33-2.4c-.35.65-.72,1.34-1.3,2.4l2.86,4.42c.17.09.43.3.62.39A7,7,0,0,1,147.33,538Z"/><path class="cls-2" d="M155,543.82a15.47,15.47,0,0,1,1,1.36c-.18-.82-.37-1.57-.59-2.3l-1.56-.93C154.21,542.58,154.61,543.23,155,543.82Z"/><path class="cls-2" d="M680.31,860.34l.36.06a2.05,2.05,0,0,1-.75-.4C680.16,860.14,680.16,860.23,680.31,860.34Z"/><polygon class="cls-2" points="303.45 310.34 302.83 310 302.63 311.59 303.45 310.34"/><path class="cls-2" d="M587.43,850.69a2.29,2.29,0,0,0-1.22-.72C586.26,850.15,586.79,850.41,587.43,850.69Z"/><path class="cls-2" d="M547.3,850.06l-5.67-1A47.85,47.85,0,0,0,547.3,850.06Z"/><path class="cls-2" d="M516.45,848.67a3.09,3.09,0,0,0-.6,1.2l.06,0Z"/><path class="cls-2" d="M852.3,599.09a8,8,0,0,0,.48-1.1C853.71,595.3,852.94,597.05,852.3,599.09Z"/><path class="cls-2" d="M785,728.78a37.24,37.24,0,0,1,1.2-4.73C784.71,726.19,783.65,727.92,785,728.78Z"/><path class="cls-2" d="M848.67,470.42s0,0,.06,0l-.51-.88Z"/><path class="cls-2" d="M789.63,718.2a16.38,16.38,0,0,0-3.43,5.85A24.88,24.88,0,0,0,789.63,718.2Z"/><path class="cls-2" d="M382.75,847.39l-1.49-.12a.52.52,0,0,1-.18.46Z"/><path class="cls-2" d="M381.08,847.73l-1.65.33C380.19,848.06,380.85,848,381.08,847.73Z"/><path class="cls-2" d="M376,848.77l3.47-.71C378.23,848.05,376.75,848,376,848.77Z"/><path class="cls-2" d="M423.59,848.69l.46-1A1.42,1.42,0,0,0,423.59,848.69Z"/><path class="cls-2" d="M436,848.39c-3-.23-7.43-2.17-11.56-1.53l-.39.81C426,846.15,433.18,850.11,436,848.39Z"/><path class="cls-2" d="M487.8,861l-10.4-.81c1.81,1.09,4.2,2.55-.52,2.81C490,866.23,474.17,860.56,487.8,861Z"/><path class="cls-2" d="M520,862.57c-5.59.5.07,1.58-.23,2.19C523.35,863.77,524.21,863.52,520,862.57Z"/><path class="cls-2" d="M740.27,827.56l1.93,1.77C744,825.42,741.36,828.8,740.27,827.56Z"/><polygon class="cls-2" points="751.09 782.38 747.62 785.21 748.65 788.11 751.09 782.38"/><polygon class="cls-2" points="780.02 768.7 779.4 770.51 782.19 763.83 780.02 768.7"/><path class="cls-2" d="M847.39,418.8l-2.08,2.7C847.26,423.74,850.63,422.5,847.39,418.8Z"/><path class="cls-2" d="M760.13,274.09c.45-2.38-1-7-3.86-8.77C758,268.72,758.82,272.62,760.13,274.09Z"/><polygon class="cls-2" points="303.98 258.9 304.76 255.43 302.32 261.41 303.98 258.9"/><text class="cls-3" transform="translate(395.81 454.14)">T<tspan class="cls-4" x="100.69" y="0">H</tspan><tspan x="184.41" y="0">E </tspan><tspan x="-51.22" y="157.57">BEAR</tspan></text><g id="_2step" data-name=" 2step"><path class="cls-5" d="M417.65,154.57l29.31-.41a6.5,6.5,0,0,0,2.33,2.06,6.57,6.57,0,0,0,2.06.68h0s6.86,2.48,10.65-.23a41.87,41.87,0,0,1-6.52-.45,6.91,6.91,0,0,0,1.25-.89c1.67.37,3.38.46,4.08-.86a26.89,26.89,0,0,1-3.36.12,6.25,6.25,0,0,0,.62-.9c1.6-.05,3.38-.33,3.42-2-1,.5-2,1-3.1,1.36a6.82,6.82,0,0,0,.52-1.88c1-.6,2-1.39,1.72-2.3a7.18,7.18,0,0,1-1.71.85,6.42,6.42,0,0,0-.85-2.62c.95-.73,1.78-1.46,1.4-2a12.3,12.3,0,0,1-2.19.9,6.6,6.6,0,0,0-9.3-.55c-.12.12-.25.23-.36.36l-30.34.39C411.94,146.33,412.29,154.64,417.65,154.57Z"/><path class="cls-5" d="M398.37,211.37c3.62,1.08,7.87-2.55,9.51-8.1,1.24-4.18.63-8.25-1.28-10.47l11.31-38.35a5.18,5.18,0,0,0,.59-9.08,5.16,5.16,0,0,1,3.08-1.53c0-1.24-3.35.2-4.72.84a4.54,4.54,0,0,0-.51-.09l.66-4c-2.09.64-3,2.66-3.32,4.33a4.33,4.33,0,0,0-.73.4l-1.76-7c-1.52,1.69-.79,7.53-.43,9.87a4,4,0,0,0-.14.57l-4.85-6.23c-.81,1.53,3.44,6.83,4.89,8.57a5,5,0,0,0,.6,1.38l-11.76,39.84a13.15,13.15,0,0,0-4.73,7.08C393.15,204.94,394.75,210.31,398.37,211.37Z"/><ellipse class="cls-6" cx="400.93" cy="201.89" rx="7.1" ry="4.47" transform="translate(65.63 500.34) rotate(-68.4)"/><path class="cls-5" d="M506.26,274.85l-18.75-23.2a3.8,3.8,0,1,0-4.64,2.73,3.91,3.91,0,0,0,1.56.07l18.59,23Z"/><path class="cls-5" d="M517.7,262.06s-11.71,2.59-13.05,10.3h0a2.93,2.93,0,1,0,1.62,3.84,3.09,3.09,0,0,0,.2-.9Z"/><path class="cls-5" d="M485.8,248.09l-21.62-15.78a6.88,6.88,0,0,0-1.55-5.58l.1-.09s-.43-5.95-4.78-6.85a26,26,0,0,1,2.85,5.4,8.62,8.62,0,0,0-1.2-.54c-.62-1.51-2.19-4.81-4.14-4.61,0,0,3.1,3.75,2.56,4.19s-1.58-4.09-4.16-2.86a32.82,32.82,0,0,1,2.2,3,6.58,6.58,0,0,0-1,.25c-1.17-1.09-2.81-2.55-3.91-1.06a9.42,9.42,0,0,1,2.54,1.7,6.88,6.88,0,0,0-1.72,1.46,3,3,0,0,0-2.7,1.08s.93.09,1.83.27a6.68,6.68,0,0,0-.73,2.84,3.66,3.66,0,0,0-1.21,3.29,12.65,12.65,0,0,1,1.72-.41,6.93,6.93,0,0,0,8.68,3.93,8.11,8.11,0,0,0,.91-.4l21.61,15.77Z"/><path class="cls-7" d="M492.71,57.25c-.73-2.47-9.1-16.09-15.16-18.59s-12.13-2.47-12.88,1.87,1.51,13,6.06,14.86S492.71,57.25,492.71,57.25Z"/><path class="cls-8" d="M404.64,244.86a39.85,39.85,0,0,1-2.51,6c-5.31-4.54-18.62-5.64-5.31,4.55,5.58,1.79,13.52,2.2,12.68-4.27C407.76,248.7,404.64,244.86,404.64,244.86Z"/><path class="cls-9" d="M490.82,263c-12.12.77-41.7,10.07-51.55,7.59s-50.4-6.44-34.49-59.72,29.57-86.11,30.32-96,5.31-44,6.06-45.84,19-34.1,59.89-9.92C510.14,65.93,517,77.69,520,85.75s12.88,27.88,11.37,33.45-2.28,8.68-15.92,5-32.59-5.58-21.21,14.25,19,16.09,20.48,14.25,15.92-14.87,22.74-5.58,5.3,19.21,9.85,25.4c1.42,1.93,7.16,6.67,14.2,13.23,15.58,14.52,37.49,37.92,32.8,59.25C587.45,275.94,520.37,261.16,490.82,263Z"/><path class="cls-6" d="M549.22,202.68c-2.3,3.45-4.13,8.47-7.11,11.3s-29.73,12.59-22.18,30.31,19,18.86,31.52,20.25c13.64,1.52,58.64-4.74,41.78-39.11S557.86,191.68,556,192.78s-5.08,1.41-6,5.65Z"/><ellipse cx="589.73" cy="242.49" rx="2.27" ry="4.34"/><ellipse cx="515.07" cy="84.82" rx="2.66" ry="4.64"/><path class="cls-10" d="M516.23,98.76c-3.79,5-6.06,11.15,0,9.91a23,23,0,0,1,3.79-.41c4.16-.16,6.75.29,3.8-4.54-3.79-6.2-3-8.68-5.31-6.82Z"/><path class="cls-10" d="M520,106.19c0,1.25,1.51,5,0,5.58s-3.8.62-4.55-.62"/><path class="cls-11" d="M523.79,127.26c-2.82,3.46-4.55,5.57-9.1,2.48s1.54-8.68,3-9.3S525.3,125.4,523.79,127.26Z"/><path class="cls-11" d="M507.11,118.58c2.2,1.81.73,7.44,0,8.68s-6.82,2.48-9.1,0-4.54-8.68-1.51-9.29S504.84,116.72,507.11,118.58Z"/><path class="cls-12" d="M529.85,147.08c-2.27-1.86-11.37-9.29-20.48-8.67S495,141.51,495,144s5.3,16.72,15.92,13.62S532.13,148.94,529.85,147.08Z"/><line class="cls-10" x1="509.39" y1="148.94" x2="515.45" y2="139.03"/><path class="cls-6" d="M495.75,107.44c-7.58,6.19-14.77,6.26-14,39.62.38,18.23,6.15,26.83,22.74,26.52,6.1-.11,14.78-3.79,20.48-6.82s20.09-8.53,16.3-14.1-7.32-7.31-10.48-8-16,8.63-19.84,8.63-29.58-20.64-19.71-29.74,32.82,6.34,33.47,2.24,7.47.24,6.71-6.58a47.7,47.7,0,0,0-2.34-10c-2.19-6.44-6.19-13.6-12.83-17.86-6.06,1.86-9.09,8.67-12.88,12.39S495.75,107.44,495.75,107.44Z"/><path class="cls-10" d="M527.2,110.67s.58,5.78-3.88-3.17"/><path d="M531.35,121.08s-.17,8.77-19.59,1.82-22.09,3.35-22.68,4.28c-1.32,1.68,14.63,26.69,21.42,25.18,12.43-3.06,12.56-7.2,16.7-8s6.46-.44,8,.54-2.3,9.32-16.7,10.83-19,.73-25.77-9.85-9.85-25.77-3.79-29.56,25.77,0,28.8.73,12.13.73,12.88,2.28S530.58,119.73,531.35,121.08Z"/><path class="cls-9" d="M454.06,78.94a205.16,205.16,0,0,1-15.17-15.48c-3-3.72-6.82-17.34,7.58-19.2s25,16.71,25,16.71Z"/><path class="cls-6" d="M464.67,61.59s-6.83-9.29-14.41-8.05-4.55,7.44-4.55,8.05,7.62,8.67,8.35,7.44S465.42,62.83,464.67,61.59Z"/><path class="cls-8" d="M505.12,77.36c-4.55-2.64-9.11,0-10.8-.51-1.91,1-5.51,2.67,2.32,3.38s7.62,2.27,9.73,1.82S507,78.48,505.12,77.36Z"/><path class="cls-8" d="M508.77,77.07c.38-2,2.85-2.43,3.18-3,1-.18,2.79-.63.63,1.68s-1.47,2.75-2.33,3.17S508.62,77.92,508.77,77.07Z"/><ellipse cx="505.22" cy="88.67" rx="4.78" ry="3.41" transform="translate(85.27 383.22) rotate(-45)"/><path d="M518.05,95.91c.44.32,5.21,3.77,6.87,8.11a7.52,7.52,0,0,1,.52,2.38c-.06,1.34-1.23.16-2.13,1.1-.6.62-.3,1.36-1,1.57a1.91,1.91,0,0,1-2.13-1c-.73-1-.73-2.1-1.6-5.53-1.13-4.34-2.2-6.62-1.69-7.08C517.05,95.32,517.29,95.36,518.05,95.91Z"/><path class="cls-10" d="M523.41,106.13a13.14,13.14,0,0,0,1.51,5.3c1.52,3-3,2.27-3,.73"/><path class="cls-13" d="M434.58,216.47l-14-2.53,8.77,9.42-1.94,16.21,9.9-12.84-1.5,20.79,8.69-8.59s5.52.09,6.64,1.36-1.76-6.58-1.76-6.58"/><polyline class="cls-13" points="471.11 105.75 468.07 120.15 465.05 110.3 463.52 126.97 459.74 114.84 459.74 136.82 455.19 126.21"/><path class="cls-14" d="M468,162.24c5.6,0,5.61-8.71,0-8.71S462.34,162.24,468,162.24Z"/><path class="cls-14" d="M475.35,238.06c5.61,0,5.61-8.71,0-8.71S469.74,238.06,475.35,238.06Z"/><path class="cls-15" d="M441.75,290.47l16.74-24.68a3.81,3.81,0,0,0,1.76-7.1,3.81,3.81,0,0,0-5.33,5L438.3,288.13Z"/><path class="cls-15" d="M455.46,300.56s-4.55-11.08-12.37-11.08h0a2.93,2.93,0,1,0-3.51,2.26,3.23,3.23,0,0,0,.93,0Z"/><path class="cls-15" d="M461.23,263.67l13.48-23.13a6.84,6.84,0,0,0,3.33-.64,6.74,6.74,0,0,0,2-1.46l.1.08s5.86-1,6.33-5.46a26.44,26.44,0,0,1-5.12,3.39,6.8,6.8,0,0,0,.42-1.25c1.46-.77,4.55-2.69,4.15-4.58,0,0-3.4,3.46-3.9,3s3.91-2,2.42-4.44a29.76,29.76,0,0,1-2.77,2.5,7.9,7.9,0,0,0-.35-.92c1-1.28,2.24-3.07.65-4a9.46,9.46,0,0,1-1.43,2.7,7,7,0,0,0-1.65-1.55,3,3,0,0,0-1.35-2.58s0,.94-.07,1.84a7,7,0,0,0-2.93-.43,3.64,3.64,0,0,0-3.39-.86,13.73,13.73,0,0,1,.58,1.67,6.92,6.92,0,0,0-3,9,6.59,6.59,0,0,0,.49.86l-13.47,23.12Z"/><path class="cls-15" d="M546.79,156.54c-1.64-3.39-7.19-4.11-12.4-1.58-3.92,1.89-6.53,5.07-6.89,8l-36,17.41a5.2,5.2,0,0,0-7.12,5.67,5.17,5.17,0,0,1-3.2-1.26c-.93.82,2.41,2.35,3.8,2.93.09.15.17.29.28.44l-3.38,2.19c1.88,1.11,3.95.41,5.43-.45a5.6,5.6,0,0,0,.81.3l-4,6c2.26,0,6.11-4.48,7.6-6.32.17-.08.35-.17.52-.27l-1.39,7.71c1.68-.43,2.75-7.14,3.05-9.38a5.07,5.07,0,0,0,.63-1.38l37.39-18.06a13.14,13.14,0,0,0,8.42-1.27C545.53,164.74,548.42,160,546.79,156.54Z"/><path class="cls-15" d="M491.77,183.62l-17.56-23.47a6.49,6.49,0,0,0,.3-3.09,6.86,6.86,0,0,0-.66-2.07h0s-2.05-7-6.47-8.47a40.89,40.89,0,0,1,3.47,5.55,6.62,6.62,0,0,0-1.46-.5c-.68-1.57-1.62-3-3.1-2.79a27.73,27.73,0,0,1,2.08,2.64,9.91,9.91,0,0,0-1.09,0c-1-1.26-2.27-2.53-3.66-1.58a32.07,32.07,0,0,1,2.93,1.7,6.52,6.52,0,0,0-1.83.69c-1.1-.5-2.31-.79-2.87,0a7.72,7.72,0,0,1,1.69.87,6.77,6.77,0,0,0-1.62,2.24c-1.15-.34-2.19-.58-2.42,0a12.87,12.87,0,0,1,2,1.23,6.57,6.57,0,0,0,5,7.83l.51.1,18.19,24.27C488.44,193.09,495,187.91,491.77,183.62Z"/></g><path class="cls-5" d="M343.64,877.19a3.6,3.6,0,0,0,.94.47,3.31,3.31,0,1,0-2.24-4.14h0c-7.76-4.3-18.35,4.2-18.35,4.2Z"/><path class="cls-15" d="M360.88,877.19a3.07,3.07,0,0,0,1.09.53,3.42,3.42,0,1,0-2.37-4.21h0c-7.73-4.31-18.36,4.14-18.36,4.14Z"/><path class="cls-5" d="M348.62,738.14l31.18-14.38.55.18h0a7.46,7.46,0,0,0,9.22-5.1,14.78,14.78,0,0,1,2.66-.14c.09-.72-1.06-1.06-2.39-1.34a7.59,7.59,0,0,0-.41-3.1,8.67,8.67,0,0,1,2.16,0c-.16-1-1.52-1.42-2.87-1.5a7.38,7.38,0,0,0-1.45-1.65c2-.17,3.83-.12,3.83-.12-.85-1.67-2.82-1.1-4.47-.36a6.76,6.76,0,0,0-1.07-.62,31.74,31.74,0,0,1,3.49-1.52c-1.36-1-3.06-.09-4.58,1.11a7.74,7.74,0,0,0-1.72-.29,46.43,46.43,0,0,1,6.45-3.64c-5.2-.9-11,5-11,5h0a7.23,7.23,0,0,0-1.78,1.71,7.36,7.36,0,0,0-1.37,3.24l-30.12,13.9C339.46,732,343.12,740.69,348.62,738.14Z"/><path class="cls-5" d="M289.27,710.92a14.9,14.9,0,0,0,9.42,2.07l40.86,23.24a5.41,5.41,0,0,0,.59,1.6c.19,2.55.88,10.22,2.74,10.83l-1-8.85.56.35c1.54,2.18,5.54,7.52,8.11,7.71l-4.09-7.12a5.09,5.09,0,0,0,.92-.27c1.6,1.08,3.9,2,6.11.92l-3.66-2.71a5.2,5.2,0,0,0,.35-.47c1.62-.55,5.51-2.05,4.51-3a5.8,5.8,0,0,1-3.71,1.17,5.88,5.88,0,0,0-7.6-6.94l-39.34-22.35c-.18-3.32-2.88-7.07-7.17-9.56-5.69-3.31-12-2.89-14.12.83S283.58,707.69,289.27,710.92Z"/><ellipse class="cls-6" cx="292.3" cy="704.08" rx="5.06" ry="8.03" transform="translate(-469.6 678.22) rotate(-65.51)"/><path class="cls-5" d="M347.79,873.92l-12.6-31a4.15,4.15,0,0,0,.77-1.56,4.29,4.29,0,1,0-5.24,3.08l12.7,31.27Z"/><path class="cls-5" d="M333.07,843.45,355.43,823a6.51,6.51,0,0,0,1.06.33,7.85,7.85,0,0,0,9.27-5.52,16.65,16.65,0,0,1,2,.25,4.1,4.1,0,0,0-1.78-3.54,7.84,7.84,0,0,0-1.17-3.12c1-.3,2-.52,2-.52a3.44,3.44,0,0,0-3.18-.83,7.9,7.9,0,0,0-2.12-1.45,10.31,10.31,0,0,1,2.65-2.23c-1.43-1.56-3.1.28-4.27,1.66a8.48,8.48,0,0,0-1.11-.16,34,34,0,0,1,2.09-3.67c-3.05-1.07-3.67,4.17-4.32,3.74s2.36-5,2.36-5c-2.19,0-3.57,3.92-4.07,5.7a7.25,7.25,0,0,0-1.28.77,29.61,29.61,0,0,1,2.49-6.44c-4.78,1.53-4.51,8.27-4.51,8.27l.11.1a7.8,7.8,0,0,0-1,6.47l-22.35,20.47Z"/><path class="cls-7" d="M358.26,611.36c5.15-2.11,7.71-11.92,6.86-16.83s-7.71-4.93-14.58-2.11-16.33,18.23-17.16,21C333.38,613.46,353.11,613.46,358.26,611.36Z"/><path class="cls-8" d="M427.56,832.94c-.95,7.32,8,6.86,14.35,4.84,15.06-11.53,0-10.3-6-5.15a44.53,44.53,0,0,1-2.84-6.85S429.53,830.15,427.56,832.94Z"/><path class="cls-9" d="M218.39,825.91c-5.32-24.14,19.49-50.62,37.12-67,8-7.43,14.46-12.8,16.07-15,5.15-7,3.43-18.24,11.15-28.75s24,4.22,25.74,6.31,10.3,6.31,23.18-16.13-8.57-20.34-24-16.13-16.3.71-18-5.6,9.43-28.75,12.86-37.87,11.16-22.43,21.45-30.15c46.33-27.34,66.93,9.11,67.78,11.22s6,40.67,6.86,51.89,16.3,48.38,34.32,108.68-27.88,64.79-39,67.59-44.63-7.76-58.34-8.58C302.07,844.25,226.15,861,218.39,825.91Z"/><path class="cls-6" d="M268.44,773.25c-.94-4.8-4.68-5.15-6.74-6.39s-23-2-42.09,36.94,31.84,46,47.28,44.28c14.22-1.58,27.14-2.86,35.69-22.93s-21.74-31.11-25.11-34.3-5.44-8.89-8.05-12.8Z"/><ellipse cx="223.57" cy="823.11" rx="2.57" ry="4.91"/><ellipse cx="308.07" cy="644.66" rx="3.01" ry="5.26"/><path class="cls-10" d="M304.21,658.34c-2.57-2.1-1.72.69-6,7.71-3.34,5.48-.41,5,4.3,5.14a25.72,25.72,0,0,1,4.29.47c6.86,1.4,4.29-5.61,0-11.22Z"/><path class="cls-10" d="M307.64,674.47c-.85,1.39-3.43,1.39-5.15.69s0-4.9,0-6.31"/><path class="cls-11" d="M305.07,685c1.72.7,8.58,7,3.43,10.52s-7.1,1.11-10.3-2.81C296.49,690.59,303.35,684.28,305.07,685Z"/><path class="cls-11" d="M329.12,682.17c3.42.71.86,7.72-1.72,10.52s-9.47,1.41-10.3,0-2.48-7.77,0-9.81S325.69,681.47,329.12,682.17Z"/><path class="cls-12" d="M312.81,727.05c12,3.51,18-12.62,18-15.42s-6-5.62-16.3-6.32-20.6,7.72-23.18,9.82S300.8,723.54,312.81,727.05Z"/><line class="cls-10" x1="307.64" y1="706.02" x2="314.5" y2="717.23"/><path class="cls-6" d="M321.35,666.05c-4.29-4.21-7.71-11.92-14.58-14-7.51,4.83-12,12.93-14.52,20.22a54.47,54.47,0,0,0-2.64,11.34c-.86,7.72,6.86,2.81,7.59,7.45s26.7-12.83,37.88-2.53-18,33.65-22.31,33.65-18.86-10.54-22.45-9.76-7.57,2.74-11.86,9.06,12,12.54,18.44,16,16.28,7.59,23.18,7.71c18.78.35,25.31-9.39,25.74-30,.86-37.75-7.29-37.83-15.87-44.84C330,670.27,325.64,670.25,321.35,666.05Z"/><path class="cls-10" d="M298.74,670.33c-5,10.14-4.39,3.59-4.39,3.59"/><path d="M290.51,683.75c.86-1.74,11.15-1.74,14.58-2.57s25.74-5.13,32.6-.83,3.44,21.48-4.28,33.46S320.54,726.68,304.24,725s-20.59-11.15-18.9-12.27,4.32-1.45,9-.6,4.82,5.55,18.9,9c7.68,1.71,25.73-26.6,24.24-28.51-.67-1.06-3.68-12.71-25.67-4.84s-22.18-2.06-22.18-2.06C290.51,684.18,289.66,685.5,290.51,683.75Z"/><path class="cls-9" d="M357.41,617.64s12-21,28.3-18.92,12,17.52,8.58,21.73A232.66,232.66,0,0,1,377.13,638Z"/><path class="cls-6" d="M377.13,626.78c.86,1.41,9.44-7.72,9.44-8.41s3.43-7.7-5.15-9.11-16.3,9.11-16.3,9.11C364.29,619.77,376.27,625.37,377.13,626.78Z"/><path class="cls-8" d="M317.92,641.56c2.39.5,2.14-1.26,11-2.06s4.79-2.65,2.63-3.84c-1.91.58-7.08-2.41-12.22.58C317.19,637.49,315.52,641.05,317.92,641.56Z"/><path class="cls-8" d="M313.53,637.94c-1-.48-.18-1-2.63-3.59s-.44-2.1.71-1.9c.37.69,3.17,1.13,3.59,3.44C315.37,636.86,314.5,638.42,313.53,637.94Z"/><ellipse cx="319.23" cy="649.02" rx="3.86" ry="5.41" transform="translate(-365.43 415.82) rotate(-45)"/><path d="M306,656.68c.58.57-.63,3.11-1.9,8-1,3.88-1,5.09-1.82,6.25a2.2,2.2,0,0,1-2.41,1.16c-.77-.24-.44-1.07-1.11-1.78-1-1.06-2.34.27-2.41-1.24a8.7,8.7,0,0,1,.58-2.7c1.88-4.91,7.29-8.81,7.79-9.17C305.56,656.59,305.83,656.53,306,656.68Z"/><path class="cls-10" d="M300.35,675.61c0,1.74-5.14,2.6-3.43-.83a14.9,14.9,0,0,0,1.71-6"/><path class="cls-13" d="M382.39,813.17s-3.25,8.89-2,7.46,7.52-1.54,7.52-1.54l9.83,9.72-1.66-23.54,11.21,14.54-2.2-18.35L415,790.81l-15.86,2.86"/><polyline class="cls-13" points="375.84 691.51 370.7 703.51 370.7 678.64 366.41 692.36 364.69 673.49 361.26 684.65 357.83 668.35"/><path class="cls-14" d="M361.4,723c-6.35,0-6.35,9.86,0,9.86S367.75,723,361.4,723Z"/><path class="cls-14" d="M353,808.76c-6.35,0-6.35,9.86,0,9.86S359.38,808.76,353,808.76Z"/><path class="cls-15" d="M364.65,873.53l-21.81-25.4a4.42,4.42,0,0,0,.24-1.76,4.31,4.31,0,1,0-4,4.61l22,25.62Z"/><path class="cls-15" d="M341.64,847.93,354,820.29a8.35,8.35,0,0,0,1.12-.13,7.83,7.83,0,0,0,6.31-8.73,14.56,14.56,0,0,1,1.92-.57,4.08,4.08,0,0,0-3-2.55,7.78,7.78,0,0,0-2.32-2.39c.83-.67,1.66-1.28,1.66-1.28a3.38,3.38,0,0,0-3.26.46,7.87,7.87,0,0,0-2.49-.49,10.4,10.4,0,0,1,1.54-3.09c-1.91-.85-2.71,1.5-3.25,3.23a6.64,6.64,0,0,0-1.08.3,32.91,32.91,0,0,1,.47-4.2c-3.23.24-1.72,5.27-2.49,5.14s.17-5.55.17-5.55c-2,.89-1.71,5-1.48,6.86a7.07,7.07,0,0,0-.82,1.2,29.6,29.6,0,0,1-.26-6.91c-3.75,3.33-.83,9.42-.83,9.42H346a7.73,7.73,0,0,0,1.66,6.34L335.32,845Z"/><path class="cls-16" d="M189.31,711.79c-7.19-2.55-6.69-22.48,1.09-44.45,7.17-20.23,18.14-35.49,25.59-35.49a4.81,4.81,0,0,1,1.55.27c2.8.94,4.55,4.84,5,10.88.58,8.81-1.6,21-6,33.57-7.17,20.22-18.14,35.48-25.59,35.48A4.37,4.37,0,0,1,189.31,711.79Z"/><path d="M216,632.27a4.21,4.21,0,0,1,1.4.24c2.62.93,4.28,4.66,4.68,10.51.6,8.76-1.61,20.93-6,33.41-7,19.74-18.05,35.21-25.19,35.21a4.22,4.22,0,0,1-1.41-.24c-3.18-1.1-4.91-6.35-4.76-14.34.16-8.41,2.33-18.92,6.11-29.58,7-19.75,18.06-35.21,25.2-35.21h0m0-.83c-7.49,0-18.68,15.16-26,35.76-7.86,22.22-8.23,42.36-.83,45a5,5,0,0,0,1.66.28c7.49,0,18.67-15.15,26-35.75,4.59-13,6.64-25.26,6.06-33.75-.41-6-2.14-10.14-5.22-11.23a4.9,4.9,0,0,0-1.65-.29Z"/><path class="cls-17" d="M271.57,691.79l-5.3,18.45C241.55,686.08,198,709,198,709c26.94-32.63,24.9-65.88,24.9-65.88C221.9,684.05,271.57,691.79,271.57,691.79Z"/><path class="cls-18" d="M287,721.27s-2.65-.63-5.8-1.5c-4.73-1.33-10.65-3.21-10.65-4.32,0-1.83-4.31-5.21-4.31-5.21l5.3-18.46,4.14-2.86,15.52,4.88C316.94,701.09,287,721.27,287,721.27Z"/><path class="cls-19" d="M274.83,717.75c1.61,6.31-15.2,12.92-12.37,18.81S278,743.29,278,743.29a58.89,58.89,0,0,1,1.33-12.42,29.7,29.7,0,0,1,4.78-10Z"/><path class="cls-20" d="M213.89,682.44c-3.25-3-10.62-1.88-10.62-1.88a23.17,23.17,0,0,0,5.85-16.49,12.77,12.77,0,0,0,8.85,6.87C218.87,671.87,213.89,682.44,213.89,682.44Z"/><path class="cls-21" d="M260.77,699.71c-.87-2.78-41.89-8.7-41.89-8.7,9.63-4.55,10.7-12.83,10.7-12.83,5.14,9.79,32.93,16.56,32.93,16.56S261.64,702.48,260.77,699.71Z"/><path class="cls-22" d="M299.78,703h0a.73.73,0,0,0-.44-.92l-5.48-1.93a.73.73,0,0,0-.48,1.36l5.47,2A.74.74,0,0,0,299.78,703Z"/><path class="cls-22" d="M299.26,701h0a.73.73,0,0,0-.44-.92l-2.75-1a.71.71,0,0,0-.92.44.73.73,0,0,0,.44.92l2.74,1A.72.72,0,0,0,299.26,701Z"/><path class="cls-22" d="M298.82,705.29a.73.73,0,0,0,.48-1.37l-7.66-2.71a.73.73,0,0,0-.49,1.36l7.67,2.72Z"/><path class="cls-22" d="M297.52,705.91h0a.73.73,0,0,0-.44-.92l-4.38-1.55a.73.73,0,0,0-.49,1.37l4.38,1.55A.72.72,0,0,0,297.52,705.91Z"/><path class="cls-22" d="M294.38,707.41a.73.73,0,0,0,.48-1.37l-1.66-.58a.72.72,0,0,0-.84.4.73.73,0,0,0,.36,1l1.65.58Z"/><path class="cls-15" d="M267.69,737.59a14.88,14.88,0,0,0,9.64.13L322,752.33a5.69,5.69,0,0,0,.9,1.45c.71,2.47,2.91,9.84,4.85,10.06l-2.73-8.48.63.24c1.95,1.79,6.93,6.26,9.48,5.93l-5.43-6.16a5.5,5.5,0,0,0,.83-.44c1.78.72,4.22,1.21,6.15-.33l-4.13-1.92a4.41,4.41,0,0,0,.24-.54c1.48-.87,5-3.1,3.82-3.86a5.8,5.8,0,0,1-3.4,1.89,5.87,5.87,0,0,0-8.84-5.28l-43.05-14.07c-.84-3.21-4.25-6.38-8.94-7.92-6.2-2-12.34-.39-13.66,3.66S261.41,735.59,267.69,737.59Z"/><path class="cls-15" d="M331.62,754.45l28.67-18.88a2.94,2.94,0,0,0,.58.1h0a7.46,7.46,0,0,0,8.36-6.42,14.47,14.47,0,0,1,2.6-.54c0-.73-1.2-.89-2.56-1a7.36,7.36,0,0,0-.83-3,9.1,9.1,0,0,1,2.14-.28c-.31-1.06-1.7-1.17-3.07-1.06a7.05,7.05,0,0,0-1.65-1.43,36.75,36.75,0,0,1,3.77-.69c-1.08-1.53-2.94-.67-4.47.3a8.89,8.89,0,0,0-1.15-.46,33.34,33.34,0,0,1,3.22-2c-1.5-.79-3,.37-4.36,1.78a8.43,8.43,0,0,0-1.74,0,45.64,45.64,0,0,1,5.8-4.56c-5.26-.14-10.13,6.53-10.13,6.53h0a7.42,7.42,0,0,0-2.37,5.36l-27.71,18.21C321.64,749.74,326.59,757.75,331.62,754.45Z"/><g id="step9-5"><path class="cls-5" d="M644.51,780.68l25.47-18a6.93,6.93,0,0,0,5.5-.24h0s7.49-2,9.18-6.61a43.37,43.37,0,0,1-6,3.53,7.3,7.3,0,0,0,.57-1.56c1.69-.67,3.23-1.62,3.06-3.2a32.65,32.65,0,0,1-2.87,2.12,5.62,5.62,0,0,0,0-1.16c1.37-1,2.76-2.33,1.79-3.81a31.22,31.22,0,0,1-1.89,3.07,7.19,7.19,0,0,0-.68-2c.57-1.14.91-2.42.12-3a8.06,8.06,0,0,1-1,1.77,7.16,7.16,0,0,0-2.33-1.79c.39-1.21.69-2.33,0-2.57a13.7,13.7,0,0,1-1.36,2.1,7,7,0,0,0-8.45,5.15c0,.16-.07.32-.1.49l-26.35,18.6C634.55,776.91,639.86,784,644.51,780.68Z"/><path class="cls-5" d="M653,844.31c3.94-.77,6.16-6.28,5-12.31-.89-4.55-3.47-8.09-6.37-9.23l-8.21-41.72a5.52,5.52,0,0,0-3.89-8.84,5.44,5.44,0,0,1,2.16-3c-.59-1.19-3.07,1.84-4,3.11a5.16,5.16,0,0,0-.52.16l-1.33-4.06c-1.65,1.63-1.47,4-1,5.71a4.89,4.89,0,0,0-.51.77l-5.13-5.76c-.6,2.34,3,7.49,4.46,9.51a2.65,2.65,0,0,0,.14.62l-7.59-3.52c0,1.85,6.6,4.75,8.82,5.67a5.49,5.49,0,0,0,1.25,1q4.26,21.66,8.55,43.32a14,14,0,0,0-1,9C644.93,840.82,649.08,845.08,653,844.31Z"/><ellipse class="cls-6" cx="650.75" cy="834.28" rx="4.75" ry="7.54" transform="translate(-83.38 72.34) rotate(-5.98)"/><path class="cls-5" d="M661,900.46l26.1-18A4.07,4.07,0,1,0,684.4,879l-25.9,17.89Z"/><path class="cls-5" d="M681.33,899.79s-10.44-7.33-17.45-2.82h0A3.18,3.18,0,1,0,662,901h0a3.05,3.05,0,0,0,.95-.53Z"/><path class="cls-5" d="M691.89,877.25l-9.26-26.89a7.34,7.34,0,0,0,2-5.8h.13s3.25-5.44,0-8.88a28,28,0,0,1-.78,6.45,6.64,6.64,0,0,0-.71-1.2c.38-1.69,1-5.53-.78-6.53,0,0,.42,5.14-.31,5.2s1.11-4.53-1.89-5a32.89,32.89,0,0,1,.09,4,8.38,8.38,0,0,0-1-.37c-.36-1.66-.91-3.89-2.77-3.3a10.27,10.27,0,0,1,1.18,3,6.94,6.94,0,0,0-2.4.25,3.15,3.15,0,0,0-3-.7s.77.64,1.43,1.33a7.47,7.47,0,0,0-2.33,2,3.86,3.86,0,0,0-3,2.13,18.69,18.69,0,0,1,1.75.69,7.26,7.26,0,0,0,6.21,8.91l9.17,26.87Z"/><path class="cls-7" d="M715.64,659.69c-.78-2.63-9.67-17.1-16.12-19.75s-12.89-2.64-13.69,2,1.61,13.83,6.44,15.81S715.64,659.69,715.64,659.69Z"/><path class="cls-8" d="M622,859.15a42.46,42.46,0,0,1-2.66,6.43c-5.64-4.84-19.8-6-5.64,4.84,5.93,1.9,14.37,2.33,13.47-4.54C625.33,863.24,622,859.15,622,859.15Z"/><path class="cls-9" d="M713.62,878.47c-12.87.78-44.32,10.7-54.79,8.06s-53.58-6.84-36.66-63.47S653.6,731.51,654.4,721s5.64-46.77,6.44-48.74S681,636.05,724.5,661.71c9.67,7.25,16.92,19.76,20.15,28.32s13.69,29.63,12.08,35.56-2.42,9.22-16.92,5.27-34.65-5.93-22.55,15.15,20.15,17.1,21.78,15.14,16.92-15.81,24.17-5.92,5.64,20.41,10.47,27c1.51,2,7.62,7.09,15.1,14.06,16.56,15.44,39.86,40.31,34.86,63C816.36,892.19,745.05,876.5,713.62,878.47Z"/><path class="cls-6" d="M775.71,814.32c-2.45,3.67-4.39,9-7.55,12s-31.61,13.35-23.59,32.21,20.16,20.05,33.52,21.53c14.5,1.61,62.33-5,44.4-41.57S784.9,802.63,783,803.8s-5.44,1.5-6.33,6Z"/><ellipse cx="818.78" cy="856.64" rx="2.42" ry="4.61"/><path class="cls-10" d="M740.64,703.85c-4,5.27-6.44,11.85,0,10.54a24.84,24.84,0,0,1,4-.44c4.43-.17,7.18.32,4-4.83-4-6.59-3.23-9.22-5.65-7.25Z"/><path class="cls-10" d="M744.65,711.79c0,1.32,1.61,5.27,0,5.93s-4,.66-4.84-.66"/><path class="cls-11" d="M748.68,734.15c-3,3.67-4.84,5.92-9.68,2.63s1.61-9.22,3.23-9.88S750.29,732.16,748.68,734.15Z"/><path class="cls-11" d="M731,724.93c2.33,1.92.78,7.9,0,9.22s-7.26,2.63-9.67,0-4.83-9.22-1.61-9.89S728.53,723,731,724.93Z"/><path class="cls-6" d="M718.87,713.07c-8,6.58-15.7,6.66-14.9,42.12.4,19.38,6.54,28.53,24.17,28.2,6.49-.12,15.72-4,21.77-7.25s21.36-9.07,17.33-15-7.78-7.77-11.14-8.5S739,761.81,735,761.81s-31.45-21.94-21-31.62,34.88,6.73,35.57,2.38,7.94.26,7.13-7a50.46,50.46,0,0,0-2.48-10.64c-2.33-6.85-6.58-14.47-13.63-19-6.45,2-9.67,9.22-13.7,13.17S718.87,713.07,718.87,713.07Z"/><path class="cls-10" d="M752.31,716.51s.61,6.15-4.13-3.37"/><path d="M756.72,727.57s-.18,9.33-20.83,1.94-23.49,3.56-24.11,4.54c-1.41,1.8,15.55,28.39,22.77,26.78,13.22-3.25,13.35-7.66,17.75-8.46s6.87-.48,8.46.56-2.44,9.91-17.75,11.53-20.14.78-27.4-10.48-10.47-27.4-4-31.43,27.39,0,30.62.78,12.89.78,13.69,2.42S755.9,726.15,756.72,727.57Z"/><path class="cls-9" d="M674.55,682.77a217.72,217.72,0,0,1-16.12-16.46c-3.22-3.95-7.25-18.44,8.07-20.42s26.58,17.79,26.58,17.79Z"/><path class="cls-6" d="M685.83,664.36s-7.26-9.88-15.31-8.55-4.84,7.9-4.84,8.55,8.05,9.21,8.86,7.9S686.63,665.65,685.83,664.36Z"/><path class="cls-8" d="M726.1,677.76c-5.44,1.09-7.26,6.4-9,7.17-.78,2.18-2.51,6,4.24,1.08s7.67-3.54,9-5.39S728.38,677.28,726.1,677.76Z"/><path class="cls-8" d="M735,677.46c2.07.78,2.07,3.4,2.65,3.89,0,1.1.18,3-1.88.37s-2.62-2-2.91-3S734.12,677.15,735,677.46Z"/><path d="M742.57,700.82c.47.34,5.55,4,7.31,8.62a7.86,7.86,0,0,1,.55,2.53c-.07,1.42-1.3.18-2.26,1.17-.64.66-.32,1.45-1,1.66a2,2,0,0,1-2.27-1.07c-.78-1.1-.78-2.23-1.7-5.88-1.2-4.61-2.34-7-1.79-7.53C741.52,700.18,741.76,700.23,742.57,700.82Z"/><path class="cls-10" d="M748.27,711.68a13.89,13.89,0,0,0,1.61,5.63c1.61,3.23-3.22,2.42-3.22.78"/><path class="cls-13" d="M653.84,829,639,826.29l9.33,10-2.07,17.23,10.53-13.66L655.18,862l9.23-9.15s5.87.1,7.06,1.46-1.86-7-1.86-7"/><polyline class="cls-13" points="692.68 711.27 689.45 726.58 686.23 716.11 684.61 733.84 680.59 720.95 680.59 744.31 675.76 733.03"/><path class="cls-14" d="M689.32,771.35c6,0,6-9.26,0-9.26S683.35,771.35,689.32,771.35Z"/><path class="cls-14" d="M697.19,851.93c5.95,0,6-9.26,0-9.26S691.22,851.93,697.19,851.93Z"/><path class="cls-15" d="M683.46,908.52,705.76,886a4,4,0,1,0-3.33-2.92L680.32,905.4Z"/><path class="cls-15" d="M703,909s-9.91-8-17.21-4h0a3.11,3.11,0,1,0-2.12,3.89,3.3,3.3,0,0,0,.88-.44Z"/><path class="cls-15" d="M709.67,880.25l-7.51-27.44a7.29,7.29,0,0,0,2.41-5.66h.14s3.59-5.22.57-8.85a28.24,28.24,0,0,1-1.22,6.37,7.13,7.13,0,0,0-.63-1.23c.48-1.68,1.35-5.45-.38-6.57,0,0,.09,5.15-.65,5.17s1.4-4.45-1.55-5.14a35.22,35.22,0,0,1-.16,4,7,7,0,0,0-1-.44c-.25-1.68-.65-4-2.56-3.47a10.11,10.11,0,0,1,1,3.11,7.49,7.49,0,0,0-2.41.11,3.18,3.18,0,0,0-3-.9s.71.69,1.33,1.42a7.55,7.55,0,0,0-2.49,1.89,3.84,3.84,0,0,0-3.18,1.93,13.19,13.19,0,0,1,1.71.78,7.36,7.36,0,0,0,4.61,9,6,6,0,0,0,1,.27L703.29,882Z"/><path class="cls-15" d="M677.6,867.6c3.89.91,8.2-3.21,9.59-9.2,1-4.51.15-8.79-2-11L694.81,806a5.52,5.52,0,0,0,.07-9.65,5.46,5.46,0,0,1,3.18-1.81c0-1.31-3.56.42-5,1.18-.19,0-.37,0-.55-.06l.47-4.24c-2.2.77-3,3-3.27,4.78a5.46,5.46,0,0,0-.77.47l-2.34-7.35c-1.5,1.88-.34,8,.16,10.5,0,.21-.09.41-.12.62l-5.49-6.32c-.77,1.67,4.08,7,5.72,8.79a5.59,5.59,0,0,0,.72,1.42l-10,43a13.94,13.94,0,0,0-4.59,7.81C671.67,861.09,673.7,866.7,677.6,867.6Z"/><path class="cls-15" d="M696.14,802.85l-2.33-31.11a6.94,6.94,0,0,0,2-2.59,7,7,0,0,0,.59-2.24h0s2.16-7.44-.95-11.29a44.93,44.93,0,0,1-.06,7,6.93,6.93,0,0,0-1-1.27c.29-1.8.27-3.62-1.18-4.27a30.26,30.26,0,0,1,.35,3.55,6.21,6.21,0,0,0-1-.6c-.17-1.7-.59-3.56-2.34-3.5,0,0,.89,1.5,1.67,3.21a7.14,7.14,0,0,0-2-.43c-.7-1.08-1.61-2-2.58-1.65a8.08,8.08,0,0,1,1,1.75,7.34,7.34,0,0,0-2.73,1.08c-.83-1-1.65-1.79-2.19-1.35a14.58,14.58,0,0,1,1.09,2.25,7.42,7.42,0,0,0-1.41,2,7,7,0,0,0,1.82,8.27l2.43,32.15C687.77,809.46,696.57,808.54,696.14,802.85Z"/><path class="cls-12" d="M755.12,755.22c-2.41-2-12.09-9.88-21.77-9.22s-15.25,3.29-15.25,5.91,4,32.06,15.27,28.77S757.54,757.2,755.12,755.22Z"/><line class="cls-10" x1="733.37" y1="757.2" x2="739.81" y2="746.66"/><polygon points="732.44 694.16 732.81 693.56 730.01 691.82 731.69 689.2 731.1 688.82 729.41 691.44 726.73 689.78 726.36 690.38 729.03 692.03 727.22 694.84 727.81 695.22 729.63 692.41 732.44 694.16"/><polygon points="741.46 689.54 741.39 688.95 738.62 689.27 738.37 686.66 737.78 686.72 738.04 689.34 735.4 689.65 735.47 690.24 738.1 689.93 738.37 692.73 738.97 692.66 738.68 689.86 741.46 689.54"/></g><circle class="cls-15" cx="700.37" cy="680.96" r="4.84" transform="translate(-207.28 319.86) rotate(-22.5)"/><circle class="cls-23" cx="701.52" cy="681.37" r="3.7"/><path class="cls-24" d="M705.22,680.17s2.33,1.27,1.71,2.53-1.25,3-.78,3.73.25,2.21.86,3,1.71,2.33.6,3-.68-1.67-1-2.54a35.76,35.76,0,0,0-1.08-4.1c-.39-.64-1.11-1.38-1.26-.74s-1,3.4-1.67,2.7-1.83-1.66-1.83-.71a3.42,3.42,0,0,0,.13.71c.32,1.26,1.13,3.34.57,3.73s-2.52-.63-1.8-1.35.83-.48.65-1.66-.89-2.57-1.61-2.12-1.63.24-1.34-.56,3.2-2,4.1-1.92,2.24-1.47,2.8-2.52S705,679.77,705.22,680.17Z"/><path class="cls-25" d="M707.48,692.21s.1-1.28.32-1.22S707.86,692,707.48,692.21Z"/><path class="cls-25" d="M701.19,691.33s-.42-1.19-.19-1.23S701.44,691,701.19,691.33Z"/><path class="cls-25" d="M706.59,682.61s-.42-1.2-.2-1.24S706.84,682.24,706.59,682.61Z"/><path class="cls-25" d="M702.92,687.46s.35-1.23.55-1.13S703.32,687.29,702.92,687.46Z"/><path class="cls-25" d="M697.59,686s.78-.21.78,0S697.81,686.23,697.59,686Z"/><circle class="cls-15" cx="670.26" cy="709.75" r="4.84"/><circle class="cls-23" cx="671.4" cy="710.16" r="3.7"/><path class="cls-24" d="M675.1,709s2.34,1.27,1.71,2.54-1.25,3-.77,3.72.25,2.22.85,3,1.71,2.34.61,3-.69-1.66-1-2.53a41.57,41.57,0,0,0-1.08-4.12c-.4-.64-1.11-1.37-1.27-.73s-1,3.4-1.66,2.7-1.83-1.66-1.83-.71a2.85,2.85,0,0,0,.12.71c.32,1.27,1.14,3.33.57,3.72s-2.51-.63-1.8-1.34.84-.48.66-1.67-.9-2.56-1.61-2.11-1.63.23-1.35-.57,3.21-2,4.1-1.91,2.24-1.47,2.8-2.52S674.89,708.56,675.1,709Z"/><path class="cls-25" d="M677.37,721s.1-1.27.31-1.21S677.75,720.74,677.37,721Z"/><path class="cls-25" d="M671.08,720.13s-.42-1.21-.2-1.25S671.32,719.74,671.08,720.13Z"/><path class="cls-25" d="M676.47,711.4s-.42-1.2-.19-1.24S676.72,711,676.47,711.4Z"/><path class="cls-25" d="M672.8,716.25s.35-1.22.55-1.12S673.22,716.08,672.8,716.25Z"/><path class="cls-25" d="M667.48,714.77s.77-.22.77,0S667.69,715,667.48,714.77Z"/><circle class="cls-15" cx="659.58" cy="769.64" r="4.84"/><circle class="cls-23" cx="660.73" cy="770.05" r="3.7"/><path class="cls-24" d="M664.44,768.84s2.34,1.27,1.71,2.54-1.25,3-.77,3.72.24,2.22.85,3,1.71,2.33.61,3-.69-1.66-1-2.53a41.35,41.35,0,0,0-1.08-4.11c-.4-.64-1.12-1.38-1.27-.74s-1,3.41-1.66,2.7-1.83-1.66-1.83-.71a3.39,3.39,0,0,0,.11.71c.33,1.27,1.15,3.34.58,3.73s-2.51-.63-1.8-1.34.84-.48.66-1.67-.9-2.56-1.61-2.11-1.64.23-1.35-.57,3.21-2,4.1-1.91,2.24-1.47,2.8-2.52S664.22,768.45,664.44,768.84Z"/><path class="cls-25" d="M666.69,780.88s.09-1.28.32-1.21S667.07,780.62,666.69,780.88Z"/><path class="cls-25" d="M660.4,780s-.42-1.2-.2-1.24S660.65,779.63,660.4,780Z"/><path class="cls-25" d="M665.8,771.28s-.42-1.19-.2-1.23S666,770.89,665.8,771.28Z"/><path class="cls-25" d="M662.11,776.14s.35-1.23.55-1.13S662.55,776,662.11,776.14Z"/><path class="cls-25" d="M656.8,774.66s.78-.22.78,0S657,774.91,656.8,774.66Z"/><circle class="cls-15" cx="739.78" cy="803.05" r="4.84"/><circle class="cls-23" cx="740.92" cy="803.46" r="3.7"/><path class="cls-24" d="M744.62,802.26s2.33,1.26,1.72,2.53-1.26,3-.78,3.73.25,2.21.85,3,1.72,2.34.6,3-.68-1.66-1-2.53a37,37,0,0,0-1.09-4.11c-.39-.64-1.1-1.37-1.26-.73s-1,3.4-1.67,2.69-1.82-1.65-1.82-.7a2.85,2.85,0,0,0,.12.7c.32,1.27,1.13,3.35.57,3.74s-2.52-.63-1.8-1.35.84-.48.66-1.66-.9-2.57-1.61-2.12-1.63.23-1.34-.57,3.2-2,4.09-1.91,2.24-1.47,2.8-2.52S744.42,801.86,744.62,802.26Z"/><path class="cls-25" d="M746.87,814.29s.09-1.26.31-1.21S747.27,814,746.87,814.29Z"/><path class="cls-25" d="M740.59,813.42s-.41-1.2-.19-1.23S740.84,813,740.59,813.42Z"/><path class="cls-25" d="M746,804.7s-.42-1.2-.19-1.24S746.24,804.32,746,804.7Z"/><path class="cls-25" d="M742.32,809.55s.35-1.23.56-1.13S742.74,809.38,742.32,809.55Z"/><path class="cls-25" d="M737,808.07s.78-.22.78,0S737.22,808.32,737,808.07Z"/><path class="cls-5" d="M227.37,403.19,265,385.82l.66.22h0a9,9,0,0,0,11.14-6.16,18.3,18.3,0,0,1,3.22-.17c.11-.87-1.29-1.28-2.89-1.62a9,9,0,0,0-.5-3.74,10.36,10.36,0,0,1,2.61,0c-.19-1.27-1.83-1.71-3.47-1.81a9,9,0,0,0-1.75-2c2.4-.2,4.63-.14,4.63-.14-1-2-3.4-1.33-5.4-.44a8.33,8.33,0,0,0-1.29-.75,40.25,40.25,0,0,1,4.21-1.83c-1.64-1.22-3.69-.11-5.53,1.34a9.06,9.06,0,0,0-2.07-.35,56.73,56.73,0,0,1,7.78-4.4c-6.27-1.08-13.27,6-13.27,6h0A8.77,8.77,0,0,0,261,372a8.9,8.9,0,0,0-1.66,3.91l-36.38,16.79C216.32,395.85,220.75,406.27,227.37,403.19Z"/><path class="cls-5" d="M155.7,370.36a18,18,0,0,0,11.38,2.49l49.35,28a6.61,6.61,0,0,0,.72,1.93c.22,3.08,1.06,12.34,3.31,13.08l-1.18-10.69c.22.15.45.29.68.42,1.86,2.64,6.69,9.09,9.79,9.32l-4.94-8.6a7.2,7.2,0,0,0,1.12-.33c1.93,1.3,4.71,2.46,7.38,1.11l-4.42-3.27c.15-.18.29-.38.42-.57,1.95-.66,6.65-2.47,5.45-3.66a7,7,0,0,1-4.48,1.41,7.1,7.1,0,0,0-9.19-8.38l-47.52-27c-.21-4-3.47-8.54-8.65-11.54-6.88-4-14.51-3.49-17.06,1S148.83,366.41,155.7,370.36Z"/><ellipse class="cls-6" cx="159.37" cy="362.04" rx="6.11" ry="9.7" transform="translate(-236.16 356.99) rotate(-65.51)"/><path class="cls-5" d="M226.38,567.21l-15.21-37.46a5.14,5.14,0,0,0,.93-1.89,5.19,5.19,0,1,0-6.33,3.72l15.34,37.78Z"/><path class="cls-5" d="M221.37,571.2a4.06,4.06,0,0,0,1.14.57,4,4,0,1,0-2.71-5h0c-9.37-5.19-22.16,5.08-22.16,5.08Z"/><path class="cls-5" d="M208.61,530.4l27-24.71a11.34,11.34,0,0,0,1.29.4,9.48,9.48,0,0,0,11.19-6.67,19.19,19.19,0,0,1,2.4.3c.21-1.8-.87-3.2-2.14-4.28a9.46,9.46,0,0,0-1.42-3.76c1.19-.37,2.44-.63,2.44-.63a4.1,4.1,0,0,0-3.84-1,9.42,9.42,0,0,0-2.56-1.76,12.52,12.52,0,0,1,3.2-2.69c-1.72-1.89-3.74.34-5.16,2a10.05,10.05,0,0,0-1.34-.19A41.18,41.18,0,0,1,242.2,483c-3.69-1.29-4.43,5-5.22,4.51s2.85-6.07,2.85-6.07c-2.65,0-4.31,4.74-4.92,6.89a8.59,8.59,0,0,0-1.54.92,35.67,35.67,0,0,1,3-7.78c-5.77,1.85-5.44,10-5.44,10l.13.12a9.42,9.42,0,0,0-1.25,7.81l-27,24.73Z"/><path class="cls-7" d="M239,250.05c6.22-2.54,9.32-14.4,8.29-20.33s-9.32-5.95-17.61-2.54S210,249.2,209,252.59C209,252.59,232.81,252.59,239,250.05Z"/><path class="cls-8" d="M322.74,517.71c-1.15,8.84,9.7,8.28,17.33,5.84,18.2-13.93,0-12.44-7.26-6.22a53.73,53.73,0,0,1-3.42-8.27S325.12,514.33,322.74,517.71Z"/><path class="cls-9" d="M70.08,509.22c-6.42-29.17,23.54-61.15,44.84-81,9.62-9,17.47-15.46,19.41-18.09,6.22-8.47,4.14-22,13.47-34.73s29,5.1,31.09,7.62,12.44,7.62,28-19.48-10.35-24.57-29-19.48-19.69.85-21.76-6.77,11.39-34.73,15.54-45.74,13.48-27.1,25.91-36.42c56-33,80.84,11,81.87,13.55s7.26,49.13,8.29,62.68,19.69,58.44,41.45,131.28S295.51,540.9,282,544.28s-53.91-9.37-70.47-10.37C171.16,531.37,79.45,551.57,70.08,509.22Z"/><path class="cls-6" d="M130.54,445.58c-1.14-5.8-5.66-6.26-8.14-7.73s-27.79-2.34-50.84,44.66S110,538.06,128.67,536c17.17-1.91,32.78-3.45,43.1-27.7s-26.26-37.57-30.33-41.43-6.57-10.73-9.72-15.46Z"/><ellipse cx="76.34" cy="505.83" rx="3.11" ry="5.93"/><ellipse cx="178.41" cy="290.28" rx="3.63" ry="6.35"/><path class="cls-10" d="M173.75,306.8c-3.11-2.54-2.08.84-7.26,9.31-4,6.62-.5,6,5.19,6.22a31.09,31.09,0,0,1,5.18.56c8.29,1.69,5.18-6.78,0-13.55Z"/><path class="cls-10" d="M177.89,326.28c-1,1.69-4.15,1.68-6.22.84s0-5.92,0-7.62"/><path class="cls-12" d="M184.13,374.8c14.51,4.24,21.76-15.24,21.76-18.63s-7.24-6.79-19.69-7.63-24.89,9.32-28,11.86S169.62,370.56,184.13,374.8Z"/><path class="cls-11" d="M174.78,339c2.08.85,10.37,8.48,4.15,12.71s-8.58,1.34-12.44-3.39C164.42,345.76,172.7,338.13,174.78,339Z"/><path class="cls-11" d="M203.83,335.59c4.14.85,1,9.32-2.07,12.71s-11.44,1.7-12.44,0-3-9.39,0-11.86S199.69,334.74,203.83,335.59Z"/><line class="cls-10" x1="178.89" y1="357.39" x2="187.18" y2="370.94"/><path class="cls-6" d="M194.45,316.1c-5.18-5.08-9.32-14.39-17.61-16.94-9.07,5.83-14.54,15.62-17.54,24.42a65.71,65.71,0,0,0-3.19,13.7c-1,9.32,8.28,3.4,9.17,9s32.25-15.51,45.75-3.06-21.55,30-26.73,30-28.68-10.91-33-10-3.48,12.18-8.66,19.81,14.49,15.15,22.28,19.29,19.66,9.17,28,9.32c22.68.42,30.57-11.34,31.09-36.27,1-45.59-8.81-45.69-19.17-54.16C204.84,321.21,199.63,321.18,194.45,316.1Z"/><path class="cls-10" d="M167.14,321.29c-6.09,12.24-5.31,4.33-5.31,4.33"/><path d="M157.2,338.94c1-1.57,13.46-1.56,17.61-2.35s31.09-4.71,39.38-.79,4.15,19.6-5.18,30.57-15.54,11.76-35.23,10.19-24.87-10.2-22.83-11.21,5.22-1.33,10.88-.55,5.83,5.07,22.83,8.23c9.28,1.61,31.09-24.26,29.28-26-.8-1-4.44-11.53-31-4.42s-26.79-1.89-26.79-1.89C157.2,339.33,156.17,340.51,157.2,338.94Z"/><path class="cls-9" d="M238,257.64s14.5-25.4,34.19-22.86S286.7,256,282.56,261a279.93,279.93,0,0,1-20.73,21.18Z"/><path class="cls-6" d="M261.83,268.68c1,1.7,11.4-9.32,11.4-10.16s4.14-9.3-6.22-11-19.69,11-19.69,11C246.32,260.21,260.79,267,261.83,268.68Z"/><path class="cls-8" d="M190.3,286.53c2.89.61,2.59-1.52,13.3-2.49s5.79-3.2,3.18-4.63c-2.31.7-8.55-2.91-14.76.7C189.42,281.62,187.41,285.92,190.3,286.53Z"/><path class="cls-8" d="M185,282.16c-1.18-.58-.22-1.17-3.18-4.33s-.53-2.54.86-2.3c.45.83,3.83,1.37,4.34,4.15C187.23,280.85,186.18,282.74,185,282.16Z"/><ellipse cx="191.88" cy="295.55" rx="4.66" ry="6.53" transform="translate(-152.78 222.24) rotate(-45)"/><path d="M175.87,304.8c.7.68-.76,3.75-2.3,9.68-1.19,4.69-1.19,6.15-2.19,7.56a2.66,2.66,0,0,1-2.92,1.39c-.93-.28-.52-1.29-1.34-2.14-1.23-1.28-2.82.32-2.91-1.5a10.4,10.4,0,0,1,.71-3.26c2.27-5.93,8.8-10.65,9.4-11.08C175.38,304.69,175.7,304.62,175.87,304.8Z"/><path class="cls-10" d="M169.08,327.66c0,2.11-6.21,3.14-4.14-1A18,18,0,0,0,167,319.4"/><path class="cls-13" d="M268.18,493.83s-3.93,10.73-2.4,9,9.08-1.86,9.08-1.86l11.87,11.75-2-28.44,13.54,17.57-2.66-22.13,12-12.87-19.16,3.42"/><polyline class="cls-13" points="260.27 346.87 254.06 361.37 254.06 331.32 248.88 347.9 246.8 325.1 242.66 338.58 238.51 318.89"/><path class="cls-14" d="M242.82,384.85c-7.67,0-7.66,11.91,0,11.91S250.49,384.85,242.82,384.85Z"/><path class="cls-14" d="M232.71,488.5c-7.67,0-7.66,11.91,0,11.91S240.38,488.5,232.71,488.5Z"/><path class="cls-15" d="M246.79,566.74l-26.34-30.69a5.32,5.32,0,0,0,.29-2.13,5.21,5.21,0,1,0-4.82,5.58l26.52,30.94Z"/><path class="cls-15" d="M242.2,571.16a4.37,4.37,0,0,0,1.32.64,4.13,4.13,0,1,0-2.87-5.09h0c-9.34-5.21-22.18,5-22.18,5Z"/><path class="cls-15" d="M218.92,535.85l15-33.46a10.14,10.14,0,0,0,1.35-.15,9.46,9.46,0,0,0,7.62-10.55,18.72,18.72,0,0,1,2.32-.69c-.52-1.73-2.07-2.59-3.66-3.07a9.41,9.41,0,0,0-2.8-2.89c1-.81,2-1.55,2-1.55a4.08,4.08,0,0,0-3.94.56,9.59,9.59,0,0,0-3-.6,12.66,12.66,0,0,1,1.86-3.73c-2.31-1-3.28,1.82-3.93,3.91a7.37,7.37,0,0,0-1.3.36,41.32,41.32,0,0,1,.56-5.08c-3.9.29-2.07,6.37-3,6.21s.2-6.7.2-6.7c-2.42,1.07-2.06,6.07-1.78,8.28a9.58,9.58,0,0,0-1,1.45,35.82,35.82,0,0,1-.31-8.34c-4.53,4-1,11.37-1,11.37h.18a9.44,9.44,0,0,0,2,7.67l-14.94,33.43Z"/><path class="cls-26" d="M193.27,546.22s3.9.88,4.75,1-2,4.2-3,5-3-4-3-4Z"/><path class="cls-27" d="M153.77,593.63c-.62,2-5,1.63-6.62,2.4s2.9,2.88,2.9,2.88S154.39,591.68,153.77,593.63Z"/><path class="cls-28" d="M205.48,520.85c-1.86,1.2-23.8,37.13-25.12,39.26S185,562.9,185,562.9l25.55-39S207.34,519.65,205.48,520.85Z"/><path class="cls-29" d="M152.71,606.55l53.54-84.08-6.39-3.81-53.54,84.09C145.05,604.85,152.71,606.55,152.71,606.55Z"/><path d="M236.27,518.46s20.57,12.86,22.57,13.45c3.05-5.62,8.63-12.59,14.05-18.75,6.85-11.5,14.06-14.88,14.49-15.61.81-1.28-16,6.59-17,11.19s-13,18.83-13.88,19.43-20-11.92-20-11.92Z"/><path class="cls-30" d="M238.52,508.51s1.44-1.45,8.08,1.93,3.17,8.23,3.17,8.23c.41-5.52-9.46-7.36-9.46-7.36Z"/><path class="cls-31" d="M246.5,480.06c-4.59-1-13.12-14.75-12.12-16.45-3.8,9.24,4.66,21.24,4.66,21.24S251.09,481.06,246.5,480.06Z"/><path class="cls-28" d="M204.51,509.89s-6.3-2-6.39-3.8,8-15.42,11.42-19.17,9.18-.88,9.18-.88Z"/><path class="cls-32" d="M244.23,504.15c2.81,1.1,12.48,8,14.06,8.37s15-22.23,14-23.42-19.51-12.77-20.87-12.43-21.9,10.61-21.9,10.61C228.16,487.62,241.42,503.05,244.23,504.15Z"/><polygon class="cls-33" points="248.53 502.35 254.06 505.65 263.2 490.32 252.98 484.23 245.59 487.91 248.53 502.35"/><polygon class="cls-32" points="250.02 499.2 253.71 501.4 259.8 491.18 252.98 487.12 248.06 489.57 250.02 499.2"/><path class="cls-34" d="M269.32,490.2c20.8-34.92,55.46-10.79,50.22-8.74s-16.24,27.25-16.24,27.25c-12-27.33-30.34,4.44-30.34,4.44l-14.62-.64-1.71-1S259.34,507.93,269.32,490.2Z"/><path class="cls-35" d="M266.53,500.7a1.5,1.5,0,0,0,2.59,1.51c4.11-6.92,8.74-14.16,14.74-19.58,8.22-7.34,16.59-4.85,25.22.15l-.3-2.35c-2.49,2.93-2.69,6.17-3.88,9.68l-.37,1.15c-.38,2.45-1.24,3-2.58,1.55-1.06-.41-1.75-1.34-2.7-1.91a14.37,14.37,0,0,0-5.22-2c-7.22-1.09-13.58,3.56-16,10.15-.67,1.8,2.23,2.59,2.89.8a11.75,11.75,0,0,1,11.72-8c4.12.24,6.65,3.52,10.28,5a1.49,1.49,0,0,0,1.47-.42c4.31-3.68,3-9.8,6.49-13.91a1.57,1.57,0,0,0,.2-.25,1.54,1.54,0,0,0-.5-2.11c-7.8-4.49-16.38-8-24.8-2.79s-14.35,15-19.27,23.3Z"/><path class="cls-35" d="M291.41,480.45c-1.73.87-.3,3.51,1.52,2.59s6.47-2.14,6.75.81c.28,2.77-2.86,1.16-4.43.72a9.69,9.69,0,0,0-5.06-.49c-4.76.93-8.2,5.47-11.4,8.74-1.35,1.38.77,3.5,2.12,2.12,2.11-2.16,4.23-4.84,6.78-6.51,3.46-2.31,5.2-1,8.52,0,2.92.88,4.91.29,6.33-2.56,3.51-7.05-6.84-7.62-11.13-5.46Z"/><path class="cls-26" d="M227.12,534.9c.94-.6,19.14-27.28,19.55-29.91s-2.51-11.3-2.51-11.3-13.54-9.21-14.9-8.87-10.56-1.66-12.42-.47S196,519.27,196,519.27C195,521,226.18,535.5,227.12,534.9Z"/><path class="cls-27" d="M207.55,516.92l9.14-15.34c5.88-16.69-4.9-2.92-4.9-2.92l-9.64,16.19Z"/><path class="cls-27" d="M218.73,522.39l9.13-15.34c3.41-18.16-8.94-5.32-8.94-5.32l-9.66,16.18Z"/><path class="cls-27" d="M227.43,525.25l9.13-15.33c5.2-17.08-6-3.56-6-3.56l-9.64,16.19Z"/><path class="cls-15" d="M273.77,501.8a18.06,18.06,0,0,0-1.61-11.54l9.25-56.05a7.14,7.14,0,0,0,1.56-1.34c2.82-1.31,11.21-5.28,11.12-7.64l-9.62,4.82a7.08,7.08,0,0,0,.16-.8c1.79-2.65,6.21-9.4,5.35-12.4l-6.37,7.56a6.73,6.73,0,0,0-.68-.91c.54-2.29.68-5.29-1.52-7.29l-1.53,5.29c-.23-.07-.46-.14-.69-.19-1.31-1.6-4.62-5.39-5.31-3.85a7,7,0,0,1,2.87,3.71,7.18,7.18,0,0,0-3.66,1.55l0,0a7.09,7.09,0,0,0-1,10l-8.91,54c-3.68,1.58-6.83,6.24-7.83,12.11-1.28,7.79,1.8,14.81,6.89,15.64S272.54,509.65,273.77,501.8Z"/><path class="cls-15" d="M282.14,422.36l-27.79-30.78v-.71h0a9,9,0,0,0-9.2-8.79,19,19,0,0,1-1.12-3c-.87.11-.84,1.6-.68,3.24a8.87,8.87,0,0,0-3.43,1.54,10.29,10.29,0,0,1-.68-2.5c-1.21.57-1.08,2.25-.7,3.86a8.72,8.72,0,0,0-1.41,2.24c-.91-2.24-1.51-4.38-1.51-4.38-1.63,1.57-.26,3.63,1.17,5.28a9.07,9.07,0,0,0-.33,1.46,38.2,38.2,0,0,1-3-3.48c-.68,1.94,1,3.56,2.92,4.89a9.69,9.69,0,0,0,.32,2.07,55.86,55.86,0,0,1-6.51-6.08c.8,6.3,9.66,10.89,9.66,10.89h0a8.94,8.94,0,0,0,6.83,1.84L273.5,429.7C278.39,435.15,287,427.77,282.14,422.36Z"/><path class="cls-5" d="M839.62,352l-36.38-16.79a8.9,8.9,0,0,0-1.66-3.91,8.59,8.59,0,0,0-2.15-2.06h0s-7-7.08-13.27-6a56.15,56.15,0,0,1,7.78,4.4,8.63,8.63,0,0,0-2.07.35c-1.84-1.45-3.89-2.56-5.53-1.34a39.36,39.36,0,0,1,4.21,1.83,8.33,8.33,0,0,0-1.29.75c-2-.89-4.38-1.58-5.4.44,0,0,2.23-.06,4.63.14a8.8,8.8,0,0,0-1.75,2c-1.64.1-3.28.54-3.47,1.81a10.36,10.36,0,0,1,2.61,0,9,9,0,0,0-.5,3.74c-1.6.34-3,.75-2.89,1.62a18.2,18.2,0,0,1,3.22.17,9,9,0,0,0,11.14,6.16h0l.66-.22,37.66,17.37C841.79,365.55,846.22,355.13,839.62,352Z"/><path class="cls-5" d="M914.68,314.4c-2.55-4.49-10.18-5-17.06-1-5.18,3-8.44,7.53-8.65,11.54l-47.52,27a7.1,7.1,0,0,0-9.19,8.38,7,7,0,0,1-4.48-1.41c-1.2,1.19,3.5,3,5.45,3.66.13.19.27.39.42.57l-4.42,3.27c2.67,1.35,5.45.19,7.38-1.11a7.54,7.54,0,0,0,1.12.33l-4.94,8.6c3.1-.23,7.93-6.68,9.79-9.32.23-.13.46-.27.68-.42l-1.18,10.69c2.25-.74,3.09-10,3.31-13.08a6.44,6.44,0,0,0,.72-1.93l49.35-28.08a18,18,0,0,0,11.38-2.49C913.71,325.69,917.22,318.88,914.68,314.4Z"/><ellipse class="cls-6" cx="903.17" cy="321.32" rx="9.7" ry="6.11" transform="translate(-51.94 403.3) rotate(-24.49)"/><path class="cls-5" d="M841.43,528.64l15.34-37.78a5.19,5.19,0,1,0-6.33-3.72,5.3,5.3,0,0,0,.93,1.89l-15.21,37.46Z"/><path class="cls-5" d="M864.9,531.13s-12.79-10.27-22.16-5.08h0a4,4,0,1,0-2.71,5,3.93,3.93,0,0,0,1.14-.57Z"/><path class="cls-5" d="M859.73,483.39l-27-24.73a9.39,9.39,0,0,0-1.25-7.81l.13-.12s.33-8.15-5.44-10a35.48,35.48,0,0,1,3,7.78,8.25,8.25,0,0,0-1.54-.92c-.61-2.15-2.27-6.87-4.92-6.89,0,0,3.64,5.55,2.85,6.07s-1.53-5.8-5.22-4.51a39.56,39.56,0,0,1,2.53,4.43,8.65,8.65,0,0,0-1.34.19c-1.42-1.66-3.44-3.89-5.16-2a12.52,12.52,0,0,1,3.2,2.69,9.57,9.57,0,0,0-2.56,1.76,4.11,4.11,0,0,0-3.84,1s1.25.26,2.44.63a9.55,9.55,0,0,0-1.42,3.76c-1.27,1.08-2.35,2.48-2.14,4.28a19.67,19.67,0,0,1,2.4-.3,9.49,9.49,0,0,0,11.19,6.67,11.34,11.34,0,0,0,1.29-.4l27,24.71Z"/><path class="cls-7" d="M853.56,211.87c-1-3.39-12.44-22-20.73-25.41s-16.58-3.39-17.61,2.54,2.07,17.79,8.29,20.33S853.56,211.87,853.56,211.87Z"/><path class="cls-8" d="M733.15,468.34a53.16,53.16,0,0,1-3.42,8.27c-7.26-6.22-25.46-7.71-7.26,6.22,7.63,2.44,18.48,3,17.33-5.84C737.42,473.61,733.15,468.34,733.15,468.34Z"/><path class="cls-9" d="M851,493.19c-16.56,1-57,13.75-70.47,10.37s-68.91-8.8-47.15-81.64,40.42-117.73,41.45-131.28,7.26-60.13,8.29-62.68S809,181.38,865,214.41c12.43,9.32,21.76,25.41,25.91,36.42s17.61,38.12,15.54,45.74-3.11,11.86-21.76,6.77-44.56-7.62-29,19.48,25.91,22,28,19.48,21.76-20.32,31.09-7.62,7.25,26.26,13.47,34.73c1.94,2.63,9.79,9.12,19.41,18.09,21.3,19.85,51.26,51.83,44.84,81C983.09,510.85,891.38,490.65,851,493.19Z"/><path class="cls-6" d="M930.82,410.68c-3.15,4.73-5.65,11.6-9.72,15.46s-40.65,17.18-30.33,41.43,25.93,25.79,43.1,27.7c18.65,2.07,80.16-6.48,57.11-53.48s-48.35-46.13-50.84-44.63-7,1.93-8.14,7.73Z"/><ellipse cx="986.2" cy="465.11" rx="3.11" ry="5.93"/><ellipse cx="884.13" cy="249.56" rx="3.63" ry="6.35"/><path class="cls-10" d="M885.68,268.62c-5.18,6.77-8.29,15.24,0,13.55a31.09,31.09,0,0,1,5.18-.56c5.69-.22,9.23.4,5.19-6.22-5.18-8.47-4.15-11.85-7.26-9.31Z"/><path class="cls-10" d="M890.87,278.78c0,1.7,2.07,6.78,0,7.62s-5.19.85-6.22-.84"/><path class="cls-12" d="M904.34,319.68c-3.11-2.54-15.55-12.7-28-11.86s-19.69,4.24-19.69,7.63,7.25,22.87,21.76,18.63S907.45,322.22,904.34,319.68Z"/><path class="cls-11" d="M896.05,307.58c-3.86,4.73-6.22,7.62-12.44,3.39s2.07-11.86,4.15-12.71S898.12,305,896.05,307.58Z"/><path class="cls-11" d="M873.22,295.72c3,2.47,1,10.16,0,11.86s-9.33,3.39-12.44,0-6.21-11.86-2.07-12.71S870.14,293.18,873.22,295.72Z"/><line class="cls-10" x1="875.36" y1="330.22" x2="883.65" y2="316.67"/><path class="cls-6" d="M857.7,280.49c-10.36,8.47-20.2,8.57-19.17,54.16.52,24.93,8.41,36.69,31.09,36.27,8.34-.15,20.21-5.18,28-9.32s27.46-11.66,22.28-19.29-4.34-18.9-8.66-19.81-27.82,10-33,10S838,315,851.51,302.5s44.86,8.66,45.75,3.06,10.21.32,9.17-9a65.71,65.71,0,0,0-3.19-13.7c-3-8.8-8.47-18.59-17.54-24.42-8.29,2.55-12.43,11.86-17.61,16.94S857.7,280.49,857.7,280.49Z"/><path class="cls-10" d="M900.71,284.9s.78,7.91-5.31-4.33"/><path d="M906.39,300s-.23,9-26.79,1.89-30.2,3.46-31,4.42c-1.81,1.74,20,27.61,29.28,26,17-3.16,17.17-7.45,22.83-8.23s8.84-.46,10.88.55-3.14,9.64-22.83,11.21-25.9.78-35.23-10.19-13.47-26.65-5.18-30.57,35.23,0,39.38.79,16.58.78,17.61,2.35S905.34,298.61,906.39,300Z"/><path class="cls-9" d="M800.71,241.49A287.7,287.7,0,0,1,780,220.31c-4.14-5.08-9.32-23.71,10.37-26.25s34.19,22.86,34.19,22.86Z"/><path class="cls-6" d="M815.22,217.8s-9.33-12.7-19.69-11-6.22,10.16-6.22,11,10.36,11.86,11.4,10.16S816.22,219.49,815.22,217.8Z"/><path class="cls-8" d="M870.52,239.39c-6.21-3.61-12.45,0-14.76-.7-2.61,1.43-7.53,3.66,3.18,4.63s10.41,3.1,13.3,2.49S873.12,240.9,870.52,239.39Z"/><path class="cls-8" d="M875.52,239c.51-2.78,3.89-3.32,4.34-4.15,1.39-.24,3.82-.86.86,2.3s-2,3.75-3.18,4.33S875.31,240.13,875.52,239Z"/><ellipse cx="870.67" cy="254.83" rx="6.53" ry="4.66" transform="translate(74.82 690.29) rotate(-45)"/><path d="M888.22,264.73c.6.43,7.13,5.15,9.4,11.08a10.4,10.4,0,0,1,.71,3.26c-.09,1.82-1.68.22-2.91,1.5-.82.85-.41,1.86-1.34,2.14a2.68,2.68,0,0,1-2.92-1.39c-1-1.41-1-2.87-2.19-7.56-1.54-5.93-3-9-2.3-9.68C886.84,263.9,887.16,264,888.22,264.73Z"/><path class="cls-10" d="M895.53,278.68a18.11,18.11,0,0,0,2.07,7.26c2.07,4.14-4.14,3.11-4.14,1"/><path class="cls-13" d="M774.09,429.55l-19.16-3.46,12,12.87-2.66,22.17,13.54-17.57-2,28.44,11.87-11.75s7.55.13,9.08,1.86-2.4-9-2.4-9"/><polyline class="cls-13" points="824.03 278.17 819.88 297.86 815.74 284.38 813.66 307.18 808.48 290.6 808.48 320.65 802.27 306.15"/><path class="cls-14" d="M819.72,356c7.66,0,7.67-11.91,0-11.91S812,356,819.72,356Z"/><path class="cls-14" d="M829.83,459.69c7.66,0,7.67-11.91,0-11.91S822.16,459.69,829.83,459.69Z"/><path class="cls-15" d="M820.1,529.72l26.56-30.94a5.21,5.21,0,1,0-4.81-5.58,5.14,5.14,0,0,0,.28,2.13L815.79,526Z"/><path class="cls-15" d="M844.07,531s-12.84-10.21-22.18-5h0a4.13,4.13,0,1,0-2.87,5.09,4.25,4.25,0,0,0,1.32-.64Z"/><path class="cls-15" d="M851.22,491.56l-14.94-33.4a9.38,9.38,0,0,0,2-7.67h.18s3.53-7.35-1-11.37a35.29,35.29,0,0,1-.31,8.34,8.5,8.5,0,0,0-1-1.45c.28-2.21.64-7.21-1.78-8.28,0,0,1.13,6.54.2,6.7s.9-5.92-3-6.21a41.1,41.1,0,0,1,.56,5.08,7.14,7.14,0,0,0-1.3-.36c-.65-2.09-1.62-4.94-3.93-3.91a12.66,12.66,0,0,1,1.86,3.73,9.64,9.64,0,0,0-3,.6,4.07,4.07,0,0,0-3.94-.56s1,.74,2,1.55a9.42,9.42,0,0,0-2.8,2.89c-1.59.48-3.14,1.34-3.66,3.07a18.23,18.23,0,0,1,2.32.69,9.47,9.47,0,0,0,7.62,10.55,10.32,10.32,0,0,0,1.35.15l15,33.43Z"/><path class="cls-26" d="M933.52,343.73s4.46,2.72,3.54,3.51-5.37,3.07-5.31,2.21-.35-4.84-.35-4.84Z"/><path class="cls-27" d="M989.68,309.36s-1.45-4.77-2.44-3.29-1.3,5.92-3.32,6.22S989.68,309.36,989.68,309.36Z"/><path class="cls-28" d="M906.81,358.6l42.26-19.73s.19-6-2.1-5-41,17.59-42.45,19.27S906.81,358.6,906.81,358.6Z"/><path class="cls-29" d="M994,306.21l-90.86,41,2.86,6.86,90.85-41S996.3,305.26,994,306.21Z"/><path d="M895.55,383.13s9.67,20.67,9,21.51-16.52,10.63-21.21,11-14.88,15.86-13.51,15.29c.78-.33,5.15-7,17.51-12.12,6.87-4.49,14.56-9,20.56-11.24-.3-2-10.09-24.26-10.09-24.26Z"/><path class="cls-30" d="M890.11,386.22s.42,10,5.94,10.42c0,0-5.3,2.74-7.7-4.32s-.76-8.27-.76-8.27Z"/><path class="cls-31" d="M864.12,381.2s-10.63-10.08-20.35-7.64c1.83-.76,14.21,9.65,14.56,14.34S864.12,381.2,864.12,381.2Z"/><path class="cls-28" d="M868.18,361.25s-2-6.14,2.17-9,18.85-8.91,20.6-8.57,2.86,6.87,2.86,6.87Z"/><path class="cls-32" d="M867.87,372.13S854.78,391,854.24,392.3s8.31,21.24,9.33,22.43,25.29-8.92,25.18-10.48-5.6-12.17-6.29-15.1S868.4,370.83,867.87,372.13Z"/><polygon class="cls-33" points="866.2 388.12 861.51 394.9 866.08 405.89 882.55 399.03 880.08 393.08 866.2 388.12"/><polygon class="cls-32" points="867.5 390.8 864.37 395.33 867.41 402.65 878.4 398.08 876.75 394.11 867.5 390.8"/><path class="cls-34" d="M888,402.41l.76,1.83-1.46,14.57s-34.06,13.63-8.71,29.39c0,0-26.5,7.27-29.29,12.19s-21.72-32.84,15.81-48.46C884.06,404.58,888,402.41,888,402.41Z"/><path class="cls-35" d="M876,410.58c-9,3.72-19.41,8.09-25.86,15.69s-4.28,16.48-.93,24.9a1.54,1.54,0,0,0,1.91,1,2.71,2.71,0,0,0,.3-.13c4.72-2.92,10.59-.87,15-4.68a1.49,1.49,0,0,0,.38-1.46c-1.06-4.23-4.23-7.18-3.32-11.89,1-5,4.86-8.27,9.68-9.3,1.89-.4,1.09-3.29-.79-2.89-6.71,1.42-12.09,7.08-12.12,14.14a13.11,13.11,0,0,0,1.18,5.48c1,2.19,3,3.69-.32,5.42-1.52.8-4.28.46-6,.73a13.46,13.46,0,0,0-5.23,1.86l2.2.89c-3.43-8.63-5.31-17.22,2.36-24.25,6.21-5.7,14.64-9.46,22.34-12.65,1.76-.73,1-3.63-.8-2.89Z"/><path class="cls-35" d="M852.13,432.58c-2.53,3.56-3.55,13.54,3.26,11.82,2.6-.65,4.67-2.29,4.35-5.19a21.59,21.59,0,0,0-.92-2.82,6.9,6.9,0,0,1,1.75-6.41c2-2.32,4.9-4,7.38-5.81,1.54-1.13,0-3.73-1.52-2.59-4,2.9-9.35,5.85-10.66,11a8.28,8.28,0,0,0-.25,2.76c.1,1.13,1.13,2.56,1,3.56a3.85,3.85,0,0,1-2.76,2.93l-.6-1.68a7.52,7.52,0,0,1,1.51-6c1.12-1.57-1.48-3.07-2.59-1.51Z"/><path class="cls-26" d="M904.3,343.54s-36.08,13.94-37.53,15.62-.77,11-1.31,12.35,6.67,16,6.67,16,8.16,4.12,10.83,4.09,31.66-14.25,32.38-15.09S906.13,342.78,904.3,343.54Z"/><path class="cls-27" d="M899,349l-17.39,7.24s-15.17,8.71,2.19,5.26l16.48-6.85Z"/><path class="cls-27" d="M901.07,356.43l-17.39,7.23s-14.47,10.41,4,9.62l16.47-6.86Z"/><path class="cls-27" d="M904,368.63l-17.39,7.24s-15,9.16,2.66,6.41l16.48-6.86Z"/><path class="cls-15" d="M890,411.52c.83-5.08-4.85-10.23-12.64-11.49-5.89-.93-11.31.6-14,3.58l-54-8.68a7.09,7.09,0,0,0-9.78-2.21h0a7.06,7.06,0,0,0-2.62,3,7,7,0,0,1-2.62-3.91c-1.68.17.86,4.51,2,6.26q0,.36,0,.72l-5.51-.23c1.23,2.73,4.12,3.55,6.44,3.75a6.76,6.76,0,0,0,.64.94l-9.24,3.62c2.56,1.76,10.38-.29,13.46-1.14a7.46,7.46,0,0,0,.81.1l-7.62,7.59c2.21.84,8.64-5.86,10.77-8.12a7,7,0,0,0,1.77-1.06l56.09,9a18.09,18.09,0,0,0,10.43,5.18C882.13,419.76,889.13,416.65,890,411.52Z"/><path class="cls-15" d="M807.45,396.88l12.22-38.15a8.94,8.94,0,0,0,5.47-4.49h0s6.19-7.82,4.32-13.89a56.17,56.17,0,0,1-3.43,8.22,8.63,8.63,0,0,0-.57-2c1.22-2,2.07-4.16.66-5.65a35.77,35.77,0,0,1-1.3,4.4,7.91,7.91,0,0,0-.9-1.19c.63-2.1,1-4.54-1.1-5.3,0,0,.33,2.2.42,4.61A8.35,8.35,0,0,0,821,342c-.31-1.62-.89-3.21-2.23-3.23a9.81,9.81,0,0,1,.37,2.58,8.83,8.83,0,0,0-3.76,0c-.53-1.55-1.11-2.93-2-2.67a17.21,17.21,0,0,1,.22,3.21,9,9,0,0,0-4.78,11.79h0c.1.22.2.43.31.64l-12.69,39.48C794.32,400.69,805.23,403.86,807.45,396.88Z"/><polygon class="cls-36" points="1024.55 315.84 1066.39 296.4 1029.82 297.51 1052.67 261.53 1026.58 273.5 1031.76 235.13 1004.28 277.43 988.69 258.43 985.84 291.29 955.16 277.55 975.63 303.39 939.52 307.11 967.57 316.86 927.62 340.04 976.38 332.02 956.51 371.1 989.11 337.97 984.66 393.13 1003.09 350.89 1026.62 370.46 1018.26 336.27 1049.96 339.15 1024.55 315.84"/><polygon class="cls-37" points="1017.51 315.3 1047.04 301.57 1021.22 302.35 1037.36 276.96 1018.94 285.41 1022.6 258.32 1003.2 288.18 992.2 274.77 990.18 297.97 968.53 288.27 982.97 306.5 957.49 309.13 977.29 316.01 949.09 332.37 983.5 326.72 969.48 354.3 992.49 330.91 989.35 369.85 1002.36 340.03 1018.97 353.85 1013.07 329.71 1035.45 331.74 1017.51 315.3"/><polygon class="cls-38" points="1009.32 308.39 1018.55 297.56 1008.57 303.35 1010.57 291.56 1004.79 298.28 1001.62 288.61 999.1 302.57 992.51 300.53 995.68 308.57 985.55 310.03 994.3 312.92 984.77 319.24 993.7 317.26 985.44 328.67 997.95 319.43 997.16 331.49 1002.19 318.88 1007.58 332.33 1007.6 319.76 1016.46 320.73 1010.04 314.08 1019.14 309.94 1009.32 308.39"/><ellipse class="cls-39" cx="957.51" cy="347.58" rx="11.63" ry="9.28" transform="translate(247.21 1077.72) rotate(-65.74)"/><ellipse class="cls-40" cx="958.61" cy="348.31" rx="10.79" ry="8.61" transform="translate(247.19 1079.15) rotate(-65.74)"/><path class="cls-41" d="M964.46,352.43s-10.46,11.42-13.19-3.1C951.27,349.33,954.62,358.56,964.46,352.43Z"/><ellipse class="cls-39" cx="976.2" cy="322.32" rx="8.54" ry="7.16" transform="translate(273.74 1072.92) rotate(-65.17)"/><ellipse class="cls-40" cx="977.21" cy="321.92" rx="7.93" ry="6.64" transform="translate(274.69 1073.61) rotate(-65.17)"/><path class="cls-41" d="M982.9,320s-.39,11.33-9.41,7.22C973.49,327.19,980.2,328.75,982.9,320Z"/><ellipse class="cls-39" cx="989.11" cy="309.14" rx="8.54" ry="7.16" transform="translate(293.2 1077) rotate(-65.17)"/><ellipse class="cls-40" cx="990.14" cy="308.73" rx="7.93" ry="6.64" transform="translate(294.16 1077.7) rotate(-65.17)"/><path class="cls-41" d="M995.82,306.79s-.39,11.33-9.41,7.22C986.41,314,993.12,315.56,995.82,306.79Z"/><ellipse class="cls-40" cx="987.35" cy="355.71" rx="17.24" ry="12.63" transform="translate(321.18 1166.64) rotate(-70.41)"/><path class="cls-41" d="M991.33,367.47s-19.29,8.46-13.28-16.42C978.05,351.05,976.13,368.31,991.33,367.47Z"/><ellipse class="cls-40" cx="1008.49" cy="375.5" rx="16.56" ry="13.15" transform="translate(176.9 1058.52) rotate(-59.82)"/><path class="cls-41" d="M1009.26,388.13s-20.54,1.08-8.44-20.44C1000.82,367.68,994.62,383.42,1009.26,388.13Z"/><ellipse class="cls-39" cx="963.84" cy="304.71" rx="15.7" ry="13.53" transform="translate(214.11 982.76) rotate(-59.67)"/><ellipse class="cls-40" cx="962.2" cy="306.17" rx="14.57" ry="12.55" transform="translate(212.05 982.07) rotate(-59.67)"/><path class="cls-41" d="M953,314S946.16,295.63,965.6,295C965.62,295,952.14,297.85,953,314Z"/><ellipse class="cls-39" cx="989.37" cy="271.91" rx="15.7" ry="13.53" transform="translate(255.06 988.56) rotate(-59.67)"/><ellipse class="cls-40" cx="987.74" cy="273.37" rx="14.57" ry="12.55" transform="translate(253 987.87) rotate(-59.67)"/><path class="cls-41" d="M978.51,281.13s-6.82-18.32,12.62-18.94C991.13,262.21,977.67,265.05,978.51,281.13Z"/><ellipse class="cls-39" cx="1022.77" cy="308.84" rx="15.47" ry="11.97" transform="translate(263.72 1060.7) rotate(-61.53)"/><ellipse class="cls-40" cx="1022.13" cy="307.1" rx="14.35" ry="11.11" transform="translate(264.92 1059.23) rotate(-61.53)"/><path class="cls-41" d="M1018.92,297.51s17.48-6.37,11.33,13.84C1030.25,311.35,1032.51,297.27,1018.92,297.51Z"/><ellipse class="cls-39" cx="1007.06" cy="336.9" rx="11.63" ry="9.28" transform="translate(286.14 1116.6) rotate(-65.74)"/><ellipse class="cls-40" cx="1008.16" cy="337.64" rx="10.79" ry="8.61" transform="translate(286.11 1118.04) rotate(-65.74)"/><path class="cls-41" d="M1014,341.75s-10.47,11.42-13.19-3.1C1000.82,338.65,1004.19,347.88,1014,341.75Z"/></g></svg>
