<svg xmlns="http://www.w3.org/2000/svg" viewBox="0 0 1920 1080"><defs><style>.cls-1,.cls-9{fill:none;}.cls-2{fill:#848484;}.cls-3{fill:#264c14;}.cls-4{fill:#93542a;}.cls-5{fill:#f7c6a4;}.cls-6{fill:#367c1d;}.cls-7{fill:#96a362;}.cls-8{fill:#a01227;}.cls-13,.cls-9{stroke:#bfd8b4;stroke-miterlimit:10;}.cls-10{fill:#fff;}.cls-11{fill:#39440c;}.cls-12{fill:#2c5b18;}.cls-13{fill:#6d3758;}.cls-14{fill:#5b5550;}.cls-15{fill:#44413f;}.cls-16{fill:#726c67;}.cls-17{fill:#a3a19f;}.cls-18{fill:#0c2120;}.cls-19{fill:#2d2520;}.cls-20{fill:#323d3d;}.cls-21{fill:#182626;}.cls-22{fill:#75411a;}.cls-23{fill:#8c6628;}.cls-24{fill:#f16ea7;}.cls-25{fill:#ffc0dd;}.cls-26{fill:#ffe7e8;}.cls-27{fill:#fce094;}.cls-28{fill:#f9c619;}.cls-29{fill:#f4710f;}.cls-30{font-size:131.31px;font-family:Chalkduster, Chalkduster;}.cls-31{letter-spacing:0.02em;}.cls-32{letter-spacing:-0.02em;}.cls-33{fill:#a51b3c;}.cls-34{fill:#560a20;}.cls-35{fill:#ea111c;}.cls-36{fill:#ffc7cc;}</style></defs><title>thefrog</title><g id="Layer_1" data-name="Layer 1"><polygon class="cls-1" points="379.2 619.51 -95.47 535.64 -260.17 82.63 49.8 -286.51 524.47 -202.64 689.17 250.37 379.2 619.51"/></g><g id="Layer_2" data-name="Layer 2"><path class="cls-2" d="M1189.35,876.94c-1.17.86-.51,2.81,2.72,2.42l2.3-3.31Z"/><path class="cls-2" d="M1211.1,883.07c3.8-1.61,8.18-4.43,5.72-7.47-3.76,3.18-4.67,1.86-8.73,5.64-3.23.39-5.64-1.06-5.1-2.28-1.14.85-5-.72-6.76,1.35,4.21,2.57,9.54,2.67,15.11.55C1212.53,881.59,1211.37,882.46,1211.1,883.07Z"/><path class="cls-2" d="M1527.13,888.23l-2-.39A7.54,7.54,0,0,0,1527.13,888.23Z"/><path class="cls-2" d="M1647.44,746.38c-.68,1.33-.71,2-.48,2.24C1647.46,747.32,1647.85,746.23,1647.44,746.38Z"/><path class="cls-2" d="M1667.31,719.25c-.45.57-.79,1.06-1.18,1.59C1666.77,720.34,1667.3,719.77,1667.31,719.25Z"/><path class="cls-2" d="M1527.13,888.23l5.23,1C1532.72,888.19,1529.68,888.47,1527.13,888.23Z"/><path class="cls-2" d="M1254.68,875.08a9.29,9.29,0,0,0-2.84.88c.9-.15,1.77-.27,2.67-.36A3.14,3.14,0,0,1,1254.68,875.08Z"/><path class="cls-2" d="M1440.81,890.91h-1.59a8.39,8.39,0,0,0-1.32,1.34Z"/><path class="cls-2" d="M1374.56,891.42c1.5.12,2-2.69,2.6-3.92a4.78,4.78,0,0,1-3.27,1.93A3.66,3.66,0,0,0,1374.56,891.42Z"/><path class="cls-2" d="M1269.52,886.48l-1.86.38C1268.15,886.74,1269,886.63,1269.52,886.48Z"/><path class="cls-2" d="M1488.22,891.52a2,2,0,0,0,.61,1A1.43,1.43,0,0,0,1488.22,891.52Z"/><path class="cls-2" d="M1162.38,810.49c-.2.06-.27.19-.43.26C1162.39,810.94,1162.62,810.94,1162.38,810.49Z"/><path class="cls-2" d="M1188.72,884l-.66-.84a7.74,7.74,0,0,0-1.48.59Z"/><path class="cls-2" d="M1701,668.06l-.18.21C1700.31,669.82,1700.72,669,1701,668.06Z"/><path class="cls-2" d="M1485.14,228.65c6.36,2.52-10.35,3.23-.77,6C1483.47,233.57,1493.07,230.29,1485.14,228.65Z"/><path class="cls-2" d="M1256.39,875.45c.9,0,1.81-.05,2.72,0A11.25,11.25,0,0,0,1256.39,875.45Z"/><path class="cls-2" d="M1484.37,234.67v0l1,.27Z"/><path class="cls-2" d="M1743.7,533.12a4.15,4.15,0,0,0-.34,1.86C1743.58,534.79,1743.73,534.33,1743.7,533.12Z"/><path class="cls-2" d="M1714.07,634.08l1.63-2.06A12.72,12.72,0,0,0,1714.07,634.08Z"/><path class="cls-2" d="M1713,487.88c-.52-1.33-.42-1.94-1.71-3.42a2.49,2.49,0,0,0,0,.67A4,4,0,0,1,1713,487.88Z"/><path class="cls-2" d="M1684.61,438.73c0,.37,0,.8,0,1.19l1,1.49Z"/><path class="cls-2" d="M1075,661.79a8.78,8.78,0,0,1-.88,3.53C1075.38,663.57,1080.17,670.43,1075,661.79Z"/><path class="cls-2" d="M1254.71,876.66a2,2,0,0,1,1.68-1.21c-.65,0-1.27.09-1.88.15C1254.34,876,1254.3,876.42,1254.71,876.66Z"/><path class="cls-2" d="M1692.65,497l-4.15-8A88,88,0,0,0,1692.65,497Z"/><path class="cls-2" d="M1156.07,320.81l-.74,2A3.55,3.55,0,0,0,1156.07,320.81Z"/><path class="cls-2" d="M1674.76,466a15.79,15.79,0,0,0-.86-5.37,3.44,3.44,0,0,0-1.15-.54Z"/><path class="cls-2" d="M1074.08,665.35a0,0,0,0,1,0,0A0,0,0,0,0,1074.08,665.35Z"/><path class="cls-2" d="M1109.56,713.46c-4.23-7.49-5.15-1.69-7.9-2.21-6-8.36,0-5.47-.13-9.44-4-5-9.44-7.61-11.7-11.82.35-.61.08-1.53,1.28-1-5.93-4.39-10.17-17.33-17.31-22.31a2.44,2.44,0,0,1,.28-1.36,6.74,6.74,0,0,1-3.79,3.59c-2-3.3-5.59-5-4.23-7.49,1.12,2.08,2.06,1.77,3.27,2.35l-2.93-3c1.19-4.89,3.8,4.17,6,2.88-4.91-6.25-12-12.76-14.15-18.47,2.31-2.79,8,11.64,6.63,3.16l3.55,8.73c1.07-8.85,2.51,5.1,4.19-3.44-5.28-11.13-8.36-11-13.63-22.13-3-1.45-2,2.18-5,.74-11.64-13.38.55-16.14-9.77-25-3.62-1.74-8-.71-10.57-9.74l4.88.78c-5.61-10.49-8.17-3.12-12.16-15.2,2.41,1.17,5.77,7.46,5.27,5.67-1.41-8.5-4.74-3.85-7.84-9.22l2.3-2.81c-2.05-3.23-4.31-6.48-6.68-9.76-.59-.82-1.19-1.63-1.79-2.45l-.83-.77c-.58-.56-1.21-1.19-1.88-1.9a25.81,25.81,0,0,1,.88-3.15l.15-.44.08-.18.11-.23.23-.47.9-1.87c.61-1.25,1.24-2.49,1.88-3.72.49,1.17.21,3.79,2.75,1.47,7.36-16.16,19.23-32.48,29.5-46.24l.72-7.11c.78-1.3,2.55-1.78,2.22-.07,4.29-5.2-1.44-1.23-.84-4.57,1.72-3.38,4-3.49,3.53-1,3.71-11.4,12.06-31.61,21-40.74l-.45,2.52c5.84-7.74.22-12.41,7.05-18.77l-.4,1.74c11.54-17.45,20.75-38.79,32.56-50.37-2.15-4.74,12-17,7.53-21.07,8.49-8.87,7.7-5.38,17.8-18.95,2.48-3.74.15-7.63,2.39-12.74l2.74,1.43,1-8.14,5.2-1.63,1.92-4.9c-1.2,1.71-3.4,3.13-4,2.41,2.85-7.74,11.76-16.08,13.22-15.47l7.36-17.94c.86,1-.38,4-1,6.58,2.41-10.45,3.74,0,6-9.57-1.24.74-1.25-1.51-1.68-2,4-3.12,9.3-12.35,12.57-19.58l1.08,2.37c2.16-3.43,4.23-7.05,6.28-10.81l1.54-2.83c.36-.66.24-.5.29-.62l.06-.22c.09-.34.19-.68.28-1a5.31,5.31,0,0,1,.7-.21l.4-.1.21,0h.24l.64,0c3.41-.1,6.86-.17,10.31-.16-5.74-1-4.42-4.67.28-5l1.87,3.26c3-2-4.9-1.23,1.32-3.69,6,.37,4,3.7.59,4.76l7.26-1.13c.43,1-1.27,1.49-1.72,2.73,3-2,12.55,3.26,16.85-.25l.41,1c16,0,23.25-1.09,36.28-1.26.26-2.81,5.35-2.18,9.23-4.46,9.58.9,20.21,3.11,31.74,2.87,8.11-1.4,2.37-2.38,6-4.05.59,2.56,12.12,2.32,6.14,4.16a297.74,297.74,0,0,0,35.2-2.59c-1.9-1.05-4-1.51-2.93-2.38,3.18-.42,7.23,1.07,6.78,2.31l-.84.26c19.65-3.84,45.37,7.47,61,2.13l-.88.26,16.24-2.78c7.46.44-4.48,1.92,1,3.51,17.51-4.27,27.67.62,42.09-2.23,11.16,7.56,39.61-.53,54.68,4.29l-.87-1.78c3.89-1.74,4.71,1,7.58,1.43-.41-1.38-4.23-1.6-1.81-2.57l4.3-.24,3.92-.16a24.19,24.19,0,0,1,2.58-.14c.26.44.5.89.74,1.35l.35.68.16.34.56,1q2.49,4.61,4.91,9.31c3.23,6.27,6.36,12.63,9.45,19,6.2,12.79,12.26,25.68,18.67,38.12,5.77,10.95,11.48,1.48,15.6,17.1l-5.07-2.18c15.91,19.64,25.4,44.27,40.53,63.75-1.39-.88-2.27-.42-3.45-2.49.5,5.67,9.44,16.59,11.18,15.69,1.71,3.4-1.09,1.65-.78,4.17,1.36,5.19,9.15,9.72,8.46,13.3-.11.6-1.41-.87-2-1.6,2.69,2.34,7.6,13.76,8.38,9.58,3.45,8.61,9.84,14.58,12.08,21.73,5.07,2.59,6.56,14.35,11.11,13.47-4.25,1.69,4.88,15.75,9.62,19.71-2.15-1,1.29,5.07-1.48,4,3.36,5.7,7.12,10.53,8.56,8.37,1.41,13.26,16,19,13.45,28.46q6.33,8.39,12.12,16.41l5.65,7.9c.83.86,1.72,1.86,2.65,3-.37,1.06-.78,2.15-1.23,3.29l-.18.45-.44.89c-.29.6-.59,1.19-.88,1.77-.58,1.18-1.16,2.34-1.74,3.5-1.34-1.05-.36-3.72,1.16-6.75l.14-.28.08-.14,0-.06.08-.2.18-.4c.12-.26.24-.52.35-.78a2,2,0,0,0,.24-1.29,3.52,3.52,0,0,0-2.72-.36l.58.36a6.1,6.1,0,0,1,.27,1.1c0,.22.06.46.08.71s0,.25,0,.4c-.15.39-.29.79-.43,1.18-1.15,3.14-2.21,6.13-3.36,9.08a89.1,89.1,0,0,1-9.31,18.21c-2.69,3.42-.47-3.1-.41-4.74-6.77,15.44-16.56,27.85-21.89,42-.34-.25.07-1.87.53-3.36-1.34,2.62-4,5.59-2,6.33l.95-2.76c4.93-2.58-.45,13.21.65,14.45-2.6-7.25-8.65,12-11.11,1.45-.64,1.87-1,4.45.4,4.75-1.78,2.29-2.93,2.68-2.83-.62-4.29,9.67-.53,7.52-5.34,15.76-.85-.53-.22-2.38-.73-3.82-.74,5.15-1.49,10.32-6.25,16.88-.27-.72-1.42-.3-.2-2.38-6.66,12.14-7.33,23-16.55,35.23-1.49-6-3.81,3.77-7.44,2.6L1643.1,722l3.2-1.93c-3.63,6.17-4.43,13-8.57,17.71l1.33-5.37-6.09,12,5-5.86c-2,7.23,4.48,1.69-1.18,9.42.63-1.87-3.62,6.17-7.39,8.3,0,0,0,0,0,0-.74,3.66-1.47,7.44-4.92,11.56-1.72.59-3-3-4.16-2.65,1,4.59-7.62,14.94-6.95,20.44.06-1.67-1.6-2.72-2.19-2.5l.73,3.81c-2.36,2.46-2.94,2.69-4,1.44-5.38,8.4,5.69-.38-2,8.85.28-.91-.27-.71.37-2.58-6.87,9.76-10.09,20.68-16.63,29.51-4.86.91,4-8.72-.61-7.11-7.28,14-12.4,30.48-20.78,43.23L1570,858c1.76,2.24-.22,4.37-2.86,6.93a46.81,46.81,0,0,0-4.06,4.22,15.92,15.92,0,0,0-1.67,2.49,8.66,8.66,0,0,0-.6,1.33,5.42,5.42,0,0,0-.21,1.05c.28-1.26-1.53-3.23-1.29-2.46l-.86,1.2c-.24.36-.47.72-.69,1.09-.43.76-.84,1.57-1.25,2.48-1,.11-2,.28-3.18.49l-1.82.35-3.23.4c-4.5.55-9.42,1.19-14.94,1.77l2-1.36c-6.15-1.22-16.19-.7-22.83-1.32-2,1.36-5.77,1.14-3.46,3.12-20.48-7.76-39.06,4.16-57.23-2.3,2.17,0,5.18-1.2,3.45-1.2l-15.47,1.25c1.22,2.32,2,1.4,5.28,3.2-2,1.37-6.33,2.43-10.16,2.43,7-1.53-.06-3.71-3.07-5,.5.71-.53,1.49-.27,2.21-8.09-4.11-1.36,4.65-12.39,1.88l.58-1.21c-4.13.62-7.93,2.22-12.39,1.88-1.85-2.68,4.4-1.25,4.68-3.45-6.26.15-12.34,5.06-18,2.4,2.66-.75,6.48-.76,9.14-1.5-6.17-3.14-6.88-2.34-11.46-2.84l.45.07-10.6-1.42,2.7.86c-7.83,7-15.94,1.27-26.49,5.83,10.25-4.32,1.7-2.5,2.48-5.52-2.69-.85-6.78-1.79-5.62-2.64-5,2.44-8.32-1.93-15.35,1.65-.32-1-5.34-.1-4.21-2.55-6.48.77,1.53,1.7,1,2.92-10,3.33-23.48-4-37.85.53-12.4,1.88-14.69,5.17-26.19,6.81-3.88-1.56,3.18-3.55,3.18-3.55a37.54,37.54,0,0,0-16.87-.05c1.2-.86,0-1.58-1.83-2.67-4.74.25-3.17,3.55-9.41,2.11a15.93,15.93,0,0,1,4.73-3.91c-5.58.89-11.09,2.71-16.87,3.59-1.53-1.7,3.49-2.58,5.52-3.69-6.49.77-16.82,1.55-18.82,4.23l4.16,1c-2.36.13-1.21-2.31.53-2.8,5.56-2.11,8,.94,8.34,1.91l-4.11.63c4.22,5.72,16.52-.92,24.8-.59l-3.45,4.16,8.49-3.45c1.81,1.09,3,3.41-1,4,5.94,2.06,5.26-1.48,10.36.81.56.36.31.56-.22.73l5.8-1.24c-1.13.87,1,2.93-2.59,2.33,10.41,2.4,16.78-3.12,20.7,0l-.87.26c14.45-1.41,1.4-3.05,12.23-6.64l7.3,7.53,1.42-3c1.49.11,4.43.34,3.89,1.56,5.55-2.09-1-1.33,2.27-3.3,7.18,2.78,19.78-1.3,21.4,3.56,2.57-2.32-6.86-1.79.79-3.4,2.19,5.23,8.86-.9,15.41,1.5-2,2.7-8.22,1.27-1.67,3.68,4-4.56,12.76,1,18.29.13.26-3.63,12-1.52,21.29-2.73-.58,1.23,17.46,2,26.08,3.31l-.25.61c1.67-3.67,10.57-3,17-3.73-.26,2.19-1.42,3.06-4.93,4h6.09c1.44-1.18,3.34-1.8,7.29-2.22l-1.53,2.74c8.1-.15,16.32-3.23,26.76-1.4.58-2.56-8.3-7.13,2.73-8.84.41,1.39.82,3.76-2.07,4.32.94-.18,3.37-1.15,5.28-.56l-4.41,2.33c4.75,1,2.48-1.94,6.28-1.73-.07,2,2.81,1.41,2.27,3-1,.19-3.31-.81-4.77,0,4.28.35,9.46,1.52,11.17,3-.37-1.12,0-2.66,3.14-2.92,8.11-.14,2.77,2.38,7.5,3.4,2-1.38,7.14,0,7.28-2.91,2.37,0,2.81,1.39,3.72,2.19,4.2-1.3,19.6-.37,14.87-3.51l-1.07-.21c.2-.06.44-.06.68-.12h0c5.92-1.27,12-1.13,18.16-.67l4.6.39,4.65.41c3.8.26,7.76.47,11.6.5,1.25-2.15,2.46-4.36,3.53-6.57l.73.71c.57-1.27,1.16-2.52,1.77-3.77l1.46-3.05,2.89-5.82c1.87-3.82,3.48-7.45,4-10.5,1.21-2.08,4.4-4,4.91-2.54,2.47-5.76,1.86-6.92,7.76-13.9-1.63,6.29,2.41-1.1-2.11,6.19,4.78-6.58,7.07-7.38,9.07-16.25.72,3.83,5.81-3.68,7.08-7.39l-4.41,4a81.64,81.64,0,0,1,6-10.31l1.84,3.46c11.79-12.31,9-29.3,21.14-36.83.17-5-5.92,7-6.32,2.22,4.2-6.37,12.3-10.86,13.51-12.92,6.81-8.11.65-10.86,7.2-19.68-1.72.61-5.12.17-2-7.45,4.19-6.39,9-5.63,7.41-1-.83,1.64-1.59,2.21-1.9,1.94-.86,2.35-2,5.41.59,3.44l-.54-1.45c2.94-2.67,8.08-11.82,8.53-8.71,1.9-5.56-.45-3.11-3.12.28,6.38-7.61,7.68-13.2,13.71-21.34-1.36,1.06-3.31,1.64-2.5.27,8.65-12.05,1.3-6.76,5.85-15.68,4.41-4,2.72,3.92,6.44-5.55,4.14-4.71,3.38.45,3,3,2.6-9.08,9.87-14.08,12.85-18.41l-1.59,4.66a36.16,36.16,0,0,1,3.36-6.91l-3.43,1.2c1.77-2.25,3-4.32,3.81-3.78.12-3.31-4.54,0-3.48-6.12,2.94-2.68,4.64-10.62,8-10.18-6.87,9.76,3.4.44-1.2,9.41a21.78,21.78,0,0,1,3.63-6.16c.52-.2.36.67.13,1.43,8.13-8.45-.47-6.31,5.49-16.49.79,2.19,4.29-.68,4.92-2.54-2.41,4.1-3.7.49-2.7-4,5-5.85,3.22-7.63,5.34-11l-2.82,3.59c-.77-2.21,1.32-5.37,3.47-10.21,1.42.3-1.57,4.62-.1,3.29.22-6.63,9.41-9.84,11.67-18,2.93-2.67,3.07,1.35,5.44-1.12,2.58-9.07,7.06-7.36,10.22-16.64-3.45,1.21-3.19,1.92-1.82-5.1l-6.45,14.52,2.07-10.52c-2.42,4.12-3.74,9.47-5.52,11.74.74-5.15,1-4.43-1.86-3.44,6.37-3.86,4.67-12.25,10.54-17.58l5,3.16a32.3,32.3,0,0,0,6.11-9.91l1.14-2.8,2-4.39c1.3-2.92,2.6-5.81,4-8.77-1.54-2.3-3-4.64-4.51-7.13-.74-1.25-1.47-2.53-2.2-3.87l-.54-1-.27-.52-.19-.36-.65-1.4.37,1.16.18.57c.07.21.22.55.33.82l1.32,3.32a7.76,7.76,0,0,1-2.68-2.53c-.49-.69-.75-1.07-1.07-1.59s-.61-1.07-.92-1.65c-1.23-2.31-2.49-5-4.09-6.85,1.93-.6,1.06-3.54,1.11-5.92-1.15.94-5.28-9.41-9.36-8.59l-1-7c-5-10.83-11.66-8.94-16.79-19.18,3.58,1.91,2.19-3.29,7.35,2.58-1.89-3.32-3.29-6.47-4.51-5.84,0-2.55-7.59-7.84-7.73-11.82-1.55-1-3.6-.38-5.61-4.17.12-.61.86-.47.86-.47-.86.47-4.51-5.15-4.53-.81-.54-13.27-16.82-28.24-17.36-39.76-4.73-6.88-10.3-15.25-14.21-21.73.76.12.87-.47,1.4.87-3.62-9.95-8.11-2.72-12.27-14-.27-6.85,4.64,4.6,3.8.72,4.8-4.67-7.93-12-8.64-20.78l1.3,1.48c-1.15-6.39-9.58-11.67-14.17-20.54,0,0,.74.13.88-.44-6.28-4.26-13.69-14.89-19.29-22.75,3.7,1.32,3.35,3.11,4.67.24-2.46-3.55-3,3.16-7.88-3.91-.19-3.12-2.23-9.09-.26-11.18l4.18,6.94c1-5.38-5.35-9-6.94-13l1.62-.3c-6.65-10.5-10.14-8.69-16.57-20.38l-.33,1.78c-7-4.37-1.16-6.39-7.3-11.24l2.32-3.88c-3.23-3.69-11.73-12.69-16.69-19.79,5,2.77,11.32,10.76,16,15.31-2.36-4.15-8.36-13.89-11.28-15.07,1.29,1.47,3.34,3.09,3.76,5q-8.43-5.26-15.48-17.68c2.44-.78,2.14-3.44.69-7-.36-.89-.8-1.83-1.28-2.81-.12-.24-.24-.49-.37-.74l-.46-.9-1.23-2.27c-1.67-3.07-3.47-6.31-5.18-9.56-3.73-.15-7.32-.39-10.53-.85q-1.2-.18-2.34-.39l-1.1-.23c-.23-.08-.45-.16-.66-.25a8.1,8.1,0,0,1-2.2-1.3c-16.81,2.83-33.35-1.21-52.94-.75,7,5.95-5.72.17-4.52,6.28-4.56.39-6.3.29-6.71-.11L1470.56,231c-3.28-1.78,4.34-1.35,3.92-2.72-10-.47-4.19-2.59-10.8-4.21,1.35,2.18-3.48,3.13-9.17,2.29l8,2.82c-14,3.26-12.07-5.13-26.14-1.91l4.45-1.92c-7.22,1.13-26.64,0-33.71,4.87-1.28-.7-3-2.38.21-2.82-17.26-.73-38.41,5.23-51.82,2.2l1.31-1.49c-3.22.43-5.61,2.81-9.64,1.3.21-.61,1.3-1.49-.19-1.58-1.71.52-8.56,2.62-12.82,1.75l3.64-1.68c-16.83-2-25.83,4.1-39.94,5.12,0-4.4-13.21-5.83-19.82-6.54l.23-.63c-19.6-.54-33.29,3.65-51.44,5.38-3.88-1.64-9.61-2.39-16.19-2.78-3.29-.19-6.79-.29-10.39-.37l-18.07-.22q-2.25,3.75-4.47,7.43l-2.25,3.67-1.12,1.82c-.36.58-.81,1.31-1,1.52-1.76,2.63-3.52,5.12-5.29,7.36,2.07-2,2.74,2.1,1.51,5.11-2.89,3.23-3.22,11.7-6.38,9.1l.82-1.28c-5,.8-8.48,8.89-12,14.74l4,3.61c-15.57,11.61-20.92,41.88-31.74,46.87-1,4.39-3.69,9-4.68,13.36l-2.34-1.62a248,248,0,0,0-16.66,28.05l-.25-3.62c-4.31,7.11,1.82,13.18-1.87,19.9l-4.81-.11c-7.2,12.59-17.75,23.45-21.6,37.78-.41-.51-1.26-1.49-.23-3.61-3.51,5.85-15.69,21.44-9.42,22.19-3.36-1.74-7.81,12.78-10.28,20.39l-1.8-2.45c-.23,7.51.51,8.18-3.25,16.67-1.41,1.71-2.89.54-.82-1.62-4.91,5.59-.56,6.24-6.26,13.16l.1-3.74c-3.93,6.38-2.81,6.35-3.08,11-1.39,4.64-7.72,12-10.46,11.67.83,1.65.55,6.23-2.29,9.7-1.12,0-.83-1.65-.67-2.5-7.92,9.92-6.52,17.78-13.21,23.88a2.1,2.1,0,0,0-2.16.43c5-8.6,9.18-15.47,9-14.72-2.22-1.28-6.64,5.46-6.51-1.86-1.55,6.57-3.43,18.24-8.4,24.43a3.81,3.81,0,0,1-1.29.45l.16-.84a10.52,10.52,0,0,0-1.34,2.21q-.25.57-.45,1.14c-.13.41-.25.82-.37,1.22a107.07,107.07,0,0,0-6.2,9.18c-1,.33-2.23,1.82-3.71,4,1.09,2.29,2.84,5.31,4.6,8.25.88,1.47,1.75,2.93,2.57,4.28l1.12,1.89.56,1c2.27-1.69,4.5,3.08,4.05-2.34.07.32-.09.2-.46-.28-.26-.31-1.17-1.77-2.22-3.46a20.89,20.89,0,0,0-1.59-2.17,4.82,4.82,0,0,1,.45.29l-4.42-7.44,3.21-5.72a38.37,38.37,0,0,1-1.54,5.72,23.28,23.28,0,0,1,4.31,8.37c.81.5,1.6,1,2.36,1.4l1.11.61.53.29.45.17c1.18.46,2.22.88,2.91,1.22-.65,6.71,2.81,16.94,1.46,19.43,7.49,9.82,15.33,24.48,23.76,28.51,2.33,2.68.69,4.23.62,5.77-1.46-1.47-2.59-3.59-3.79-4.15,4.66,5.36,10.78,17.61,14.81,17.21,2.94,8.44-5.41-2.58,1.14,7.57l-1.79-.84c6.76,23.5,27.45,28.71,34.06,55.28-.51-1.81-.78-2.7-.44-3.34,12.12,27.66,33.63,52,43.85,80.27,3.28,7.82,5.78,7.43,9.9,11l-1.7,3.09,7.41,5.87c8.43,9.5,4.36,22.38,16.42,33.62l.74-2.78c2.5,5.09,10,14.93,7.51,15.28.61.32,2.76.55,2.95,3l-1.28.94,9.3,10.69c4.4,9.91-6.28,1.67,1.32,15.45,3.45,4.77,12.31,12.13,12.13,9.7-1.11-2.09-2.16-5.72-.88-6.66l3.39,4.22c4.52-1.49,10.7-.31,7-13.31l-7-6.5.48-3.68,4,6.6c-.35-4.85-3.36-6.31-6-8.35a5.86,5.86,0,0,0,.24-4.56l-8.34-5.56c1-1.85,5.14,1.68,3-4-3.89-2.61-1.52,5.54-6.18.18-.36-4.85,1.78-4.6-2.36-8.15.68-1.22,1.89-.66,3.36.84-3.53-3.24-6.58-10.18-9.9-11,0-5.25-8.31-13-4.27-14.84-1.63-.72-7-5.25-9.28-8.79,8.41,4-7.59-13.78-1.68-14.85-7-2.54-12.08-16.71-19.39-24.11.61.3,1.82.88,2.05,1.77-2.49-5.1-2.07-7.25-3.11-10.84-3.76,1.33-9-5.86-13.42-8.77-.19-7.9,6.1,1.35,8.15-2.35-2.57,1.89-8.77-8.86-9.88-5.5-.63-5.76-1.31-4.52.14-8.52-4.71,1.65-3.19-3.86-8-6.17-1.75-7.86,3-4-2.52-10.57C1104.3,707.82,1109.56,713.46,1109.56,713.46Zm-91.17-162.07,0,0-1.93,3.67Zm8.39-14.63c-1.12,1.72-2.42,3.93-3.75,6.28-1.14,0-1.68-1-.79-2.47C1022.34,541.69,1024.81,538.53,1026.78,536.76Zm-35,28.65a24.77,24.77,0,0,1-2.1-3.47,6.55,6.55,0,0,1,2.33-2.4l-1.31,2.4c.68,1,1.68,2.58,2.86,4.41.18.1.44.31.63.4A7.08,7.08,0,0,1,991.75,565.41Z"/><path class="cls-2" d="M999.39,571.26a16.8,16.8,0,0,1,1,1.35c-.19-.82-.38-1.57-.6-2.3l-1.56-.93C998.64,570,999,570.67,999.39,571.26Z"/><path class="cls-2" d="M1524.73,887.77l.36.07a2.31,2.31,0,0,1-.75-.4C1524.58,887.57,1524.58,887.66,1524.73,887.77Z"/><polygon class="cls-2" points="1147.88 337.77 1147.25 337.44 1147.05 339.02 1147.88 337.77"/><path class="cls-2" d="M1431.85,878.12a2.29,2.29,0,0,0-1.22-.71C1430.68,877.59,1431.21,877.84,1431.85,878.12Z"/><path class="cls-2" d="M1391.73,877.49l-5.68-1A48.3,48.3,0,0,0,1391.73,877.49Z"/><path class="cls-2" d="M1360.88,876.1a3.25,3.25,0,0,0-.61,1.21h.06Z"/><path class="cls-2" d="M1696.72,626.52a8.56,8.56,0,0,0,.49-1.09C1698.13,622.73,1697.37,624.49,1696.72,626.52Z"/><path class="cls-2" d="M1629.42,756.21a40.79,40.79,0,0,1,1.2-4.72C1629.14,753.63,1628.08,755.35,1629.42,756.21Z"/><path class="cls-2" d="M1693.1,497.85h.05c-.18-.3-.33-.57-.5-.87Z"/><path class="cls-2" d="M1634.06,745.63a16.22,16.22,0,0,0-3.44,5.86A25.33,25.33,0,0,0,1634.06,745.63Z"/><path class="cls-2" d="M1227.17,874.82l-1.48-.11a.57.57,0,0,1-.18.45Z"/><path class="cls-2" d="M1225.51,875.16l-1.65.33C1224.62,875.49,1225.27,875.47,1225.51,875.16Z"/><path class="cls-2" d="M1220.38,876.2l3.48-.71C1222.66,875.48,1221.17,875.4,1220.38,876.2Z"/><path class="cls-2" d="M1268,876.12l.47-1A1.45,1.45,0,0,0,1268,876.12Z"/><path class="cls-2" d="M1280.42,875.83c-3-.23-7.43-2.18-11.56-1.54l-.38.81C1270.42,873.59,1277.61,877.55,1280.42,875.83Z"/><path class="cls-2" d="M1332.22,888.43l-10.4-.82c1.82,1.09,4.21,2.55-.52,2.81C1334.41,893.66,1318.59,888,1332.22,888.43Z"/><path class="cls-2" d="M1364.46,890c-5.58.51.07,1.58-.23,2.19C1367.78,891.2,1368.64,891,1364.46,890Z"/><path class="cls-2" d="M1584.69,855l1.93,1.76C1588.46,852.85,1585.79,856.23,1584.69,855Z"/><polygon class="cls-2" points="1595.51 809.81 1592.04 812.65 1593.07 815.55 1595.51 809.81"/><polygon class="cls-2" points="1624.45 796.13 1623.83 797.95 1626.61 791.26 1624.45 796.13"/><path class="cls-2" d="M1691.81,446.24l-2.07,2.7C1691.68,451.18,1695.05,449.94,1691.81,446.24Z"/><path class="cls-2" d="M1604.56,301.52c.44-2.38-1.06-7-3.86-8.76C1602.41,296.15,1603.24,300.05,1604.56,301.52Z"/><polygon class="cls-2" points="1148.4 286.33 1149.19 282.86 1146.75 288.85 1148.4 286.33"/><g id="step2"><path class="cls-3" d="M1394.8,326.25a3.19,3.19,0,0,0-1.18,4.33,3.12,3.12,0,0,0,4.28,1.19,3,3,0,0,0,1-.95l20.95-12.06s-18.27,1.35-22.53,7.22a3.14,3.14,0,0,0-2.54.24Z"/><path class="cls-3" d="M1340.72,249c4.16,2.87,8.66,6.28,12.9,9.65,6.83,7.19,14.65,15.62,17.11,18.94l1.89,3.91,3.93-2-30.92-63.29a8.38,8.38,0,0,0,1.62-6.51c-.7-4.32-4.35-7.33-8.17-6.72s-6.37,4.61-5.69,8.94a7,7,0,0,0,.15.77C1332.85,216.49,1328.84,240.88,1340.72,249Z"/><path class="cls-3" d="M1374.32,286.08c-.28.74-.4,2.2.29,5.11-1.27,3.72,4.48,13.13,17,30.94l4.08,8.75,2.84-1.35-21-45a5.6,5.6,0,0,0,1.26-5.77,5.5,5.5,0,0,0-7-3.35,5.57,5.57,0,0,0-3.32,7.11A5.49,5.49,0,0,0,1374.32,286.08Z"/><path class="cls-3" d="M1324.91,138.5a5.31,5.31,0,0,0,.84-1.15,5.1,5.1,0,0,0-2.07-6.87,5,5,0,0,0-6.8,2.08c-3.89,0-11.39,3.1-25.25,16.91l-5.62,3.17,1.83,3.33,30.32-17.05a5,5,0,0,0,6.75-.42Z"/><path class="cls-3" d="M1291.88,157.39a4.46,4.46,0,0,0,.7-5.25,4.38,4.38,0,0,0-6-1.73,4.47,4.47,0,0,0-1.72,6c-4.54,4.64-8.7,19.65-10.78,27.82l-1.89,4.7c-2.3.05-5,2.28-6.74,5.71-2.09,4.22-1.77,8.68.72,9.93s6.2-1.17,8.28-5.41c2-4,1.79-8.19-.34-9.69,3.64-8.25,10.67-24.59,12.21-31.17l.1-.26a4.36,4.36,0,0,0,5.42-.71Z"/><path class="cls-4" d="M1315.85,63.8c-13.82-5.08-12.56-9.52-17.59-6.35s-2.51,5.08-6.91,8.25c-10,1.9-7.54,3.17-6.28,6.34s3.77,3.18-1.89,12.69,5,11.42,21.36-1.27,42.1-3.17,49-5.07-1.26-8.25-1.26-8.25C1348.52,66.33,1329.67,68.87,1315.85,63.8Z"/><path class="cls-5" d="M1312.26,62.39c1.47,1.74-26,16.65-26,16s-1.85-3.8,0-4,23.6-13.18,23.6-13.18S1310.79,60.64,1312.26,62.39Z"/><path class="cls-6" d="M1314.28,227.17c-44-6.56-29.53-67.89-28.9-77.4s-6.28-18.4-8.17-28.55,0-7.62,4.4-22.85,28.27-16.49,28.9-21.57-1.88-21.57,14.45-24.74,25.13,32.36,27,36.8,29.53,20.3,36.44,41.24,11.31,43.21-1.26,60.27C1365.17,220.19,1352.61,232.88,1314.28,227.17Z"/><ellipse cx="1369.13" cy="109.97" rx="2.18" ry="3.79" transform="translate(262.22 923.22) rotate(-40.9)"/><path class="cls-7" d="M1375.22,121.85c3.14,1.27,7.54,1.27,10.4,1.86,1.6,3.12,4.05,2.6,9.07,32.66s-24.49,54.94-31.23,61.15-3.94-11.92-4.57-20.17-8.17-30.45-16.34-42.51c-18.22-29.18-5.65-40.6,2.52-43.14s13.82,1.9,20.1,5.07C1366.43,118,1372.08,120.58,1375.22,121.85Z"/><path class="cls-8" d="M1389.51,131.85c1.09,1.74,2,7.77.79,9.67s-13.19.63-18.22,0-22-10.79-20.73-19,13.82,1.27,20.73,5.71,11.31,3.18,11.31,3.18C1386.53,129.46,1388.42,130.1,1389.51,131.85Z"/><path class="cls-9" d="M1390.3,135.17c-19.47,3.18-30.78-7.61-32-8.24"/><path class="cls-10" d="M1316.79,67.29c-1.25,11.42,6.29,21.57,11.94,24.74a9.48,9.48,0,0,0,9.42,0c4.24-2.49,4.87-8,5-9.56.4-3.84-.77-6.79-1.88-9.51a30.66,30.66,0,0,0-7.54-10.79C1330.62,58.4,1318.05,55.87,1316.79,67.29Z"/><ellipse cx="1337.21" cy="74.27" rx="3.77" ry="4.12"/><path class="cls-11" d="M1324.56,59c-9.83.63-7.69,14-7.69,14,3.22-1.22,23.4-2.26,23.4-2.26C1339.88,69.82,1334.39,58.4,1324.56,59Z"/><path class="cls-12" d="M1294.07,99.36c-4.82,0-4.81,7.55,0,7.55S1298.89,99.36,1294.07,99.36Z"/><path class="cls-12" d="M1287,107c-4.82,0-4.81,7.55,0,7.55S1291.78,107,1287,107Z"/><path class="cls-12" d="M1296.17,109.93c-4.83,0-4.82,7.55,0,7.55S1301,109.93,1296.17,109.93Z"/><path class="cls-12" d="M1291.14,187.76c-4.82,0-4.82,7.55,0,7.55S1296,187.76,1291.14,187.76Z"/><path class="cls-12" d="M1302.45,195c-4.82,0-4.82,7.55,0,7.55S1307.28,195,1302.45,195Z"/><path class="cls-12" d="M1292,197.91c-4.83,0-4.82,7.56,0,7.56S1296.8,197.91,1292,197.91Z"/><path class="cls-12" d="M1290.89,331.3a3.13,3.13,0,0,0-4,1.88,3.19,3.19,0,0,0,1.86,4.08,3.05,3.05,0,0,0,1.37.17l22.62,8.39s-12.81-13.21-20-12.69a3.14,3.14,0,0,0-1.83-1.81Z"/><path class="cls-12" d="M1310.73,238.61c1,5,2,10.58,2.73,16,0,10-.08,21.52-.57,25.63l-1.29,4.17,4.19,1.32,20.93-67.32a8.26,8.26,0,0,0,5.63-3.57c2.46-3.61,1.88-8.33-1.31-10.56s-7.76-1.11-10.23,2.5c-.14.19-.28.41-.41.63C1327.33,209.6,1307.75,224.44,1310.73,238.61Z"/><path class="cls-12" d="M1309,288.42c-.74.26-1.92,1.11-3.69,3.51-3.62,1.4-7.07,11.9-12.56,33l-4,8.77,2.84,1.34,20.8-45.15a5.49,5.49,0,0,0,5.19-2.73,5.59,5.59,0,0,0-2-7.6,5.46,5.46,0,0,0-7.52,2A5.59,5.59,0,0,0,1309,288.42Z"/><path class="cls-12" d="M1327,131.76a5,5,0,0,0-6.94.52,5.1,5.1,0,0,0,.38,7.17,4.7,4.7,0,0,0,1.17.76c.24,3.95,3.77,11.3,18.22,24.44l3.47,5.48,3.18-2-18.68-29.53a5.11,5.11,0,0,0-.81-6.79Z"/><path class="cls-12" d="M1349.77,164.8a4.38,4.38,0,0,0-5.18-.85,4.47,4.47,0,0,0-1.89,6,4.38,4.38,0,0,0,5.93,1.9c4.45,4.73,19.19,9.37,27.22,11.71l4.59,2c0,2.34,2.14,5.17,5.48,7,4.13,2.23,8.55,2,9.85-.44s-1-6.28-5.11-8.51c-3.9-2.11-8.05-2.05-9.6,0-8.06-3.91-24-11.48-30.5-13.23l-.25-.12a4.48,4.48,0,0,0-.54-5.48Z"/></g><g id="Layer_8" data-name="Layer 8"><path class="cls-3" d="M1235.66,942.84a3.67,3.67,0,0,0-2.74,1.22c-7.71-3.5-27.16,5.65-27.16,5.65l28.29.13a3.69,3.69,0,1,0,1.61-7Z"/><path class="cls-3" d="M1241.21,817.65a8.87,8.87,0,0,0,.14-.9c.57-5.06-2.64-9.58-7.16-10.06s-8.64,3.18-9.2,8.24a9.58,9.58,0,0,0,2.26,7.47l-32.86,75.17,4.73,2.07,2-4.65c2.71-4,11.43-14.19,19-22.92,4.8-4.14,9.89-8.34,14.6-11.9C1248.25,850,1242.23,822,1241.21,817.65Z"/><path class="cls-3" d="M1203.64,892.08a6.45,6.45,0,1,0-3,10.53l34.78,46.26,3-2.21-6.72-9c-11.42-22.7-17.92-33.79-22.43-34.5-2.61-2.29-4.18-2.95-5.08-3.08A6.45,6.45,0,0,0,1203.64,892.08Z"/><path class="cls-3" d="M1255.53,727.79a5.9,5.9,0,0,0-7.55-2.5l-29.43-28.15-3.06,3.2,5.45,5.22c11.7,19.67,19.33,25.35,23.75,26.55a5.9,5.9,0,1,0,11.48-2.76,6.06,6.06,0,0,0-.62-1.54Z"/><path class="cls-3" d="M1223.52,696.78a5.16,5.16,0,0,0-5.9-2.41l0-.31c.18-7.86-3-28.32-4.72-38.68,2.86-1.06,4.29-5.71,3.23-10.8-1.13-5.38-4.63-9.2-7.82-8.53s-4.86,5.57-3.73,11c.91,4.35,3.38,7.68,6,8.44l.74,5.84c0,9.8.29,27.92,4.09,34.49a5.16,5.16,0,1,0,8.23,1Z"/><path class="cls-4" d="M1218.25,653.21s-9.58,7.37-1.47,9.59,38.35-8.85,57.52,5.89,31.71,12.54,25.07,1.48-3.68-11.06-2.21-14.75,4.42-5.16-7.37-7.37c-5.17-3.69-2.22-5.9-8.12-9.59s-4.42,1.47-20.64,7.37S1222.68,648.78,1218.25,653.21Z"/><path class="cls-5" d="M1268,642.86s25.53,15.1,27.7,15.33,0,3.89,0,4.63-32.21-16.62-30.49-18.65S1268,642.86,1268,642.86Z"/><path class="cls-6" d="M1177.32,793c-14.74-19.83-9.58-45.72-1.47-70.05s40.56-42.77,42.77-47.94,12.54-46.46,31.71-42.77,16.23,22.86,17,28.76,28.76,7.38,33.93,25.07,7.37,14.75,5.16,26.55-10.33,22.13-9.59,33.19,17.75,82.34-33.92,90C1217.88,842.36,1203.14,827.61,1177.32,793Z"/><ellipse cx="1198.49" cy="699.52" rx="4.42" ry="2.54" transform="translate(-119.18 1134.77) rotate(-48.55)"/><path class="cls-7" d="M1203.14,707.41c7.37-3.69,14-8.85,23.59-5.9s24.34,16.23,3,50.15c-9.58,14-18.43,39.82-19.17,49.41s2.55,30.66-5.36,23.44-42.55-36.13-36.67-71.08,8.77-34.33,10.65-38c3.36-.68,8.52-.68,12.21-2.16S1201.66,708.89,1203.14,707.41Z"/><path class="cls-8" d="M1181.75,724.37s5.16,1.48,13.27-3.69,22.86-16.22,24.34-6.63-18.44,21.38-24.34,22.12-19.91,2.21-21.38,0-.36-9.21.93-11.24S1178.06,722.16,1181.75,724.37Z"/><path class="cls-9" d="M1211.25,719.21c-1.48.74-14.75,13.27-37.61,9.59"/><path class="cls-10" d="M1240,644a35.58,35.58,0,0,0-8.85,12.54c-1.31,3.16-2.69,6.59-2.21,11.06.18,1.75.93,8.21,5.9,11.11a11.21,11.21,0,0,0,11.06-.05c6.63-3.69,15.48-15.49,14-28.76S1243.7,639.57,1240,644Z"/><ellipse cx="1235.95" cy="658" rx="4.42" ry="4.79"/><path class="cls-12" d="M1286.59,695.94c5.65,0,5.66-8.77,0-8.77S1280.93,695.94,1286.59,695.94Z"/><path class="cls-12" d="M1295,704.79c5.65,0,5.65-8.77,0-8.77S1289.28,704.79,1295,704.79Z"/><path class="cls-12" d="M1284.13,708.24c5.65,0,5.66-8.79,0-8.79S1278.47,708.24,1284.13,708.24Z"/><path class="cls-12" d="M1290,798.7c5.65,0,5.66-8.78,0-8.78S1284.37,798.7,1290,798.7Z"/><path class="cls-12" d="M1276.75,807.05c5.65,0,5.67-8.78,0-8.78S1271.1,807.05,1276.75,807.05Z"/><path class="cls-12" d="M1289.05,810.5c5.65,0,5.65-8.78,0-8.78S1283.38,810.5,1289.05,810.5Z"/><path class="cls-12" d="M1251.56,942.56a3.69,3.69,0,0,0-2.72,1.28c-7.78-3.32-27,6.29-27,6.29l28.28-.53a3.69,3.69,0,1,0,1.48-7Z"/><path class="cls-12" d="M1244.31,818.06c0-.29.06-.59.06-.9.09-5.09-3.52-9.28-8.06-9.36s-8.31,4-8.4,9.06a9.63,9.63,0,0,0,2.95,7.23L1205.12,902l4.9,1.62,1.59-4.82c2.32-4.21,10.06-15.19,16.83-24.59,4.39-4.57,9.07-9.23,13.43-13.2C1254.32,849.66,1245.72,822.25,1244.31,818.06Z"/><path class="cls-12" d="M1213.11,896.38a6.45,6.45,0,1,0-1.72,10.79l39.77,42,2.68-2.54-7.73-8.17c-13.89-21.27-21.59-31.56-26.16-31.76-2.85-2-4.48-2.47-5.4-2.49A6.46,6.46,0,0,0,1213.11,896.38Z"/><path class="cls-12" d="M1255.62,725.23a5.9,5.9,0,0,0-7.73-1.84l-31.65-25.64-2.78,3.44,5.9,4.75c13.27,18.62,21.3,23.66,25.81,24.46a5.9,5.9,0,1,0,11.32-3.32c0-.12-.07-.24-.12-.36a5.55,5.55,0,0,0-.74-1.48Z"/><path class="cls-12" d="M1221.59,697a5.17,5.17,0,0,0-4.66-4.42l.08-.31c3-7.26,7.52-27.47,9.7-37.74,3,0,6.08-3.76,6.94-8.85.92-5.42-1-10.26-4.17-10.8s-6.55,3.41-7.47,8.85c-.73,4.42.35,8.39,2.49,10l-1.48,5.7c-3.59,9.12-9.9,26.12-8.76,33.61a5.16,5.16,0,1,0,7.3,3.94Z"/><path class="cls-8" d="M1181.81,724.19s5.16,1.47,13.36-3.69,23-16.33,24.49-6.68S1203,751.3,1197,752.05s-21.89-13.73-23.38-16-.36-9.27.93-11.32S1178.09,722,1181.81,724.19Z"/><path class="cls-13" d="M1173.58,729l.12-.74a52.21,52.21,0,0,0,9.26.67c1.53,0,3-.13,4.54-.3a47.26,47.26,0,0,0,22.79-9.22,8.54,8.54,0,0,1,1-.73l.33.66a8.81,8.81,0,0,0-.94.66c-6.68,4.95-10.49,23.45-18.16,24.61C1190.22,745,1176.44,729.47,1173.58,729Z"/><polygon class="cls-10" points="1187.38 732.73 1182.18 732.73 1182.18 728.96 1187.11 728.69 1187.38 732.73"/><polygon class="cls-10" points="1194.35 731.52 1189.23 732.39 1188.61 728.67 1193.42 727.58 1194.35 731.52"/></g><path class="cls-3" d="M1723.74,616.4a4.22,4.22,0,0,0-2,.31,4.38,4.38,0,1,0,3.29,8.11l33.5,2.16s-22.28-12.41-31.69-8.91a4.36,4.36,0,0,0-3.15-1.67Z"/><path class="cls-3" d="M1700.9,511.37c6,3.59,12.53,8,18.66,12.25,10,9.4,21.56,20.42,25.24,24.79l3,5.26,5.34-3-47.79-84.91a11.4,11.4,0,0,0,1.75-9.09c-1.27-5.9-6.57-9.78-11.85-8.64s-8.52,6.84-7.25,12.75c.08.36.17.7.27,1C1687.54,467,1683.8,500.91,1700.9,511.37Z"/><path class="cls-3" d="M1743.35,557.69c-1,.42-2.52,1.75-4.67,5.25-4.88,2.35-8.35,17.23-13.33,47l-4.51,12.57L1725,624l23.21-64.68a7.62,7.62,0,1,0-4.82-1.61Z"/><path class="cls-3" d="M1716.15,358.15a7,7,0,1,0-7.88-11.58,7.17,7.17,0,0,0-1.44,1.31c-5.34-1.1-16.39,1-39.15,15.76l-8.56,2.69,1.59,5,46.1-14.55a7,7,0,0,0,9.34,1.33Z"/><path class="cls-3" d="M1665.73,374.37a6.12,6.12,0,1,0-9.28-3.23c-7.5,5-17.34,24.07-22.44,34.58l-3.84,5.83c-3.16-.55-7.54,1.7-10.79,5.86-4,5.14-4.8,11.24-1.75,13.62s8.77.15,12.8-5c3.8-4.85,4.71-10.56,2.22-13.19,7.26-10.14,21.37-30.26,25.31-38.72l.21-.31a6.12,6.12,0,0,0,7.58.55Z"/><path class="cls-4" d="M1743.86,259.28c-14.92-14-10.91-19-19.07-17.72s-6,5.05-13.33,6.65c-13.91-3.12-11.38-.12-11.5,4.59s3.13,6.09-9.32,15.05.16,17.23,28,10.13,55.6,19.13,65.5,20.52,2.88-11.14,2.88-11.14C1784.28,280.46,1758.79,273.32,1743.86,259.28Z"/><path class="cls-5" d="M1740.11,255.5c.87,3-42.4,6.83-42,6s-.34-5.85,2.12-5,37.39-3.72,37.39-3.72S1739.23,252.48,1740.11,255.5Z"/><path class="cls-6" d="M1652.85,465.51c-52.79-32.52-.8-102.29,5.16-114s2-26.79,5.09-40.69,4.16-9.65,18.07-26.53,45.17-5.36,48.75-11.45,9.34-28.39,32-23.43,14.54,54.83,14.54,61.51,26.76,42,24.2,72.32-9.05,61-34.44,75.72C1721.77,484.66,1698.8,493.83,1652.85,465.51Z"/><ellipse cx="1786.91" cy="347.05" rx="3.02" ry="5.25" transform="translate(-19 575.48) rotate(-18.2)"/><path class="cls-7" d="M1788.27,365.5c3.29,3.34,8.92,5.75,12.25,8.07.35,4.84,3.79,5.51-6.18,46.4s-61.27,56.17-73.28,60.34,1.45-17.28,5.14-28.08,6.12-43.1,2.24-62.87c-7.43-47,14.88-54.61,26.71-53.31s16.65,10,23,17.5C1779,355.86,1785,362.17,1788.27,365.5Z"/><path class="cls-8" d="M1801.08,386.05c.44,2.82-1.61,11-4.26,12.69s-17.24-6.44-23.33-10-22.28-25.77-16.17-35.54,17,9.2,23.43,18.64,12.75,10.24,12.75,10.24C1798.55,381.39,1800.63,383.23,1801.08,386.05Z"/><path class="cls-9" d="M1800.27,390.7c-26.66-6.69-35.26-26.58-36.52-28.08"/><path class="cls-10" d="M1743.14,264.25c-7.82,13.78-3.7,30.8,1.81,37.93a13.37,13.37,0,0,0,12.08,5.25c6.74-.85,10.58-7.55,11.6-9.38,2.61-4.68,2.72-9.06,2.77-13.13a42.22,42.22,0,0,0-3.77-17.81C1765.68,260.55,1751,250.46,1743.14,264.25Z"/><ellipse cx="1765.47" cy="284.25" rx="5.69" ry="5.25" transform="translate(807.39 1794.14) rotate(-66.75)"/><path class="cls-11" d="M1757.61,258c-12.95-4.59-17.5,13.53-17.5,13.53,4.78.22,31.19,10,31.19,10C1771.31,280.14,1770.57,262.63,1757.61,258Z"/><path class="cls-12" d="M1694.53,291.94c-6.72,0-6.7,10.43,0,10.43S1701.26,291.94,1694.53,291.94Z"/><path class="cls-12" d="M1681.27,297.73c-6.72,0-6.7,10.42,0,10.42S1688,297.73,1681.27,297.73Z"/><path class="cls-12" d="M1691.45,306.48c-6.71,0-6.7,10.42,0,10.42S1698.17,306.48,1691.45,306.48Z"/><path class="cls-12" d="M1642.63,402.4c-6.71,0-6.7,10.43,0,10.43S1649.35,402.4,1642.63,402.4Z"/><path class="cls-12" d="M1653.2,417.74c-6.73,0-6.71,10.42,0,10.42S1659.92,417.74,1653.2,417.74Z"/><path class="cls-12" d="M1638.18,415.73c-6.72,0-6.71,10.42,0,10.42S1644.89,415.73,1638.18,415.73Z"/><path class="cls-12" d="M1670.8,617.8a4.39,4.39,0,0,0-1.92.41h0a4.38,4.38,0,1,0,3.67,7.95l33.57.61s-22.84-11.39-32.07-7.44a4.39,4.39,0,0,0-3.21-1.53Z"/><path class="cls-12" d="M1678.74,507.24c4.7,5.2,9.68,11.25,14.33,17.16,6.91,11.89,14.78,25.76,17,31l1.32,5.87,6-1.35-21.4-95a11.45,11.45,0,0,0,4.32-8.19c.48-6-3.51-11.25-8.87-11.69s-10.13,4.1-10.61,10.12v1.08C1678.69,461,1665.35,492.4,1678.74,507.24Z"/><path class="cls-12" d="M1706.34,563.4c-1.07.21-2.87,1.13-5.78,4-5.31,1.19-12.15,14.82-24,42.57l-7.32,11.16,3.66,2.4,37.64-57.45a7.7,7.7,0,1,0-4.25-2.72Z"/><path class="cls-14" d="M1748.89,485.58s-2.35,0-2.85-.1.55,2.65,1,3.24,2.27-1.85,2.27-1.85Z"/><path class="cls-15" d="M1764.54,518.2c.06,1.2,2.61,1.64,3.42,2.31s-2.06,1.23-2.06,1.23S1764.48,517,1764.54,518.2Z"/><path class="cls-16" d="M1745.56,469.42c.89.94,8.24,24.6,8.67,25.95s-3.08.87-3.08.87l-8.94-25.87S1744.67,468.47,1745.56,469.42Z"/><path class="cls-17" d="M1763.29,525.7l-18.39-55.52,4.19-1.24,18.38,55.51C1767.89,525.85,1763.29,525.7,1763.29,525.7Z"/><path d="M1728.32,463.62s-13.57,4.32-14.77,4.38a68.7,68.7,0,0,0-5.31-12.68,27.92,27.92,0,0,0-6-11c-.26-.82,8.16,6.05,8.08,8.81s4.63,12.58,5.12,13,13.13-3.91,13.13-3.91Z"/><path class="cls-18" d="M1728.54,457.61s-.61-1-4.87-.06-3,4.23-3,4.23c.56-3.2,6.44-2.83,6.44-2.83Z"/><path class="cls-19" d="M1728.08,440.33c2.75.09,9.59-6.5,9.26-7.62.82,5.79-5.7,11.38-5.7,11.38S1725.32,440.24,1728.08,440.33Z"/><path class="cls-16" d="M1747.69,463.27s3.87-.23,4.18-1.24-2.35-9.93-3.75-12.54-5.09-1.82-5.09-1.82Z"/><path class="cls-20" d="M1725.89,454.31c-1.76.22-8.28,2.77-9.2,2.74s-5.33-14.76-4.58-15.33,12.93-4.49,13.66-4.07,10.94,9.18,10.94,9.18C1737.43,447.22,1727.65,454.09,1725.89,454.31Z"/><polygon class="cls-21" points="1723.73 452.67 1720.11 453.76 1717.11 443.73 1723.8 441.73 1727.47 444.88 1723.73 452.67"/><polygon class="cls-20" points="1723.33 450.67 1720.92 451.39 1718.92 444.7 1723.38 443.37 1725.83 445.47 1723.33 450.67"/><path class="cls-22" d="M1713.62,442.77c-6.81-22.85-30-14.11-27.31-12.18s5.33,17.84,5.33,17.84c10.76-13.83,16.64,6.87,16.64,6.87l8.41,1.75,1.12-.33S1716.78,454.34,1713.62,442.77Z"/><path class="cls-23" d="M1711.64,449.71a1.31,1.31,0,0,0,2.53-.7c-1.68-5.6-3.7-12.38-8.07-16.53-4.17-4-9.48-3.17-14.59-1.75a1.3,1.3,0,0,0-.25.1,1.35,1.35,0,0,0-.53,1.83c1.27,3-.06,6,1.69,8.84a1.35,1.35,0,0,0,1.49.61c1.66-.3,2.92-.83,4.67-1,3.65-.36,6.15,1.72,6.65,5.47.22,1.66,2.85,1.67,2.63,0a9.51,9.51,0,0,0-4.49-7.35c-3.86-2.27-6.34-.34-10.16.36l1.48.6c-1.61-2.58-.48-6-1.7-8.85l-.78,1.94c5.89-1.64,10.68-1.62,14.3,4,2.42,3.74,3.85,8.24,5.13,12.49Z"/><path class="cls-23" d="M1701,435.64c1.26,1.11,3.12-.74,1.85-1.86-2.54-2.19-9.11-3-7.88,2,0,.13,0,.25.08.37a3.16,3.16,0,0,0,3.9,2.17c1.11-.2,1.71-.58,2.86,0a5.56,5.56,0,0,1,1.86,1.75c.88,1.24,1.58,2.62,2.34,3.93a1.32,1.32,0,0,0,2.27-1.33c-1.52-2.55-2.92-5.9-5.9-7a5.53,5.53,0,0,0-1.75-.37c-.61,0-1.89.6-2.36.45l-.75-.71q-.16-1.15,0-.42c1.09-.55,2.67.27,3.45.95Z"/><path class="cls-14" d="M1731.24,474.26c-.45-.47-7-18.26-6.83-19.82s3-6.07,3-6.07,9-3.3,9.75-2.91,6.25.54,7.13,1.51,6.82,22.86,6.82,22.86C1751.49,471,1731.68,474.73,1731.24,474.26Z"/><path class="cls-15" d="M1745,466.83l-3-10c-1-10.34,3.2-1,3.2-1l3.17,10.6Z"/><path class="cls-15" d="M1737.82,468.35l-3-10c.66-10.83,5.84-1.75,5.84-1.75l3.17,10.59Z"/><path class="cls-15" d="M1732.47,468.74l-3-10c-.54-10.47,3.89-1.17,3.89-1.17l3.17,10.59Z"/><path class="cls-12" d="M1722.38,360.13a7,7,0,1,0-10.79-8.93,6.19,6.19,0,0,0-1,1.66c-5.44.45-15.48,5.53-33.2,26.07l-7.47,5,2.91,4.38,40.27-26.82a7,7,0,0,0,9.34-1.32Z"/><path class="cls-12" d="M1679,386.59a6.13,6.13,0,1,0-6.47,7.42c1.85,8.81,15.93,25.07,23.73,33.71l4,5.74c-1.7,2.72-1.21,7.62,1.41,12.19,3.23,5.65,8.64,8.66,12,6.72s3.4-8.09.13-13.74c-3.06-5.36-8-8.32-11.38-7-6.71-10.51-20.12-31.1-26.5-37.91l-.22-.31a6.14,6.14,0,0,0,3.35-6.84Z"/><path class="cls-3" d="M946.13,692.69a4.36,4.36,0,0,0-3.19,1.59c-9.32-3.74-31.91,8.13-31.91,8.13l33.55-1.33a4.55,4.55,0,0,0,1.9.35,4.38,4.38,0,1,0-.35-8.75Z"/><path class="cls-3" d="M1066.56,578.92c.27-.25.52-.5.77-.77,4-4.5,4.07-11.06.06-14.67s-10.51-2.9-14.59,1.6a11.36,11.36,0,0,0-3,8.75l-83.69,49.79,3.13,5.25,5.17-3.07c5.37-2,20.85-5.79,34.23-8.95,7.49-.66,15.31-1.2,22.31-1.37C1051,615,1064.58,583.76,1066.56,578.92Z"/><path class="cls-3" d="M971.66,631.43a7.66,7.66,0,1,0-12.5,3.5l-25.67,63.74,4,1.63,5-12.37c16.07-25.53,23.35-38.94,21.3-44,.74-4.06.46-6.06,0-7.05A7.67,7.67,0,0,0,971.66,631.43Z"/><path class="cls-3" d="M1091.06,458.17a7,7,0,0,0-9.42-.49l-42.45-23.13-2.51,4.61,7.88,4.3c19.48,18.87,29.94,23,35.4,23a7,7,0,1,0,11.35-8.07l-.24-.24Z"/><path class="cls-3" d="M1044.77,432.56a6.13,6.13,0,0,0-7.55-.92l-.15-.35c-2.24-9.05-12.25-31.51-17.39-42.85,2.93-2.1,3.14-7.88.34-13.37-3-5.83-8.15-9.12-11.6-7.37s-3.84,7.88-.87,13.71c2.4,4.71,6.25,7.77,9.46,7.83l2.63,6.46c3,11.25,9,31.91,15.37,38.25a6.13,6.13,0,1,0,9.74-1.39Z"/><path class="cls-4" d="M1035.56,376.54s-11,9.28-1.23,11.45,45-12.61,68.54,3.82,38.29,13.13,29.81.36-5-12.91-3.44-17.37,5-6.36-9.15-8.33c-6.32-4.09-2.95-6.87-10.15-10.93s-5.16,2-24.07,9.9S1040.56,371.06,1035.56,376.54Z"/><path class="cls-5" d="M1094,361.52s31.11,16.5,33.7,16.64.18,4.61.21,5.48-39.11-17.89-37.17-20.38S1094,361.52,1094,361.52Z"/><path class="cls-6" d="M994.76,544.51c-18.61-22.69-13.9-53.68-5.63-83s45.73-53,48.07-59.21,12.25-55.78,35.23-52.52,20.5,26.26,21.7,33.17,34.52,7.15,41.62,27.85,9.56,17.08,7.59,31.19-11,26.81-9.54,39.89,25.61,96.66-35.24,108.54C1045.58,600.86,1027.28,584.19,994.76,544.51Z"/><ellipse cx="1014.7" cy="432.59" rx="5.25" ry="3.02" transform="translate(41.94 952.66) rotate(-51.22)"/><path class="cls-7" d="M1020.62,441.62c8.55-4.78,16.13-11.27,27.67-8.31s29.76,17.9,6.26,59.3c-10.59,17.15-19.65,48.24-20,59.65s4.73,36.22-5.06,28.1-52.44-40.47-47.4-82.29,8.49-41.19,10.51-45.6c3.93-1,10-1.28,14.34-3.24S1019,443.48,1020.62,441.62Z"/><path class="cls-8" d="M996.21,462.94s6.2,1.48,15.54-5.1,26.21-20.5,28.48-9.22-20.67,26.39-27.63,27.59-23.49,3.72-25.39,1.18-.93-10.9.47-13.39S991.71,460.53,996.21,462.94Z"/><path class="cls-9" d="M1030.9,455.2c-1.71.95-16.75,16.55-44.06,13.44"/><path class="cls-10" d="M1060.84,364.41a42.35,42.35,0,0,0-9.8,15.36c-1.38,3.82-2.81,8-2,13.23.32,2.07,1.56,9.7,7.56,12.86a13.37,13.37,0,0,0,13.14-.67c7.66-4.75,17.5-19.26,15-34.89S1065,359,1060.84,364.41Z"/><ellipse cx="1056.75" cy="381.31" rx="5.25" ry="5.69" transform="translate(-16.62 49.64) rotate(-2.67)"/><path class="cls-11" d="M1052.32,376.64s28.15.12,32.72,1.6c0,0,2.11-18.56-11.6-18.8S1052.81,375.3,1052.32,376.64Z"/><path class="cls-12" d="M1118.71,423.45c6.71,0,6.72-10.43,0-10.43S1112,423.45,1118.71,423.45Z"/><path class="cls-12" d="M1129.11,433.48c6.71,0,6.72-10.43,0-10.43S1122.39,433.48,1129.11,433.48Z"/><path class="cls-12" d="M1116.47,438.12c6.71,0,6.72-10.42,0-10.42S1109.76,438.12,1116.47,438.12Z"/><path class="cls-12" d="M1128.47,545.09c6.71,0,6.72-10.42,0-10.42S1121.76,545.09,1128.47,545.09Z"/><path class="cls-12" d="M1113.2,555.74c6.7,0,6.71-10.42,0-10.42S1106.48,555.74,1113.2,555.74Z"/><path class="cls-12" d="M1128,559.14c6.71,0,6.72-10.43,0-10.43S1121.24,559.14,1128,559.14Z"/><path class="cls-12" d="M1065.85,689.7a4.42,4.42,0,0,0-3.21,1.54c-9.27-3.87-32,7.68-32,7.68l33.56-.87a4.38,4.38,0,1,0,1.67-8.36Z"/><path class="cls-12" d="M1075.84,572.76c.15-.31.29-.65.42-1,2.12-5.65-.26-11.78-5.31-13.67s-10.87,1.16-13,6.83a11.47,11.47,0,0,0,.43,9.25l-59.65,77,4.85,3.76,3.69-4.77c4.26-3.79,17.27-13,28.57-20.85,6.72-3.37,13.8-6.73,20.25-9.45C1074.53,612.08,1075.77,578,1075.84,572.76Z"/><path class="cls-12" d="M1006,645.25a7.66,7.66,0,1,0,1,12.93l57.4,37.76,2.41-3.65L1055.66,685c-21.89-20.78-33.56-30.58-38.9-29.56-3.83-1.52-5.84-1.64-6.91-1.41A7.66,7.66,0,0,0,1006,645.25Z"/><path class="cls-14" d="M981,457.81s-2.26,2.05-1.65,2.41,3.43,1.18,3.31.69-.33-2.82-.33-2.82Z"/><path class="cls-15" d="M944.86,444.25s.31-2.91,1-2.17,1.4,3.27,2.63,3.23S944.86,444.25,944.86,444.25Z"/><path class="cls-16" d="M998.05,463.43l-26.53-6.7s-.77-3.43.65-3.13,25.56,5.61,26.59,6.41S998.05,463.43,998.05,463.43Z"/><path class="cls-17" d="M942,442.87l56.9,13.61-.88,4.27-56.9-13.61S940.6,442.57,942,442.87Z"/><path d="M1007.25,476.33s-3.29,13-2.78,13.38,10.68,4.31,13.42,4,10.33,7.49,9.48,7.32A27.72,27.72,0,0,0,1016,496a70.34,70.34,0,0,0-13.14-4.21c-.05-1.2,3.14-15.09,3.14-15.09Z"/><path class="cls-18" d="M1010.72,477.51s.87,5.82-2.28,6.65c0,0,3.36,1,4-3.33s-.48-4.85-.48-4.85Z"/><path class="cls-19" d="M1025.13,471.73s5-7,10.89-6.65c-1.14-.24-7.12,7.13-6.8,9.87S1025.13,471.73,1025.13,471.73Z"/><path class="cls-16" d="M1020.6,460.69s.48-3.76-2.24-4.92-11.85-3.06-12.82-2.63-.87,4.27-.87,4.27Z"/><path class="cls-20" d="M1022,466.92s9.63,9.43,10.08,10.11-2.44,13.13-2.91,14-15.55-2.33-15.66-3.25,1.88-7.63,2-9.4S1021.53,466.23,1022,466.92Z"/><polygon class="cls-21" points="1024.7 475.95 1028.16 479.34 1026.73 486.18 1016.48 484.04 1017.25 480.35 1024.7 475.95"/><polygon class="cls-20" points="1024.26 477.64 1026.56 479.9 1025.62 484.45 1018.78 483.04 1019.29 480.57 1024.26 477.64"/><path class="cls-22" d="M1013.73,486.59l-.24,1.14,2.45,8.23s21.13,4.1,8.27,16c0,0,16.07,1.26,18.22,3.79s8.89-21.32-14.46-26.18C1016.23,487.41,1013.73,486.59,1013.73,486.59Z"/><path class="cls-23" d="M1021.12,492.12c4.56,1,9.48,2.05,13.57,4.38,5.41,3.06,5.67,7.88,4.62,13.5l1.62-.88a8.88,8.88,0,0,0-3.35-.49c-.75,0-2.43.59-3.15.25-1.58-.73-.27-5.09-.81-6.88-1.19-3.94-4.86-6.17-8.82-6.32-1.69-.06-1.69,2.57,0,2.63,2.88.11,5.85,1.89,6.45,4.91.43,2.13-.75,4.15-1,6.23a1.3,1.3,0,0,0,.65,1.13c3,1.62,6.13,0,9.27,1.07a1.31,1.31,0,0,0,1.62-.87c1-5.2,1.38-10.58-2.88-14.43-4.48-4.05-11.45-5.49-17.15-6.67-1.65-.35-2.36,2.18-.69,2.53Z"/><path class="cls-23" d="M1036.13,501.52a5.37,5.37,0,0,1,1.36,2.63.66.66,0,0,0,.3.87h0a4.46,4.46,0,0,1-1.21-.07c-.61-.52-.06-2.17-.11-2.89a5.3,5.3,0,0,0-.48-1.75c-1.34-2.92-4.71-4.06-7.41-5.34-1.52-.71-2.85,1.55-1.32,2.27,1.27.61,2.62,1.18,3.81,1.85,1.9,1,2.81,2.07,2.63,4.31s.26,3.77,2.63,4.17c5.07.88,4-5.51,1.54-7.88-1.24-1.16-3.09.69-1.87,1.86Z"/><path class="cls-14" d="M997.83,454.47s22.33,4,23.35,4.86,1.66,6.28,2.11,7-2.07,10-2.07,10-4.25,3.28-5.79,3.55-19.81-4.71-20.32-5.11S996.69,454.23,997.83,454.47Z"/><path class="cls-15" d="M1001.46,457l10.82,2.25s9.7,3.34-.68,3.27l-10.25-2.12Z"/><path class="cls-15" d="M1001.11,461.54l10.82,2.25s9.49,4.38-1.24,6l-10.25-2.13Z"/><path class="cls-15" d="M1000.77,468.9l10.82,2.25s9.63,3.62-.82,4L1000.52,473Z"/><path class="cls-12" d="M1071,464.61a7,7,0,0,0,6.07,7.22l12,46.84,5.09-1.29-2.23-8.7c.56-27.13-3.5-37.64-7.24-41.58a7.31,7.31,0,0,0,.35-1.91,7,7,0,1,0-14-.58h0Z"/><path class="cls-12" d="M1089.4,512.26a6.13,6.13,0,0,0-6,4.66l-.34-.15c-8-4.87-30.85-13.84-42.49-18.28.61-3.55-3.3-7.8-9.15-9.76-6.2-2.05-12.2-.75-13.43,2.92s2.81,8.31,9,10.37c5,1.67,9.9,1.13,12.26-1.07l6.41,2.74c10,5.89,28.82,16.38,37.82,16.41a6.13,6.13,0,1,0,6-7.88Z"/><ellipse class="cls-24" cx="944.32" cy="406.37" rx="6.26" ry="5.31" transform="translate(-82.42 458.14) rotate(-26.17)"/><ellipse class="cls-25" cx="943.62" cy="406.9" rx="5.8" ry="4.93" transform="translate(-82.73 457.88) rotate(-26.17)"/><path class="cls-26" d="M939.61,409.77s-2.94-6.65,5.43-6.88C945,402.89,939.24,403.93,939.61,409.77Z"/><ellipse class="cls-24" cx="938.58" cy="403.89" rx="3.98" ry="3.38" transform="translate(-81.91 455.35) rotate(-26.17)"/><ellipse class="cls-25" cx="939.08" cy="404.46" rx="3.69" ry="3.13" transform="translate(-82.12 455.63) rotate(-26.17)"/><path class="cls-26" d="M947.68,405.24s-1.88-4.23,3.5-4.38A4.19,4.19,0,0,0,947.68,405.24Z"/><ellipse class="cls-24" cx="944.91" cy="465.29" rx="6.26" ry="5.31" transform="translate(-89.3 664.7) rotate(-37.13)"/><ellipse class="cls-25" cx="945.49" cy="464.62" rx="5.8" ry="4.93" transform="translate(-88.78 664.91) rotate(-37.13)"/><path class="cls-26" d="M948.83,461.21s4.15,6-4,7.78C944.8,469,950.29,466.88,948.83,461.21Z"/><ellipse class="cls-24" cx="962.17" cy="403.95" rx="6.26" ry="5.31" transform="translate(-48.77 662.68) rotate(-37.13)"/><ellipse class="cls-25" cx="962.76" cy="403.3" rx="5.8" ry="4.93" transform="matrix(0.8, -0.6, 0.6, 0.8, -48.26, 662.91)"/><path class="cls-26" d="M966.1,399.88s4.16,6-4,7.78C962.07,407.66,967.57,405.55,966.1,399.88Z"/><ellipse class="cls-24" cx="973.23" cy="450.03" rx="6.26" ry="5.31" transform="translate(-74.35 678.7) rotate(-37.13)"/><ellipse class="cls-25" cx="973.82" cy="449.39" rx="5.8" ry="4.93" transform="translate(-73.84 678.93) rotate(-37.13)"/><path class="cls-26" d="M977.2,446s4.15,6-4,7.78C973.13,453.75,978.62,451.63,977.2,446Z"/><ellipse class="cls-24" cx="974.08" cy="446.1" rx="3.43" ry="2.92" transform="translate(-71.8 678.42) rotate(-37.13)"/><ellipse class="cls-25" cx="971.06" cy="455.67" rx="3.18" ry="2.71" transform="translate(-79.19 673.77) rotate(-36.87)"/><path class="cls-26" d="M976.22,443.91s2.27,3.27-2.21,4.26A3.59,3.59,0,0,0,976.22,443.91Z"/><ellipse class="cls-24" cx="971.03" cy="401.86" rx="3.43" ry="2.92" transform="translate(-45.71 667.61) rotate(-37.13)"/><ellipse class="cls-25" cx="971.36" cy="401.5" rx="3.18" ry="2.71" transform="translate(-45.43 667.74) rotate(-37.13)"/><path class="cls-26" d="M973.18,399.66s2.28,3.28-2.21,4.27A3.6,3.6,0,0,0,973.18,399.66Z"/><ellipse class="cls-24" cx="134.44" cy="427.3" rx="3.43" ry="2.92" transform="translate(-230.67 167.78) rotate(-37.13)"/><ellipse class="cls-25" cx="134.76" cy="426.94" rx="3.18" ry="2.71" transform="translate(-230.39 167.9) rotate(-37.13)"/><path class="cls-26" d="M136.57,425.11s2.28,3.26-2.2,4.26A3.6,3.6,0,0,0,136.57,425.11Z"/><ellipse class="cls-24" cx="970.87" cy="407.46" rx="4.84" ry="3.61" transform="translate(-42.77 122.59) rotate(-7.07)"/><ellipse class="cls-25" cx="971.34" cy="407.07" rx="4.49" ry="3.35" transform="translate(-42.72 122.65) rotate(-7.07)"/><path class="cls-26" d="M974,404.85s3.58,4-3.06,4.9C971,409.77,975.45,408.57,974,404.85Z"/><ellipse class="cls-24" cx="963.64" cy="467.96" rx="8.13" ry="6.36" transform="translate(-71.2 191.02) rotate(-10.92)"/><ellipse class="cls-25" cx="964.42" cy="467.24" rx="7.55" ry="5.9" transform="translate(-71.05 191.16) rotate(-10.92)"/><path class="cls-26" d="M968.92,463.36s5.92,7-5.19,8.7C963.73,472.06,971.16,469.87,968.92,463.36Z"/><ellipse class="cls-24" cx="957.95" cy="471.86" rx="5.87" ry="3.92" transform="translate(235.78 1258.49) rotate(-73.67)"/><ellipse class="cls-25" cx="958.16" cy="472.53" rx="5.45" ry="3.64" transform="translate(235.29 1259.18) rotate(-73.67)"/><path class="cls-26" d="M959.32,476.26s-5.57,2.84-3.82-5.08C955.5,471.18,954.94,476.64,959.32,476.26Z"/><ellipse class="cls-24" cx="938.89" cy="467.46" rx="3.98" ry="3.38" transform="translate(-91.83 661.51) rotate(-37.13)"/><ellipse class="cls-25" cx="938.3" cy="466.99" rx="3.69" ry="3.13" transform="translate(-91.67 661.06) rotate(-37.13)"/><path class="cls-26" d="M941.39,464.9s2.62,3.8-2.57,5A4.2,4.2,0,0,0,941.39,464.9Z"/><ellipse class="cls-24" cx="140.93" cy="400.35" rx="7.81" ry="6.58" transform="translate(-67.7 30.74) rotate(-10.05)"/><path class="cls-26" d="M134.67,403.66s-3-8.52,7.57-7.47C142.24,396.19,134.82,396.53,134.67,403.66Z"/><ellipse class="cls-24" cx="133.2" cy="396.41" rx="4.97" ry="4.19" transform="translate(-67.13 29.33) rotate(-10.05)"/><ellipse class="cls-25" cx="132.61" cy="396.74" rx="4.61" ry="3.89" transform="translate(-67.2 29.23) rotate(-10.05)"/><ellipse class="cls-25" cx="136.19" cy="403.84" rx="7.24" ry="6.11" transform="translate(-68.38 29.96) rotate(-10.05)"/><path class="cls-26" d="M130.87,406.62s-3-8.53,7.57-7.48C138.44,399.14,131,399.48,130.87,406.62Z"/><ellipse class="cls-24" cx="982.65" cy="423.88" rx="6.3" ry="9.62" transform="translate(-84.48 504.61) rotate(-27.66)"/><ellipse class="cls-25" cx="983.66" cy="424.39" rx="5.85" ry="8.92" transform="matrix(0.89, -0.46, 0.46, 0.89, -84.6, 505.14)"/><path class="cls-26" d="M989.17,427.5s-3.11,9.68-10.12-1.58C979.05,425.92,984.63,433,989.17,427.5Z"/><ellipse class="cls-24" cx="985.78" cy="434.61" rx="4.02" ry="6.13" transform="translate(-89.1 507.29) rotate(-27.66)"/><ellipse class="cls-25" cx="986.42" cy="434.94" rx="3.72" ry="5.68" transform="translate(-89.18 507.63) rotate(-27.66)"/><path class="cls-26" d="M989.91,436.93s-2,6.13-6.44-1C983.47,435.92,987,440.41,989.91,436.93Z"/><ellipse class="cls-25" cx="988.24" cy="425.82" rx="5.85" ry="8.92" transform="translate(-84.74 507.43) rotate(-27.66)"/><path class="cls-26" d="M993.74,428.92s-3.11,9.68-10.11-1.59C983.63,427.33,989.21,434.39,993.74,428.92Z"/><path class="cls-27" d="M962.23,430.15s1.67-5,5.64-7.18,21.52-14,21.52-14S963.48,437.94,962.23,430.15Z"/><path class="cls-28" d="M963.27,429.37s1.23-3.65,4.16-5.26,15.89-10.24,15.89-10.24S964.2,435,963.27,429.37Z"/><path class="cls-29" d="M964.65,428.49a7,7,0,0,1,2.77-3.5c1.94-1.07,10.56-6.79,10.56-6.79S965.27,432.24,964.65,428.49Z"/><path class="cls-27" d="M964.63,436.52s5-4.84,11.08-5.13,34.43-4,34.43-4S961.6,446.22,964.63,436.52Z"/><path class="cls-28" d="M966.38,436.16s3.64-3.5,8.15-3.73,25.32-2.86,25.32-2.86S964.18,443.25,966.38,436.16Z"/><path class="cls-29" d="M968.58,435.91a9.54,9.54,0,0,1,5.42-2.47c3-.14,16.84-1.91,16.84-1.91S967.12,440.63,968.58,435.91Z"/><path class="cls-27" d="M966.61,444.75s5.25-.11,8.55,2.77,19.9,14.88,19.9,14.88S959.64,448.42,966.61,444.75Z"/><path class="cls-28" d="M967.71,445.44s3.83-.08,6.26,2.05,14.58,11,14.58,11S962.61,448.12,967.71,445.44Z"/><path class="cls-29" d="M969,446.39a7,7,0,0,1,4.16,1.37c1.61,1.41,9.69,7.32,9.69,7.32S965.59,448.18,969,446.39Z"/><path class="cls-27" d="M960.19,452s5.64,3.17,7.39,8.5,11.94,29.36,11.94,29.36S950.51,451.72,960.19,452Z"/><path class="cls-28" d="M960.94,453.42s4.12,2.33,5.39,6.26S975,481.3,975,481.3,953.86,453.25,960.94,453.42Z"/><path class="cls-29" d="M961.69,455.31a8.51,8.51,0,0,1,3.58,4.16c.88,2.63,5.79,14.38,5.79,14.38S957,455.2,961.69,455.31Z"/><path class="cls-27" d="M951.81,450.3s2.71,4.5,1.81,8.95-3.31,25.45-3.31,25.45S945,446.2,951.81,450.3Z"/><path class="cls-28" d="M951.71,451.63s2,3.3,1.31,6.56-2.51,18.71-2.51,18.71S946.79,448.62,951.71,451.63Z"/><path class="cls-29" d="M951.5,453.25a7,7,0,0,1,.87,4.37c-.45,2.17-1.67,12.44-1.67,12.44S948.21,451.25,951.5,453.25Z"/><path class="cls-27" d="M945.37,448s.46,6.9-3.28,11.76-19.26,28.82-19.26,28.82S939.94,439.41,945.37,448Z"/><path class="cls-28" d="M944.51,449.57s.32,5.05-2.44,8.61-14.24,21.14-14.24,21.14S940.54,443.29,944.51,449.57Z"/><path class="cls-29" d="M943.27,451.41a9.53,9.53,0,0,1-1.63,5.72c-1.84,2.37-9.47,14.06-9.47,14.06S940.62,447.23,943.27,451.41Z"/><path class="cls-27" d="M949.92,443.32s-3.31,4.06-7.65,4.72S918,453.53,918,453.53,951.68,435.63,949.92,443.32Z"/><path class="cls-28" d="M948.7,443.71s-2.43,3-5.62,3.44-17.84,4-17.84,4S949.92,438.09,948.7,443.71Z"/><path class="cls-29" d="M151.15,425.06a7,7,0,0,1-3.74,2.28c-2.12.32-11.87,2.63-11.87,2.63S152,421.32,151.15,425.06Z"/><path class="cls-27" d="M948.6,433.77s-6.06,2.24-11.25.11-30.1-9.94-30.1-9.94S955.07,426.54,948.6,433.77Z"/><path class="cls-28" d="M947,433.38s-4.44,1.63-8.25.05-22.1-7.4-22.1-7.4S951.73,428.1,947,433.38Z"/><path class="cls-29" d="M149.08,413.74a8.57,8.57,0,0,1-5.48,0c-2.54-1.05-14.7-4.92-14.7-4.92S152.22,410.22,149.08,413.74Z"/><path class="cls-27" d="M944.89,428.41s-5.88-1.08-9.15-5.38-20-23-20-23S953.24,425.5,944.89,428.41Z"/><path class="cls-28" d="M943.76,427.33a12.1,12.1,0,0,1-6.69-4c-2.39-3.18-14.66-17-14.66-17S949.86,425.19,943.76,427.33Z"/><path class="cls-29" d="M942.49,425.86a8,8,0,0,1-4.46-2.62c-1.59-2.12-9.74-11.29-9.74-11.29S946.56,424.42,942.49,425.86Z"/><path class="cls-27" d="M949.19,422.44s-3.42-4.8-2.93-9.82.82-28.58.82-28.58S956.88,426.45,949.19,422.44Z"/><path class="cls-28" d="M949.08,421s-2.49-3.5-2.11-7.21.68-21,.68-21S954.72,423.88,949.08,421Z"/><path class="cls-29" d="M949.19,419.13a8,8,0,0,1-1.41-4.8c.25-2.45.46-14,.46-14S952.9,421.07,949.19,419.13Z"/><path class="cls-27" d="M958,423.5s-.59-5.79,2.3-9.87S975,389.42,975,389.42,962.66,430.7,958,423.5Z"/><path class="cls-28" d="M958.64,422.19s-.41-4.24,1.75-7.24,10.9-17.76,10.9-17.76S962.06,427.44,958.64,422.19Z"/><path class="cls-29" d="M959.59,420.61a8,8,0,0,1,1.15-4.8c1.42-2,7.25-11.81,7.25-11.81S961.87,424.11,959.59,420.61Z"/><polygon class="cls-25" points="954.54 436.81 958.93 432.48 954.19 434.8 955.14 430.08 952.4 432.77 950.88 428.9 949.69 434.49 946.56 433.67 948.06 436.88 943.24 437.47 947.41 438.63 942.88 441.16 947.12 440.37 943.2 444.93 949.14 441.24 948.76 446.06 951.15 441.02 953.72 446.4 953.73 441.37 957.94 441.75 954.88 439.09 959.22 437.44 954.54 436.81"/><polygon class="cls-29" points="952.72 435.96 954.66 431.64 951.91 434.61 951.28 430.98 950.06 433.65 947.91 431.3 948.6 435.63 946.13 435.91 948.09 437.8 944.81 439.55 948.11 439.22 945.56 442.29 948.38 440.54 946.83 444.9 950.07 440.61 951.13 444.17 951.45 439.9 954.77 443.05 953.39 439.44 956.51 438.56 953.59 437.49 956.23 435.12 952.72 435.96"/><polygon class="cls-10" points="951.76 436.14 952.86 433.68 951.29 435.37 950.94 433.3 950.24 434.83 949.01 433.48 949.4 435.95 948 436.11 949.12 437.19 947.24 438.19 949.12 438 947.68 439.75 949.28 438.76 948.4 441.24 950.24 438.79 950.85 440.82 951.03 438.39 952.93 440.19 952.13 438.13 953.92 437.62 952.25 437.02 953.76 435.66 951.76 436.14"/><path class="cls-3" d="M946.27,691.59a4.36,4.36,0,0,0-3.19,1.59c-9.32-3.75-31.91,8.13-31.91,8.13L944.72,700a4.37,4.37,0,1,0,1.55-8.39Z"/><path class="cls-3" d="M971.8,630.33a7.66,7.66,0,1,0-12.5,3.5l-25.67,63.73,4,1.64,5-12.38c16.07-25.52,23.35-38.93,21.3-44,.74-4.06.46-6.06,0-7.05A7.68,7.68,0,0,0,971.8,630.33Z"/><path class="cls-12" d="M1066,688.6a4.42,4.42,0,0,0-3.21,1.54c-9.27-3.88-32,7.68-32,7.68l33.56-.88a4.38,4.38,0,1,0,1.67-8.36Z"/><path class="cls-12" d="M1006.17,644.15a7.66,7.66,0,1,0,1,12.93l57.4,37.75,2.41-3.65-11.15-7.33c-21.89-20.78-33.56-30.58-38.9-29.56-3.83-1.52-5.84-1.64-6.91-1.41A7.65,7.65,0,0,0,1006.17,644.15Z"/><text class="cls-30" transform="translate(1249.23 449.14)">T<tspan class="cls-31" x="100.69" y="0">H</tspan><tspan x="184.41" y="0">E </tspan><tspan x="-78.35" y="157.57">F</tspan><tspan class="cls-32" x="19.44" y="157.57">R</tspan><tspan x="118.97" y="157.57">OG</tspan></text><g id="Layer_7-6" data-name="Layer 7-6"><path class="cls-3" d="M1513,974.08a4.21,4.21,0,0,0-1.94.44,4.39,4.39,0,1,0,3.85,7.88l33.58-.16s-23.09-10.86-32.24-6.7a4.38,4.38,0,0,0-3.25-1.45Z"/><path class="cls-3" d="M1514.05,876c5.59,4.22,11.63,9.21,17.33,14.12,9,10.37,19.39,22.49,22.6,27.21l2.41,5.52,5.62-2.46-39-89.22a11.42,11.42,0,0,0,2.68-8.87c-.67-6-5.55-10.36-10.92-9.79s-9.17,5.95-8.5,11.95c0,.36.1.72.17,1.07C1505.22,830.59,1498.08,863.93,1514.05,876Z"/><path class="cls-3" d="M1550.37,923.36c-1.06.15-2.93.93-6,3.66-5.35.84-13.07,14-26.62,41l-8,10.66,3.5,2.62,41.28-54.92a7.62,7.62,0,1,0-4.15-3Z"/><path class="cls-3" d="M1486.84,725.89l.05.17a7,7,0,1,0,13.36-4.21c3.85-3.86,8.22-14.22,8.45-41.36l2.47-8.62-5.06-1.45-13.3,46.48a7,7,0,0,0-6.27,7.05A6.39,6.39,0,0,0,1486.84,725.89Z"/><path class="cls-3" d="M1512.37,680.88a6.13,6.13,0,1,0-9.48,2.62c-3.33,8.37-.58,29.7,1.17,41.21l.15,7c-2.94,1.35-5.25,5.73-5.56,11-.39,6.51,2.42,12,6.28,12.21s7.3-4.87,7.7-11.38c.37-6.15-2.16-11.38-5.66-12.12.21-12.47.41-37-1.15-46.25v-.37a6.12,6.12,0,0,0,6.55-3.86Z"/><path class="cls-4" d="M1482.91,621.53c-19.26-7-17.51-13.13-24.51-8.75s-3.5,7-9.63,11.38c-14,2.63-10.51,4.38-8.76,8.75s5.26,4.38-2.62,17.51,7,15.76,29.76-1.75,58.65-4.38,68.28-7-1.75-11.38-1.75-11.38C1528.43,625,1502.17,628.54,1482.91,621.53Z"/><path class="cls-5" d="M1477.91,619.59c2,2.41-36.19,23-36.19,22.1s-2.58-5.23,0-5.49S1474.61,618,1474.61,618,1475.87,617.18,1477.91,619.59Z"/><path class="cls-6" d="M1480.72,847c-61.34-9.05-41.14-93.66-40.27-106.79s-8.75-25.39-11.38-39.39,0-10.51,6.13-31.52,39.39-22.76,40.27-29.76-2.63-29.76,20.13-34.14,35,44.64,37.64,50.77,41.15,28,50.77,56.9,15.76,59.62-1.75,83.16C1551.63,837.32,1534.12,854.83,1480.72,847Z"/><ellipse cx="1557.14" cy="685.26" rx="3.02" ry="5.25" transform="translate(-63.6 1202.41) rotate(-41.45)"/><path class="cls-7" d="M1565.63,701.63c4.38,1.75,10.51,1.75,14.49,2.57,2.23,4.3,5.65,3.59,12.64,45.06s-34.13,75.8-43.52,84.37-5.49-16.45-6.37-27.83-11.38-42-22.76-58.65c-5.12-27.78-2.27-24.28,9.11-27.78s12.48-8.54,21.23-15.32C1553.62,702.85,1558.38,700,1565.63,701.63Z"/><path class="cls-8" d="M1574.83,723.35s-6.36-.4-14.48,7.62-22.45,24.57-26.56,13.8,16-29.44,22.68-31.78,22.53-7.57,24.8-5.37,2.74,10.6,1.76,13.28S1579.67,724.94,1574.83,723.35Z"/><path class="cls-9" d="M1544.12,739c1.34-1.4,11.38-20.58,38.52-25.23"/><path class="cls-10" d="M1492.68,628.63c-1.06,9.53,5.29,18,10,20.63a8,8,0,0,0,8,0c3.54-2.08,4.07-6.72,4.21-8a15.38,15.38,0,0,0-1.59-7.93,25.58,25.58,0,0,0-6.31-9C1504.35,621.18,1493.74,619.11,1492.68,628.63Z"/><path d="M1500,640.57q1.83-2.05,3.69-4.1l3.71,4c1.14,1.25,3-.61,1.85-1.85l-3.81-4.17,3.5-3.87c1.13-1.25-.73-3.12-1.86-1.86l-3.38,3.79-3.42-3.73c-1.14-1.25-3,.61-1.85,1.85l3.5,3.85-3.76,4.19C1497,640,1498.85,641.83,1500,640.57Z"/><path class="cls-12" d="M1452.57,670.6c-6.73,0-6.72,10.42,0,10.42S1459.29,670.6,1452.57,670.6Z"/><path class="cls-12" d="M1442.64,681.1c-6.71,0-6.7,10.42,0,10.42S1449.36,681.1,1442.64,681.1Z"/><path class="cls-12" d="M1455.48,685.18c-6.72,0-6.7,10.43,0,10.43S1462.21,685.18,1455.48,685.18Z"/><path class="cls-12" d="M1448.48,792.57c-6.72,0-6.71,10.42,0,10.42S1455.2,792.57,1448.48,792.57Z"/><path class="cls-12" d="M1464.24,802.48c-6.73,0-6.71,10.43,0,10.43S1471,802.48,1464.24,802.48Z"/><path class="cls-12" d="M1449.64,806.57c-6.71,0-6.7,10.43,0,10.43S1456.36,806.57,1449.64,806.57Z"/><path class="cls-12" d="M1494.12,973.76a4.49,4.49,0,0,0-1.91.4,4.38,4.38,0,0,0,3.66,8l33.57.63s-22.83-11.4-32.07-7.46a4.39,4.39,0,0,0-3.22-1.52Z"/><path class="cls-12" d="M1505.64,876.91c5.18,4.72,10.69,10.25,15.94,15.67,8,11.16,17.23,24.19,20,29.19l1.88,5.72,5.82-1.93-30.55-92.46a11.49,11.49,0,0,0,3.5-8.58c-.11-6-4.58-10.86-10-10.76s-9.68,5.07-9.57,11.11c0,.37.06.72.06,1.07C1501.05,831,1490.87,863.48,1505.64,876.91Z"/><path class="cls-12" d="M1538.07,928.29c-1.08,0-3,.6-6.4,3-5.43.24-14.57,12.45-31.06,37.7l-9.18,9.7,3.19,3,47.2-49.9a7.67,7.67,0,1,0-3.75-3.46Z"/><path class="cls-12" d="M1499.65,721.9a2,2,0,0,1,0-.35,7,7,0,1,0-13.4,3.73c-3.44,4.23-6.79,15-4.37,42l-1.65,8.78,5.16.94,8.76-47.54a7,7,0,0,0,5.59-7.63Z"/><path class="cls-12" d="M1489.88,781.39a6.13,6.13,0,1,0-9.85.36c-5.18,7.37-7.42,28.75-8.39,40.35l-1.47,6.83c-3.14.62-6.41,4.32-7.93,9.38-1.89,6.24-.45,12.22,3.29,13.33s8.23-3,10.11-9.28c1.8-5.94.57-11.59-2.69-13.13,3.09-12.08,9-36,9.56-45.26l.07-.38a6.13,6.13,0,0,0,7.28-2.22Z"/></g><ellipse class="cls-33" cx="1508.18" cy="670.54" rx="8.54" ry="7.59"/><ellipse class="cls-34" cx="1508.18" cy="671.94" rx="7.42" ry="6.18"/><path class="cls-35" d="M1504.48,676.59c1.53.76,4.86.1,6-1s5.11-1.31,5.11-1.31a3.14,3.14,0,0,1,1.75,2.46c0,1.59.21.49,1,1.75a10.42,10.42,0,0,1,1.58,2.84c-.59,2.35-2.73,2.14-2.9.39s-1.09-2.8-2.68-2,0,1.15,0,2.52-1.36.37-2.18-.34-1.05-2.12-1.7-2.24-1.58.28-1.64,1.59.82,3.93.71,5.3.11.76.26,1.54-.22,1.09-2.23.37,1-2,1-3-1.21-1.32-1.75-1.7.54-2.95,0-3.61-2.07.61-2.35,1.48.38,2,.45,3.11-1.53,2.2-1.53,2.2-.67.55-.54,2.35-1.28,1.26-1.39.66.79-2.14,1.39-3.5a8.9,8.9,0,0,0,.47-1.21c.38-1.31-1-2.95-2.52-6.18s1-3.6,1-3.6C1501.92,675.14,1503,675.83,1504.48,676.59Z"/><path class="cls-10" d="M1518.12,682.43a.68.68,0,0,1-.5-.79S1518.75,682.57,1518.12,682.43Z"/><path class="cls-10" d="M1513.81,682.62c-.53.2-1.94-1.38-1.94-1.38S1514.34,682.42,1513.81,682.62Z"/><path class="cls-36" d="M1501.71,676.32c-.52-.28-1.18.83-1.18.83-.11-.34.5-.78.57-1a2.39,2.39,0,0,1,2.34.31,6.27,6.27,0,0,0,2.63.78C1505.34,677.59,1502.24,676.61,1501.71,676.32Z"/><path class="cls-36" d="M1515.56,674.78c1.16.06,1.24,1.86,1.24,1.86S1514.4,674.71,1515.56,674.78Z"/><path class="cls-36" d="M1508.18,684.17c-.3,0-.94-1.17-.94-1.17S1508.48,684.13,1508.18,684.17Z"/><path class="cls-36" d="M1508.18,687.45c.48-.29.77.59.48.81s-.93-.52-.93-.52"/><path class="cls-36" d="M1504.5,685.41c.51-.47,0-1.28,0-1.28S1504,685.88,1504.5,685.41Z"/><path class="cls-36" d="M1501.73,689.57c-.18.22.08.73.55.73s.18-.73.18-.73S1501.9,689.35,1501.73,689.57Z"/><ellipse class="cls-33" cx="1464.23" cy="714.64" rx="8.54" ry="7.59"/><ellipse class="cls-34" cx="1464.23" cy="716.05" rx="7.42" ry="6.18"/><path class="cls-35" d="M1460.5,720.69c1.53.76,4.87.1,6-1s5.1-1.3,5.1-1.3a3.17,3.17,0,0,1,1.76,2.46c0,1.58.21.49,1,1.75a10.25,10.25,0,0,1,1.59,2.83c-.6,2.35-2.73,2.14-2.9.39s-1.1-2.79-2.68-2-.06,1.15,0,2.52-1.37.38-2.19-.33-1-2.13-1.69-2.24a1.29,1.29,0,0,0-.34,0,1.45,1.45,0,0,0-1.3,1.59c0,1.31.81,4,.71,5.31s.1.77.26,1.54-.2,1.09-2.22.37,1-2,1-3-1.2-1.31-1.75-1.7.55-3,0-3.61-2.09.6-2.36,1.48.39,2,.46,3.1-1.54,2.2-1.54,2.2-.66.55-.54,2.36-1.28,1.26-1.39.65c-.08-.44.8-2.13,1.4-3.5.19-.46.37-.88.47-1.2.38-1.31-1-3-2.53-6.19s1-3.59,1-3.59C1458,719.24,1459,719.93,1460.5,720.69Z"/><path class="cls-10" d="M1474.17,726.53a.68.68,0,0,1-.51-.79S1474.78,726.67,1474.17,726.53Z"/><path class="cls-10" d="M1469.85,726.73c-.53.2-1.95-1.39-1.95-1.39S1470.37,726.53,1469.85,726.73Z"/><path class="cls-36" d="M1457.76,720.44c-.54-.3-1.19.82-1.19.82-.11-.35.5-.79.57-1a2.41,2.41,0,0,1,2.35.31,6.24,6.24,0,0,0,2.63.79C1461.38,721.7,1458.29,720.73,1457.76,720.44Z"/><path class="cls-36" d="M1471.65,718.89c1.17.05,1.24,1.86,1.24,1.86S1470.49,718.83,1471.65,718.89Z"/><path class="cls-36" d="M1464.23,728.28c-.3,0-1-1.17-1-1.17S1464.53,728.24,1464.23,728.28Z"/><path class="cls-36" d="M1464.23,731.56c.48-.3.78.58.48.8s-.93-.51-.93-.51"/><path class="cls-36" d="M1460.55,729.55c.51-.47,0-1.27,0-1.27S1460,730,1460.55,729.55Z"/><path class="cls-36" d="M1457.78,733.67c-.19.22.06.74.54.74s.18-.74.18-.74S1458,733.45,1457.78,733.67Z"/><ellipse class="cls-33" cx="1509.13" cy="756.79" rx="8.54" ry="7.59"/><ellipse class="cls-34" cx="1509.13" cy="758.2" rx="7.42" ry="6.18"/><path class="cls-35" d="M1505.41,762.84c1.53.76,4.87.1,6-1s5.1-1.31,5.1-1.31a3.14,3.14,0,0,1,1.75,2.46c0,1.59.22.5,1,1.75a10.48,10.48,0,0,1,1.6,2.84c-.61,2.35-2.75,2.14-2.91.39s-1.09-2.8-2.68-2,0,1.15,0,2.52-1.36.38-2.19-.33-1-2.13-1.7-2.25-1.58.28-1.63,1.59.81,3.93.71,5.3.11.77.26,1.54-.2,1.09-2.22.37,1-2,1-3-1.2-1.3-1.75-1.69.55-3,0-3.61-2.09.6-2.36,1.47.39,2,.46,3.11-1.54,2.2-1.54,2.2-.68.55-.55,2.35-1.27,1.26-1.38.66.79-2.14,1.39-3.5a10.44,10.44,0,0,0,.47-1.21c.38-1.31-1-2.95-2.53-6.18s1-3.59,1-3.59C1502.88,761.39,1503.87,762.08,1505.41,762.84Z"/><path class="cls-10" d="M1519.07,768.68a.7.7,0,0,1-.52-.79S1519.68,768.82,1519.07,768.68Z"/><path class="cls-10" d="M1514.75,768.87c-.54.2-2-1.38-2-1.38S1515.28,768.67,1514.75,768.87Z"/><path class="cls-36" d="M1502.65,762.58c-.54-.29-1.19.82-1.19.82-.11-.34.5-.78.57-1a2.41,2.41,0,0,1,2.35.31,6.06,6.06,0,0,0,2.63.79C1506.3,763.84,1503.18,762.88,1502.65,762.58Z"/><path class="cls-36" d="M1516.55,761.05c1.16.06,1.24,1.87,1.24,1.87S1515.38,761,1516.55,761.05Z"/><path class="cls-36" d="M1509.13,770.42c-.3,0-1-1.16-1-1.16S1509.42,770.38,1509.13,770.42Z"/><path class="cls-36" d="M1509.13,773.7c.47-.29.76.59.47.81s-.93-.51-.93-.51"/><path class="cls-36" d="M1505.42,771.7c.52-.48,0-1.28,0-1.28S1504.91,772.17,1505.42,771.7Z"/><path class="cls-36" d="M1502.67,775.82c-.18.22.07.73.55.73s.18-.73.18-.73S1502.86,775.6,1502.67,775.82Z"/><ellipse class="cls-33" cx="1570.91" cy="748.61" rx="8.54" ry="7.59"/><ellipse class="cls-34" cx="1570.91" cy="750.02" rx="7.42" ry="6.18"/><path class="cls-35" d="M1567.2,754.66c1.53.76,4.87.11,6-1s5.11-1.31,5.11-1.31a3.19,3.19,0,0,1,1.75,2.47c0,1.58.22.49,1,1.75a10.54,10.54,0,0,1,1.58,2.84c-.6,2.34-2.73,2.13-2.9.38s-1.09-2.79-2.68-2,0,1.16,0,2.52-1.36.38-2.18-.33-1.05-2.14-1.7-2.24a1.45,1.45,0,0,0-1.65,1.58c0,1.32.83,3.95.72,5.32s.1.77.25,1.53-.2,1.08-2.22.37,1-2,1-3-1.21-1.31-1.75-1.7.54-3,0-3.61-2.08.6-2.36,1.48.39,2,.46,3.11-1.54,2.19-1.54,2.19-.66.56-.53,2.36-1.28,1.26-1.39.66.79-2.14,1.39-3.51a10.29,10.29,0,0,0,.47-1.2c.38-1.31-1-3-2.52-6.18s1-3.59,1-3.59C1564.66,753.22,1565.67,753.9,1567.2,754.66Z"/><path class="cls-10" d="M1580.85,760.5a.67.67,0,0,1-.5-.79S1581.48,760.64,1580.85,760.5Z"/><path class="cls-10" d="M1576.52,760.69c-.52.21-1.94-1.38-1.94-1.38S1577.05,760.49,1576.52,760.69Z"/><path class="cls-36" d="M1564.44,754.41c-.52-.3-1.18.81-1.18.81-.11-.34.49-.78.56-1a2.42,2.42,0,0,1,2.35.3,6.14,6.14,0,0,0,2.63.79C1568.07,755.66,1565,754.71,1564.44,754.41Z"/><path class="cls-36" d="M1578.33,752.86c1.17,0,1.25,1.86,1.25,1.86S1577.17,752.81,1578.33,752.86Z"/><path class="cls-36" d="M1570.91,762.24c-.3,0-1-1.16-1-1.16S1571.21,762.2,1570.91,762.24Z"/><path class="cls-36" d="M1570.91,765.53c.48-.29.78.58.48.8s-.93-.51-.93-.51"/><path class="cls-36" d="M1567.23,763.52c.51-.47,0-1.27,0-1.27S1566.73,764,1567.23,763.52Z"/><path class="cls-36" d="M1564.46,767.64c-.18.22.06.73.54.73s.19-.73.19-.73S1564.64,767.43,1564.46,767.64Z"/></g></svg>
